M48
; DRILL file {KiCad (5.1.5)-3} date 5/8/2021 12:18:25 AM
; FORMAT={-:-/ absolute / inch / decimal}
; #@! TF.CreationDate,2021-05-08T00:18:25-04:00
; #@! TF.GenerationSoftware,Kicad,Pcbnew,(5.1.5)-3
; #@! TF.FileFunction,Plated,1,2,PTH
FMAT,2
INCH
T1C0.0157
T2C0.0236
T3C0.0276
T4C0.0299
T5C0.0315
T6C0.0315
T7C0.0394
T8C0.0402
%
G90
G05
T1
X4.392Y-3.688
X4.397Y-4.943
X4.7675Y-3.0185
X4.85Y-3.15
X4.866Y-2.954
X4.964Y-4.631
T2
X4.65Y-4.113
X4.7091Y-4.113
T3
X4.867Y-3.318
X4.967Y-3.318
X4.479Y-4.186
X4.479Y-4.286
X4.76Y-5.21
X4.76Y-5.31
X4.63Y-3.32
X4.73Y-3.32
X4.492Y-3.608
X4.592Y-3.608
X4.782Y-3.608
X4.882Y-3.608
X4.5Y-4.764
X4.5Y-4.864
X4.61Y-5.21
X4.61Y-5.31
X4.856Y-4.769
X4.856Y-4.869
T4
X4.89Y-4.21
X4.891Y-3.875
T5
X4.92Y-5.2216
X4.92Y-5.32
X4.5Y-2.54
X4.5Y-3.4219
X4.45Y-5.2216
X4.45Y-5.32
X4.759Y-2.71
X4.8574Y-2.71
X4.678Y-4.6306
X4.678Y-4.729
X4.68Y-4.9156
X4.68Y-5.014
X4.85Y-4.4616
X4.85Y-4.56
X4.678Y-3.766
X4.678Y-3.8644
X4.676Y-4.3566
X4.676Y-4.455
T6
X4.56Y-5.45
X4.685Y-5.45
X4.81Y-5.45
T7
X4.63Y-2.85
X4.63Y-2.95
X4.63Y-3.05
X4.63Y-3.15
X4.93Y-2.85
X4.93Y-2.95
X4.93Y-3.05
X4.93Y-3.15
T8
X4.73Y-2.52
X4.83Y-2.52
T0
M30
