G04 #@! TF.GenerationSoftware,KiCad,Pcbnew,(5.1.5)-3*
G04 #@! TF.CreationDate,2021-05-15T09:32:47-04:00*
G04 #@! TF.ProjectId,opAmp Mic,6f70416d-7020-44d6-9963-2e6b69636164,rev?*
G04 #@! TF.SameCoordinates,Original*
G04 #@! TF.FileFunction,Copper,L1,Top*
G04 #@! TF.FilePolarity,Positive*
%FSLAX46Y46*%
G04 Gerber Fmt 4.6, Leading zero omitted, Abs format (unit mm)*
G04 Created by KiCad (PCBNEW (5.1.5)-3) date 2021-05-15 09:32:47*
%MOMM*%
%LPD*%
G04 APERTURE LIST*
%ADD10O,2.400000X2.400000*%
%ADD11C,2.400000*%
%ADD12R,0.700000X1.600000*%
%ADD13R,2.000000X2.000000*%
%ADD14C,2.000000*%
%ADD15C,1.600000*%
%ADD16C,0.100000*%
%ADD17R,1.998980X3.000000*%
%ADD18C,2.020000*%
%ADD19O,1.400000X1.400000*%
%ADD20C,1.400000*%
%ADD21R,1.600000X1.600000*%
%ADD22R,1.200000X1.200000*%
%ADD23C,1.200000*%
%ADD24C,0.800000*%
%ADD25C,0.250000*%
%ADD26C,0.254000*%
G04 APERTURE END LIST*
D10*
X114300000Y-86916000D03*
D11*
X114300000Y-64516000D03*
D12*
X119507000Y-73481000D03*
X120777000Y-73481000D03*
X122047000Y-73481000D03*
X123317000Y-73481000D03*
X119507000Y-78411000D03*
X123317000Y-78411000D03*
X120777000Y-78411000D03*
X122047000Y-78411000D03*
D13*
X124206000Y-106934000D03*
D14*
X124231400Y-98425000D03*
D15*
X123378600Y-68834000D03*
X120878600Y-68834000D03*
X123545600Y-116001800D03*
X123545600Y-113501800D03*
X113817400Y-130505200D03*
X113817400Y-128005200D03*
X124434600Y-127979800D03*
X124434600Y-130479800D03*
G04 #@! TA.AperFunction,ComponentPad*
D16*
G36*
X122722729Y-136932406D02*
G01*
X122771240Y-136939602D01*
X122818813Y-136951519D01*
X122864989Y-136968041D01*
X122909323Y-136989009D01*
X122951388Y-137014222D01*
X122990780Y-137043437D01*
X123027118Y-137076372D01*
X123060053Y-137112710D01*
X123089268Y-137152102D01*
X123114481Y-137194167D01*
X123135449Y-137238501D01*
X123151971Y-137284677D01*
X123163888Y-137332250D01*
X123171084Y-137380761D01*
X123173490Y-137429745D01*
X123173490Y-139430255D01*
X123171084Y-139479239D01*
X123163888Y-139527750D01*
X123151971Y-139575323D01*
X123135449Y-139621499D01*
X123114481Y-139665833D01*
X123089268Y-139707898D01*
X123060053Y-139747290D01*
X123027118Y-139783628D01*
X122990780Y-139816563D01*
X122951388Y-139845778D01*
X122909323Y-139870991D01*
X122864989Y-139891959D01*
X122818813Y-139908481D01*
X122771240Y-139920398D01*
X122722729Y-139927594D01*
X122673745Y-139930000D01*
X121674255Y-139930000D01*
X121625271Y-139927594D01*
X121576760Y-139920398D01*
X121529187Y-139908481D01*
X121483011Y-139891959D01*
X121438677Y-139870991D01*
X121396612Y-139845778D01*
X121357220Y-139816563D01*
X121320882Y-139783628D01*
X121287947Y-139747290D01*
X121258732Y-139707898D01*
X121233519Y-139665833D01*
X121212551Y-139621499D01*
X121196029Y-139575323D01*
X121184112Y-139527750D01*
X121176916Y-139479239D01*
X121174510Y-139430255D01*
X121174510Y-137429745D01*
X121176916Y-137380761D01*
X121184112Y-137332250D01*
X121196029Y-137284677D01*
X121212551Y-137238501D01*
X121233519Y-137194167D01*
X121258732Y-137152102D01*
X121287947Y-137112710D01*
X121320882Y-137076372D01*
X121357220Y-137043437D01*
X121396612Y-137014222D01*
X121438677Y-136989009D01*
X121483011Y-136968041D01*
X121529187Y-136951519D01*
X121576760Y-136939602D01*
X121625271Y-136932406D01*
X121674255Y-136930000D01*
X122673745Y-136930000D01*
X122722729Y-136932406D01*
G37*
G04 #@! TD.AperFunction*
G04 #@! TA.AperFunction,ComponentPad*
G36*
X119547729Y-136932406D02*
G01*
X119596240Y-136939602D01*
X119643813Y-136951519D01*
X119689989Y-136968041D01*
X119734323Y-136989009D01*
X119776388Y-137014222D01*
X119815780Y-137043437D01*
X119852118Y-137076372D01*
X119885053Y-137112710D01*
X119914268Y-137152102D01*
X119939481Y-137194167D01*
X119960449Y-137238501D01*
X119976971Y-137284677D01*
X119988888Y-137332250D01*
X119996084Y-137380761D01*
X119998490Y-137429745D01*
X119998490Y-139430255D01*
X119996084Y-139479239D01*
X119988888Y-139527750D01*
X119976971Y-139575323D01*
X119960449Y-139621499D01*
X119939481Y-139665833D01*
X119914268Y-139707898D01*
X119885053Y-139747290D01*
X119852118Y-139783628D01*
X119815780Y-139816563D01*
X119776388Y-139845778D01*
X119734323Y-139870991D01*
X119689989Y-139891959D01*
X119643813Y-139908481D01*
X119596240Y-139920398D01*
X119547729Y-139927594D01*
X119498745Y-139930000D01*
X118499255Y-139930000D01*
X118450271Y-139927594D01*
X118401760Y-139920398D01*
X118354187Y-139908481D01*
X118308011Y-139891959D01*
X118263677Y-139870991D01*
X118221612Y-139845778D01*
X118182220Y-139816563D01*
X118145882Y-139783628D01*
X118112947Y-139747290D01*
X118083732Y-139707898D01*
X118058519Y-139665833D01*
X118037551Y-139621499D01*
X118021029Y-139575323D01*
X118009112Y-139527750D01*
X118001916Y-139479239D01*
X117999510Y-139430255D01*
X117999510Y-137429745D01*
X118001916Y-137380761D01*
X118009112Y-137332250D01*
X118021029Y-137284677D01*
X118037551Y-137238501D01*
X118058519Y-137194167D01*
X118083732Y-137152102D01*
X118112947Y-137112710D01*
X118145882Y-137076372D01*
X118182220Y-137043437D01*
X118221612Y-137014222D01*
X118263677Y-136989009D01*
X118308011Y-136968041D01*
X118354187Y-136951519D01*
X118401760Y-136939602D01*
X118450271Y-136932406D01*
X118499255Y-136930000D01*
X119498745Y-136930000D01*
X119547729Y-136932406D01*
G37*
G04 #@! TD.AperFunction*
D17*
X115824000Y-138430000D03*
D18*
X120142000Y-64008000D03*
X122682000Y-64008000D03*
D19*
X120142000Y-84328000D03*
D20*
X117602000Y-84328000D03*
X126161800Y-84277200D03*
D19*
X123621800Y-84277200D03*
X116636800Y-91643200D03*
D20*
X114096800Y-91643200D03*
X121462800Y-91643200D03*
D19*
X124002800Y-91643200D03*
D20*
X113766600Y-108864400D03*
D19*
X113766600Y-106324400D03*
X123342400Y-123672600D03*
D20*
X123342400Y-121132600D03*
X114300000Y-123545600D03*
D19*
X114300000Y-121005600D03*
X120904000Y-132334000D03*
D20*
X120904000Y-134874000D03*
X117094000Y-134874000D03*
D19*
X117094000Y-132334000D03*
D21*
X117602000Y-72390000D03*
D15*
X117602000Y-74930000D03*
X117602000Y-77470000D03*
X117602000Y-80010000D03*
X125222000Y-80010000D03*
X125222000Y-77470000D03*
X125222000Y-74930000D03*
X125222000Y-72390000D03*
D21*
X118821200Y-95656400D03*
D15*
X118821200Y-98156400D03*
X118872000Y-124855600D03*
D21*
X118872000Y-127355600D03*
X118821200Y-120116600D03*
D15*
X118821200Y-117616600D03*
D21*
X118618000Y-113182400D03*
D15*
X118618000Y-110682400D03*
D22*
X118110000Y-104470200D03*
D23*
X119610000Y-104470200D03*
D24*
X123190000Y-80010000D03*
X123596400Y-75031600D03*
X119075200Y-92532200D03*
X112674400Y-125476000D03*
X112471200Y-93726000D03*
X126085600Y-117627400D03*
X121094399Y-76670001D03*
D25*
X120347999Y-71590001D02*
X124422001Y-71590001D01*
X124422001Y-71590001D02*
X125222000Y-72390000D01*
X119507000Y-72431000D02*
X120347999Y-71590001D01*
X119507000Y-73481000D02*
X119507000Y-72431000D01*
X123404000Y-70572000D02*
X125222000Y-72390000D01*
X123404000Y-68580000D02*
X123404000Y-70572000D01*
X114096800Y-92633149D02*
X114147600Y-92683949D01*
X114096800Y-91643200D02*
X114096800Y-92633149D01*
X117260000Y-104470200D02*
X118110000Y-104470200D01*
X114147600Y-101357800D02*
X117260000Y-104470200D01*
X114147600Y-92683949D02*
X114147600Y-101357800D01*
X118110000Y-105320200D02*
X118110000Y-104470200D01*
X117105800Y-106324400D02*
X118110000Y-105320200D01*
X113766600Y-106324400D02*
X117105800Y-106324400D01*
X123317000Y-79461000D02*
X123190000Y-79588000D01*
X123317000Y-78411000D02*
X123317000Y-79461000D01*
X123190000Y-79588000D02*
X123190000Y-80010000D01*
X123317000Y-73481000D02*
X123265000Y-73481000D01*
X123596400Y-75031600D02*
X123444000Y-74930000D01*
X123317000Y-73481000D02*
X123596400Y-75031600D01*
X119126000Y-78792000D02*
X119507000Y-78411000D01*
X119507000Y-78411000D02*
X120777000Y-78411000D01*
X119507000Y-77361000D02*
X119507000Y-78411000D01*
X119507000Y-75703630D02*
X119507000Y-77361000D01*
X118733370Y-74930000D02*
X119507000Y-75703630D01*
X117602000Y-74930000D02*
X118733370Y-74930000D01*
X117602000Y-73440000D02*
X117602000Y-74930000D01*
X117602000Y-72390000D02*
X117602000Y-73440000D01*
X119507000Y-82423000D02*
X117602000Y-84328000D01*
X119507000Y-78411000D02*
X119507000Y-82423000D01*
X118604487Y-85330487D02*
X117602000Y-84328000D01*
X119075200Y-92532200D02*
X118604487Y-85330487D01*
X112471200Y-124079000D02*
X112674400Y-125476000D01*
X112471200Y-93726000D02*
X112471200Y-124079000D01*
X120904000Y-131318000D02*
X123342400Y-123672600D01*
X120904000Y-132334000D02*
X120904000Y-131318000D01*
X120904000Y-131344051D02*
X120904000Y-132334000D01*
X118872000Y-127355600D02*
X120904000Y-131344051D01*
X116992400Y-121894600D02*
X118821200Y-120116600D01*
X117094000Y-132334000D02*
X116992400Y-121894600D01*
X124422001Y-74130001D02*
X125222000Y-74930000D01*
X123992001Y-73700001D02*
X124422001Y-74130001D01*
X123992001Y-72420999D02*
X123992001Y-73700001D01*
X123927001Y-72355999D02*
X123992001Y-72420999D01*
X120852001Y-72355999D02*
X123927001Y-72355999D01*
X120777000Y-72431000D02*
X120852001Y-72355999D01*
X120777000Y-73481000D02*
X120777000Y-72431000D01*
X126746000Y-74930000D02*
X125222000Y-74930000D01*
X126390400Y-85267800D02*
X126161800Y-84277200D01*
X126085600Y-117627400D02*
X126390400Y-85267800D01*
X126161800Y-84277200D02*
X127228600Y-82854800D01*
X127228600Y-82854800D02*
X127254000Y-75438000D01*
X127254000Y-75438000D02*
X126746000Y-74930000D01*
X119233000Y-113157000D02*
X118770400Y-113157000D01*
X124206000Y-108184000D02*
X119233000Y-113157000D01*
X124206000Y-106934000D02*
X124206000Y-108184000D01*
X113766600Y-109203200D02*
X113766600Y-108864400D01*
X117720400Y-113157000D02*
X113766600Y-109203200D01*
X118770400Y-113157000D02*
X117720400Y-113157000D01*
X123190000Y-115824000D02*
X123545600Y-116001800D01*
X118770400Y-113157000D02*
X120523000Y-113157000D01*
X123545600Y-116001800D02*
X123342400Y-121132600D01*
X120523000Y-113157000D02*
X123190000Y-115824000D01*
X118999000Y-136779000D02*
X117094000Y-134874000D01*
X118999000Y-138430000D02*
X118999000Y-136779000D01*
X113817400Y-132587349D02*
X113817400Y-131636570D01*
X116104051Y-134874000D02*
X113817400Y-132587349D01*
X113817400Y-131636570D02*
X113817400Y-130505200D01*
X117094000Y-134874000D02*
X116104051Y-134874000D01*
X120904000Y-137160000D02*
X120904000Y-134874000D01*
X122174000Y-138430000D02*
X120904000Y-137160000D01*
X124434600Y-131343400D02*
X124434600Y-130479800D01*
X120904000Y-134874000D02*
X124434600Y-131343400D01*
X122047000Y-77622602D02*
X122047000Y-78411000D01*
X121094399Y-76670001D02*
X122047000Y-77622602D01*
X114300000Y-74168000D02*
X114300000Y-64516000D01*
X117602000Y-77470000D02*
X114300000Y-74168000D01*
X121672001Y-62998001D02*
X122682000Y-64008000D01*
X121346999Y-62672999D02*
X121672001Y-62998001D01*
X114300000Y-64516000D02*
X116143001Y-62672999D01*
X116143001Y-62672999D02*
X121346999Y-62672999D01*
X124986000Y-77470000D02*
X125222000Y-77470000D01*
X122047000Y-74531000D02*
X124986000Y-77470000D01*
X122047000Y-73481000D02*
X122047000Y-74531000D01*
D26*
G36*
X127283020Y-74387552D02*
G01*
X127170276Y-74295026D01*
X127038247Y-74224454D01*
X126894986Y-74180997D01*
X126783333Y-74170000D01*
X126783322Y-74170000D01*
X126746000Y-74166324D01*
X126708678Y-74170000D01*
X126440043Y-74170000D01*
X126336637Y-74015241D01*
X126136759Y-73815363D01*
X125904241Y-73660000D01*
X126136759Y-73504637D01*
X126336637Y-73304759D01*
X126493680Y-73069727D01*
X126601853Y-72808574D01*
X126657000Y-72531335D01*
X126657000Y-72248665D01*
X126601853Y-71971426D01*
X126493680Y-71710273D01*
X126336637Y-71475241D01*
X126136759Y-71275363D01*
X125901727Y-71118320D01*
X125640574Y-71010147D01*
X125363335Y-70955000D01*
X125080665Y-70955000D01*
X124898114Y-70991312D01*
X124164000Y-70257199D01*
X124164000Y-70035072D01*
X124293359Y-69948637D01*
X124493237Y-69748759D01*
X124650280Y-69513727D01*
X124758453Y-69252574D01*
X124813600Y-68975335D01*
X124813600Y-68692665D01*
X124758453Y-68415426D01*
X124650280Y-68154273D01*
X124493237Y-67919241D01*
X124293359Y-67719363D01*
X124058327Y-67562320D01*
X123797174Y-67454147D01*
X123519935Y-67399000D01*
X123237265Y-67399000D01*
X122960026Y-67454147D01*
X122698873Y-67562320D01*
X122463841Y-67719363D01*
X122263963Y-67919241D01*
X122128600Y-68121827D01*
X121993237Y-67919241D01*
X121793359Y-67719363D01*
X121558327Y-67562320D01*
X121297174Y-67454147D01*
X121019935Y-67399000D01*
X120737265Y-67399000D01*
X120460026Y-67454147D01*
X120198873Y-67562320D01*
X119963841Y-67719363D01*
X119763963Y-67919241D01*
X119606920Y-68154273D01*
X119498747Y-68415426D01*
X119443600Y-68692665D01*
X119443600Y-68975335D01*
X119498747Y-69252574D01*
X119606920Y-69513727D01*
X119763963Y-69748759D01*
X119963841Y-69948637D01*
X120198873Y-70105680D01*
X120460026Y-70213853D01*
X120737265Y-70269000D01*
X121019935Y-70269000D01*
X121297174Y-70213853D01*
X121558327Y-70105680D01*
X121793359Y-69948637D01*
X121993237Y-69748759D01*
X122128600Y-69546173D01*
X122263963Y-69748759D01*
X122463841Y-69948637D01*
X122644001Y-70069016D01*
X122644001Y-70534668D01*
X122640324Y-70572000D01*
X122654998Y-70720985D01*
X122688066Y-70830001D01*
X120385321Y-70830001D01*
X120347998Y-70826325D01*
X120310675Y-70830001D01*
X120310666Y-70830001D01*
X120199013Y-70840998D01*
X120055752Y-70884455D01*
X119923723Y-70955027D01*
X119807998Y-71050000D01*
X119784200Y-71078998D01*
X119040072Y-71823127D01*
X119040072Y-71590000D01*
X119027812Y-71465518D01*
X118991502Y-71345820D01*
X118932537Y-71235506D01*
X118853185Y-71138815D01*
X118756494Y-71059463D01*
X118646180Y-71000498D01*
X118526482Y-70964188D01*
X118402000Y-70951928D01*
X116802000Y-70951928D01*
X116677518Y-70964188D01*
X116557820Y-71000498D01*
X116447506Y-71059463D01*
X116350815Y-71138815D01*
X116271463Y-71235506D01*
X116212498Y-71345820D01*
X116176188Y-71465518D01*
X116163928Y-71590000D01*
X116163928Y-73190000D01*
X116176188Y-73314482D01*
X116212498Y-73434180D01*
X116271463Y-73544494D01*
X116350815Y-73641185D01*
X116447506Y-73720537D01*
X116557820Y-73779502D01*
X116677518Y-73815812D01*
X116685961Y-73816643D01*
X116487363Y-74015241D01*
X116330320Y-74250273D01*
X116222147Y-74511426D01*
X116167000Y-74788665D01*
X116167000Y-74960199D01*
X115060000Y-73853199D01*
X115060000Y-66187388D01*
X115169199Y-66142156D01*
X115469744Y-65941338D01*
X115725338Y-65685744D01*
X115926156Y-65385199D01*
X116023352Y-65150545D01*
X119179061Y-65150545D01*
X119276032Y-65415968D01*
X119567353Y-65557856D01*
X119880757Y-65640185D01*
X120204200Y-65659789D01*
X120525253Y-65615916D01*
X120831578Y-65510251D01*
X121007968Y-65415968D01*
X121104939Y-65150545D01*
X120142000Y-64187605D01*
X119179061Y-65150545D01*
X116023352Y-65150545D01*
X116064482Y-65051250D01*
X116135000Y-64696732D01*
X116135000Y-64335268D01*
X116064482Y-63980750D01*
X116019250Y-63871551D01*
X116457803Y-63432999D01*
X118592316Y-63432999D01*
X118592144Y-63433353D01*
X118509815Y-63746757D01*
X118490211Y-64070200D01*
X118534084Y-64391253D01*
X118639749Y-64697578D01*
X118734032Y-64873968D01*
X118999455Y-64970939D01*
X119962395Y-64008000D01*
X119948252Y-63993858D01*
X120127858Y-63814253D01*
X120142000Y-63828395D01*
X120156143Y-63814253D01*
X120335748Y-63993858D01*
X120321605Y-64008000D01*
X121284545Y-64970939D01*
X121334738Y-64952601D01*
X121404245Y-65056626D01*
X121633374Y-65285755D01*
X121902801Y-65465780D01*
X122202171Y-65589783D01*
X122519982Y-65653000D01*
X122844018Y-65653000D01*
X123161829Y-65589783D01*
X123461199Y-65465780D01*
X123730626Y-65285755D01*
X123959755Y-65056626D01*
X124139780Y-64787199D01*
X124263783Y-64487829D01*
X124327000Y-64170018D01*
X124327000Y-63845982D01*
X124263783Y-63528171D01*
X124139780Y-63228801D01*
X123959755Y-62959374D01*
X123730626Y-62730245D01*
X123461199Y-62550220D01*
X123161829Y-62426217D01*
X122844018Y-62363000D01*
X122519982Y-62363000D01*
X122202171Y-62426217D01*
X122182971Y-62434170D01*
X121910803Y-62162002D01*
X121887000Y-62132998D01*
X121771275Y-62038025D01*
X121639246Y-61967453D01*
X121495985Y-61923996D01*
X121384332Y-61912999D01*
X121384321Y-61912999D01*
X121346999Y-61909323D01*
X121309677Y-61912999D01*
X116180323Y-61912999D01*
X116143000Y-61909323D01*
X116105678Y-61912999D01*
X116105668Y-61912999D01*
X115994015Y-61923996D01*
X115850754Y-61967453D01*
X115718724Y-62038025D01*
X115635084Y-62106667D01*
X115603000Y-62132998D01*
X115579202Y-62161996D01*
X114944449Y-62796750D01*
X114835250Y-62751518D01*
X114480732Y-62681000D01*
X114119268Y-62681000D01*
X113764750Y-62751518D01*
X113430801Y-62889844D01*
X113130256Y-63090662D01*
X112874662Y-63346256D01*
X112673844Y-63646801D01*
X112535518Y-63980750D01*
X112465000Y-64335268D01*
X112465000Y-64696732D01*
X112535518Y-65051250D01*
X112673844Y-65385199D01*
X112874662Y-65685744D01*
X113130256Y-65941338D01*
X113430801Y-66142156D01*
X113540001Y-66187388D01*
X113540000Y-74130678D01*
X113536324Y-74168000D01*
X113540000Y-74205322D01*
X113540000Y-74205332D01*
X113550997Y-74316985D01*
X113591044Y-74449004D01*
X113594454Y-74460246D01*
X113665026Y-74592276D01*
X113700495Y-74635494D01*
X113759999Y-74708001D01*
X113789003Y-74731804D01*
X116203312Y-77146114D01*
X116167000Y-77328665D01*
X116167000Y-77611335D01*
X116222147Y-77888574D01*
X116330320Y-78149727D01*
X116487363Y-78384759D01*
X116687241Y-78584637D01*
X116919759Y-78740000D01*
X116687241Y-78895363D01*
X116487363Y-79095241D01*
X116330320Y-79330273D01*
X116222147Y-79591426D01*
X116167000Y-79868665D01*
X116167000Y-80151335D01*
X116222147Y-80428574D01*
X116330320Y-80689727D01*
X116487363Y-80924759D01*
X116687241Y-81124637D01*
X116922273Y-81281680D01*
X117183426Y-81389853D01*
X117460665Y-81445000D01*
X117743335Y-81445000D01*
X118020574Y-81389853D01*
X118281727Y-81281680D01*
X118516759Y-81124637D01*
X118716637Y-80924759D01*
X118747001Y-80879317D01*
X118747001Y-82108197D01*
X117840844Y-83014355D01*
X117733486Y-82993000D01*
X117470514Y-82993000D01*
X117212595Y-83044304D01*
X116969641Y-83144939D01*
X116750987Y-83291038D01*
X116565038Y-83476987D01*
X116418939Y-83695641D01*
X116318304Y-83938595D01*
X116267000Y-84196514D01*
X116267000Y-84459486D01*
X116318304Y-84717405D01*
X116418939Y-84960359D01*
X116565038Y-85179013D01*
X116750987Y-85364962D01*
X116969641Y-85511061D01*
X117212595Y-85611696D01*
X117470514Y-85663000D01*
X117733486Y-85663000D01*
X117840843Y-85641645D01*
X117864767Y-85665569D01*
X118270527Y-91873527D01*
X118157995Y-92041944D01*
X118079974Y-92230302D01*
X118040200Y-92430261D01*
X118040200Y-92634139D01*
X118079974Y-92834098D01*
X118157995Y-93022456D01*
X118271263Y-93191974D01*
X118415426Y-93336137D01*
X118584944Y-93449405D01*
X118773302Y-93527426D01*
X118973261Y-93567200D01*
X119177139Y-93567200D01*
X119377098Y-93527426D01*
X119565456Y-93449405D01*
X119734974Y-93336137D01*
X119879137Y-93191974D01*
X119992405Y-93022456D01*
X120070426Y-92834098D01*
X120110200Y-92634139D01*
X120110200Y-92564469D01*
X120721136Y-92564469D01*
X120780597Y-92798237D01*
X121019042Y-92909134D01*
X121274540Y-92971383D01*
X121537273Y-92982590D01*
X121797144Y-92942325D01*
X122044166Y-92852135D01*
X122145003Y-92798237D01*
X122204464Y-92564469D01*
X121462800Y-91822805D01*
X120721136Y-92564469D01*
X120110200Y-92564469D01*
X120110200Y-92430261D01*
X120070426Y-92230302D01*
X119992405Y-92041944D01*
X119879137Y-91872426D01*
X119787722Y-91781011D01*
X119783583Y-91717673D01*
X120123410Y-91717673D01*
X120163675Y-91977544D01*
X120253865Y-92224566D01*
X120307763Y-92325403D01*
X120541531Y-92384864D01*
X121283195Y-91643200D01*
X121642405Y-91643200D01*
X122384069Y-92384864D01*
X122617837Y-92325403D01*
X122728734Y-92086958D01*
X122733506Y-92067373D01*
X122819739Y-92275559D01*
X122965838Y-92494213D01*
X123151787Y-92680162D01*
X123370441Y-92826261D01*
X123613395Y-92926896D01*
X123871314Y-92978200D01*
X124134286Y-92978200D01*
X124392205Y-92926896D01*
X124635159Y-92826261D01*
X124853813Y-92680162D01*
X125039762Y-92494213D01*
X125185861Y-92275559D01*
X125286496Y-92032605D01*
X125337800Y-91774686D01*
X125337800Y-91511714D01*
X125286496Y-91253795D01*
X125185861Y-91010841D01*
X125039762Y-90792187D01*
X124853813Y-90606238D01*
X124635159Y-90460139D01*
X124392205Y-90359504D01*
X124134286Y-90308200D01*
X123871314Y-90308200D01*
X123613395Y-90359504D01*
X123370441Y-90460139D01*
X123151787Y-90606238D01*
X122965838Y-90792187D01*
X122819739Y-91010841D01*
X122731179Y-91224644D01*
X122671735Y-91061834D01*
X122617837Y-90960997D01*
X122384069Y-90901536D01*
X121642405Y-91643200D01*
X121283195Y-91643200D01*
X120541531Y-90901536D01*
X120307763Y-90960997D01*
X120196866Y-91199442D01*
X120134617Y-91454940D01*
X120123410Y-91717673D01*
X119783583Y-91717673D01*
X119718501Y-90721931D01*
X120721136Y-90721931D01*
X121462800Y-91463595D01*
X122204464Y-90721931D01*
X122145003Y-90488163D01*
X121906558Y-90377266D01*
X121651060Y-90315017D01*
X121388327Y-90303810D01*
X121128456Y-90344075D01*
X120881434Y-90434265D01*
X120780597Y-90488163D01*
X120721136Y-90721931D01*
X119718501Y-90721931D01*
X119371895Y-85419022D01*
X119509641Y-85511061D01*
X119752595Y-85611696D01*
X120010514Y-85663000D01*
X120273486Y-85663000D01*
X120531405Y-85611696D01*
X120774359Y-85511061D01*
X120993013Y-85364962D01*
X121178962Y-85179013D01*
X121325061Y-84960359D01*
X121425696Y-84717405D01*
X121477000Y-84459486D01*
X121477000Y-84196514D01*
X121425696Y-83938595D01*
X121325061Y-83695641D01*
X121178962Y-83476987D01*
X120993013Y-83291038D01*
X120774359Y-83144939D01*
X120531405Y-83044304D01*
X120273486Y-82993000D01*
X120011802Y-82993000D01*
X120018003Y-82986799D01*
X120047001Y-82963001D01*
X120141974Y-82847276D01*
X120212546Y-82715247D01*
X120256003Y-82571986D01*
X120267000Y-82460333D01*
X120267000Y-82460323D01*
X120270676Y-82423000D01*
X120267000Y-82385677D01*
X120267000Y-79826038D01*
X120302518Y-79836812D01*
X120427000Y-79849072D01*
X121127000Y-79849072D01*
X121251482Y-79836812D01*
X121371180Y-79800502D01*
X121412000Y-79778683D01*
X121452820Y-79800502D01*
X121572518Y-79836812D01*
X121697000Y-79849072D01*
X122166734Y-79849072D01*
X122155000Y-79908061D01*
X122155000Y-80111939D01*
X122194774Y-80311898D01*
X122272795Y-80500256D01*
X122386063Y-80669774D01*
X122530226Y-80813937D01*
X122699744Y-80927205D01*
X122888102Y-81005226D01*
X123088061Y-81045000D01*
X123291939Y-81045000D01*
X123491898Y-81005226D01*
X123497991Y-81002702D01*
X124408903Y-81002702D01*
X124480486Y-81246671D01*
X124735996Y-81367571D01*
X125010184Y-81436300D01*
X125292512Y-81450217D01*
X125572130Y-81408787D01*
X125838292Y-81313603D01*
X125963514Y-81246671D01*
X126035097Y-81002702D01*
X125222000Y-80189605D01*
X124408903Y-81002702D01*
X123497991Y-81002702D01*
X123680256Y-80927205D01*
X123849774Y-80813937D01*
X123959855Y-80703856D01*
X123985329Y-80751514D01*
X124229298Y-80823097D01*
X125042395Y-80010000D01*
X125028253Y-79995858D01*
X125207858Y-79816253D01*
X125222000Y-79830395D01*
X126035097Y-79017298D01*
X125963514Y-78773329D01*
X125899008Y-78742806D01*
X125901727Y-78741680D01*
X126136759Y-78584637D01*
X126336637Y-78384759D01*
X126484663Y-78163222D01*
X126480737Y-79309768D01*
X126458671Y-79268486D01*
X126214702Y-79196903D01*
X125401605Y-80010000D01*
X126214702Y-80823097D01*
X126458671Y-80751514D01*
X126475924Y-80715052D01*
X126469467Y-82600310D01*
X126213050Y-82942200D01*
X126030314Y-82942200D01*
X125772395Y-82993504D01*
X125529441Y-83094139D01*
X125310787Y-83240238D01*
X125124838Y-83426187D01*
X124978739Y-83644841D01*
X124891800Y-83854730D01*
X124804861Y-83644841D01*
X124658762Y-83426187D01*
X124472813Y-83240238D01*
X124254159Y-83094139D01*
X124011205Y-82993504D01*
X123753286Y-82942200D01*
X123490314Y-82942200D01*
X123232395Y-82993504D01*
X122989441Y-83094139D01*
X122770787Y-83240238D01*
X122584838Y-83426187D01*
X122438739Y-83644841D01*
X122338104Y-83887795D01*
X122286800Y-84145714D01*
X122286800Y-84408686D01*
X122338104Y-84666605D01*
X122438739Y-84909559D01*
X122584838Y-85128213D01*
X122770787Y-85314162D01*
X122989441Y-85460261D01*
X123232395Y-85560896D01*
X123490314Y-85612200D01*
X123753286Y-85612200D01*
X124011205Y-85560896D01*
X124254159Y-85460261D01*
X124472813Y-85314162D01*
X124658762Y-85128213D01*
X124804861Y-84909559D01*
X124891800Y-84699670D01*
X124978739Y-84909559D01*
X125124838Y-85128213D01*
X125310787Y-85314162D01*
X125529441Y-85460261D01*
X125628169Y-85501156D01*
X125556210Y-93140814D01*
X120136121Y-95822071D01*
X120097450Y-95783400D01*
X118948200Y-95783400D01*
X118948200Y-95803400D01*
X118694200Y-95803400D01*
X118694200Y-95783400D01*
X117544950Y-95783400D01*
X117386200Y-95942150D01*
X117383128Y-96456400D01*
X117395388Y-96580882D01*
X117431698Y-96700580D01*
X117490663Y-96810894D01*
X117570015Y-96907585D01*
X117666706Y-96986937D01*
X117721823Y-97016398D01*
X114907600Y-98408563D01*
X114907600Y-94856400D01*
X117383128Y-94856400D01*
X117386200Y-95370650D01*
X117544950Y-95529400D01*
X118694200Y-95529400D01*
X118694200Y-94380150D01*
X118948200Y-94380150D01*
X118948200Y-95529400D01*
X120097450Y-95529400D01*
X120256200Y-95370650D01*
X120259272Y-94856400D01*
X120247012Y-94731918D01*
X120210702Y-94612220D01*
X120151737Y-94501906D01*
X120072385Y-94405215D01*
X119975694Y-94325863D01*
X119865380Y-94266898D01*
X119745682Y-94230588D01*
X119621200Y-94218328D01*
X119106950Y-94221400D01*
X118948200Y-94380150D01*
X118694200Y-94380150D01*
X118535450Y-94221400D01*
X118021200Y-94218328D01*
X117896718Y-94230588D01*
X117777020Y-94266898D01*
X117666706Y-94325863D01*
X117570015Y-94405215D01*
X117490663Y-94501906D01*
X117431698Y-94612220D01*
X117395388Y-94731918D01*
X117383128Y-94856400D01*
X114907600Y-94856400D01*
X114907600Y-92721271D01*
X114909101Y-92706028D01*
X114947813Y-92680162D01*
X115133762Y-92494213D01*
X115279861Y-92275559D01*
X115369294Y-92059650D01*
X115376753Y-92084244D01*
X115487008Y-92321592D01*
X115641449Y-92532870D01*
X115834140Y-92709959D01*
X116057677Y-92846053D01*
X116303470Y-92935922D01*
X116509800Y-92813401D01*
X116509800Y-91770200D01*
X116763800Y-91770200D01*
X116763800Y-92813401D01*
X116970130Y-92935922D01*
X117215923Y-92846053D01*
X117439460Y-92709959D01*
X117632151Y-92532870D01*
X117786592Y-92321592D01*
X117896847Y-92084244D01*
X117929516Y-91976529D01*
X117806174Y-91770200D01*
X116763800Y-91770200D01*
X116509800Y-91770200D01*
X116489800Y-91770200D01*
X116489800Y-91516200D01*
X116509800Y-91516200D01*
X116509800Y-90472999D01*
X116763800Y-90472999D01*
X116763800Y-91516200D01*
X117806174Y-91516200D01*
X117929516Y-91309871D01*
X117896847Y-91202156D01*
X117786592Y-90964808D01*
X117632151Y-90753530D01*
X117439460Y-90576441D01*
X117215923Y-90440347D01*
X116970130Y-90350478D01*
X116763800Y-90472999D01*
X116509800Y-90472999D01*
X116303470Y-90350478D01*
X116057677Y-90440347D01*
X115834140Y-90576441D01*
X115641449Y-90753530D01*
X115487008Y-90964808D01*
X115376753Y-91202156D01*
X115369294Y-91226750D01*
X115279861Y-91010841D01*
X115133762Y-90792187D01*
X114947813Y-90606238D01*
X114729159Y-90460139D01*
X114486205Y-90359504D01*
X114228286Y-90308200D01*
X113965314Y-90308200D01*
X113707395Y-90359504D01*
X113464441Y-90460139D01*
X113245787Y-90606238D01*
X113059838Y-90792187D01*
X112913739Y-91010841D01*
X112813104Y-91253795D01*
X112761800Y-91511714D01*
X112761800Y-91774686D01*
X112813104Y-92032605D01*
X112913739Y-92275559D01*
X113059838Y-92494213D01*
X113245787Y-92680162D01*
X113344233Y-92745941D01*
X113347798Y-92782135D01*
X113355885Y-92808795D01*
X113387600Y-92913349D01*
X113387600Y-93234539D01*
X113275137Y-93066226D01*
X113130974Y-92922063D01*
X112961456Y-92808795D01*
X112773098Y-92730774D01*
X112573139Y-92691000D01*
X112369261Y-92691000D01*
X112169302Y-92730774D01*
X111980944Y-92808795D01*
X111811426Y-92922063D01*
X111667263Y-93066226D01*
X111553995Y-93235744D01*
X111475974Y-93424102D01*
X111436200Y-93624061D01*
X111436200Y-93827939D01*
X111475974Y-94027898D01*
X111553995Y-94216256D01*
X111667263Y-94385774D01*
X111711200Y-94429711D01*
X111711200Y-99989786D01*
X110768230Y-100456263D01*
X110692780Y-87327806D01*
X112511801Y-87327806D01*
X112626500Y-87668754D01*
X112805511Y-87980774D01*
X113041954Y-88251875D01*
X113326743Y-88471639D01*
X113648934Y-88631621D01*
X113888195Y-88704195D01*
X114173000Y-88587432D01*
X114173000Y-87043000D01*
X114427000Y-87043000D01*
X114427000Y-88587432D01*
X114711805Y-88704195D01*
X114951066Y-88631621D01*
X115273257Y-88471639D01*
X115558046Y-88251875D01*
X115794489Y-87980774D01*
X115973500Y-87668754D01*
X116088199Y-87327806D01*
X115971854Y-87043000D01*
X114427000Y-87043000D01*
X114173000Y-87043000D01*
X112628146Y-87043000D01*
X112511801Y-87327806D01*
X110692780Y-87327806D01*
X110688047Y-86504194D01*
X112511801Y-86504194D01*
X112628146Y-86789000D01*
X114173000Y-86789000D01*
X114173000Y-85244568D01*
X114427000Y-85244568D01*
X114427000Y-86789000D01*
X115971854Y-86789000D01*
X116088199Y-86504194D01*
X115973500Y-86163246D01*
X115794489Y-85851226D01*
X115558046Y-85580125D01*
X115273257Y-85360361D01*
X114951066Y-85200379D01*
X114711805Y-85127805D01*
X114427000Y-85244568D01*
X114173000Y-85244568D01*
X113888195Y-85127805D01*
X113648934Y-85200379D01*
X113326743Y-85360361D01*
X113041954Y-85580125D01*
X112805511Y-85851226D01*
X112626500Y-86163246D01*
X112511801Y-86504194D01*
X110688047Y-86504194D01*
X110541532Y-61010800D01*
X127304595Y-61010800D01*
X127283020Y-74387552D01*
G37*
X127283020Y-74387552D02*
X127170276Y-74295026D01*
X127038247Y-74224454D01*
X126894986Y-74180997D01*
X126783333Y-74170000D01*
X126783322Y-74170000D01*
X126746000Y-74166324D01*
X126708678Y-74170000D01*
X126440043Y-74170000D01*
X126336637Y-74015241D01*
X126136759Y-73815363D01*
X125904241Y-73660000D01*
X126136759Y-73504637D01*
X126336637Y-73304759D01*
X126493680Y-73069727D01*
X126601853Y-72808574D01*
X126657000Y-72531335D01*
X126657000Y-72248665D01*
X126601853Y-71971426D01*
X126493680Y-71710273D01*
X126336637Y-71475241D01*
X126136759Y-71275363D01*
X125901727Y-71118320D01*
X125640574Y-71010147D01*
X125363335Y-70955000D01*
X125080665Y-70955000D01*
X124898114Y-70991312D01*
X124164000Y-70257199D01*
X124164000Y-70035072D01*
X124293359Y-69948637D01*
X124493237Y-69748759D01*
X124650280Y-69513727D01*
X124758453Y-69252574D01*
X124813600Y-68975335D01*
X124813600Y-68692665D01*
X124758453Y-68415426D01*
X124650280Y-68154273D01*
X124493237Y-67919241D01*
X124293359Y-67719363D01*
X124058327Y-67562320D01*
X123797174Y-67454147D01*
X123519935Y-67399000D01*
X123237265Y-67399000D01*
X122960026Y-67454147D01*
X122698873Y-67562320D01*
X122463841Y-67719363D01*
X122263963Y-67919241D01*
X122128600Y-68121827D01*
X121993237Y-67919241D01*
X121793359Y-67719363D01*
X121558327Y-67562320D01*
X121297174Y-67454147D01*
X121019935Y-67399000D01*
X120737265Y-67399000D01*
X120460026Y-67454147D01*
X120198873Y-67562320D01*
X119963841Y-67719363D01*
X119763963Y-67919241D01*
X119606920Y-68154273D01*
X119498747Y-68415426D01*
X119443600Y-68692665D01*
X119443600Y-68975335D01*
X119498747Y-69252574D01*
X119606920Y-69513727D01*
X119763963Y-69748759D01*
X119963841Y-69948637D01*
X120198873Y-70105680D01*
X120460026Y-70213853D01*
X120737265Y-70269000D01*
X121019935Y-70269000D01*
X121297174Y-70213853D01*
X121558327Y-70105680D01*
X121793359Y-69948637D01*
X121993237Y-69748759D01*
X122128600Y-69546173D01*
X122263963Y-69748759D01*
X122463841Y-69948637D01*
X122644001Y-70069016D01*
X122644001Y-70534668D01*
X122640324Y-70572000D01*
X122654998Y-70720985D01*
X122688066Y-70830001D01*
X120385321Y-70830001D01*
X120347998Y-70826325D01*
X120310675Y-70830001D01*
X120310666Y-70830001D01*
X120199013Y-70840998D01*
X120055752Y-70884455D01*
X119923723Y-70955027D01*
X119807998Y-71050000D01*
X119784200Y-71078998D01*
X119040072Y-71823127D01*
X119040072Y-71590000D01*
X119027812Y-71465518D01*
X118991502Y-71345820D01*
X118932537Y-71235506D01*
X118853185Y-71138815D01*
X118756494Y-71059463D01*
X118646180Y-71000498D01*
X118526482Y-70964188D01*
X118402000Y-70951928D01*
X116802000Y-70951928D01*
X116677518Y-70964188D01*
X116557820Y-71000498D01*
X116447506Y-71059463D01*
X116350815Y-71138815D01*
X116271463Y-71235506D01*
X116212498Y-71345820D01*
X116176188Y-71465518D01*
X116163928Y-71590000D01*
X116163928Y-73190000D01*
X116176188Y-73314482D01*
X116212498Y-73434180D01*
X116271463Y-73544494D01*
X116350815Y-73641185D01*
X116447506Y-73720537D01*
X116557820Y-73779502D01*
X116677518Y-73815812D01*
X116685961Y-73816643D01*
X116487363Y-74015241D01*
X116330320Y-74250273D01*
X116222147Y-74511426D01*
X116167000Y-74788665D01*
X116167000Y-74960199D01*
X115060000Y-73853199D01*
X115060000Y-66187388D01*
X115169199Y-66142156D01*
X115469744Y-65941338D01*
X115725338Y-65685744D01*
X115926156Y-65385199D01*
X116023352Y-65150545D01*
X119179061Y-65150545D01*
X119276032Y-65415968D01*
X119567353Y-65557856D01*
X119880757Y-65640185D01*
X120204200Y-65659789D01*
X120525253Y-65615916D01*
X120831578Y-65510251D01*
X121007968Y-65415968D01*
X121104939Y-65150545D01*
X120142000Y-64187605D01*
X119179061Y-65150545D01*
X116023352Y-65150545D01*
X116064482Y-65051250D01*
X116135000Y-64696732D01*
X116135000Y-64335268D01*
X116064482Y-63980750D01*
X116019250Y-63871551D01*
X116457803Y-63432999D01*
X118592316Y-63432999D01*
X118592144Y-63433353D01*
X118509815Y-63746757D01*
X118490211Y-64070200D01*
X118534084Y-64391253D01*
X118639749Y-64697578D01*
X118734032Y-64873968D01*
X118999455Y-64970939D01*
X119962395Y-64008000D01*
X119948252Y-63993858D01*
X120127858Y-63814253D01*
X120142000Y-63828395D01*
X120156143Y-63814253D01*
X120335748Y-63993858D01*
X120321605Y-64008000D01*
X121284545Y-64970939D01*
X121334738Y-64952601D01*
X121404245Y-65056626D01*
X121633374Y-65285755D01*
X121902801Y-65465780D01*
X122202171Y-65589783D01*
X122519982Y-65653000D01*
X122844018Y-65653000D01*
X123161829Y-65589783D01*
X123461199Y-65465780D01*
X123730626Y-65285755D01*
X123959755Y-65056626D01*
X124139780Y-64787199D01*
X124263783Y-64487829D01*
X124327000Y-64170018D01*
X124327000Y-63845982D01*
X124263783Y-63528171D01*
X124139780Y-63228801D01*
X123959755Y-62959374D01*
X123730626Y-62730245D01*
X123461199Y-62550220D01*
X123161829Y-62426217D01*
X122844018Y-62363000D01*
X122519982Y-62363000D01*
X122202171Y-62426217D01*
X122182971Y-62434170D01*
X121910803Y-62162002D01*
X121887000Y-62132998D01*
X121771275Y-62038025D01*
X121639246Y-61967453D01*
X121495985Y-61923996D01*
X121384332Y-61912999D01*
X121384321Y-61912999D01*
X121346999Y-61909323D01*
X121309677Y-61912999D01*
X116180323Y-61912999D01*
X116143000Y-61909323D01*
X116105678Y-61912999D01*
X116105668Y-61912999D01*
X115994015Y-61923996D01*
X115850754Y-61967453D01*
X115718724Y-62038025D01*
X115635084Y-62106667D01*
X115603000Y-62132998D01*
X115579202Y-62161996D01*
X114944449Y-62796750D01*
X114835250Y-62751518D01*
X114480732Y-62681000D01*
X114119268Y-62681000D01*
X113764750Y-62751518D01*
X113430801Y-62889844D01*
X113130256Y-63090662D01*
X112874662Y-63346256D01*
X112673844Y-63646801D01*
X112535518Y-63980750D01*
X112465000Y-64335268D01*
X112465000Y-64696732D01*
X112535518Y-65051250D01*
X112673844Y-65385199D01*
X112874662Y-65685744D01*
X113130256Y-65941338D01*
X113430801Y-66142156D01*
X113540001Y-66187388D01*
X113540000Y-74130678D01*
X113536324Y-74168000D01*
X113540000Y-74205322D01*
X113540000Y-74205332D01*
X113550997Y-74316985D01*
X113591044Y-74449004D01*
X113594454Y-74460246D01*
X113665026Y-74592276D01*
X113700495Y-74635494D01*
X113759999Y-74708001D01*
X113789003Y-74731804D01*
X116203312Y-77146114D01*
X116167000Y-77328665D01*
X116167000Y-77611335D01*
X116222147Y-77888574D01*
X116330320Y-78149727D01*
X116487363Y-78384759D01*
X116687241Y-78584637D01*
X116919759Y-78740000D01*
X116687241Y-78895363D01*
X116487363Y-79095241D01*
X116330320Y-79330273D01*
X116222147Y-79591426D01*
X116167000Y-79868665D01*
X116167000Y-80151335D01*
X116222147Y-80428574D01*
X116330320Y-80689727D01*
X116487363Y-80924759D01*
X116687241Y-81124637D01*
X116922273Y-81281680D01*
X117183426Y-81389853D01*
X117460665Y-81445000D01*
X117743335Y-81445000D01*
X118020574Y-81389853D01*
X118281727Y-81281680D01*
X118516759Y-81124637D01*
X118716637Y-80924759D01*
X118747001Y-80879317D01*
X118747001Y-82108197D01*
X117840844Y-83014355D01*
X117733486Y-82993000D01*
X117470514Y-82993000D01*
X117212595Y-83044304D01*
X116969641Y-83144939D01*
X116750987Y-83291038D01*
X116565038Y-83476987D01*
X116418939Y-83695641D01*
X116318304Y-83938595D01*
X116267000Y-84196514D01*
X116267000Y-84459486D01*
X116318304Y-84717405D01*
X116418939Y-84960359D01*
X116565038Y-85179013D01*
X116750987Y-85364962D01*
X116969641Y-85511061D01*
X117212595Y-85611696D01*
X117470514Y-85663000D01*
X117733486Y-85663000D01*
X117840843Y-85641645D01*
X117864767Y-85665569D01*
X118270527Y-91873527D01*
X118157995Y-92041944D01*
X118079974Y-92230302D01*
X118040200Y-92430261D01*
X118040200Y-92634139D01*
X118079974Y-92834098D01*
X118157995Y-93022456D01*
X118271263Y-93191974D01*
X118415426Y-93336137D01*
X118584944Y-93449405D01*
X118773302Y-93527426D01*
X118973261Y-93567200D01*
X119177139Y-93567200D01*
X119377098Y-93527426D01*
X119565456Y-93449405D01*
X119734974Y-93336137D01*
X119879137Y-93191974D01*
X119992405Y-93022456D01*
X120070426Y-92834098D01*
X120110200Y-92634139D01*
X120110200Y-92564469D01*
X120721136Y-92564469D01*
X120780597Y-92798237D01*
X121019042Y-92909134D01*
X121274540Y-92971383D01*
X121537273Y-92982590D01*
X121797144Y-92942325D01*
X122044166Y-92852135D01*
X122145003Y-92798237D01*
X122204464Y-92564469D01*
X121462800Y-91822805D01*
X120721136Y-92564469D01*
X120110200Y-92564469D01*
X120110200Y-92430261D01*
X120070426Y-92230302D01*
X119992405Y-92041944D01*
X119879137Y-91872426D01*
X119787722Y-91781011D01*
X119783583Y-91717673D01*
X120123410Y-91717673D01*
X120163675Y-91977544D01*
X120253865Y-92224566D01*
X120307763Y-92325403D01*
X120541531Y-92384864D01*
X121283195Y-91643200D01*
X121642405Y-91643200D01*
X122384069Y-92384864D01*
X122617837Y-92325403D01*
X122728734Y-92086958D01*
X122733506Y-92067373D01*
X122819739Y-92275559D01*
X122965838Y-92494213D01*
X123151787Y-92680162D01*
X123370441Y-92826261D01*
X123613395Y-92926896D01*
X123871314Y-92978200D01*
X124134286Y-92978200D01*
X124392205Y-92926896D01*
X124635159Y-92826261D01*
X124853813Y-92680162D01*
X125039762Y-92494213D01*
X125185861Y-92275559D01*
X125286496Y-92032605D01*
X125337800Y-91774686D01*
X125337800Y-91511714D01*
X125286496Y-91253795D01*
X125185861Y-91010841D01*
X125039762Y-90792187D01*
X124853813Y-90606238D01*
X124635159Y-90460139D01*
X124392205Y-90359504D01*
X124134286Y-90308200D01*
X123871314Y-90308200D01*
X123613395Y-90359504D01*
X123370441Y-90460139D01*
X123151787Y-90606238D01*
X122965838Y-90792187D01*
X122819739Y-91010841D01*
X122731179Y-91224644D01*
X122671735Y-91061834D01*
X122617837Y-90960997D01*
X122384069Y-90901536D01*
X121642405Y-91643200D01*
X121283195Y-91643200D01*
X120541531Y-90901536D01*
X120307763Y-90960997D01*
X120196866Y-91199442D01*
X120134617Y-91454940D01*
X120123410Y-91717673D01*
X119783583Y-91717673D01*
X119718501Y-90721931D01*
X120721136Y-90721931D01*
X121462800Y-91463595D01*
X122204464Y-90721931D01*
X122145003Y-90488163D01*
X121906558Y-90377266D01*
X121651060Y-90315017D01*
X121388327Y-90303810D01*
X121128456Y-90344075D01*
X120881434Y-90434265D01*
X120780597Y-90488163D01*
X120721136Y-90721931D01*
X119718501Y-90721931D01*
X119371895Y-85419022D01*
X119509641Y-85511061D01*
X119752595Y-85611696D01*
X120010514Y-85663000D01*
X120273486Y-85663000D01*
X120531405Y-85611696D01*
X120774359Y-85511061D01*
X120993013Y-85364962D01*
X121178962Y-85179013D01*
X121325061Y-84960359D01*
X121425696Y-84717405D01*
X121477000Y-84459486D01*
X121477000Y-84196514D01*
X121425696Y-83938595D01*
X121325061Y-83695641D01*
X121178962Y-83476987D01*
X120993013Y-83291038D01*
X120774359Y-83144939D01*
X120531405Y-83044304D01*
X120273486Y-82993000D01*
X120011802Y-82993000D01*
X120018003Y-82986799D01*
X120047001Y-82963001D01*
X120141974Y-82847276D01*
X120212546Y-82715247D01*
X120256003Y-82571986D01*
X120267000Y-82460333D01*
X120267000Y-82460323D01*
X120270676Y-82423000D01*
X120267000Y-82385677D01*
X120267000Y-79826038D01*
X120302518Y-79836812D01*
X120427000Y-79849072D01*
X121127000Y-79849072D01*
X121251482Y-79836812D01*
X121371180Y-79800502D01*
X121412000Y-79778683D01*
X121452820Y-79800502D01*
X121572518Y-79836812D01*
X121697000Y-79849072D01*
X122166734Y-79849072D01*
X122155000Y-79908061D01*
X122155000Y-80111939D01*
X122194774Y-80311898D01*
X122272795Y-80500256D01*
X122386063Y-80669774D01*
X122530226Y-80813937D01*
X122699744Y-80927205D01*
X122888102Y-81005226D01*
X123088061Y-81045000D01*
X123291939Y-81045000D01*
X123491898Y-81005226D01*
X123497991Y-81002702D01*
X124408903Y-81002702D01*
X124480486Y-81246671D01*
X124735996Y-81367571D01*
X125010184Y-81436300D01*
X125292512Y-81450217D01*
X125572130Y-81408787D01*
X125838292Y-81313603D01*
X125963514Y-81246671D01*
X126035097Y-81002702D01*
X125222000Y-80189605D01*
X124408903Y-81002702D01*
X123497991Y-81002702D01*
X123680256Y-80927205D01*
X123849774Y-80813937D01*
X123959855Y-80703856D01*
X123985329Y-80751514D01*
X124229298Y-80823097D01*
X125042395Y-80010000D01*
X125028253Y-79995858D01*
X125207858Y-79816253D01*
X125222000Y-79830395D01*
X126035097Y-79017298D01*
X125963514Y-78773329D01*
X125899008Y-78742806D01*
X125901727Y-78741680D01*
X126136759Y-78584637D01*
X126336637Y-78384759D01*
X126484663Y-78163222D01*
X126480737Y-79309768D01*
X126458671Y-79268486D01*
X126214702Y-79196903D01*
X125401605Y-80010000D01*
X126214702Y-80823097D01*
X126458671Y-80751514D01*
X126475924Y-80715052D01*
X126469467Y-82600310D01*
X126213050Y-82942200D01*
X126030314Y-82942200D01*
X125772395Y-82993504D01*
X125529441Y-83094139D01*
X125310787Y-83240238D01*
X125124838Y-83426187D01*
X124978739Y-83644841D01*
X124891800Y-83854730D01*
X124804861Y-83644841D01*
X124658762Y-83426187D01*
X124472813Y-83240238D01*
X124254159Y-83094139D01*
X124011205Y-82993504D01*
X123753286Y-82942200D01*
X123490314Y-82942200D01*
X123232395Y-82993504D01*
X122989441Y-83094139D01*
X122770787Y-83240238D01*
X122584838Y-83426187D01*
X122438739Y-83644841D01*
X122338104Y-83887795D01*
X122286800Y-84145714D01*
X122286800Y-84408686D01*
X122338104Y-84666605D01*
X122438739Y-84909559D01*
X122584838Y-85128213D01*
X122770787Y-85314162D01*
X122989441Y-85460261D01*
X123232395Y-85560896D01*
X123490314Y-85612200D01*
X123753286Y-85612200D01*
X124011205Y-85560896D01*
X124254159Y-85460261D01*
X124472813Y-85314162D01*
X124658762Y-85128213D01*
X124804861Y-84909559D01*
X124891800Y-84699670D01*
X124978739Y-84909559D01*
X125124838Y-85128213D01*
X125310787Y-85314162D01*
X125529441Y-85460261D01*
X125628169Y-85501156D01*
X125556210Y-93140814D01*
X120136121Y-95822071D01*
X120097450Y-95783400D01*
X118948200Y-95783400D01*
X118948200Y-95803400D01*
X118694200Y-95803400D01*
X118694200Y-95783400D01*
X117544950Y-95783400D01*
X117386200Y-95942150D01*
X117383128Y-96456400D01*
X117395388Y-96580882D01*
X117431698Y-96700580D01*
X117490663Y-96810894D01*
X117570015Y-96907585D01*
X117666706Y-96986937D01*
X117721823Y-97016398D01*
X114907600Y-98408563D01*
X114907600Y-94856400D01*
X117383128Y-94856400D01*
X117386200Y-95370650D01*
X117544950Y-95529400D01*
X118694200Y-95529400D01*
X118694200Y-94380150D01*
X118948200Y-94380150D01*
X118948200Y-95529400D01*
X120097450Y-95529400D01*
X120256200Y-95370650D01*
X120259272Y-94856400D01*
X120247012Y-94731918D01*
X120210702Y-94612220D01*
X120151737Y-94501906D01*
X120072385Y-94405215D01*
X119975694Y-94325863D01*
X119865380Y-94266898D01*
X119745682Y-94230588D01*
X119621200Y-94218328D01*
X119106950Y-94221400D01*
X118948200Y-94380150D01*
X118694200Y-94380150D01*
X118535450Y-94221400D01*
X118021200Y-94218328D01*
X117896718Y-94230588D01*
X117777020Y-94266898D01*
X117666706Y-94325863D01*
X117570015Y-94405215D01*
X117490663Y-94501906D01*
X117431698Y-94612220D01*
X117395388Y-94731918D01*
X117383128Y-94856400D01*
X114907600Y-94856400D01*
X114907600Y-92721271D01*
X114909101Y-92706028D01*
X114947813Y-92680162D01*
X115133762Y-92494213D01*
X115279861Y-92275559D01*
X115369294Y-92059650D01*
X115376753Y-92084244D01*
X115487008Y-92321592D01*
X115641449Y-92532870D01*
X115834140Y-92709959D01*
X116057677Y-92846053D01*
X116303470Y-92935922D01*
X116509800Y-92813401D01*
X116509800Y-91770200D01*
X116763800Y-91770200D01*
X116763800Y-92813401D01*
X116970130Y-92935922D01*
X117215923Y-92846053D01*
X117439460Y-92709959D01*
X117632151Y-92532870D01*
X117786592Y-92321592D01*
X117896847Y-92084244D01*
X117929516Y-91976529D01*
X117806174Y-91770200D01*
X116763800Y-91770200D01*
X116509800Y-91770200D01*
X116489800Y-91770200D01*
X116489800Y-91516200D01*
X116509800Y-91516200D01*
X116509800Y-90472999D01*
X116763800Y-90472999D01*
X116763800Y-91516200D01*
X117806174Y-91516200D01*
X117929516Y-91309871D01*
X117896847Y-91202156D01*
X117786592Y-90964808D01*
X117632151Y-90753530D01*
X117439460Y-90576441D01*
X117215923Y-90440347D01*
X116970130Y-90350478D01*
X116763800Y-90472999D01*
X116509800Y-90472999D01*
X116303470Y-90350478D01*
X116057677Y-90440347D01*
X115834140Y-90576441D01*
X115641449Y-90753530D01*
X115487008Y-90964808D01*
X115376753Y-91202156D01*
X115369294Y-91226750D01*
X115279861Y-91010841D01*
X115133762Y-90792187D01*
X114947813Y-90606238D01*
X114729159Y-90460139D01*
X114486205Y-90359504D01*
X114228286Y-90308200D01*
X113965314Y-90308200D01*
X113707395Y-90359504D01*
X113464441Y-90460139D01*
X113245787Y-90606238D01*
X113059838Y-90792187D01*
X112913739Y-91010841D01*
X112813104Y-91253795D01*
X112761800Y-91511714D01*
X112761800Y-91774686D01*
X112813104Y-92032605D01*
X112913739Y-92275559D01*
X113059838Y-92494213D01*
X113245787Y-92680162D01*
X113344233Y-92745941D01*
X113347798Y-92782135D01*
X113355885Y-92808795D01*
X113387600Y-92913349D01*
X113387600Y-93234539D01*
X113275137Y-93066226D01*
X113130974Y-92922063D01*
X112961456Y-92808795D01*
X112773098Y-92730774D01*
X112573139Y-92691000D01*
X112369261Y-92691000D01*
X112169302Y-92730774D01*
X111980944Y-92808795D01*
X111811426Y-92922063D01*
X111667263Y-93066226D01*
X111553995Y-93235744D01*
X111475974Y-93424102D01*
X111436200Y-93624061D01*
X111436200Y-93827939D01*
X111475974Y-94027898D01*
X111553995Y-94216256D01*
X111667263Y-94385774D01*
X111711200Y-94429711D01*
X111711200Y-99989786D01*
X110768230Y-100456263D01*
X110692780Y-87327806D01*
X112511801Y-87327806D01*
X112626500Y-87668754D01*
X112805511Y-87980774D01*
X113041954Y-88251875D01*
X113326743Y-88471639D01*
X113648934Y-88631621D01*
X113888195Y-88704195D01*
X114173000Y-88587432D01*
X114173000Y-87043000D01*
X114427000Y-87043000D01*
X114427000Y-88587432D01*
X114711805Y-88704195D01*
X114951066Y-88631621D01*
X115273257Y-88471639D01*
X115558046Y-88251875D01*
X115794489Y-87980774D01*
X115973500Y-87668754D01*
X116088199Y-87327806D01*
X115971854Y-87043000D01*
X114427000Y-87043000D01*
X114173000Y-87043000D01*
X112628146Y-87043000D01*
X112511801Y-87327806D01*
X110692780Y-87327806D01*
X110688047Y-86504194D01*
X112511801Y-86504194D01*
X112628146Y-86789000D01*
X114173000Y-86789000D01*
X114173000Y-85244568D01*
X114427000Y-85244568D01*
X114427000Y-86789000D01*
X115971854Y-86789000D01*
X116088199Y-86504194D01*
X115973500Y-86163246D01*
X115794489Y-85851226D01*
X115558046Y-85580125D01*
X115273257Y-85360361D01*
X114951066Y-85200379D01*
X114711805Y-85127805D01*
X114427000Y-85244568D01*
X114173000Y-85244568D01*
X113888195Y-85127805D01*
X113648934Y-85200379D01*
X113326743Y-85360361D01*
X113041954Y-85580125D01*
X112805511Y-85851226D01*
X112626500Y-86163246D01*
X112511801Y-86504194D01*
X110688047Y-86504194D01*
X110541532Y-61010800D01*
X127304595Y-61010800D01*
X127283020Y-74387552D01*
G36*
X123602750Y-74916000D02*
G01*
X123667000Y-74919072D01*
X123787000Y-74907253D01*
X123787000Y-75071335D01*
X123818005Y-75227203D01*
X123444002Y-74853201D01*
X123444002Y-74757252D01*
X123602750Y-74916000D01*
G37*
X123602750Y-74916000D02*
X123667000Y-74919072D01*
X123787000Y-74907253D01*
X123787000Y-75071335D01*
X123818005Y-75227203D01*
X123444002Y-74853201D01*
X123444002Y-74757252D01*
X123602750Y-74916000D01*
G36*
X123232002Y-73628000D02*
G01*
X123190000Y-73628000D01*
X123190000Y-73608000D01*
X123170000Y-73608000D01*
X123170000Y-73354000D01*
X123190000Y-73354000D01*
X123190000Y-73334000D01*
X123232002Y-73334000D01*
X123232002Y-73628000D01*
G37*
X123232002Y-73628000D02*
X123190000Y-73628000D01*
X123190000Y-73608000D01*
X123170000Y-73608000D01*
X123170000Y-73354000D01*
X123190000Y-73354000D01*
X123190000Y-73334000D01*
X123232002Y-73334000D01*
X123232002Y-73628000D01*
M02*
