G04 #@! TF.GenerationSoftware,KiCad,Pcbnew,(5.1.5)-3*
G04 #@! TF.CreationDate,2021-05-27T11:47:18-04:00*
G04 #@! TF.ProjectId,opAmp Mic,6f70416d-7020-44d6-9963-2e6b69636164,rev?*
G04 #@! TF.SameCoordinates,Original*
G04 #@! TF.FileFunction,Copper,L2,Bot*
G04 #@! TF.FilePolarity,Positive*
%FSLAX46Y46*%
G04 Gerber Fmt 4.6, Leading zero omitted, Abs format (unit mm)*
G04 Created by KiCad (PCBNEW (5.1.5)-3) date 2021-05-27 11:47:18*
%MOMM*%
%LPD*%
G04 APERTURE LIST*
%ADD10O,2.400000X2.400000*%
%ADD11C,2.400000*%
%ADD12R,2.000000X2.000000*%
%ADD13C,2.000000*%
%ADD14C,1.600000*%
%ADD15C,0.100000*%
%ADD16R,1.998980X3.000000*%
%ADD17C,2.020000*%
%ADD18O,1.400000X1.400000*%
%ADD19C,1.400000*%
%ADD20R,1.600000X1.600000*%
%ADD21R,1.200000X1.200000*%
%ADD22C,1.200000*%
%ADD23C,0.800000*%
%ADD24C,0.250000*%
%ADD25C,0.254000*%
G04 APERTURE END LIST*
D10*
X114300000Y-86916000D03*
D11*
X114300000Y-64516000D03*
D12*
X124206000Y-106934000D03*
D13*
X124231400Y-98425000D03*
D14*
X123378600Y-68834000D03*
X120878600Y-68834000D03*
X123545600Y-116001800D03*
X123545600Y-113501800D03*
X113817400Y-130505200D03*
X113817400Y-128005200D03*
X124434600Y-127979800D03*
X124434600Y-130479800D03*
G04 #@! TA.AperFunction,ComponentPad*
D15*
G36*
X122722729Y-136932406D02*
G01*
X122771240Y-136939602D01*
X122818813Y-136951519D01*
X122864989Y-136968041D01*
X122909323Y-136989009D01*
X122951388Y-137014222D01*
X122990780Y-137043437D01*
X123027118Y-137076372D01*
X123060053Y-137112710D01*
X123089268Y-137152102D01*
X123114481Y-137194167D01*
X123135449Y-137238501D01*
X123151971Y-137284677D01*
X123163888Y-137332250D01*
X123171084Y-137380761D01*
X123173490Y-137429745D01*
X123173490Y-139430255D01*
X123171084Y-139479239D01*
X123163888Y-139527750D01*
X123151971Y-139575323D01*
X123135449Y-139621499D01*
X123114481Y-139665833D01*
X123089268Y-139707898D01*
X123060053Y-139747290D01*
X123027118Y-139783628D01*
X122990780Y-139816563D01*
X122951388Y-139845778D01*
X122909323Y-139870991D01*
X122864989Y-139891959D01*
X122818813Y-139908481D01*
X122771240Y-139920398D01*
X122722729Y-139927594D01*
X122673745Y-139930000D01*
X121674255Y-139930000D01*
X121625271Y-139927594D01*
X121576760Y-139920398D01*
X121529187Y-139908481D01*
X121483011Y-139891959D01*
X121438677Y-139870991D01*
X121396612Y-139845778D01*
X121357220Y-139816563D01*
X121320882Y-139783628D01*
X121287947Y-139747290D01*
X121258732Y-139707898D01*
X121233519Y-139665833D01*
X121212551Y-139621499D01*
X121196029Y-139575323D01*
X121184112Y-139527750D01*
X121176916Y-139479239D01*
X121174510Y-139430255D01*
X121174510Y-137429745D01*
X121176916Y-137380761D01*
X121184112Y-137332250D01*
X121196029Y-137284677D01*
X121212551Y-137238501D01*
X121233519Y-137194167D01*
X121258732Y-137152102D01*
X121287947Y-137112710D01*
X121320882Y-137076372D01*
X121357220Y-137043437D01*
X121396612Y-137014222D01*
X121438677Y-136989009D01*
X121483011Y-136968041D01*
X121529187Y-136951519D01*
X121576760Y-136939602D01*
X121625271Y-136932406D01*
X121674255Y-136930000D01*
X122673745Y-136930000D01*
X122722729Y-136932406D01*
G37*
G04 #@! TD.AperFunction*
G04 #@! TA.AperFunction,ComponentPad*
G36*
X119547729Y-136932406D02*
G01*
X119596240Y-136939602D01*
X119643813Y-136951519D01*
X119689989Y-136968041D01*
X119734323Y-136989009D01*
X119776388Y-137014222D01*
X119815780Y-137043437D01*
X119852118Y-137076372D01*
X119885053Y-137112710D01*
X119914268Y-137152102D01*
X119939481Y-137194167D01*
X119960449Y-137238501D01*
X119976971Y-137284677D01*
X119988888Y-137332250D01*
X119996084Y-137380761D01*
X119998490Y-137429745D01*
X119998490Y-139430255D01*
X119996084Y-139479239D01*
X119988888Y-139527750D01*
X119976971Y-139575323D01*
X119960449Y-139621499D01*
X119939481Y-139665833D01*
X119914268Y-139707898D01*
X119885053Y-139747290D01*
X119852118Y-139783628D01*
X119815780Y-139816563D01*
X119776388Y-139845778D01*
X119734323Y-139870991D01*
X119689989Y-139891959D01*
X119643813Y-139908481D01*
X119596240Y-139920398D01*
X119547729Y-139927594D01*
X119498745Y-139930000D01*
X118499255Y-139930000D01*
X118450271Y-139927594D01*
X118401760Y-139920398D01*
X118354187Y-139908481D01*
X118308011Y-139891959D01*
X118263677Y-139870991D01*
X118221612Y-139845778D01*
X118182220Y-139816563D01*
X118145882Y-139783628D01*
X118112947Y-139747290D01*
X118083732Y-139707898D01*
X118058519Y-139665833D01*
X118037551Y-139621499D01*
X118021029Y-139575323D01*
X118009112Y-139527750D01*
X118001916Y-139479239D01*
X117999510Y-139430255D01*
X117999510Y-137429745D01*
X118001916Y-137380761D01*
X118009112Y-137332250D01*
X118021029Y-137284677D01*
X118037551Y-137238501D01*
X118058519Y-137194167D01*
X118083732Y-137152102D01*
X118112947Y-137112710D01*
X118145882Y-137076372D01*
X118182220Y-137043437D01*
X118221612Y-137014222D01*
X118263677Y-136989009D01*
X118308011Y-136968041D01*
X118354187Y-136951519D01*
X118401760Y-136939602D01*
X118450271Y-136932406D01*
X118499255Y-136930000D01*
X119498745Y-136930000D01*
X119547729Y-136932406D01*
G37*
G04 #@! TD.AperFunction*
D16*
X115824000Y-138430000D03*
D17*
X120142000Y-64008000D03*
X122682000Y-64008000D03*
D18*
X120142000Y-84328000D03*
D19*
X117602000Y-84328000D03*
X126161800Y-84277200D03*
D18*
X123621800Y-84277200D03*
X116636800Y-91643200D03*
D19*
X114096800Y-91643200D03*
X121462800Y-91643200D03*
D18*
X124002800Y-91643200D03*
D19*
X113766600Y-108864400D03*
D18*
X113766600Y-106324400D03*
X123342400Y-123672600D03*
D19*
X123342400Y-121132600D03*
X114300000Y-123545600D03*
D18*
X114300000Y-121005600D03*
X120904000Y-132334000D03*
D19*
X120904000Y-134874000D03*
X117094000Y-134874000D03*
D18*
X117094000Y-132334000D03*
D20*
X117602000Y-72390000D03*
D14*
X117602000Y-74930000D03*
X117602000Y-77470000D03*
X117602000Y-80010000D03*
X125222000Y-80010000D03*
X125222000Y-77470000D03*
X125222000Y-74930000D03*
X125222000Y-72390000D03*
D20*
X118821200Y-95656400D03*
D14*
X118821200Y-98156400D03*
X118872000Y-124855600D03*
D20*
X118872000Y-127355600D03*
X118821200Y-120116600D03*
D14*
X118821200Y-117616600D03*
D20*
X118618000Y-113182400D03*
D14*
X118618000Y-110682400D03*
D21*
X118110000Y-104470200D03*
D22*
X119610000Y-104470200D03*
D23*
X123190000Y-80010000D03*
X123596400Y-75031600D03*
X119075200Y-92532200D03*
X112674400Y-125476000D03*
X112471200Y-93726000D03*
X126085600Y-117627400D03*
X121094399Y-76670001D03*
D24*
X114096800Y-91643200D02*
X114096800Y-90119200D01*
X114096800Y-90119200D02*
X111810800Y-87833200D01*
X114102198Y-67310000D02*
X122134000Y-67310000D01*
X111785400Y-87807800D02*
X111760000Y-69652198D01*
X122134000Y-67310000D02*
X123404000Y-68580000D01*
X111760000Y-69652198D02*
X114102198Y-67310000D01*
X123444000Y-78232000D02*
X125222000Y-80010000D01*
X123596400Y-75031600D02*
X123444000Y-78232000D01*
X117348000Y-84328000D02*
X117602000Y-84328000D01*
X112674400Y-125476000D02*
X118872000Y-124855600D01*
X112471200Y-93726000D02*
X119075200Y-92532200D01*
X114300000Y-121005600D02*
X118821200Y-120116600D01*
X119952570Y-117616600D02*
X119963370Y-117627400D01*
X118821200Y-117616600D02*
X119952570Y-117616600D01*
X119963370Y-117627400D02*
X126085600Y-117627400D01*
X120497600Y-123266200D02*
X123342400Y-121132600D01*
X114300000Y-123545600D02*
X120497600Y-123266200D01*
X118401999Y-76670001D02*
X121094399Y-76670001D01*
X117602000Y-77470000D02*
X118401999Y-76670001D01*
X126021999Y-78269999D02*
X125222000Y-77470000D01*
X126347001Y-78595001D02*
X126021999Y-78269999D01*
X126347001Y-80550001D02*
X126347001Y-78595001D01*
X120142000Y-84328000D02*
X123621800Y-84277200D01*
X123621800Y-84277200D02*
X126347001Y-80550001D01*
D25*
G36*
X127381000Y-83732088D02*
G01*
X127344861Y-83644841D01*
X127198762Y-83426187D01*
X127012813Y-83240238D01*
X126794159Y-83094139D01*
X126551205Y-82993504D01*
X126293286Y-82942200D01*
X126030314Y-82942200D01*
X125772395Y-82993504D01*
X125529441Y-83094139D01*
X125331678Y-83226279D01*
X126947963Y-81015721D01*
X126981975Y-80974277D01*
X127009691Y-80922425D01*
X127039560Y-80871815D01*
X127044911Y-80856534D01*
X127052547Y-80842248D01*
X127069611Y-80785994D01*
X127089036Y-80730520D01*
X127091303Y-80714483D01*
X127096004Y-80698987D01*
X127101767Y-80640478D01*
X127109994Y-80582288D01*
X127107001Y-80528787D01*
X127107001Y-78632323D01*
X127110677Y-78595000D01*
X127107001Y-78557677D01*
X127107001Y-78557668D01*
X127096004Y-78446015D01*
X127052547Y-78302754D01*
X126981975Y-78170725D01*
X126887002Y-78055000D01*
X126857998Y-78031197D01*
X126620688Y-77793887D01*
X126657000Y-77611335D01*
X126657000Y-77328665D01*
X126601853Y-77051426D01*
X126493680Y-76790273D01*
X126336637Y-76555241D01*
X126136759Y-76355363D01*
X125904241Y-76200000D01*
X126136759Y-76044637D01*
X126336637Y-75844759D01*
X126493680Y-75609727D01*
X126601853Y-75348574D01*
X126657000Y-75071335D01*
X126657000Y-74788665D01*
X126601853Y-74511426D01*
X126493680Y-74250273D01*
X126336637Y-74015241D01*
X126136759Y-73815363D01*
X125904241Y-73660000D01*
X126136759Y-73504637D01*
X126336637Y-73304759D01*
X126493680Y-73069727D01*
X126601853Y-72808574D01*
X126657000Y-72531335D01*
X126657000Y-72248665D01*
X126601853Y-71971426D01*
X126493680Y-71710273D01*
X126336637Y-71475241D01*
X126136759Y-71275363D01*
X125901727Y-71118320D01*
X125640574Y-71010147D01*
X125363335Y-70955000D01*
X125080665Y-70955000D01*
X124803426Y-71010147D01*
X124542273Y-71118320D01*
X124307241Y-71275363D01*
X124107363Y-71475241D01*
X123950320Y-71710273D01*
X123842147Y-71971426D01*
X123787000Y-72248665D01*
X123787000Y-72531335D01*
X123842147Y-72808574D01*
X123950320Y-73069727D01*
X124107363Y-73304759D01*
X124307241Y-73504637D01*
X124539759Y-73660000D01*
X124307241Y-73815363D01*
X124107363Y-74015241D01*
X124050984Y-74099619D01*
X123898298Y-74036374D01*
X123698339Y-73996600D01*
X123494461Y-73996600D01*
X123294502Y-74036374D01*
X123106144Y-74114395D01*
X122936626Y-74227663D01*
X122792463Y-74371826D01*
X122679195Y-74541344D01*
X122601174Y-74729702D01*
X122561400Y-74929661D01*
X122561400Y-75133539D01*
X122601174Y-75333498D01*
X122679195Y-75521856D01*
X122792463Y-75691374D01*
X122803591Y-75702502D01*
X122685775Y-78176661D01*
X122680324Y-78232000D01*
X122685888Y-78288488D01*
X122688759Y-78345190D01*
X122693213Y-78362857D01*
X122694998Y-78380985D01*
X122711474Y-78435301D01*
X122725352Y-78490356D01*
X122733166Y-78506813D01*
X122738454Y-78524246D01*
X122765217Y-78574315D01*
X122789564Y-78625593D01*
X122800438Y-78640208D01*
X122809026Y-78656276D01*
X122845039Y-78700157D01*
X122878925Y-78745704D01*
X122920194Y-78782995D01*
X123823312Y-79686114D01*
X123787000Y-79868665D01*
X123787000Y-80151335D01*
X123842147Y-80428574D01*
X123950320Y-80689727D01*
X124107363Y-80924759D01*
X124307241Y-81124637D01*
X124542273Y-81281680D01*
X124794233Y-81386045D01*
X123656426Y-82942200D01*
X123490314Y-82942200D01*
X123232395Y-82993504D01*
X122989441Y-83094139D01*
X122770787Y-83240238D01*
X122584838Y-83426187D01*
X122513266Y-83533303D01*
X121229117Y-83552049D01*
X121178962Y-83476987D01*
X120993013Y-83291038D01*
X120774359Y-83144939D01*
X120531405Y-83044304D01*
X120273486Y-82993000D01*
X120010514Y-82993000D01*
X119752595Y-83044304D01*
X119509641Y-83144939D01*
X119290987Y-83291038D01*
X119105038Y-83476987D01*
X118958939Y-83695641D01*
X118872000Y-83905530D01*
X118785061Y-83695641D01*
X118638962Y-83476987D01*
X118453013Y-83291038D01*
X118234359Y-83144939D01*
X117991405Y-83044304D01*
X117733486Y-82993000D01*
X117470514Y-82993000D01*
X117212595Y-83044304D01*
X116969641Y-83144939D01*
X116750987Y-83291038D01*
X116565038Y-83476987D01*
X116418939Y-83695641D01*
X116318304Y-83938595D01*
X116267000Y-84196514D01*
X116267000Y-84459486D01*
X116318304Y-84717405D01*
X116418939Y-84960359D01*
X116565038Y-85179013D01*
X116750987Y-85364962D01*
X116969641Y-85511061D01*
X117212595Y-85611696D01*
X117470514Y-85663000D01*
X117733486Y-85663000D01*
X117991405Y-85611696D01*
X118234359Y-85511061D01*
X118453013Y-85364962D01*
X118638962Y-85179013D01*
X118785061Y-84960359D01*
X118872000Y-84750470D01*
X118958939Y-84960359D01*
X119105038Y-85179013D01*
X119290987Y-85364962D01*
X119509641Y-85511061D01*
X119752595Y-85611696D01*
X120010514Y-85663000D01*
X120273486Y-85663000D01*
X120531405Y-85611696D01*
X120774359Y-85511061D01*
X120993013Y-85364962D01*
X121178962Y-85179013D01*
X121250534Y-85071897D01*
X122534683Y-85053151D01*
X122584838Y-85128213D01*
X122770787Y-85314162D01*
X122989441Y-85460261D01*
X123232395Y-85560896D01*
X123490314Y-85612200D01*
X123753286Y-85612200D01*
X124011205Y-85560896D01*
X124254159Y-85460261D01*
X124472813Y-85314162D01*
X124658762Y-85128213D01*
X124804861Y-84909559D01*
X124891800Y-84699670D01*
X124978739Y-84909559D01*
X125124838Y-85128213D01*
X125310787Y-85314162D01*
X125529441Y-85460261D01*
X125772395Y-85560896D01*
X126030314Y-85612200D01*
X126293286Y-85612200D01*
X126551205Y-85560896D01*
X126794159Y-85460261D01*
X127012813Y-85314162D01*
X127198762Y-85128213D01*
X127344861Y-84909559D01*
X127381000Y-84822312D01*
X127381000Y-132209583D01*
X123796991Y-132283227D01*
X123772270Y-132286176D01*
X123748599Y-132293890D01*
X123726888Y-132306075D01*
X123707972Y-132322261D01*
X123692576Y-132341827D01*
X123681294Y-132364020D01*
X123674558Y-132387988D01*
X123672601Y-132410658D01*
X123674658Y-132980469D01*
X123623072Y-133076980D01*
X123582473Y-133210816D01*
X123568765Y-133350000D01*
X123572200Y-133384877D01*
X123572200Y-136739602D01*
X123478303Y-136625187D01*
X123305882Y-136483685D01*
X123109169Y-136378539D01*
X122895722Y-136313791D01*
X122673745Y-136291928D01*
X121674255Y-136291928D01*
X121452278Y-136313791D01*
X121238831Y-136378539D01*
X121042118Y-136483685D01*
X120869697Y-136625187D01*
X120728195Y-136797608D01*
X120623049Y-136994321D01*
X120586500Y-137114808D01*
X120549951Y-136994321D01*
X120444805Y-136797608D01*
X120303303Y-136625187D01*
X120130882Y-136483685D01*
X119934169Y-136378539D01*
X119720722Y-136313791D01*
X119498745Y-136291928D01*
X118499255Y-136291928D01*
X118277278Y-136313791D01*
X118063831Y-136378539D01*
X117867118Y-136483685D01*
X117694697Y-136625187D01*
X117553195Y-136797608D01*
X117461463Y-136969226D01*
X117461562Y-136930000D01*
X117449302Y-136805518D01*
X117412992Y-136685820D01*
X117354027Y-136575506D01*
X117274675Y-136478815D01*
X117177984Y-136399463D01*
X117067670Y-136340498D01*
X116947972Y-136304188D01*
X116823490Y-136291928D01*
X116109750Y-136295000D01*
X115951000Y-136453750D01*
X115951000Y-138303000D01*
X115971000Y-138303000D01*
X115971000Y-138557000D01*
X115951000Y-138557000D01*
X115951000Y-138577000D01*
X115697000Y-138577000D01*
X115697000Y-138557000D01*
X115677000Y-138557000D01*
X115677000Y-138303000D01*
X115697000Y-138303000D01*
X115697000Y-136453750D01*
X115538250Y-136295000D01*
X114824510Y-136291928D01*
X114700028Y-136304188D01*
X114580330Y-136340498D01*
X114476600Y-136395944D01*
X114476600Y-133435677D01*
X114480035Y-133400800D01*
X114466327Y-133261616D01*
X114425728Y-133127780D01*
X114359800Y-133004437D01*
X114271075Y-132896325D01*
X114194834Y-132833756D01*
X114198397Y-132334907D01*
X114196134Y-132310114D01*
X114189077Y-132286239D01*
X114177498Y-132264199D01*
X114161842Y-132244841D01*
X114142710Y-132228910D01*
X114120838Y-132217017D01*
X114097066Y-132209620D01*
X114077176Y-132207131D01*
X113975767Y-132202514D01*
X115759000Y-132202514D01*
X115759000Y-132465486D01*
X115810304Y-132723405D01*
X115910939Y-132966359D01*
X116057038Y-133185013D01*
X116242987Y-133370962D01*
X116461641Y-133517061D01*
X116671530Y-133604000D01*
X116461641Y-133690939D01*
X116242987Y-133837038D01*
X116057038Y-134022987D01*
X115910939Y-134241641D01*
X115810304Y-134484595D01*
X115759000Y-134742514D01*
X115759000Y-135005486D01*
X115810304Y-135263405D01*
X115910939Y-135506359D01*
X116057038Y-135725013D01*
X116242987Y-135910962D01*
X116461641Y-136057061D01*
X116704595Y-136157696D01*
X116962514Y-136209000D01*
X117225486Y-136209000D01*
X117483405Y-136157696D01*
X117726359Y-136057061D01*
X117945013Y-135910962D01*
X118130962Y-135725013D01*
X118277061Y-135506359D01*
X118377696Y-135263405D01*
X118429000Y-135005486D01*
X118429000Y-134742514D01*
X118377696Y-134484595D01*
X118277061Y-134241641D01*
X118130962Y-134022987D01*
X117945013Y-133837038D01*
X117726359Y-133690939D01*
X117516470Y-133604000D01*
X117726359Y-133517061D01*
X117945013Y-133370962D01*
X118130962Y-133185013D01*
X118277061Y-132966359D01*
X118377696Y-132723405D01*
X118429000Y-132465486D01*
X118429000Y-132202514D01*
X119569000Y-132202514D01*
X119569000Y-132465486D01*
X119620304Y-132723405D01*
X119720939Y-132966359D01*
X119867038Y-133185013D01*
X120052987Y-133370962D01*
X120271641Y-133517061D01*
X120481530Y-133604000D01*
X120271641Y-133690939D01*
X120052987Y-133837038D01*
X119867038Y-134022987D01*
X119720939Y-134241641D01*
X119620304Y-134484595D01*
X119569000Y-134742514D01*
X119569000Y-135005486D01*
X119620304Y-135263405D01*
X119720939Y-135506359D01*
X119867038Y-135725013D01*
X120052987Y-135910962D01*
X120271641Y-136057061D01*
X120514595Y-136157696D01*
X120772514Y-136209000D01*
X121035486Y-136209000D01*
X121293405Y-136157696D01*
X121536359Y-136057061D01*
X121755013Y-135910962D01*
X121940962Y-135725013D01*
X122087061Y-135506359D01*
X122187696Y-135263405D01*
X122239000Y-135005486D01*
X122239000Y-134742514D01*
X122187696Y-134484595D01*
X122087061Y-134241641D01*
X121940962Y-134022987D01*
X121755013Y-133837038D01*
X121536359Y-133690939D01*
X121326470Y-133604000D01*
X121536359Y-133517061D01*
X121755013Y-133370962D01*
X121940962Y-133185013D01*
X122087061Y-132966359D01*
X122187696Y-132723405D01*
X122239000Y-132465486D01*
X122239000Y-132202514D01*
X122187696Y-131944595D01*
X122087061Y-131701641D01*
X121940962Y-131482987D01*
X121755013Y-131297038D01*
X121536359Y-131150939D01*
X121293405Y-131050304D01*
X121035486Y-130999000D01*
X120772514Y-130999000D01*
X120514595Y-131050304D01*
X120271641Y-131150939D01*
X120052987Y-131297038D01*
X119867038Y-131482987D01*
X119720939Y-131701641D01*
X119620304Y-131944595D01*
X119569000Y-132202514D01*
X118429000Y-132202514D01*
X118377696Y-131944595D01*
X118277061Y-131701641D01*
X118130962Y-131482987D01*
X117945013Y-131297038D01*
X117726359Y-131150939D01*
X117483405Y-131050304D01*
X117225486Y-130999000D01*
X116962514Y-130999000D01*
X116704595Y-131050304D01*
X116461641Y-131150939D01*
X116242987Y-131297038D01*
X116057038Y-131482987D01*
X115910939Y-131701641D01*
X115810304Y-131944595D01*
X115759000Y-132202514D01*
X113975767Y-132202514D01*
X110846864Y-132060061D01*
X110841322Y-130363865D01*
X112382400Y-130363865D01*
X112382400Y-130646535D01*
X112437547Y-130923774D01*
X112545720Y-131184927D01*
X112702763Y-131419959D01*
X112902641Y-131619837D01*
X113137673Y-131776880D01*
X113398826Y-131885053D01*
X113676065Y-131940200D01*
X113958735Y-131940200D01*
X114235974Y-131885053D01*
X114497127Y-131776880D01*
X114732159Y-131619837D01*
X114932037Y-131419959D01*
X115089080Y-131184927D01*
X115197253Y-130923774D01*
X115252400Y-130646535D01*
X115252400Y-130363865D01*
X115247348Y-130338465D01*
X122999600Y-130338465D01*
X122999600Y-130621135D01*
X123054747Y-130898374D01*
X123162920Y-131159527D01*
X123319963Y-131394559D01*
X123519841Y-131594437D01*
X123754873Y-131751480D01*
X124016026Y-131859653D01*
X124293265Y-131914800D01*
X124575935Y-131914800D01*
X124853174Y-131859653D01*
X125114327Y-131751480D01*
X125349359Y-131594437D01*
X125549237Y-131394559D01*
X125706280Y-131159527D01*
X125814453Y-130898374D01*
X125869600Y-130621135D01*
X125869600Y-130338465D01*
X125814453Y-130061226D01*
X125706280Y-129800073D01*
X125549237Y-129565041D01*
X125349359Y-129365163D01*
X125148731Y-129231108D01*
X125176114Y-129216471D01*
X125247697Y-128972502D01*
X124434600Y-128159405D01*
X123621503Y-128972502D01*
X123693086Y-129216471D01*
X123721941Y-129230124D01*
X123519841Y-129365163D01*
X123319963Y-129565041D01*
X123162920Y-129800073D01*
X123054747Y-130061226D01*
X122999600Y-130338465D01*
X115247348Y-130338465D01*
X115197253Y-130086626D01*
X115089080Y-129825473D01*
X114932037Y-129590441D01*
X114732159Y-129390563D01*
X114531531Y-129256508D01*
X114558914Y-129241871D01*
X114630497Y-128997902D01*
X113817400Y-128184805D01*
X113004303Y-128997902D01*
X113075886Y-129241871D01*
X113104741Y-129255524D01*
X112902641Y-129390563D01*
X112702763Y-129590441D01*
X112545720Y-129825473D01*
X112437547Y-130086626D01*
X112382400Y-130363865D01*
X110841322Y-130363865D01*
X110833844Y-128075712D01*
X112377183Y-128075712D01*
X112418613Y-128355330D01*
X112513797Y-128621492D01*
X112580729Y-128746714D01*
X112824698Y-128818297D01*
X113637795Y-128005200D01*
X113997005Y-128005200D01*
X114810102Y-128818297D01*
X115054071Y-128746714D01*
X115174971Y-128491204D01*
X115243700Y-128217016D01*
X115257617Y-127934688D01*
X115216187Y-127655070D01*
X115121003Y-127388908D01*
X115054071Y-127263686D01*
X114810102Y-127192103D01*
X113997005Y-128005200D01*
X113637795Y-128005200D01*
X112824698Y-127192103D01*
X112580729Y-127263686D01*
X112459829Y-127519196D01*
X112391100Y-127793384D01*
X112377183Y-128075712D01*
X110833844Y-128075712D01*
X110830370Y-127012498D01*
X113004303Y-127012498D01*
X113817400Y-127825595D01*
X114630497Y-127012498D01*
X114558914Y-126768529D01*
X114303404Y-126647629D01*
X114029216Y-126578900D01*
X113746888Y-126564983D01*
X113467270Y-126606413D01*
X113201108Y-126701597D01*
X113075886Y-126768529D01*
X113004303Y-127012498D01*
X110830370Y-127012498D01*
X110825015Y-125374061D01*
X111639400Y-125374061D01*
X111639400Y-125577939D01*
X111679174Y-125777898D01*
X111757195Y-125966256D01*
X111870463Y-126135774D01*
X112014626Y-126279937D01*
X112184144Y-126393205D01*
X112372502Y-126471226D01*
X112572461Y-126511000D01*
X112776339Y-126511000D01*
X112976298Y-126471226D01*
X113164656Y-126393205D01*
X113334174Y-126279937D01*
X113452170Y-126161941D01*
X117732698Y-125733445D01*
X117757363Y-125770359D01*
X117923943Y-125936939D01*
X117827820Y-125966098D01*
X117717506Y-126025063D01*
X117620815Y-126104415D01*
X117541463Y-126201106D01*
X117482498Y-126311420D01*
X117446188Y-126431118D01*
X117433928Y-126555600D01*
X117433928Y-128155600D01*
X117446188Y-128280082D01*
X117482498Y-128399780D01*
X117541463Y-128510094D01*
X117620815Y-128606785D01*
X117717506Y-128686137D01*
X117827820Y-128745102D01*
X117947518Y-128781412D01*
X118072000Y-128793672D01*
X119672000Y-128793672D01*
X119796482Y-128781412D01*
X119916180Y-128745102D01*
X120026494Y-128686137D01*
X120123185Y-128606785D01*
X120202537Y-128510094D01*
X120261502Y-128399780D01*
X120297812Y-128280082D01*
X120310072Y-128155600D01*
X120310072Y-128050312D01*
X122994383Y-128050312D01*
X123035813Y-128329930D01*
X123130997Y-128596092D01*
X123197929Y-128721314D01*
X123441898Y-128792897D01*
X124254995Y-127979800D01*
X124614205Y-127979800D01*
X125427302Y-128792897D01*
X125671271Y-128721314D01*
X125792171Y-128465804D01*
X125860900Y-128191616D01*
X125874817Y-127909288D01*
X125833387Y-127629670D01*
X125738203Y-127363508D01*
X125671271Y-127238286D01*
X125427302Y-127166703D01*
X124614205Y-127979800D01*
X124254995Y-127979800D01*
X123441898Y-127166703D01*
X123197929Y-127238286D01*
X123077029Y-127493796D01*
X123008300Y-127767984D01*
X122994383Y-128050312D01*
X120310072Y-128050312D01*
X120310072Y-126987098D01*
X123621503Y-126987098D01*
X124434600Y-127800195D01*
X125247697Y-126987098D01*
X125176114Y-126743129D01*
X124920604Y-126622229D01*
X124646416Y-126553500D01*
X124364088Y-126539583D01*
X124084470Y-126581013D01*
X123818308Y-126676197D01*
X123693086Y-126743129D01*
X123621503Y-126987098D01*
X120310072Y-126987098D01*
X120310072Y-126555600D01*
X120297812Y-126431118D01*
X120261502Y-126311420D01*
X120202537Y-126201106D01*
X120123185Y-126104415D01*
X120026494Y-126025063D01*
X119916180Y-125966098D01*
X119820057Y-125936939D01*
X119986637Y-125770359D01*
X120143680Y-125535327D01*
X120251853Y-125274174D01*
X120307000Y-124996935D01*
X120307000Y-124714265D01*
X120251853Y-124437026D01*
X120143680Y-124175873D01*
X120057446Y-124046814D01*
X120498114Y-124026948D01*
X120539163Y-124028744D01*
X120609634Y-124017905D01*
X120680167Y-124007733D01*
X120683562Y-124006534D01*
X120687129Y-124005985D01*
X120754141Y-123981601D01*
X120821325Y-123957868D01*
X120824425Y-123956027D01*
X120827813Y-123954794D01*
X120888754Y-123917821D01*
X120950042Y-123881421D01*
X120980600Y-123853949D01*
X122253558Y-122899231D01*
X122159339Y-123040241D01*
X122058704Y-123283195D01*
X122007400Y-123541114D01*
X122007400Y-123804086D01*
X122058704Y-124062005D01*
X122159339Y-124304959D01*
X122305438Y-124523613D01*
X122491387Y-124709562D01*
X122710041Y-124855661D01*
X122952995Y-124956296D01*
X123210914Y-125007600D01*
X123473886Y-125007600D01*
X123731805Y-124956296D01*
X123974759Y-124855661D01*
X124193413Y-124709562D01*
X124379362Y-124523613D01*
X124525461Y-124304959D01*
X124626096Y-124062005D01*
X124677400Y-123804086D01*
X124677400Y-123541114D01*
X124626096Y-123283195D01*
X124525461Y-123040241D01*
X124379362Y-122821587D01*
X124193413Y-122635638D01*
X123974759Y-122489539D01*
X123764870Y-122402600D01*
X123974759Y-122315661D01*
X124193413Y-122169562D01*
X124379362Y-121983613D01*
X124525461Y-121764959D01*
X124626096Y-121522005D01*
X124677400Y-121264086D01*
X124677400Y-121001114D01*
X124626096Y-120743195D01*
X124525461Y-120500241D01*
X124379362Y-120281587D01*
X124193413Y-120095638D01*
X123974759Y-119949539D01*
X123731805Y-119848904D01*
X123473886Y-119797600D01*
X123210914Y-119797600D01*
X122952995Y-119848904D01*
X122710041Y-119949539D01*
X122491387Y-120095638D01*
X122305438Y-120281587D01*
X122159339Y-120500241D01*
X122058704Y-120743195D01*
X122007400Y-121001114D01*
X122007400Y-121183851D01*
X120229161Y-122517530D01*
X115365173Y-122736808D01*
X115336962Y-122694587D01*
X115151013Y-122508638D01*
X114932359Y-122362539D01*
X114722470Y-122275600D01*
X114932359Y-122188661D01*
X115151013Y-122042562D01*
X115336962Y-121856613D01*
X115483061Y-121637959D01*
X115523840Y-121539509D01*
X117433434Y-121164028D01*
X117490663Y-121271094D01*
X117570015Y-121367785D01*
X117666706Y-121447137D01*
X117777020Y-121506102D01*
X117896718Y-121542412D01*
X118021200Y-121554672D01*
X119621200Y-121554672D01*
X119745682Y-121542412D01*
X119865380Y-121506102D01*
X119975694Y-121447137D01*
X120072385Y-121367785D01*
X120151737Y-121271094D01*
X120210702Y-121160780D01*
X120247012Y-121041082D01*
X120259272Y-120916600D01*
X120259272Y-119316600D01*
X120247012Y-119192118D01*
X120210702Y-119072420D01*
X120151737Y-118962106D01*
X120072385Y-118865415D01*
X119975694Y-118786063D01*
X119865380Y-118727098D01*
X119769257Y-118697939D01*
X119935837Y-118531359D01*
X120032027Y-118387400D01*
X125381889Y-118387400D01*
X125425826Y-118431337D01*
X125595344Y-118544605D01*
X125783702Y-118622626D01*
X125983661Y-118662400D01*
X126187539Y-118662400D01*
X126387498Y-118622626D01*
X126575856Y-118544605D01*
X126745374Y-118431337D01*
X126889537Y-118287174D01*
X127002805Y-118117656D01*
X127080826Y-117929298D01*
X127120600Y-117729339D01*
X127120600Y-117525461D01*
X127080826Y-117325502D01*
X127002805Y-117137144D01*
X126889537Y-116967626D01*
X126745374Y-116823463D01*
X126575856Y-116710195D01*
X126387498Y-116632174D01*
X126187539Y-116592400D01*
X125983661Y-116592400D01*
X125783702Y-116632174D01*
X125595344Y-116710195D01*
X125425826Y-116823463D01*
X125381889Y-116867400D01*
X124693084Y-116867400D01*
X124817280Y-116681527D01*
X124925453Y-116420374D01*
X124980600Y-116143135D01*
X124980600Y-115860465D01*
X124925453Y-115583226D01*
X124817280Y-115322073D01*
X124660237Y-115087041D01*
X124460359Y-114887163D01*
X124259731Y-114753108D01*
X124287114Y-114738471D01*
X124358697Y-114494502D01*
X123545600Y-113681405D01*
X122732503Y-114494502D01*
X122804086Y-114738471D01*
X122832941Y-114752124D01*
X122630841Y-114887163D01*
X122430963Y-115087041D01*
X122273920Y-115322073D01*
X122165747Y-115583226D01*
X122110600Y-115860465D01*
X122110600Y-116143135D01*
X122165747Y-116420374D01*
X122273920Y-116681527D01*
X122398116Y-116867400D01*
X120099556Y-116867400D01*
X120042719Y-116861802D01*
X119935837Y-116701841D01*
X119735959Y-116501963D01*
X119500927Y-116344920D01*
X119239774Y-116236747D01*
X118962535Y-116181600D01*
X118679865Y-116181600D01*
X118402626Y-116236747D01*
X118141473Y-116344920D01*
X117906441Y-116501963D01*
X117706563Y-116701841D01*
X117549520Y-116936873D01*
X117441347Y-117198026D01*
X117386200Y-117475265D01*
X117386200Y-117757935D01*
X117441347Y-118035174D01*
X117549520Y-118296327D01*
X117706563Y-118531359D01*
X117873143Y-118697939D01*
X117777020Y-118727098D01*
X117666706Y-118786063D01*
X117570015Y-118865415D01*
X117490663Y-118962106D01*
X117431698Y-119072420D01*
X117395388Y-119192118D01*
X117383128Y-119316600D01*
X117383128Y-119624815D01*
X115230466Y-120048091D01*
X115151013Y-119968638D01*
X114932359Y-119822539D01*
X114689405Y-119721904D01*
X114431486Y-119670600D01*
X114168514Y-119670600D01*
X113910595Y-119721904D01*
X113667641Y-119822539D01*
X113448987Y-119968638D01*
X113263038Y-120154587D01*
X113116939Y-120373241D01*
X113016304Y-120616195D01*
X112965000Y-120874114D01*
X112965000Y-121137086D01*
X113016304Y-121395005D01*
X113116939Y-121637959D01*
X113263038Y-121856613D01*
X113448987Y-122042562D01*
X113667641Y-122188661D01*
X113877530Y-122275600D01*
X113667641Y-122362539D01*
X113448987Y-122508638D01*
X113263038Y-122694587D01*
X113116939Y-122913241D01*
X113016304Y-123156195D01*
X112965000Y-123414114D01*
X112965000Y-123677086D01*
X113016304Y-123935005D01*
X113116939Y-124177959D01*
X113263038Y-124396613D01*
X113448987Y-124582562D01*
X113516803Y-124627875D01*
X113300455Y-124649532D01*
X113164656Y-124558795D01*
X112976298Y-124480774D01*
X112776339Y-124441000D01*
X112572461Y-124441000D01*
X112372502Y-124480774D01*
X112184144Y-124558795D01*
X112014626Y-124672063D01*
X111870463Y-124816226D01*
X111757195Y-124985744D01*
X111679174Y-125174102D01*
X111639400Y-125374061D01*
X110825015Y-125374061D01*
X110782560Y-112382400D01*
X117179928Y-112382400D01*
X117179928Y-113982400D01*
X117192188Y-114106882D01*
X117228498Y-114226580D01*
X117287463Y-114336894D01*
X117366815Y-114433585D01*
X117463506Y-114512937D01*
X117573820Y-114571902D01*
X117693518Y-114608212D01*
X117818000Y-114620472D01*
X119418000Y-114620472D01*
X119542482Y-114608212D01*
X119662180Y-114571902D01*
X119772494Y-114512937D01*
X119869185Y-114433585D01*
X119948537Y-114336894D01*
X120007502Y-114226580D01*
X120043812Y-114106882D01*
X120056072Y-113982400D01*
X120056072Y-113572312D01*
X122105383Y-113572312D01*
X122146813Y-113851930D01*
X122241997Y-114118092D01*
X122308929Y-114243314D01*
X122552898Y-114314897D01*
X123365995Y-113501800D01*
X123725205Y-113501800D01*
X124538302Y-114314897D01*
X124782271Y-114243314D01*
X124903171Y-113987804D01*
X124971900Y-113713616D01*
X124985817Y-113431288D01*
X124944387Y-113151670D01*
X124849203Y-112885508D01*
X124782271Y-112760286D01*
X124538302Y-112688703D01*
X123725205Y-113501800D01*
X123365995Y-113501800D01*
X122552898Y-112688703D01*
X122308929Y-112760286D01*
X122188029Y-113015796D01*
X122119300Y-113289984D01*
X122105383Y-113572312D01*
X120056072Y-113572312D01*
X120056072Y-112509098D01*
X122732503Y-112509098D01*
X123545600Y-113322195D01*
X124358697Y-112509098D01*
X124287114Y-112265129D01*
X124031604Y-112144229D01*
X123757416Y-112075500D01*
X123475088Y-112061583D01*
X123195470Y-112103013D01*
X122929308Y-112198197D01*
X122804086Y-112265129D01*
X122732503Y-112509098D01*
X120056072Y-112509098D01*
X120056072Y-112382400D01*
X120043812Y-112257918D01*
X120007502Y-112138220D01*
X119948537Y-112027906D01*
X119869185Y-111931215D01*
X119772494Y-111851863D01*
X119662180Y-111792898D01*
X119542482Y-111756588D01*
X119418000Y-111744328D01*
X119410785Y-111744328D01*
X119431097Y-111675102D01*
X118618000Y-110862005D01*
X117804903Y-111675102D01*
X117825215Y-111744328D01*
X117818000Y-111744328D01*
X117693518Y-111756588D01*
X117573820Y-111792898D01*
X117463506Y-111851863D01*
X117366815Y-111931215D01*
X117287463Y-112027906D01*
X117228498Y-112138220D01*
X117192188Y-112257918D01*
X117179928Y-112382400D01*
X110782560Y-112382400D01*
X110777234Y-110752912D01*
X117177783Y-110752912D01*
X117219213Y-111032530D01*
X117314397Y-111298692D01*
X117381329Y-111423914D01*
X117625298Y-111495497D01*
X118438395Y-110682400D01*
X118797605Y-110682400D01*
X119610702Y-111495497D01*
X119854671Y-111423914D01*
X119975571Y-111168404D01*
X120044300Y-110894216D01*
X120058217Y-110611888D01*
X120016787Y-110332270D01*
X119921603Y-110066108D01*
X119854671Y-109940886D01*
X119610702Y-109869303D01*
X118797605Y-110682400D01*
X118438395Y-110682400D01*
X117625298Y-109869303D01*
X117381329Y-109940886D01*
X117260429Y-110196396D01*
X117191700Y-110470584D01*
X117177783Y-110752912D01*
X110777234Y-110752912D01*
X110762332Y-106192914D01*
X112431600Y-106192914D01*
X112431600Y-106455886D01*
X112482904Y-106713805D01*
X112583539Y-106956759D01*
X112729638Y-107175413D01*
X112915587Y-107361362D01*
X113134241Y-107507461D01*
X113344130Y-107594400D01*
X113134241Y-107681339D01*
X112915587Y-107827438D01*
X112729638Y-108013387D01*
X112583539Y-108232041D01*
X112482904Y-108474995D01*
X112431600Y-108732914D01*
X112431600Y-108995886D01*
X112482904Y-109253805D01*
X112583539Y-109496759D01*
X112729638Y-109715413D01*
X112915587Y-109901362D01*
X113134241Y-110047461D01*
X113377195Y-110148096D01*
X113635114Y-110199400D01*
X113898086Y-110199400D01*
X114156005Y-110148096D01*
X114398959Y-110047461D01*
X114617613Y-109901362D01*
X114803562Y-109715413D01*
X114820744Y-109689698D01*
X117804903Y-109689698D01*
X118618000Y-110502795D01*
X119431097Y-109689698D01*
X119359514Y-109445729D01*
X119104004Y-109324829D01*
X118829816Y-109256100D01*
X118547488Y-109242183D01*
X118267870Y-109283613D01*
X118001708Y-109378797D01*
X117876486Y-109445729D01*
X117804903Y-109689698D01*
X114820744Y-109689698D01*
X114949661Y-109496759D01*
X115050296Y-109253805D01*
X115101600Y-108995886D01*
X115101600Y-108732914D01*
X115050296Y-108474995D01*
X114949661Y-108232041D01*
X114803562Y-108013387D01*
X114617613Y-107827438D01*
X114398959Y-107681339D01*
X114189070Y-107594400D01*
X114398959Y-107507461D01*
X114617613Y-107361362D01*
X114803562Y-107175413D01*
X114949661Y-106956759D01*
X115050296Y-106713805D01*
X115101600Y-106455886D01*
X115101600Y-106192914D01*
X115050296Y-105934995D01*
X115049884Y-105934000D01*
X122567928Y-105934000D01*
X122567928Y-107934000D01*
X122580188Y-108058482D01*
X122616498Y-108178180D01*
X122675463Y-108288494D01*
X122754815Y-108385185D01*
X122851506Y-108464537D01*
X122961820Y-108523502D01*
X123081518Y-108559812D01*
X123206000Y-108572072D01*
X125206000Y-108572072D01*
X125330482Y-108559812D01*
X125450180Y-108523502D01*
X125560494Y-108464537D01*
X125657185Y-108385185D01*
X125736537Y-108288494D01*
X125795502Y-108178180D01*
X125831812Y-108058482D01*
X125844072Y-107934000D01*
X125844072Y-105934000D01*
X125831812Y-105809518D01*
X125795502Y-105689820D01*
X125736537Y-105579506D01*
X125657185Y-105482815D01*
X125560494Y-105403463D01*
X125450180Y-105344498D01*
X125330482Y-105308188D01*
X125206000Y-105295928D01*
X123206000Y-105295928D01*
X123081518Y-105308188D01*
X122961820Y-105344498D01*
X122851506Y-105403463D01*
X122754815Y-105482815D01*
X122675463Y-105579506D01*
X122616498Y-105689820D01*
X122580188Y-105809518D01*
X122567928Y-105934000D01*
X115049884Y-105934000D01*
X114949661Y-105692041D01*
X114803562Y-105473387D01*
X114617613Y-105287438D01*
X114398959Y-105141339D01*
X114156005Y-105040704D01*
X113898086Y-104989400D01*
X113635114Y-104989400D01*
X113377195Y-105040704D01*
X113134241Y-105141339D01*
X112915587Y-105287438D01*
X112729638Y-105473387D01*
X112583539Y-105692041D01*
X112482904Y-105934995D01*
X112431600Y-106192914D01*
X110762332Y-106192914D01*
X110754742Y-103870200D01*
X116871928Y-103870200D01*
X116871928Y-105070200D01*
X116884188Y-105194682D01*
X116920498Y-105314380D01*
X116979463Y-105424694D01*
X117058815Y-105521385D01*
X117155506Y-105600737D01*
X117265820Y-105659702D01*
X117385518Y-105696012D01*
X117510000Y-105708272D01*
X118710000Y-105708272D01*
X118834482Y-105696012D01*
X118954180Y-105659702D01*
X119064494Y-105600737D01*
X119081681Y-105586632D01*
X119208516Y-105644437D01*
X119445313Y-105700200D01*
X119688438Y-105708695D01*
X119928549Y-105669595D01*
X120156418Y-105584402D01*
X120232852Y-105543548D01*
X120280159Y-105319964D01*
X119610000Y-104649805D01*
X119595858Y-104663948D01*
X119416253Y-104484343D01*
X119430395Y-104470200D01*
X119789605Y-104470200D01*
X120459764Y-105140359D01*
X120683348Y-105093052D01*
X120784237Y-104871684D01*
X120840000Y-104634887D01*
X120848495Y-104391762D01*
X120809395Y-104151651D01*
X120724202Y-103923782D01*
X120683348Y-103847348D01*
X120459764Y-103800041D01*
X119789605Y-104470200D01*
X119430395Y-104470200D01*
X119416253Y-104456058D01*
X119595858Y-104276453D01*
X119610000Y-104290595D01*
X120280159Y-103620436D01*
X120232852Y-103396852D01*
X120011484Y-103295963D01*
X119774687Y-103240200D01*
X119531562Y-103231705D01*
X119291451Y-103270805D01*
X119077883Y-103350651D01*
X119064494Y-103339663D01*
X118954180Y-103280698D01*
X118834482Y-103244388D01*
X118710000Y-103232128D01*
X117510000Y-103232128D01*
X117385518Y-103244388D01*
X117265820Y-103280698D01*
X117155506Y-103339663D01*
X117058815Y-103419015D01*
X116979463Y-103515706D01*
X116920498Y-103626020D01*
X116884188Y-103745718D01*
X116871928Y-103870200D01*
X110754742Y-103870200D01*
X110739314Y-99149102D01*
X118008103Y-99149102D01*
X118079686Y-99393071D01*
X118335196Y-99513971D01*
X118609384Y-99582700D01*
X118891712Y-99596617D01*
X119136058Y-99560413D01*
X123275592Y-99560413D01*
X123371356Y-99824814D01*
X123660971Y-99965704D01*
X123972508Y-100047384D01*
X124293995Y-100066718D01*
X124613075Y-100022961D01*
X124917488Y-99917795D01*
X125091444Y-99824814D01*
X125187208Y-99560413D01*
X124231400Y-98604605D01*
X123275592Y-99560413D01*
X119136058Y-99560413D01*
X119171330Y-99555187D01*
X119437492Y-99460003D01*
X119562714Y-99393071D01*
X119634297Y-99149102D01*
X118821200Y-98336005D01*
X118008103Y-99149102D01*
X110739314Y-99149102D01*
X110736300Y-98226912D01*
X117380983Y-98226912D01*
X117422413Y-98506530D01*
X117517597Y-98772692D01*
X117584529Y-98897914D01*
X117828498Y-98969497D01*
X118641595Y-98156400D01*
X119000805Y-98156400D01*
X119813902Y-98969497D01*
X120057871Y-98897914D01*
X120178771Y-98642404D01*
X120217576Y-98487595D01*
X122589682Y-98487595D01*
X122633439Y-98806675D01*
X122738605Y-99111088D01*
X122831586Y-99285044D01*
X123095987Y-99380808D01*
X124051795Y-98425000D01*
X124411005Y-98425000D01*
X125366813Y-99380808D01*
X125631214Y-99285044D01*
X125772104Y-98995429D01*
X125853784Y-98683892D01*
X125873118Y-98362405D01*
X125829361Y-98043325D01*
X125724195Y-97738912D01*
X125631214Y-97564956D01*
X125366813Y-97469192D01*
X124411005Y-98425000D01*
X124051795Y-98425000D01*
X123095987Y-97469192D01*
X122831586Y-97564956D01*
X122690696Y-97854571D01*
X122609016Y-98166108D01*
X122589682Y-98487595D01*
X120217576Y-98487595D01*
X120247500Y-98368216D01*
X120261417Y-98085888D01*
X120219987Y-97806270D01*
X120124803Y-97540108D01*
X120057871Y-97414886D01*
X119813902Y-97343303D01*
X119000805Y-98156400D01*
X118641595Y-98156400D01*
X117828498Y-97343303D01*
X117584529Y-97414886D01*
X117463629Y-97670396D01*
X117394900Y-97944584D01*
X117380983Y-98226912D01*
X110736300Y-98226912D01*
X110725285Y-94856400D01*
X117383128Y-94856400D01*
X117383128Y-96456400D01*
X117395388Y-96580882D01*
X117431698Y-96700580D01*
X117490663Y-96810894D01*
X117570015Y-96907585D01*
X117666706Y-96986937D01*
X117777020Y-97045902D01*
X117896718Y-97082212D01*
X118021200Y-97094472D01*
X118028415Y-97094472D01*
X118008103Y-97163698D01*
X118821200Y-97976795D01*
X119508408Y-97289587D01*
X123275592Y-97289587D01*
X124231400Y-98245395D01*
X125187208Y-97289587D01*
X125091444Y-97025186D01*
X124801829Y-96884296D01*
X124490292Y-96802616D01*
X124168805Y-96783282D01*
X123849725Y-96827039D01*
X123545312Y-96932205D01*
X123371356Y-97025186D01*
X123275592Y-97289587D01*
X119508408Y-97289587D01*
X119634297Y-97163698D01*
X119613985Y-97094472D01*
X119621200Y-97094472D01*
X119745682Y-97082212D01*
X119865380Y-97045902D01*
X119975694Y-96986937D01*
X120072385Y-96907585D01*
X120151737Y-96810894D01*
X120210702Y-96700580D01*
X120247012Y-96580882D01*
X120259272Y-96456400D01*
X120259272Y-94856400D01*
X120247012Y-94731918D01*
X120210702Y-94612220D01*
X120151737Y-94501906D01*
X120072385Y-94405215D01*
X119975694Y-94325863D01*
X119865380Y-94266898D01*
X119745682Y-94230588D01*
X119621200Y-94218328D01*
X118021200Y-94218328D01*
X117896718Y-94230588D01*
X117777020Y-94266898D01*
X117666706Y-94325863D01*
X117570015Y-94405215D01*
X117490663Y-94501906D01*
X117431698Y-94612220D01*
X117395388Y-94731918D01*
X117383128Y-94856400D01*
X110725285Y-94856400D01*
X110642916Y-69652198D01*
X110996324Y-69652198D01*
X111000053Y-69690055D01*
X111025453Y-87846196D01*
X111036607Y-87957833D01*
X111080264Y-88101034D01*
X111151021Y-88232964D01*
X111246155Y-88348556D01*
X111274780Y-88371981D01*
X113336801Y-90434003D01*
X113336801Y-90545425D01*
X113245787Y-90606238D01*
X113059838Y-90792187D01*
X112913739Y-91010841D01*
X112813104Y-91253795D01*
X112761800Y-91511714D01*
X112761800Y-91774686D01*
X112813104Y-92032605D01*
X112913739Y-92275559D01*
X113059838Y-92494213D01*
X113245787Y-92680162D01*
X113403041Y-92785235D01*
X113027732Y-92853079D01*
X112961456Y-92808795D01*
X112773098Y-92730774D01*
X112573139Y-92691000D01*
X112369261Y-92691000D01*
X112169302Y-92730774D01*
X111980944Y-92808795D01*
X111811426Y-92922063D01*
X111667263Y-93066226D01*
X111553995Y-93235744D01*
X111475974Y-93424102D01*
X111436200Y-93624061D01*
X111436200Y-93827939D01*
X111475974Y-94027898D01*
X111553995Y-94216256D01*
X111667263Y-94385774D01*
X111811426Y-94529937D01*
X111980944Y-94643205D01*
X112169302Y-94721226D01*
X112369261Y-94761000D01*
X112573139Y-94761000D01*
X112773098Y-94721226D01*
X112961456Y-94643205D01*
X113130974Y-94529937D01*
X113275137Y-94385774D01*
X113300052Y-94348486D01*
X118518669Y-93405121D01*
X118584944Y-93449405D01*
X118773302Y-93527426D01*
X118973261Y-93567200D01*
X119177139Y-93567200D01*
X119377098Y-93527426D01*
X119565456Y-93449405D01*
X119734974Y-93336137D01*
X119879137Y-93191974D01*
X119992405Y-93022456D01*
X120070426Y-92834098D01*
X120110200Y-92634139D01*
X120110200Y-92430261D01*
X120070426Y-92230302D01*
X119992405Y-92041944D01*
X119879137Y-91872426D01*
X119734974Y-91728263D01*
X119565456Y-91614995D01*
X119377098Y-91536974D01*
X119250107Y-91511714D01*
X120127800Y-91511714D01*
X120127800Y-91774686D01*
X120179104Y-92032605D01*
X120279739Y-92275559D01*
X120425838Y-92494213D01*
X120611787Y-92680162D01*
X120830441Y-92826261D01*
X121073395Y-92926896D01*
X121331314Y-92978200D01*
X121594286Y-92978200D01*
X121852205Y-92926896D01*
X122095159Y-92826261D01*
X122313813Y-92680162D01*
X122499762Y-92494213D01*
X122645861Y-92275559D01*
X122735294Y-92059650D01*
X122742753Y-92084244D01*
X122853008Y-92321592D01*
X123007449Y-92532870D01*
X123200140Y-92709959D01*
X123423677Y-92846053D01*
X123669470Y-92935922D01*
X123875800Y-92813401D01*
X123875800Y-91770200D01*
X124129800Y-91770200D01*
X124129800Y-92813401D01*
X124336130Y-92935922D01*
X124581923Y-92846053D01*
X124805460Y-92709959D01*
X124998151Y-92532870D01*
X125152592Y-92321592D01*
X125262847Y-92084244D01*
X125295516Y-91976529D01*
X125172174Y-91770200D01*
X124129800Y-91770200D01*
X123875800Y-91770200D01*
X123855800Y-91770200D01*
X123855800Y-91516200D01*
X123875800Y-91516200D01*
X123875800Y-90472999D01*
X124129800Y-90472999D01*
X124129800Y-91516200D01*
X125172174Y-91516200D01*
X125295516Y-91309871D01*
X125262847Y-91202156D01*
X125152592Y-90964808D01*
X124998151Y-90753530D01*
X124805460Y-90576441D01*
X124581923Y-90440347D01*
X124336130Y-90350478D01*
X124129800Y-90472999D01*
X123875800Y-90472999D01*
X123669470Y-90350478D01*
X123423677Y-90440347D01*
X123200140Y-90576441D01*
X123007449Y-90753530D01*
X122853008Y-90964808D01*
X122742753Y-91202156D01*
X122735294Y-91226750D01*
X122645861Y-91010841D01*
X122499762Y-90792187D01*
X122313813Y-90606238D01*
X122095159Y-90460139D01*
X121852205Y-90359504D01*
X121594286Y-90308200D01*
X121331314Y-90308200D01*
X121073395Y-90359504D01*
X120830441Y-90460139D01*
X120611787Y-90606238D01*
X120425838Y-90792187D01*
X120279739Y-91010841D01*
X120179104Y-91253795D01*
X120127800Y-91511714D01*
X119250107Y-91511714D01*
X119177139Y-91497200D01*
X118973261Y-91497200D01*
X118773302Y-91536974D01*
X118584944Y-91614995D01*
X118415426Y-91728263D01*
X118271263Y-91872426D01*
X118246348Y-91909714D01*
X117933699Y-91966231D01*
X117971800Y-91774686D01*
X117971800Y-91511714D01*
X117920496Y-91253795D01*
X117819861Y-91010841D01*
X117673762Y-90792187D01*
X117487813Y-90606238D01*
X117269159Y-90460139D01*
X117026205Y-90359504D01*
X116768286Y-90308200D01*
X116505314Y-90308200D01*
X116247395Y-90359504D01*
X116004441Y-90460139D01*
X115785787Y-90606238D01*
X115599838Y-90792187D01*
X115453739Y-91010841D01*
X115366800Y-91220730D01*
X115279861Y-91010841D01*
X115133762Y-90792187D01*
X114947813Y-90606238D01*
X114856800Y-90545425D01*
X114856800Y-90156522D01*
X114860476Y-90119199D01*
X114856800Y-90081876D01*
X114856800Y-90081867D01*
X114845803Y-89970214D01*
X114802346Y-89826953D01*
X114731774Y-89694924D01*
X114636801Y-89579199D01*
X114607803Y-89555401D01*
X113710351Y-88657949D01*
X113764750Y-88680482D01*
X114119268Y-88751000D01*
X114480732Y-88751000D01*
X114835250Y-88680482D01*
X115169199Y-88542156D01*
X115469744Y-88341338D01*
X115725338Y-88085744D01*
X115926156Y-87785199D01*
X116064482Y-87451250D01*
X116135000Y-87096732D01*
X116135000Y-86735268D01*
X116064482Y-86380750D01*
X115926156Y-86046801D01*
X115725338Y-85746256D01*
X115469744Y-85490662D01*
X115169199Y-85289844D01*
X114835250Y-85151518D01*
X114480732Y-85081000D01*
X114119268Y-85081000D01*
X113764750Y-85151518D01*
X113430801Y-85289844D01*
X113130256Y-85490662D01*
X112874662Y-85746256D01*
X112673844Y-86046801D01*
X112543377Y-86361776D01*
X112535881Y-81002702D01*
X116788903Y-81002702D01*
X116860486Y-81246671D01*
X117115996Y-81367571D01*
X117390184Y-81436300D01*
X117672512Y-81450217D01*
X117952130Y-81408787D01*
X118218292Y-81313603D01*
X118343514Y-81246671D01*
X118415097Y-81002702D01*
X117602000Y-80189605D01*
X116788903Y-81002702D01*
X112535881Y-81002702D01*
X112534590Y-80080512D01*
X116161783Y-80080512D01*
X116203213Y-80360130D01*
X116298397Y-80626292D01*
X116365329Y-80751514D01*
X116609298Y-80823097D01*
X117422395Y-80010000D01*
X117781605Y-80010000D01*
X118594702Y-80823097D01*
X118838671Y-80751514D01*
X118959571Y-80496004D01*
X119028300Y-80221816D01*
X119042217Y-79939488D01*
X119000787Y-79659870D01*
X118905603Y-79393708D01*
X118838671Y-79268486D01*
X118594702Y-79196903D01*
X117781605Y-80010000D01*
X117422395Y-80010000D01*
X116609298Y-79196903D01*
X116365329Y-79268486D01*
X116244429Y-79523996D01*
X116175700Y-79798184D01*
X116161783Y-80080512D01*
X112534590Y-80080512D01*
X112522713Y-71590000D01*
X116163928Y-71590000D01*
X116163928Y-73190000D01*
X116176188Y-73314482D01*
X116212498Y-73434180D01*
X116271463Y-73544494D01*
X116350815Y-73641185D01*
X116447506Y-73720537D01*
X116557820Y-73779502D01*
X116677518Y-73815812D01*
X116685961Y-73816643D01*
X116487363Y-74015241D01*
X116330320Y-74250273D01*
X116222147Y-74511426D01*
X116167000Y-74788665D01*
X116167000Y-75071335D01*
X116222147Y-75348574D01*
X116330320Y-75609727D01*
X116487363Y-75844759D01*
X116687241Y-76044637D01*
X116919759Y-76200000D01*
X116687241Y-76355363D01*
X116487363Y-76555241D01*
X116330320Y-76790273D01*
X116222147Y-77051426D01*
X116167000Y-77328665D01*
X116167000Y-77611335D01*
X116222147Y-77888574D01*
X116330320Y-78149727D01*
X116487363Y-78384759D01*
X116687241Y-78584637D01*
X116921128Y-78740915D01*
X116860486Y-78773329D01*
X116788903Y-79017298D01*
X117602000Y-79830395D01*
X118415097Y-79017298D01*
X118343514Y-78773329D01*
X118279008Y-78742806D01*
X118281727Y-78741680D01*
X118516759Y-78584637D01*
X118716637Y-78384759D01*
X118873680Y-78149727D01*
X118981853Y-77888574D01*
X119037000Y-77611335D01*
X119037000Y-77430001D01*
X120390688Y-77430001D01*
X120434625Y-77473938D01*
X120604143Y-77587206D01*
X120792501Y-77665227D01*
X120992460Y-77705001D01*
X121196338Y-77705001D01*
X121396297Y-77665227D01*
X121584655Y-77587206D01*
X121754173Y-77473938D01*
X121898336Y-77329775D01*
X122011604Y-77160257D01*
X122089625Y-76971899D01*
X122129399Y-76771940D01*
X122129399Y-76568062D01*
X122089625Y-76368103D01*
X122011604Y-76179745D01*
X121898336Y-76010227D01*
X121754173Y-75866064D01*
X121584655Y-75752796D01*
X121396297Y-75674775D01*
X121196338Y-75635001D01*
X120992460Y-75635001D01*
X120792501Y-75674775D01*
X120604143Y-75752796D01*
X120434625Y-75866064D01*
X120390688Y-75910001D01*
X118651395Y-75910001D01*
X118716637Y-75844759D01*
X118873680Y-75609727D01*
X118981853Y-75348574D01*
X119037000Y-75071335D01*
X119037000Y-74788665D01*
X118981853Y-74511426D01*
X118873680Y-74250273D01*
X118716637Y-74015241D01*
X118518039Y-73816643D01*
X118526482Y-73815812D01*
X118646180Y-73779502D01*
X118756494Y-73720537D01*
X118853185Y-73641185D01*
X118932537Y-73544494D01*
X118991502Y-73434180D01*
X119027812Y-73314482D01*
X119040072Y-73190000D01*
X119040072Y-71590000D01*
X119027812Y-71465518D01*
X118991502Y-71345820D01*
X118932537Y-71235506D01*
X118853185Y-71138815D01*
X118756494Y-71059463D01*
X118646180Y-71000498D01*
X118526482Y-70964188D01*
X118402000Y-70951928D01*
X116802000Y-70951928D01*
X116677518Y-70964188D01*
X116557820Y-71000498D01*
X116447506Y-71059463D01*
X116350815Y-71138815D01*
X116271463Y-71235506D01*
X116212498Y-71345820D01*
X116176188Y-71465518D01*
X116163928Y-71590000D01*
X112522713Y-71590000D01*
X112520441Y-69966559D01*
X112660298Y-69826702D01*
X120065503Y-69826702D01*
X120137086Y-70070671D01*
X120392596Y-70191571D01*
X120666784Y-70260300D01*
X120949112Y-70274217D01*
X121228730Y-70232787D01*
X121494892Y-70137603D01*
X121620114Y-70070671D01*
X121691697Y-69826702D01*
X120878600Y-69013605D01*
X120065503Y-69826702D01*
X112660298Y-69826702D01*
X114417000Y-68070000D01*
X119718566Y-68070000D01*
X119641929Y-68092486D01*
X119521029Y-68347996D01*
X119452300Y-68622184D01*
X119438383Y-68904512D01*
X119479813Y-69184130D01*
X119574997Y-69450292D01*
X119641929Y-69575514D01*
X119885898Y-69647097D01*
X120698995Y-68834000D01*
X120684853Y-68819858D01*
X120864458Y-68640253D01*
X120878600Y-68654395D01*
X120892743Y-68640253D01*
X121072348Y-68819858D01*
X121058205Y-68834000D01*
X121871302Y-69647097D01*
X122115271Y-69575514D01*
X122128924Y-69546659D01*
X122263963Y-69748759D01*
X122463841Y-69948637D01*
X122698873Y-70105680D01*
X122960026Y-70213853D01*
X123237265Y-70269000D01*
X123519935Y-70269000D01*
X123797174Y-70213853D01*
X124058327Y-70105680D01*
X124293359Y-69948637D01*
X124493237Y-69748759D01*
X124650280Y-69513727D01*
X124758453Y-69252574D01*
X124813600Y-68975335D01*
X124813600Y-68692665D01*
X124758453Y-68415426D01*
X124650280Y-68154273D01*
X124493237Y-67919241D01*
X124293359Y-67719363D01*
X124058327Y-67562320D01*
X123797174Y-67454147D01*
X123519935Y-67399000D01*
X123297801Y-67399000D01*
X122697804Y-66799003D01*
X122674001Y-66769999D01*
X122558276Y-66675026D01*
X122426247Y-66604454D01*
X122282986Y-66560997D01*
X122171333Y-66550000D01*
X122171322Y-66550000D01*
X122134000Y-66546324D01*
X122096678Y-66550000D01*
X114139520Y-66550000D01*
X114102197Y-66546324D01*
X114064874Y-66550000D01*
X114064865Y-66550000D01*
X113953212Y-66560997D01*
X113809951Y-66604454D01*
X113677922Y-66675026D01*
X113562197Y-66769999D01*
X113538399Y-66798997D01*
X111248620Y-69088777D01*
X111219245Y-69112953D01*
X111172344Y-69170266D01*
X111125026Y-69227922D01*
X111124771Y-69228399D01*
X111124434Y-69228811D01*
X111089649Y-69294106D01*
X111054454Y-69359952D01*
X111054298Y-69360466D01*
X111054046Y-69360939D01*
X111032545Y-69432178D01*
X111010998Y-69503213D01*
X111010946Y-69503746D01*
X111010790Y-69504261D01*
X111003579Y-69578535D01*
X110996324Y-69652198D01*
X110642916Y-69652198D01*
X110625541Y-64335268D01*
X112465000Y-64335268D01*
X112465000Y-64696732D01*
X112535518Y-65051250D01*
X112673844Y-65385199D01*
X112874662Y-65685744D01*
X113130256Y-65941338D01*
X113430801Y-66142156D01*
X113764750Y-66280482D01*
X114119268Y-66351000D01*
X114480732Y-66351000D01*
X114835250Y-66280482D01*
X115169199Y-66142156D01*
X115469744Y-65941338D01*
X115725338Y-65685744D01*
X115926156Y-65385199D01*
X116064482Y-65051250D01*
X116135000Y-64696732D01*
X116135000Y-64335268D01*
X116064482Y-63980750D01*
X116008660Y-63845982D01*
X118497000Y-63845982D01*
X118497000Y-64170018D01*
X118560217Y-64487829D01*
X118684220Y-64787199D01*
X118864245Y-65056626D01*
X119093374Y-65285755D01*
X119362801Y-65465780D01*
X119662171Y-65589783D01*
X119979982Y-65653000D01*
X120304018Y-65653000D01*
X120621829Y-65589783D01*
X120921199Y-65465780D01*
X121190626Y-65285755D01*
X121412000Y-65064381D01*
X121633374Y-65285755D01*
X121902801Y-65465780D01*
X122202171Y-65589783D01*
X122519982Y-65653000D01*
X122844018Y-65653000D01*
X123161829Y-65589783D01*
X123461199Y-65465780D01*
X123730626Y-65285755D01*
X123959755Y-65056626D01*
X124139780Y-64787199D01*
X124263783Y-64487829D01*
X124327000Y-64170018D01*
X124327000Y-63845982D01*
X124263783Y-63528171D01*
X124139780Y-63228801D01*
X123959755Y-62959374D01*
X123730626Y-62730245D01*
X123461199Y-62550220D01*
X123161829Y-62426217D01*
X122844018Y-62363000D01*
X122519982Y-62363000D01*
X122202171Y-62426217D01*
X121902801Y-62550220D01*
X121633374Y-62730245D01*
X121412000Y-62951619D01*
X121190626Y-62730245D01*
X120921199Y-62550220D01*
X120621829Y-62426217D01*
X120304018Y-62363000D01*
X119979982Y-62363000D01*
X119662171Y-62426217D01*
X119362801Y-62550220D01*
X119093374Y-62730245D01*
X118864245Y-62959374D01*
X118684220Y-63228801D01*
X118560217Y-63528171D01*
X118497000Y-63845982D01*
X116008660Y-63845982D01*
X115926156Y-63646801D01*
X115725338Y-63346256D01*
X115469744Y-63090662D01*
X115169199Y-62889844D01*
X114835250Y-62751518D01*
X114480732Y-62681000D01*
X114119268Y-62681000D01*
X113764750Y-62751518D01*
X113430801Y-62889844D01*
X113130256Y-63090662D01*
X112874662Y-63346256D01*
X112673844Y-63646801D01*
X112535518Y-63980750D01*
X112465000Y-64335268D01*
X110625541Y-64335268D01*
X110617415Y-61849000D01*
X127381000Y-61849000D01*
X127381000Y-83732088D01*
G37*
X127381000Y-83732088D02*
X127344861Y-83644841D01*
X127198762Y-83426187D01*
X127012813Y-83240238D01*
X126794159Y-83094139D01*
X126551205Y-82993504D01*
X126293286Y-82942200D01*
X126030314Y-82942200D01*
X125772395Y-82993504D01*
X125529441Y-83094139D01*
X125331678Y-83226279D01*
X126947963Y-81015721D01*
X126981975Y-80974277D01*
X127009691Y-80922425D01*
X127039560Y-80871815D01*
X127044911Y-80856534D01*
X127052547Y-80842248D01*
X127069611Y-80785994D01*
X127089036Y-80730520D01*
X127091303Y-80714483D01*
X127096004Y-80698987D01*
X127101767Y-80640478D01*
X127109994Y-80582288D01*
X127107001Y-80528787D01*
X127107001Y-78632323D01*
X127110677Y-78595000D01*
X127107001Y-78557677D01*
X127107001Y-78557668D01*
X127096004Y-78446015D01*
X127052547Y-78302754D01*
X126981975Y-78170725D01*
X126887002Y-78055000D01*
X126857998Y-78031197D01*
X126620688Y-77793887D01*
X126657000Y-77611335D01*
X126657000Y-77328665D01*
X126601853Y-77051426D01*
X126493680Y-76790273D01*
X126336637Y-76555241D01*
X126136759Y-76355363D01*
X125904241Y-76200000D01*
X126136759Y-76044637D01*
X126336637Y-75844759D01*
X126493680Y-75609727D01*
X126601853Y-75348574D01*
X126657000Y-75071335D01*
X126657000Y-74788665D01*
X126601853Y-74511426D01*
X126493680Y-74250273D01*
X126336637Y-74015241D01*
X126136759Y-73815363D01*
X125904241Y-73660000D01*
X126136759Y-73504637D01*
X126336637Y-73304759D01*
X126493680Y-73069727D01*
X126601853Y-72808574D01*
X126657000Y-72531335D01*
X126657000Y-72248665D01*
X126601853Y-71971426D01*
X126493680Y-71710273D01*
X126336637Y-71475241D01*
X126136759Y-71275363D01*
X125901727Y-71118320D01*
X125640574Y-71010147D01*
X125363335Y-70955000D01*
X125080665Y-70955000D01*
X124803426Y-71010147D01*
X124542273Y-71118320D01*
X124307241Y-71275363D01*
X124107363Y-71475241D01*
X123950320Y-71710273D01*
X123842147Y-71971426D01*
X123787000Y-72248665D01*
X123787000Y-72531335D01*
X123842147Y-72808574D01*
X123950320Y-73069727D01*
X124107363Y-73304759D01*
X124307241Y-73504637D01*
X124539759Y-73660000D01*
X124307241Y-73815363D01*
X124107363Y-74015241D01*
X124050984Y-74099619D01*
X123898298Y-74036374D01*
X123698339Y-73996600D01*
X123494461Y-73996600D01*
X123294502Y-74036374D01*
X123106144Y-74114395D01*
X122936626Y-74227663D01*
X122792463Y-74371826D01*
X122679195Y-74541344D01*
X122601174Y-74729702D01*
X122561400Y-74929661D01*
X122561400Y-75133539D01*
X122601174Y-75333498D01*
X122679195Y-75521856D01*
X122792463Y-75691374D01*
X122803591Y-75702502D01*
X122685775Y-78176661D01*
X122680324Y-78232000D01*
X122685888Y-78288488D01*
X122688759Y-78345190D01*
X122693213Y-78362857D01*
X122694998Y-78380985D01*
X122711474Y-78435301D01*
X122725352Y-78490356D01*
X122733166Y-78506813D01*
X122738454Y-78524246D01*
X122765217Y-78574315D01*
X122789564Y-78625593D01*
X122800438Y-78640208D01*
X122809026Y-78656276D01*
X122845039Y-78700157D01*
X122878925Y-78745704D01*
X122920194Y-78782995D01*
X123823312Y-79686114D01*
X123787000Y-79868665D01*
X123787000Y-80151335D01*
X123842147Y-80428574D01*
X123950320Y-80689727D01*
X124107363Y-80924759D01*
X124307241Y-81124637D01*
X124542273Y-81281680D01*
X124794233Y-81386045D01*
X123656426Y-82942200D01*
X123490314Y-82942200D01*
X123232395Y-82993504D01*
X122989441Y-83094139D01*
X122770787Y-83240238D01*
X122584838Y-83426187D01*
X122513266Y-83533303D01*
X121229117Y-83552049D01*
X121178962Y-83476987D01*
X120993013Y-83291038D01*
X120774359Y-83144939D01*
X120531405Y-83044304D01*
X120273486Y-82993000D01*
X120010514Y-82993000D01*
X119752595Y-83044304D01*
X119509641Y-83144939D01*
X119290987Y-83291038D01*
X119105038Y-83476987D01*
X118958939Y-83695641D01*
X118872000Y-83905530D01*
X118785061Y-83695641D01*
X118638962Y-83476987D01*
X118453013Y-83291038D01*
X118234359Y-83144939D01*
X117991405Y-83044304D01*
X117733486Y-82993000D01*
X117470514Y-82993000D01*
X117212595Y-83044304D01*
X116969641Y-83144939D01*
X116750987Y-83291038D01*
X116565038Y-83476987D01*
X116418939Y-83695641D01*
X116318304Y-83938595D01*
X116267000Y-84196514D01*
X116267000Y-84459486D01*
X116318304Y-84717405D01*
X116418939Y-84960359D01*
X116565038Y-85179013D01*
X116750987Y-85364962D01*
X116969641Y-85511061D01*
X117212595Y-85611696D01*
X117470514Y-85663000D01*
X117733486Y-85663000D01*
X117991405Y-85611696D01*
X118234359Y-85511061D01*
X118453013Y-85364962D01*
X118638962Y-85179013D01*
X118785061Y-84960359D01*
X118872000Y-84750470D01*
X118958939Y-84960359D01*
X119105038Y-85179013D01*
X119290987Y-85364962D01*
X119509641Y-85511061D01*
X119752595Y-85611696D01*
X120010514Y-85663000D01*
X120273486Y-85663000D01*
X120531405Y-85611696D01*
X120774359Y-85511061D01*
X120993013Y-85364962D01*
X121178962Y-85179013D01*
X121250534Y-85071897D01*
X122534683Y-85053151D01*
X122584838Y-85128213D01*
X122770787Y-85314162D01*
X122989441Y-85460261D01*
X123232395Y-85560896D01*
X123490314Y-85612200D01*
X123753286Y-85612200D01*
X124011205Y-85560896D01*
X124254159Y-85460261D01*
X124472813Y-85314162D01*
X124658762Y-85128213D01*
X124804861Y-84909559D01*
X124891800Y-84699670D01*
X124978739Y-84909559D01*
X125124838Y-85128213D01*
X125310787Y-85314162D01*
X125529441Y-85460261D01*
X125772395Y-85560896D01*
X126030314Y-85612200D01*
X126293286Y-85612200D01*
X126551205Y-85560896D01*
X126794159Y-85460261D01*
X127012813Y-85314162D01*
X127198762Y-85128213D01*
X127344861Y-84909559D01*
X127381000Y-84822312D01*
X127381000Y-132209583D01*
X123796991Y-132283227D01*
X123772270Y-132286176D01*
X123748599Y-132293890D01*
X123726888Y-132306075D01*
X123707972Y-132322261D01*
X123692576Y-132341827D01*
X123681294Y-132364020D01*
X123674558Y-132387988D01*
X123672601Y-132410658D01*
X123674658Y-132980469D01*
X123623072Y-133076980D01*
X123582473Y-133210816D01*
X123568765Y-133350000D01*
X123572200Y-133384877D01*
X123572200Y-136739602D01*
X123478303Y-136625187D01*
X123305882Y-136483685D01*
X123109169Y-136378539D01*
X122895722Y-136313791D01*
X122673745Y-136291928D01*
X121674255Y-136291928D01*
X121452278Y-136313791D01*
X121238831Y-136378539D01*
X121042118Y-136483685D01*
X120869697Y-136625187D01*
X120728195Y-136797608D01*
X120623049Y-136994321D01*
X120586500Y-137114808D01*
X120549951Y-136994321D01*
X120444805Y-136797608D01*
X120303303Y-136625187D01*
X120130882Y-136483685D01*
X119934169Y-136378539D01*
X119720722Y-136313791D01*
X119498745Y-136291928D01*
X118499255Y-136291928D01*
X118277278Y-136313791D01*
X118063831Y-136378539D01*
X117867118Y-136483685D01*
X117694697Y-136625187D01*
X117553195Y-136797608D01*
X117461463Y-136969226D01*
X117461562Y-136930000D01*
X117449302Y-136805518D01*
X117412992Y-136685820D01*
X117354027Y-136575506D01*
X117274675Y-136478815D01*
X117177984Y-136399463D01*
X117067670Y-136340498D01*
X116947972Y-136304188D01*
X116823490Y-136291928D01*
X116109750Y-136295000D01*
X115951000Y-136453750D01*
X115951000Y-138303000D01*
X115971000Y-138303000D01*
X115971000Y-138557000D01*
X115951000Y-138557000D01*
X115951000Y-138577000D01*
X115697000Y-138577000D01*
X115697000Y-138557000D01*
X115677000Y-138557000D01*
X115677000Y-138303000D01*
X115697000Y-138303000D01*
X115697000Y-136453750D01*
X115538250Y-136295000D01*
X114824510Y-136291928D01*
X114700028Y-136304188D01*
X114580330Y-136340498D01*
X114476600Y-136395944D01*
X114476600Y-133435677D01*
X114480035Y-133400800D01*
X114466327Y-133261616D01*
X114425728Y-133127780D01*
X114359800Y-133004437D01*
X114271075Y-132896325D01*
X114194834Y-132833756D01*
X114198397Y-132334907D01*
X114196134Y-132310114D01*
X114189077Y-132286239D01*
X114177498Y-132264199D01*
X114161842Y-132244841D01*
X114142710Y-132228910D01*
X114120838Y-132217017D01*
X114097066Y-132209620D01*
X114077176Y-132207131D01*
X113975767Y-132202514D01*
X115759000Y-132202514D01*
X115759000Y-132465486D01*
X115810304Y-132723405D01*
X115910939Y-132966359D01*
X116057038Y-133185013D01*
X116242987Y-133370962D01*
X116461641Y-133517061D01*
X116671530Y-133604000D01*
X116461641Y-133690939D01*
X116242987Y-133837038D01*
X116057038Y-134022987D01*
X115910939Y-134241641D01*
X115810304Y-134484595D01*
X115759000Y-134742514D01*
X115759000Y-135005486D01*
X115810304Y-135263405D01*
X115910939Y-135506359D01*
X116057038Y-135725013D01*
X116242987Y-135910962D01*
X116461641Y-136057061D01*
X116704595Y-136157696D01*
X116962514Y-136209000D01*
X117225486Y-136209000D01*
X117483405Y-136157696D01*
X117726359Y-136057061D01*
X117945013Y-135910962D01*
X118130962Y-135725013D01*
X118277061Y-135506359D01*
X118377696Y-135263405D01*
X118429000Y-135005486D01*
X118429000Y-134742514D01*
X118377696Y-134484595D01*
X118277061Y-134241641D01*
X118130962Y-134022987D01*
X117945013Y-133837038D01*
X117726359Y-133690939D01*
X117516470Y-133604000D01*
X117726359Y-133517061D01*
X117945013Y-133370962D01*
X118130962Y-133185013D01*
X118277061Y-132966359D01*
X118377696Y-132723405D01*
X118429000Y-132465486D01*
X118429000Y-132202514D01*
X119569000Y-132202514D01*
X119569000Y-132465486D01*
X119620304Y-132723405D01*
X119720939Y-132966359D01*
X119867038Y-133185013D01*
X120052987Y-133370962D01*
X120271641Y-133517061D01*
X120481530Y-133604000D01*
X120271641Y-133690939D01*
X120052987Y-133837038D01*
X119867038Y-134022987D01*
X119720939Y-134241641D01*
X119620304Y-134484595D01*
X119569000Y-134742514D01*
X119569000Y-135005486D01*
X119620304Y-135263405D01*
X119720939Y-135506359D01*
X119867038Y-135725013D01*
X120052987Y-135910962D01*
X120271641Y-136057061D01*
X120514595Y-136157696D01*
X120772514Y-136209000D01*
X121035486Y-136209000D01*
X121293405Y-136157696D01*
X121536359Y-136057061D01*
X121755013Y-135910962D01*
X121940962Y-135725013D01*
X122087061Y-135506359D01*
X122187696Y-135263405D01*
X122239000Y-135005486D01*
X122239000Y-134742514D01*
X122187696Y-134484595D01*
X122087061Y-134241641D01*
X121940962Y-134022987D01*
X121755013Y-133837038D01*
X121536359Y-133690939D01*
X121326470Y-133604000D01*
X121536359Y-133517061D01*
X121755013Y-133370962D01*
X121940962Y-133185013D01*
X122087061Y-132966359D01*
X122187696Y-132723405D01*
X122239000Y-132465486D01*
X122239000Y-132202514D01*
X122187696Y-131944595D01*
X122087061Y-131701641D01*
X121940962Y-131482987D01*
X121755013Y-131297038D01*
X121536359Y-131150939D01*
X121293405Y-131050304D01*
X121035486Y-130999000D01*
X120772514Y-130999000D01*
X120514595Y-131050304D01*
X120271641Y-131150939D01*
X120052987Y-131297038D01*
X119867038Y-131482987D01*
X119720939Y-131701641D01*
X119620304Y-131944595D01*
X119569000Y-132202514D01*
X118429000Y-132202514D01*
X118377696Y-131944595D01*
X118277061Y-131701641D01*
X118130962Y-131482987D01*
X117945013Y-131297038D01*
X117726359Y-131150939D01*
X117483405Y-131050304D01*
X117225486Y-130999000D01*
X116962514Y-130999000D01*
X116704595Y-131050304D01*
X116461641Y-131150939D01*
X116242987Y-131297038D01*
X116057038Y-131482987D01*
X115910939Y-131701641D01*
X115810304Y-131944595D01*
X115759000Y-132202514D01*
X113975767Y-132202514D01*
X110846864Y-132060061D01*
X110841322Y-130363865D01*
X112382400Y-130363865D01*
X112382400Y-130646535D01*
X112437547Y-130923774D01*
X112545720Y-131184927D01*
X112702763Y-131419959D01*
X112902641Y-131619837D01*
X113137673Y-131776880D01*
X113398826Y-131885053D01*
X113676065Y-131940200D01*
X113958735Y-131940200D01*
X114235974Y-131885053D01*
X114497127Y-131776880D01*
X114732159Y-131619837D01*
X114932037Y-131419959D01*
X115089080Y-131184927D01*
X115197253Y-130923774D01*
X115252400Y-130646535D01*
X115252400Y-130363865D01*
X115247348Y-130338465D01*
X122999600Y-130338465D01*
X122999600Y-130621135D01*
X123054747Y-130898374D01*
X123162920Y-131159527D01*
X123319963Y-131394559D01*
X123519841Y-131594437D01*
X123754873Y-131751480D01*
X124016026Y-131859653D01*
X124293265Y-131914800D01*
X124575935Y-131914800D01*
X124853174Y-131859653D01*
X125114327Y-131751480D01*
X125349359Y-131594437D01*
X125549237Y-131394559D01*
X125706280Y-131159527D01*
X125814453Y-130898374D01*
X125869600Y-130621135D01*
X125869600Y-130338465D01*
X125814453Y-130061226D01*
X125706280Y-129800073D01*
X125549237Y-129565041D01*
X125349359Y-129365163D01*
X125148731Y-129231108D01*
X125176114Y-129216471D01*
X125247697Y-128972502D01*
X124434600Y-128159405D01*
X123621503Y-128972502D01*
X123693086Y-129216471D01*
X123721941Y-129230124D01*
X123519841Y-129365163D01*
X123319963Y-129565041D01*
X123162920Y-129800073D01*
X123054747Y-130061226D01*
X122999600Y-130338465D01*
X115247348Y-130338465D01*
X115197253Y-130086626D01*
X115089080Y-129825473D01*
X114932037Y-129590441D01*
X114732159Y-129390563D01*
X114531531Y-129256508D01*
X114558914Y-129241871D01*
X114630497Y-128997902D01*
X113817400Y-128184805D01*
X113004303Y-128997902D01*
X113075886Y-129241871D01*
X113104741Y-129255524D01*
X112902641Y-129390563D01*
X112702763Y-129590441D01*
X112545720Y-129825473D01*
X112437547Y-130086626D01*
X112382400Y-130363865D01*
X110841322Y-130363865D01*
X110833844Y-128075712D01*
X112377183Y-128075712D01*
X112418613Y-128355330D01*
X112513797Y-128621492D01*
X112580729Y-128746714D01*
X112824698Y-128818297D01*
X113637795Y-128005200D01*
X113997005Y-128005200D01*
X114810102Y-128818297D01*
X115054071Y-128746714D01*
X115174971Y-128491204D01*
X115243700Y-128217016D01*
X115257617Y-127934688D01*
X115216187Y-127655070D01*
X115121003Y-127388908D01*
X115054071Y-127263686D01*
X114810102Y-127192103D01*
X113997005Y-128005200D01*
X113637795Y-128005200D01*
X112824698Y-127192103D01*
X112580729Y-127263686D01*
X112459829Y-127519196D01*
X112391100Y-127793384D01*
X112377183Y-128075712D01*
X110833844Y-128075712D01*
X110830370Y-127012498D01*
X113004303Y-127012498D01*
X113817400Y-127825595D01*
X114630497Y-127012498D01*
X114558914Y-126768529D01*
X114303404Y-126647629D01*
X114029216Y-126578900D01*
X113746888Y-126564983D01*
X113467270Y-126606413D01*
X113201108Y-126701597D01*
X113075886Y-126768529D01*
X113004303Y-127012498D01*
X110830370Y-127012498D01*
X110825015Y-125374061D01*
X111639400Y-125374061D01*
X111639400Y-125577939D01*
X111679174Y-125777898D01*
X111757195Y-125966256D01*
X111870463Y-126135774D01*
X112014626Y-126279937D01*
X112184144Y-126393205D01*
X112372502Y-126471226D01*
X112572461Y-126511000D01*
X112776339Y-126511000D01*
X112976298Y-126471226D01*
X113164656Y-126393205D01*
X113334174Y-126279937D01*
X113452170Y-126161941D01*
X117732698Y-125733445D01*
X117757363Y-125770359D01*
X117923943Y-125936939D01*
X117827820Y-125966098D01*
X117717506Y-126025063D01*
X117620815Y-126104415D01*
X117541463Y-126201106D01*
X117482498Y-126311420D01*
X117446188Y-126431118D01*
X117433928Y-126555600D01*
X117433928Y-128155600D01*
X117446188Y-128280082D01*
X117482498Y-128399780D01*
X117541463Y-128510094D01*
X117620815Y-128606785D01*
X117717506Y-128686137D01*
X117827820Y-128745102D01*
X117947518Y-128781412D01*
X118072000Y-128793672D01*
X119672000Y-128793672D01*
X119796482Y-128781412D01*
X119916180Y-128745102D01*
X120026494Y-128686137D01*
X120123185Y-128606785D01*
X120202537Y-128510094D01*
X120261502Y-128399780D01*
X120297812Y-128280082D01*
X120310072Y-128155600D01*
X120310072Y-128050312D01*
X122994383Y-128050312D01*
X123035813Y-128329930D01*
X123130997Y-128596092D01*
X123197929Y-128721314D01*
X123441898Y-128792897D01*
X124254995Y-127979800D01*
X124614205Y-127979800D01*
X125427302Y-128792897D01*
X125671271Y-128721314D01*
X125792171Y-128465804D01*
X125860900Y-128191616D01*
X125874817Y-127909288D01*
X125833387Y-127629670D01*
X125738203Y-127363508D01*
X125671271Y-127238286D01*
X125427302Y-127166703D01*
X124614205Y-127979800D01*
X124254995Y-127979800D01*
X123441898Y-127166703D01*
X123197929Y-127238286D01*
X123077029Y-127493796D01*
X123008300Y-127767984D01*
X122994383Y-128050312D01*
X120310072Y-128050312D01*
X120310072Y-126987098D01*
X123621503Y-126987098D01*
X124434600Y-127800195D01*
X125247697Y-126987098D01*
X125176114Y-126743129D01*
X124920604Y-126622229D01*
X124646416Y-126553500D01*
X124364088Y-126539583D01*
X124084470Y-126581013D01*
X123818308Y-126676197D01*
X123693086Y-126743129D01*
X123621503Y-126987098D01*
X120310072Y-126987098D01*
X120310072Y-126555600D01*
X120297812Y-126431118D01*
X120261502Y-126311420D01*
X120202537Y-126201106D01*
X120123185Y-126104415D01*
X120026494Y-126025063D01*
X119916180Y-125966098D01*
X119820057Y-125936939D01*
X119986637Y-125770359D01*
X120143680Y-125535327D01*
X120251853Y-125274174D01*
X120307000Y-124996935D01*
X120307000Y-124714265D01*
X120251853Y-124437026D01*
X120143680Y-124175873D01*
X120057446Y-124046814D01*
X120498114Y-124026948D01*
X120539163Y-124028744D01*
X120609634Y-124017905D01*
X120680167Y-124007733D01*
X120683562Y-124006534D01*
X120687129Y-124005985D01*
X120754141Y-123981601D01*
X120821325Y-123957868D01*
X120824425Y-123956027D01*
X120827813Y-123954794D01*
X120888754Y-123917821D01*
X120950042Y-123881421D01*
X120980600Y-123853949D01*
X122253558Y-122899231D01*
X122159339Y-123040241D01*
X122058704Y-123283195D01*
X122007400Y-123541114D01*
X122007400Y-123804086D01*
X122058704Y-124062005D01*
X122159339Y-124304959D01*
X122305438Y-124523613D01*
X122491387Y-124709562D01*
X122710041Y-124855661D01*
X122952995Y-124956296D01*
X123210914Y-125007600D01*
X123473886Y-125007600D01*
X123731805Y-124956296D01*
X123974759Y-124855661D01*
X124193413Y-124709562D01*
X124379362Y-124523613D01*
X124525461Y-124304959D01*
X124626096Y-124062005D01*
X124677400Y-123804086D01*
X124677400Y-123541114D01*
X124626096Y-123283195D01*
X124525461Y-123040241D01*
X124379362Y-122821587D01*
X124193413Y-122635638D01*
X123974759Y-122489539D01*
X123764870Y-122402600D01*
X123974759Y-122315661D01*
X124193413Y-122169562D01*
X124379362Y-121983613D01*
X124525461Y-121764959D01*
X124626096Y-121522005D01*
X124677400Y-121264086D01*
X124677400Y-121001114D01*
X124626096Y-120743195D01*
X124525461Y-120500241D01*
X124379362Y-120281587D01*
X124193413Y-120095638D01*
X123974759Y-119949539D01*
X123731805Y-119848904D01*
X123473886Y-119797600D01*
X123210914Y-119797600D01*
X122952995Y-119848904D01*
X122710041Y-119949539D01*
X122491387Y-120095638D01*
X122305438Y-120281587D01*
X122159339Y-120500241D01*
X122058704Y-120743195D01*
X122007400Y-121001114D01*
X122007400Y-121183851D01*
X120229161Y-122517530D01*
X115365173Y-122736808D01*
X115336962Y-122694587D01*
X115151013Y-122508638D01*
X114932359Y-122362539D01*
X114722470Y-122275600D01*
X114932359Y-122188661D01*
X115151013Y-122042562D01*
X115336962Y-121856613D01*
X115483061Y-121637959D01*
X115523840Y-121539509D01*
X117433434Y-121164028D01*
X117490663Y-121271094D01*
X117570015Y-121367785D01*
X117666706Y-121447137D01*
X117777020Y-121506102D01*
X117896718Y-121542412D01*
X118021200Y-121554672D01*
X119621200Y-121554672D01*
X119745682Y-121542412D01*
X119865380Y-121506102D01*
X119975694Y-121447137D01*
X120072385Y-121367785D01*
X120151737Y-121271094D01*
X120210702Y-121160780D01*
X120247012Y-121041082D01*
X120259272Y-120916600D01*
X120259272Y-119316600D01*
X120247012Y-119192118D01*
X120210702Y-119072420D01*
X120151737Y-118962106D01*
X120072385Y-118865415D01*
X119975694Y-118786063D01*
X119865380Y-118727098D01*
X119769257Y-118697939D01*
X119935837Y-118531359D01*
X120032027Y-118387400D01*
X125381889Y-118387400D01*
X125425826Y-118431337D01*
X125595344Y-118544605D01*
X125783702Y-118622626D01*
X125983661Y-118662400D01*
X126187539Y-118662400D01*
X126387498Y-118622626D01*
X126575856Y-118544605D01*
X126745374Y-118431337D01*
X126889537Y-118287174D01*
X127002805Y-118117656D01*
X127080826Y-117929298D01*
X127120600Y-117729339D01*
X127120600Y-117525461D01*
X127080826Y-117325502D01*
X127002805Y-117137144D01*
X126889537Y-116967626D01*
X126745374Y-116823463D01*
X126575856Y-116710195D01*
X126387498Y-116632174D01*
X126187539Y-116592400D01*
X125983661Y-116592400D01*
X125783702Y-116632174D01*
X125595344Y-116710195D01*
X125425826Y-116823463D01*
X125381889Y-116867400D01*
X124693084Y-116867400D01*
X124817280Y-116681527D01*
X124925453Y-116420374D01*
X124980600Y-116143135D01*
X124980600Y-115860465D01*
X124925453Y-115583226D01*
X124817280Y-115322073D01*
X124660237Y-115087041D01*
X124460359Y-114887163D01*
X124259731Y-114753108D01*
X124287114Y-114738471D01*
X124358697Y-114494502D01*
X123545600Y-113681405D01*
X122732503Y-114494502D01*
X122804086Y-114738471D01*
X122832941Y-114752124D01*
X122630841Y-114887163D01*
X122430963Y-115087041D01*
X122273920Y-115322073D01*
X122165747Y-115583226D01*
X122110600Y-115860465D01*
X122110600Y-116143135D01*
X122165747Y-116420374D01*
X122273920Y-116681527D01*
X122398116Y-116867400D01*
X120099556Y-116867400D01*
X120042719Y-116861802D01*
X119935837Y-116701841D01*
X119735959Y-116501963D01*
X119500927Y-116344920D01*
X119239774Y-116236747D01*
X118962535Y-116181600D01*
X118679865Y-116181600D01*
X118402626Y-116236747D01*
X118141473Y-116344920D01*
X117906441Y-116501963D01*
X117706563Y-116701841D01*
X117549520Y-116936873D01*
X117441347Y-117198026D01*
X117386200Y-117475265D01*
X117386200Y-117757935D01*
X117441347Y-118035174D01*
X117549520Y-118296327D01*
X117706563Y-118531359D01*
X117873143Y-118697939D01*
X117777020Y-118727098D01*
X117666706Y-118786063D01*
X117570015Y-118865415D01*
X117490663Y-118962106D01*
X117431698Y-119072420D01*
X117395388Y-119192118D01*
X117383128Y-119316600D01*
X117383128Y-119624815D01*
X115230466Y-120048091D01*
X115151013Y-119968638D01*
X114932359Y-119822539D01*
X114689405Y-119721904D01*
X114431486Y-119670600D01*
X114168514Y-119670600D01*
X113910595Y-119721904D01*
X113667641Y-119822539D01*
X113448987Y-119968638D01*
X113263038Y-120154587D01*
X113116939Y-120373241D01*
X113016304Y-120616195D01*
X112965000Y-120874114D01*
X112965000Y-121137086D01*
X113016304Y-121395005D01*
X113116939Y-121637959D01*
X113263038Y-121856613D01*
X113448987Y-122042562D01*
X113667641Y-122188661D01*
X113877530Y-122275600D01*
X113667641Y-122362539D01*
X113448987Y-122508638D01*
X113263038Y-122694587D01*
X113116939Y-122913241D01*
X113016304Y-123156195D01*
X112965000Y-123414114D01*
X112965000Y-123677086D01*
X113016304Y-123935005D01*
X113116939Y-124177959D01*
X113263038Y-124396613D01*
X113448987Y-124582562D01*
X113516803Y-124627875D01*
X113300455Y-124649532D01*
X113164656Y-124558795D01*
X112976298Y-124480774D01*
X112776339Y-124441000D01*
X112572461Y-124441000D01*
X112372502Y-124480774D01*
X112184144Y-124558795D01*
X112014626Y-124672063D01*
X111870463Y-124816226D01*
X111757195Y-124985744D01*
X111679174Y-125174102D01*
X111639400Y-125374061D01*
X110825015Y-125374061D01*
X110782560Y-112382400D01*
X117179928Y-112382400D01*
X117179928Y-113982400D01*
X117192188Y-114106882D01*
X117228498Y-114226580D01*
X117287463Y-114336894D01*
X117366815Y-114433585D01*
X117463506Y-114512937D01*
X117573820Y-114571902D01*
X117693518Y-114608212D01*
X117818000Y-114620472D01*
X119418000Y-114620472D01*
X119542482Y-114608212D01*
X119662180Y-114571902D01*
X119772494Y-114512937D01*
X119869185Y-114433585D01*
X119948537Y-114336894D01*
X120007502Y-114226580D01*
X120043812Y-114106882D01*
X120056072Y-113982400D01*
X120056072Y-113572312D01*
X122105383Y-113572312D01*
X122146813Y-113851930D01*
X122241997Y-114118092D01*
X122308929Y-114243314D01*
X122552898Y-114314897D01*
X123365995Y-113501800D01*
X123725205Y-113501800D01*
X124538302Y-114314897D01*
X124782271Y-114243314D01*
X124903171Y-113987804D01*
X124971900Y-113713616D01*
X124985817Y-113431288D01*
X124944387Y-113151670D01*
X124849203Y-112885508D01*
X124782271Y-112760286D01*
X124538302Y-112688703D01*
X123725205Y-113501800D01*
X123365995Y-113501800D01*
X122552898Y-112688703D01*
X122308929Y-112760286D01*
X122188029Y-113015796D01*
X122119300Y-113289984D01*
X122105383Y-113572312D01*
X120056072Y-113572312D01*
X120056072Y-112509098D01*
X122732503Y-112509098D01*
X123545600Y-113322195D01*
X124358697Y-112509098D01*
X124287114Y-112265129D01*
X124031604Y-112144229D01*
X123757416Y-112075500D01*
X123475088Y-112061583D01*
X123195470Y-112103013D01*
X122929308Y-112198197D01*
X122804086Y-112265129D01*
X122732503Y-112509098D01*
X120056072Y-112509098D01*
X120056072Y-112382400D01*
X120043812Y-112257918D01*
X120007502Y-112138220D01*
X119948537Y-112027906D01*
X119869185Y-111931215D01*
X119772494Y-111851863D01*
X119662180Y-111792898D01*
X119542482Y-111756588D01*
X119418000Y-111744328D01*
X119410785Y-111744328D01*
X119431097Y-111675102D01*
X118618000Y-110862005D01*
X117804903Y-111675102D01*
X117825215Y-111744328D01*
X117818000Y-111744328D01*
X117693518Y-111756588D01*
X117573820Y-111792898D01*
X117463506Y-111851863D01*
X117366815Y-111931215D01*
X117287463Y-112027906D01*
X117228498Y-112138220D01*
X117192188Y-112257918D01*
X117179928Y-112382400D01*
X110782560Y-112382400D01*
X110777234Y-110752912D01*
X117177783Y-110752912D01*
X117219213Y-111032530D01*
X117314397Y-111298692D01*
X117381329Y-111423914D01*
X117625298Y-111495497D01*
X118438395Y-110682400D01*
X118797605Y-110682400D01*
X119610702Y-111495497D01*
X119854671Y-111423914D01*
X119975571Y-111168404D01*
X120044300Y-110894216D01*
X120058217Y-110611888D01*
X120016787Y-110332270D01*
X119921603Y-110066108D01*
X119854671Y-109940886D01*
X119610702Y-109869303D01*
X118797605Y-110682400D01*
X118438395Y-110682400D01*
X117625298Y-109869303D01*
X117381329Y-109940886D01*
X117260429Y-110196396D01*
X117191700Y-110470584D01*
X117177783Y-110752912D01*
X110777234Y-110752912D01*
X110762332Y-106192914D01*
X112431600Y-106192914D01*
X112431600Y-106455886D01*
X112482904Y-106713805D01*
X112583539Y-106956759D01*
X112729638Y-107175413D01*
X112915587Y-107361362D01*
X113134241Y-107507461D01*
X113344130Y-107594400D01*
X113134241Y-107681339D01*
X112915587Y-107827438D01*
X112729638Y-108013387D01*
X112583539Y-108232041D01*
X112482904Y-108474995D01*
X112431600Y-108732914D01*
X112431600Y-108995886D01*
X112482904Y-109253805D01*
X112583539Y-109496759D01*
X112729638Y-109715413D01*
X112915587Y-109901362D01*
X113134241Y-110047461D01*
X113377195Y-110148096D01*
X113635114Y-110199400D01*
X113898086Y-110199400D01*
X114156005Y-110148096D01*
X114398959Y-110047461D01*
X114617613Y-109901362D01*
X114803562Y-109715413D01*
X114820744Y-109689698D01*
X117804903Y-109689698D01*
X118618000Y-110502795D01*
X119431097Y-109689698D01*
X119359514Y-109445729D01*
X119104004Y-109324829D01*
X118829816Y-109256100D01*
X118547488Y-109242183D01*
X118267870Y-109283613D01*
X118001708Y-109378797D01*
X117876486Y-109445729D01*
X117804903Y-109689698D01*
X114820744Y-109689698D01*
X114949661Y-109496759D01*
X115050296Y-109253805D01*
X115101600Y-108995886D01*
X115101600Y-108732914D01*
X115050296Y-108474995D01*
X114949661Y-108232041D01*
X114803562Y-108013387D01*
X114617613Y-107827438D01*
X114398959Y-107681339D01*
X114189070Y-107594400D01*
X114398959Y-107507461D01*
X114617613Y-107361362D01*
X114803562Y-107175413D01*
X114949661Y-106956759D01*
X115050296Y-106713805D01*
X115101600Y-106455886D01*
X115101600Y-106192914D01*
X115050296Y-105934995D01*
X115049884Y-105934000D01*
X122567928Y-105934000D01*
X122567928Y-107934000D01*
X122580188Y-108058482D01*
X122616498Y-108178180D01*
X122675463Y-108288494D01*
X122754815Y-108385185D01*
X122851506Y-108464537D01*
X122961820Y-108523502D01*
X123081518Y-108559812D01*
X123206000Y-108572072D01*
X125206000Y-108572072D01*
X125330482Y-108559812D01*
X125450180Y-108523502D01*
X125560494Y-108464537D01*
X125657185Y-108385185D01*
X125736537Y-108288494D01*
X125795502Y-108178180D01*
X125831812Y-108058482D01*
X125844072Y-107934000D01*
X125844072Y-105934000D01*
X125831812Y-105809518D01*
X125795502Y-105689820D01*
X125736537Y-105579506D01*
X125657185Y-105482815D01*
X125560494Y-105403463D01*
X125450180Y-105344498D01*
X125330482Y-105308188D01*
X125206000Y-105295928D01*
X123206000Y-105295928D01*
X123081518Y-105308188D01*
X122961820Y-105344498D01*
X122851506Y-105403463D01*
X122754815Y-105482815D01*
X122675463Y-105579506D01*
X122616498Y-105689820D01*
X122580188Y-105809518D01*
X122567928Y-105934000D01*
X115049884Y-105934000D01*
X114949661Y-105692041D01*
X114803562Y-105473387D01*
X114617613Y-105287438D01*
X114398959Y-105141339D01*
X114156005Y-105040704D01*
X113898086Y-104989400D01*
X113635114Y-104989400D01*
X113377195Y-105040704D01*
X113134241Y-105141339D01*
X112915587Y-105287438D01*
X112729638Y-105473387D01*
X112583539Y-105692041D01*
X112482904Y-105934995D01*
X112431600Y-106192914D01*
X110762332Y-106192914D01*
X110754742Y-103870200D01*
X116871928Y-103870200D01*
X116871928Y-105070200D01*
X116884188Y-105194682D01*
X116920498Y-105314380D01*
X116979463Y-105424694D01*
X117058815Y-105521385D01*
X117155506Y-105600737D01*
X117265820Y-105659702D01*
X117385518Y-105696012D01*
X117510000Y-105708272D01*
X118710000Y-105708272D01*
X118834482Y-105696012D01*
X118954180Y-105659702D01*
X119064494Y-105600737D01*
X119081681Y-105586632D01*
X119208516Y-105644437D01*
X119445313Y-105700200D01*
X119688438Y-105708695D01*
X119928549Y-105669595D01*
X120156418Y-105584402D01*
X120232852Y-105543548D01*
X120280159Y-105319964D01*
X119610000Y-104649805D01*
X119595858Y-104663948D01*
X119416253Y-104484343D01*
X119430395Y-104470200D01*
X119789605Y-104470200D01*
X120459764Y-105140359D01*
X120683348Y-105093052D01*
X120784237Y-104871684D01*
X120840000Y-104634887D01*
X120848495Y-104391762D01*
X120809395Y-104151651D01*
X120724202Y-103923782D01*
X120683348Y-103847348D01*
X120459764Y-103800041D01*
X119789605Y-104470200D01*
X119430395Y-104470200D01*
X119416253Y-104456058D01*
X119595858Y-104276453D01*
X119610000Y-104290595D01*
X120280159Y-103620436D01*
X120232852Y-103396852D01*
X120011484Y-103295963D01*
X119774687Y-103240200D01*
X119531562Y-103231705D01*
X119291451Y-103270805D01*
X119077883Y-103350651D01*
X119064494Y-103339663D01*
X118954180Y-103280698D01*
X118834482Y-103244388D01*
X118710000Y-103232128D01*
X117510000Y-103232128D01*
X117385518Y-103244388D01*
X117265820Y-103280698D01*
X117155506Y-103339663D01*
X117058815Y-103419015D01*
X116979463Y-103515706D01*
X116920498Y-103626020D01*
X116884188Y-103745718D01*
X116871928Y-103870200D01*
X110754742Y-103870200D01*
X110739314Y-99149102D01*
X118008103Y-99149102D01*
X118079686Y-99393071D01*
X118335196Y-99513971D01*
X118609384Y-99582700D01*
X118891712Y-99596617D01*
X119136058Y-99560413D01*
X123275592Y-99560413D01*
X123371356Y-99824814D01*
X123660971Y-99965704D01*
X123972508Y-100047384D01*
X124293995Y-100066718D01*
X124613075Y-100022961D01*
X124917488Y-99917795D01*
X125091444Y-99824814D01*
X125187208Y-99560413D01*
X124231400Y-98604605D01*
X123275592Y-99560413D01*
X119136058Y-99560413D01*
X119171330Y-99555187D01*
X119437492Y-99460003D01*
X119562714Y-99393071D01*
X119634297Y-99149102D01*
X118821200Y-98336005D01*
X118008103Y-99149102D01*
X110739314Y-99149102D01*
X110736300Y-98226912D01*
X117380983Y-98226912D01*
X117422413Y-98506530D01*
X117517597Y-98772692D01*
X117584529Y-98897914D01*
X117828498Y-98969497D01*
X118641595Y-98156400D01*
X119000805Y-98156400D01*
X119813902Y-98969497D01*
X120057871Y-98897914D01*
X120178771Y-98642404D01*
X120217576Y-98487595D01*
X122589682Y-98487595D01*
X122633439Y-98806675D01*
X122738605Y-99111088D01*
X122831586Y-99285044D01*
X123095987Y-99380808D01*
X124051795Y-98425000D01*
X124411005Y-98425000D01*
X125366813Y-99380808D01*
X125631214Y-99285044D01*
X125772104Y-98995429D01*
X125853784Y-98683892D01*
X125873118Y-98362405D01*
X125829361Y-98043325D01*
X125724195Y-97738912D01*
X125631214Y-97564956D01*
X125366813Y-97469192D01*
X124411005Y-98425000D01*
X124051795Y-98425000D01*
X123095987Y-97469192D01*
X122831586Y-97564956D01*
X122690696Y-97854571D01*
X122609016Y-98166108D01*
X122589682Y-98487595D01*
X120217576Y-98487595D01*
X120247500Y-98368216D01*
X120261417Y-98085888D01*
X120219987Y-97806270D01*
X120124803Y-97540108D01*
X120057871Y-97414886D01*
X119813902Y-97343303D01*
X119000805Y-98156400D01*
X118641595Y-98156400D01*
X117828498Y-97343303D01*
X117584529Y-97414886D01*
X117463629Y-97670396D01*
X117394900Y-97944584D01*
X117380983Y-98226912D01*
X110736300Y-98226912D01*
X110725285Y-94856400D01*
X117383128Y-94856400D01*
X117383128Y-96456400D01*
X117395388Y-96580882D01*
X117431698Y-96700580D01*
X117490663Y-96810894D01*
X117570015Y-96907585D01*
X117666706Y-96986937D01*
X117777020Y-97045902D01*
X117896718Y-97082212D01*
X118021200Y-97094472D01*
X118028415Y-97094472D01*
X118008103Y-97163698D01*
X118821200Y-97976795D01*
X119508408Y-97289587D01*
X123275592Y-97289587D01*
X124231400Y-98245395D01*
X125187208Y-97289587D01*
X125091444Y-97025186D01*
X124801829Y-96884296D01*
X124490292Y-96802616D01*
X124168805Y-96783282D01*
X123849725Y-96827039D01*
X123545312Y-96932205D01*
X123371356Y-97025186D01*
X123275592Y-97289587D01*
X119508408Y-97289587D01*
X119634297Y-97163698D01*
X119613985Y-97094472D01*
X119621200Y-97094472D01*
X119745682Y-97082212D01*
X119865380Y-97045902D01*
X119975694Y-96986937D01*
X120072385Y-96907585D01*
X120151737Y-96810894D01*
X120210702Y-96700580D01*
X120247012Y-96580882D01*
X120259272Y-96456400D01*
X120259272Y-94856400D01*
X120247012Y-94731918D01*
X120210702Y-94612220D01*
X120151737Y-94501906D01*
X120072385Y-94405215D01*
X119975694Y-94325863D01*
X119865380Y-94266898D01*
X119745682Y-94230588D01*
X119621200Y-94218328D01*
X118021200Y-94218328D01*
X117896718Y-94230588D01*
X117777020Y-94266898D01*
X117666706Y-94325863D01*
X117570015Y-94405215D01*
X117490663Y-94501906D01*
X117431698Y-94612220D01*
X117395388Y-94731918D01*
X117383128Y-94856400D01*
X110725285Y-94856400D01*
X110642916Y-69652198D01*
X110996324Y-69652198D01*
X111000053Y-69690055D01*
X111025453Y-87846196D01*
X111036607Y-87957833D01*
X111080264Y-88101034D01*
X111151021Y-88232964D01*
X111246155Y-88348556D01*
X111274780Y-88371981D01*
X113336801Y-90434003D01*
X113336801Y-90545425D01*
X113245787Y-90606238D01*
X113059838Y-90792187D01*
X112913739Y-91010841D01*
X112813104Y-91253795D01*
X112761800Y-91511714D01*
X112761800Y-91774686D01*
X112813104Y-92032605D01*
X112913739Y-92275559D01*
X113059838Y-92494213D01*
X113245787Y-92680162D01*
X113403041Y-92785235D01*
X113027732Y-92853079D01*
X112961456Y-92808795D01*
X112773098Y-92730774D01*
X112573139Y-92691000D01*
X112369261Y-92691000D01*
X112169302Y-92730774D01*
X111980944Y-92808795D01*
X111811426Y-92922063D01*
X111667263Y-93066226D01*
X111553995Y-93235744D01*
X111475974Y-93424102D01*
X111436200Y-93624061D01*
X111436200Y-93827939D01*
X111475974Y-94027898D01*
X111553995Y-94216256D01*
X111667263Y-94385774D01*
X111811426Y-94529937D01*
X111980944Y-94643205D01*
X112169302Y-94721226D01*
X112369261Y-94761000D01*
X112573139Y-94761000D01*
X112773098Y-94721226D01*
X112961456Y-94643205D01*
X113130974Y-94529937D01*
X113275137Y-94385774D01*
X113300052Y-94348486D01*
X118518669Y-93405121D01*
X118584944Y-93449405D01*
X118773302Y-93527426D01*
X118973261Y-93567200D01*
X119177139Y-93567200D01*
X119377098Y-93527426D01*
X119565456Y-93449405D01*
X119734974Y-93336137D01*
X119879137Y-93191974D01*
X119992405Y-93022456D01*
X120070426Y-92834098D01*
X120110200Y-92634139D01*
X120110200Y-92430261D01*
X120070426Y-92230302D01*
X119992405Y-92041944D01*
X119879137Y-91872426D01*
X119734974Y-91728263D01*
X119565456Y-91614995D01*
X119377098Y-91536974D01*
X119250107Y-91511714D01*
X120127800Y-91511714D01*
X120127800Y-91774686D01*
X120179104Y-92032605D01*
X120279739Y-92275559D01*
X120425838Y-92494213D01*
X120611787Y-92680162D01*
X120830441Y-92826261D01*
X121073395Y-92926896D01*
X121331314Y-92978200D01*
X121594286Y-92978200D01*
X121852205Y-92926896D01*
X122095159Y-92826261D01*
X122313813Y-92680162D01*
X122499762Y-92494213D01*
X122645861Y-92275559D01*
X122735294Y-92059650D01*
X122742753Y-92084244D01*
X122853008Y-92321592D01*
X123007449Y-92532870D01*
X123200140Y-92709959D01*
X123423677Y-92846053D01*
X123669470Y-92935922D01*
X123875800Y-92813401D01*
X123875800Y-91770200D01*
X124129800Y-91770200D01*
X124129800Y-92813401D01*
X124336130Y-92935922D01*
X124581923Y-92846053D01*
X124805460Y-92709959D01*
X124998151Y-92532870D01*
X125152592Y-92321592D01*
X125262847Y-92084244D01*
X125295516Y-91976529D01*
X125172174Y-91770200D01*
X124129800Y-91770200D01*
X123875800Y-91770200D01*
X123855800Y-91770200D01*
X123855800Y-91516200D01*
X123875800Y-91516200D01*
X123875800Y-90472999D01*
X124129800Y-90472999D01*
X124129800Y-91516200D01*
X125172174Y-91516200D01*
X125295516Y-91309871D01*
X125262847Y-91202156D01*
X125152592Y-90964808D01*
X124998151Y-90753530D01*
X124805460Y-90576441D01*
X124581923Y-90440347D01*
X124336130Y-90350478D01*
X124129800Y-90472999D01*
X123875800Y-90472999D01*
X123669470Y-90350478D01*
X123423677Y-90440347D01*
X123200140Y-90576441D01*
X123007449Y-90753530D01*
X122853008Y-90964808D01*
X122742753Y-91202156D01*
X122735294Y-91226750D01*
X122645861Y-91010841D01*
X122499762Y-90792187D01*
X122313813Y-90606238D01*
X122095159Y-90460139D01*
X121852205Y-90359504D01*
X121594286Y-90308200D01*
X121331314Y-90308200D01*
X121073395Y-90359504D01*
X120830441Y-90460139D01*
X120611787Y-90606238D01*
X120425838Y-90792187D01*
X120279739Y-91010841D01*
X120179104Y-91253795D01*
X120127800Y-91511714D01*
X119250107Y-91511714D01*
X119177139Y-91497200D01*
X118973261Y-91497200D01*
X118773302Y-91536974D01*
X118584944Y-91614995D01*
X118415426Y-91728263D01*
X118271263Y-91872426D01*
X118246348Y-91909714D01*
X117933699Y-91966231D01*
X117971800Y-91774686D01*
X117971800Y-91511714D01*
X117920496Y-91253795D01*
X117819861Y-91010841D01*
X117673762Y-90792187D01*
X117487813Y-90606238D01*
X117269159Y-90460139D01*
X117026205Y-90359504D01*
X116768286Y-90308200D01*
X116505314Y-90308200D01*
X116247395Y-90359504D01*
X116004441Y-90460139D01*
X115785787Y-90606238D01*
X115599838Y-90792187D01*
X115453739Y-91010841D01*
X115366800Y-91220730D01*
X115279861Y-91010841D01*
X115133762Y-90792187D01*
X114947813Y-90606238D01*
X114856800Y-90545425D01*
X114856800Y-90156522D01*
X114860476Y-90119199D01*
X114856800Y-90081876D01*
X114856800Y-90081867D01*
X114845803Y-89970214D01*
X114802346Y-89826953D01*
X114731774Y-89694924D01*
X114636801Y-89579199D01*
X114607803Y-89555401D01*
X113710351Y-88657949D01*
X113764750Y-88680482D01*
X114119268Y-88751000D01*
X114480732Y-88751000D01*
X114835250Y-88680482D01*
X115169199Y-88542156D01*
X115469744Y-88341338D01*
X115725338Y-88085744D01*
X115926156Y-87785199D01*
X116064482Y-87451250D01*
X116135000Y-87096732D01*
X116135000Y-86735268D01*
X116064482Y-86380750D01*
X115926156Y-86046801D01*
X115725338Y-85746256D01*
X115469744Y-85490662D01*
X115169199Y-85289844D01*
X114835250Y-85151518D01*
X114480732Y-85081000D01*
X114119268Y-85081000D01*
X113764750Y-85151518D01*
X113430801Y-85289844D01*
X113130256Y-85490662D01*
X112874662Y-85746256D01*
X112673844Y-86046801D01*
X112543377Y-86361776D01*
X112535881Y-81002702D01*
X116788903Y-81002702D01*
X116860486Y-81246671D01*
X117115996Y-81367571D01*
X117390184Y-81436300D01*
X117672512Y-81450217D01*
X117952130Y-81408787D01*
X118218292Y-81313603D01*
X118343514Y-81246671D01*
X118415097Y-81002702D01*
X117602000Y-80189605D01*
X116788903Y-81002702D01*
X112535881Y-81002702D01*
X112534590Y-80080512D01*
X116161783Y-80080512D01*
X116203213Y-80360130D01*
X116298397Y-80626292D01*
X116365329Y-80751514D01*
X116609298Y-80823097D01*
X117422395Y-80010000D01*
X117781605Y-80010000D01*
X118594702Y-80823097D01*
X118838671Y-80751514D01*
X118959571Y-80496004D01*
X119028300Y-80221816D01*
X119042217Y-79939488D01*
X119000787Y-79659870D01*
X118905603Y-79393708D01*
X118838671Y-79268486D01*
X118594702Y-79196903D01*
X117781605Y-80010000D01*
X117422395Y-80010000D01*
X116609298Y-79196903D01*
X116365329Y-79268486D01*
X116244429Y-79523996D01*
X116175700Y-79798184D01*
X116161783Y-80080512D01*
X112534590Y-80080512D01*
X112522713Y-71590000D01*
X116163928Y-71590000D01*
X116163928Y-73190000D01*
X116176188Y-73314482D01*
X116212498Y-73434180D01*
X116271463Y-73544494D01*
X116350815Y-73641185D01*
X116447506Y-73720537D01*
X116557820Y-73779502D01*
X116677518Y-73815812D01*
X116685961Y-73816643D01*
X116487363Y-74015241D01*
X116330320Y-74250273D01*
X116222147Y-74511426D01*
X116167000Y-74788665D01*
X116167000Y-75071335D01*
X116222147Y-75348574D01*
X116330320Y-75609727D01*
X116487363Y-75844759D01*
X116687241Y-76044637D01*
X116919759Y-76200000D01*
X116687241Y-76355363D01*
X116487363Y-76555241D01*
X116330320Y-76790273D01*
X116222147Y-77051426D01*
X116167000Y-77328665D01*
X116167000Y-77611335D01*
X116222147Y-77888574D01*
X116330320Y-78149727D01*
X116487363Y-78384759D01*
X116687241Y-78584637D01*
X116921128Y-78740915D01*
X116860486Y-78773329D01*
X116788903Y-79017298D01*
X117602000Y-79830395D01*
X118415097Y-79017298D01*
X118343514Y-78773329D01*
X118279008Y-78742806D01*
X118281727Y-78741680D01*
X118516759Y-78584637D01*
X118716637Y-78384759D01*
X118873680Y-78149727D01*
X118981853Y-77888574D01*
X119037000Y-77611335D01*
X119037000Y-77430001D01*
X120390688Y-77430001D01*
X120434625Y-77473938D01*
X120604143Y-77587206D01*
X120792501Y-77665227D01*
X120992460Y-77705001D01*
X121196338Y-77705001D01*
X121396297Y-77665227D01*
X121584655Y-77587206D01*
X121754173Y-77473938D01*
X121898336Y-77329775D01*
X122011604Y-77160257D01*
X122089625Y-76971899D01*
X122129399Y-76771940D01*
X122129399Y-76568062D01*
X122089625Y-76368103D01*
X122011604Y-76179745D01*
X121898336Y-76010227D01*
X121754173Y-75866064D01*
X121584655Y-75752796D01*
X121396297Y-75674775D01*
X121196338Y-75635001D01*
X120992460Y-75635001D01*
X120792501Y-75674775D01*
X120604143Y-75752796D01*
X120434625Y-75866064D01*
X120390688Y-75910001D01*
X118651395Y-75910001D01*
X118716637Y-75844759D01*
X118873680Y-75609727D01*
X118981853Y-75348574D01*
X119037000Y-75071335D01*
X119037000Y-74788665D01*
X118981853Y-74511426D01*
X118873680Y-74250273D01*
X118716637Y-74015241D01*
X118518039Y-73816643D01*
X118526482Y-73815812D01*
X118646180Y-73779502D01*
X118756494Y-73720537D01*
X118853185Y-73641185D01*
X118932537Y-73544494D01*
X118991502Y-73434180D01*
X119027812Y-73314482D01*
X119040072Y-73190000D01*
X119040072Y-71590000D01*
X119027812Y-71465518D01*
X118991502Y-71345820D01*
X118932537Y-71235506D01*
X118853185Y-71138815D01*
X118756494Y-71059463D01*
X118646180Y-71000498D01*
X118526482Y-70964188D01*
X118402000Y-70951928D01*
X116802000Y-70951928D01*
X116677518Y-70964188D01*
X116557820Y-71000498D01*
X116447506Y-71059463D01*
X116350815Y-71138815D01*
X116271463Y-71235506D01*
X116212498Y-71345820D01*
X116176188Y-71465518D01*
X116163928Y-71590000D01*
X112522713Y-71590000D01*
X112520441Y-69966559D01*
X112660298Y-69826702D01*
X120065503Y-69826702D01*
X120137086Y-70070671D01*
X120392596Y-70191571D01*
X120666784Y-70260300D01*
X120949112Y-70274217D01*
X121228730Y-70232787D01*
X121494892Y-70137603D01*
X121620114Y-70070671D01*
X121691697Y-69826702D01*
X120878600Y-69013605D01*
X120065503Y-69826702D01*
X112660298Y-69826702D01*
X114417000Y-68070000D01*
X119718566Y-68070000D01*
X119641929Y-68092486D01*
X119521029Y-68347996D01*
X119452300Y-68622184D01*
X119438383Y-68904512D01*
X119479813Y-69184130D01*
X119574997Y-69450292D01*
X119641929Y-69575514D01*
X119885898Y-69647097D01*
X120698995Y-68834000D01*
X120684853Y-68819858D01*
X120864458Y-68640253D01*
X120878600Y-68654395D01*
X120892743Y-68640253D01*
X121072348Y-68819858D01*
X121058205Y-68834000D01*
X121871302Y-69647097D01*
X122115271Y-69575514D01*
X122128924Y-69546659D01*
X122263963Y-69748759D01*
X122463841Y-69948637D01*
X122698873Y-70105680D01*
X122960026Y-70213853D01*
X123237265Y-70269000D01*
X123519935Y-70269000D01*
X123797174Y-70213853D01*
X124058327Y-70105680D01*
X124293359Y-69948637D01*
X124493237Y-69748759D01*
X124650280Y-69513727D01*
X124758453Y-69252574D01*
X124813600Y-68975335D01*
X124813600Y-68692665D01*
X124758453Y-68415426D01*
X124650280Y-68154273D01*
X124493237Y-67919241D01*
X124293359Y-67719363D01*
X124058327Y-67562320D01*
X123797174Y-67454147D01*
X123519935Y-67399000D01*
X123297801Y-67399000D01*
X122697804Y-66799003D01*
X122674001Y-66769999D01*
X122558276Y-66675026D01*
X122426247Y-66604454D01*
X122282986Y-66560997D01*
X122171333Y-66550000D01*
X122171322Y-66550000D01*
X122134000Y-66546324D01*
X122096678Y-66550000D01*
X114139520Y-66550000D01*
X114102197Y-66546324D01*
X114064874Y-66550000D01*
X114064865Y-66550000D01*
X113953212Y-66560997D01*
X113809951Y-66604454D01*
X113677922Y-66675026D01*
X113562197Y-66769999D01*
X113538399Y-66798997D01*
X111248620Y-69088777D01*
X111219245Y-69112953D01*
X111172344Y-69170266D01*
X111125026Y-69227922D01*
X111124771Y-69228399D01*
X111124434Y-69228811D01*
X111089649Y-69294106D01*
X111054454Y-69359952D01*
X111054298Y-69360466D01*
X111054046Y-69360939D01*
X111032545Y-69432178D01*
X111010998Y-69503213D01*
X111010946Y-69503746D01*
X111010790Y-69504261D01*
X111003579Y-69578535D01*
X110996324Y-69652198D01*
X110642916Y-69652198D01*
X110625541Y-64335268D01*
X112465000Y-64335268D01*
X112465000Y-64696732D01*
X112535518Y-65051250D01*
X112673844Y-65385199D01*
X112874662Y-65685744D01*
X113130256Y-65941338D01*
X113430801Y-66142156D01*
X113764750Y-66280482D01*
X114119268Y-66351000D01*
X114480732Y-66351000D01*
X114835250Y-66280482D01*
X115169199Y-66142156D01*
X115469744Y-65941338D01*
X115725338Y-65685744D01*
X115926156Y-65385199D01*
X116064482Y-65051250D01*
X116135000Y-64696732D01*
X116135000Y-64335268D01*
X116064482Y-63980750D01*
X116008660Y-63845982D01*
X118497000Y-63845982D01*
X118497000Y-64170018D01*
X118560217Y-64487829D01*
X118684220Y-64787199D01*
X118864245Y-65056626D01*
X119093374Y-65285755D01*
X119362801Y-65465780D01*
X119662171Y-65589783D01*
X119979982Y-65653000D01*
X120304018Y-65653000D01*
X120621829Y-65589783D01*
X120921199Y-65465780D01*
X121190626Y-65285755D01*
X121412000Y-65064381D01*
X121633374Y-65285755D01*
X121902801Y-65465780D01*
X122202171Y-65589783D01*
X122519982Y-65653000D01*
X122844018Y-65653000D01*
X123161829Y-65589783D01*
X123461199Y-65465780D01*
X123730626Y-65285755D01*
X123959755Y-65056626D01*
X124139780Y-64787199D01*
X124263783Y-64487829D01*
X124327000Y-64170018D01*
X124327000Y-63845982D01*
X124263783Y-63528171D01*
X124139780Y-63228801D01*
X123959755Y-62959374D01*
X123730626Y-62730245D01*
X123461199Y-62550220D01*
X123161829Y-62426217D01*
X122844018Y-62363000D01*
X122519982Y-62363000D01*
X122202171Y-62426217D01*
X121902801Y-62550220D01*
X121633374Y-62730245D01*
X121412000Y-62951619D01*
X121190626Y-62730245D01*
X120921199Y-62550220D01*
X120621829Y-62426217D01*
X120304018Y-62363000D01*
X119979982Y-62363000D01*
X119662171Y-62426217D01*
X119362801Y-62550220D01*
X119093374Y-62730245D01*
X118864245Y-62959374D01*
X118684220Y-63228801D01*
X118560217Y-63528171D01*
X118497000Y-63845982D01*
X116008660Y-63845982D01*
X115926156Y-63646801D01*
X115725338Y-63346256D01*
X115469744Y-63090662D01*
X115169199Y-62889844D01*
X114835250Y-62751518D01*
X114480732Y-62681000D01*
X114119268Y-62681000D01*
X113764750Y-62751518D01*
X113430801Y-62889844D01*
X113130256Y-63090662D01*
X112874662Y-63346256D01*
X112673844Y-63646801D01*
X112535518Y-63980750D01*
X112465000Y-64335268D01*
X110625541Y-64335268D01*
X110617415Y-61849000D01*
X127381000Y-61849000D01*
X127381000Y-83732088D01*
M02*
