G04 #@! TF.GenerationSoftware,KiCad,Pcbnew,(5.1.5)-3*
G04 #@! TF.CreationDate,2021-07-18T20:22:51-04:00*
G04 #@! TF.ProjectId,opAmp Mic,6f70416d-7020-44d6-9963-2e6b69636164,rev?*
G04 #@! TF.SameCoordinates,Original*
G04 #@! TF.FileFunction,Soldermask,Bot*
G04 #@! TF.FilePolarity,Negative*
%FSLAX46Y46*%
G04 Gerber Fmt 4.6, Leading zero omitted, Abs format (unit mm)*
G04 Created by KiCad (PCBNEW (5.1.5)-3) date 2021-07-18 20:22:51*
%MOMM*%
%LPD*%
G04 APERTURE LIST*
%ADD10C,0.100000*%
G04 APERTURE END LIST*
D10*
G36*
X116874490Y-139981000D02*
G01*
X114773510Y-139981000D01*
X114773510Y-136879000D01*
X116874490Y-136879000D01*
X116874490Y-139981000D01*
G37*
G36*
X119676902Y-136888484D02*
G01*
X119763599Y-136914783D01*
X119843497Y-136957490D01*
X119913528Y-137014962D01*
X119971000Y-137084993D01*
X120013707Y-137164891D01*
X120040006Y-137251588D01*
X120049490Y-137347885D01*
X120049490Y-139512115D01*
X120040006Y-139608412D01*
X120013707Y-139695109D01*
X119971000Y-139775007D01*
X119913528Y-139845038D01*
X119843497Y-139902510D01*
X119763599Y-139945217D01*
X119676902Y-139971516D01*
X119580605Y-139981000D01*
X118417395Y-139981000D01*
X118321098Y-139971516D01*
X118234401Y-139945217D01*
X118154503Y-139902510D01*
X118084472Y-139845038D01*
X118027000Y-139775007D01*
X117984293Y-139695109D01*
X117957994Y-139608412D01*
X117948510Y-139512115D01*
X117948510Y-137347885D01*
X117957994Y-137251588D01*
X117984293Y-137164891D01*
X118027000Y-137084993D01*
X118084472Y-137014962D01*
X118154503Y-136957490D01*
X118234401Y-136914783D01*
X118321098Y-136888484D01*
X118417395Y-136879000D01*
X119580605Y-136879000D01*
X119676902Y-136888484D01*
G37*
G36*
X122851902Y-136888484D02*
G01*
X122938599Y-136914783D01*
X123018497Y-136957490D01*
X123088528Y-137014962D01*
X123146000Y-137084993D01*
X123188707Y-137164891D01*
X123215006Y-137251588D01*
X123224490Y-137347885D01*
X123224490Y-139512115D01*
X123215006Y-139608412D01*
X123188707Y-139695109D01*
X123146000Y-139775007D01*
X123088528Y-139845038D01*
X123018497Y-139902510D01*
X122938599Y-139945217D01*
X122851902Y-139971516D01*
X122755605Y-139981000D01*
X121592395Y-139981000D01*
X121496098Y-139971516D01*
X121409401Y-139945217D01*
X121329503Y-139902510D01*
X121259472Y-139845038D01*
X121202000Y-139775007D01*
X121159293Y-139695109D01*
X121132994Y-139608412D01*
X121123510Y-139512115D01*
X121123510Y-137347885D01*
X121132994Y-137251588D01*
X121159293Y-137164891D01*
X121202000Y-137084993D01*
X121259472Y-137014962D01*
X121329503Y-136957490D01*
X121409401Y-136914783D01*
X121496098Y-136888484D01*
X121592395Y-136879000D01*
X122755605Y-136879000D01*
X122851902Y-136888484D01*
G37*
G36*
X121123059Y-134151860D02*
G01*
X121259732Y-134208472D01*
X121382735Y-134290660D01*
X121487340Y-134395265D01*
X121569528Y-134518268D01*
X121626140Y-134654941D01*
X121655000Y-134800033D01*
X121655000Y-134947967D01*
X121626140Y-135093059D01*
X121569528Y-135229732D01*
X121487340Y-135352735D01*
X121382735Y-135457340D01*
X121259732Y-135539528D01*
X121259731Y-135539529D01*
X121259730Y-135539529D01*
X121123059Y-135596140D01*
X120977968Y-135625000D01*
X120830032Y-135625000D01*
X120684941Y-135596140D01*
X120548270Y-135539529D01*
X120548269Y-135539529D01*
X120548268Y-135539528D01*
X120425265Y-135457340D01*
X120320660Y-135352735D01*
X120238472Y-135229732D01*
X120181860Y-135093059D01*
X120153000Y-134947967D01*
X120153000Y-134800033D01*
X120181860Y-134654941D01*
X120238472Y-134518268D01*
X120320660Y-134395265D01*
X120425265Y-134290660D01*
X120548268Y-134208472D01*
X120684941Y-134151860D01*
X120830032Y-134123000D01*
X120977968Y-134123000D01*
X121123059Y-134151860D01*
G37*
G36*
X117313059Y-134151860D02*
G01*
X117449732Y-134208472D01*
X117572735Y-134290660D01*
X117677340Y-134395265D01*
X117759528Y-134518268D01*
X117816140Y-134654941D01*
X117845000Y-134800033D01*
X117845000Y-134947967D01*
X117816140Y-135093059D01*
X117759528Y-135229732D01*
X117677340Y-135352735D01*
X117572735Y-135457340D01*
X117449732Y-135539528D01*
X117449731Y-135539529D01*
X117449730Y-135539529D01*
X117313059Y-135596140D01*
X117167968Y-135625000D01*
X117020032Y-135625000D01*
X116874941Y-135596140D01*
X116738270Y-135539529D01*
X116738269Y-135539529D01*
X116738268Y-135539528D01*
X116615265Y-135457340D01*
X116510660Y-135352735D01*
X116428472Y-135229732D01*
X116371860Y-135093059D01*
X116343000Y-134947967D01*
X116343000Y-134800033D01*
X116371860Y-134654941D01*
X116428472Y-134518268D01*
X116510660Y-134395265D01*
X116615265Y-134290660D01*
X116738268Y-134208472D01*
X116874941Y-134151860D01*
X117020032Y-134123000D01*
X117167968Y-134123000D01*
X117313059Y-134151860D01*
G37*
G36*
X121123059Y-131611860D02*
G01*
X121259732Y-131668472D01*
X121382735Y-131750660D01*
X121487340Y-131855265D01*
X121569528Y-131978268D01*
X121626140Y-132114941D01*
X121655000Y-132260033D01*
X121655000Y-132407967D01*
X121626140Y-132553059D01*
X121569528Y-132689732D01*
X121487340Y-132812735D01*
X121382735Y-132917340D01*
X121259732Y-132999528D01*
X121259731Y-132999529D01*
X121259730Y-132999529D01*
X121123059Y-133056140D01*
X120977968Y-133085000D01*
X120830032Y-133085000D01*
X120684941Y-133056140D01*
X120548270Y-132999529D01*
X120548269Y-132999529D01*
X120548268Y-132999528D01*
X120425265Y-132917340D01*
X120320660Y-132812735D01*
X120238472Y-132689732D01*
X120181860Y-132553059D01*
X120153000Y-132407967D01*
X120153000Y-132260033D01*
X120181860Y-132114941D01*
X120238472Y-131978268D01*
X120320660Y-131855265D01*
X120425265Y-131750660D01*
X120548268Y-131668472D01*
X120684941Y-131611860D01*
X120830032Y-131583000D01*
X120977968Y-131583000D01*
X121123059Y-131611860D01*
G37*
G36*
X117313059Y-131611860D02*
G01*
X117449732Y-131668472D01*
X117572735Y-131750660D01*
X117677340Y-131855265D01*
X117759528Y-131978268D01*
X117816140Y-132114941D01*
X117845000Y-132260033D01*
X117845000Y-132407967D01*
X117816140Y-132553059D01*
X117759528Y-132689732D01*
X117677340Y-132812735D01*
X117572735Y-132917340D01*
X117449732Y-132999528D01*
X117449731Y-132999529D01*
X117449730Y-132999529D01*
X117313059Y-133056140D01*
X117167968Y-133085000D01*
X117020032Y-133085000D01*
X116874941Y-133056140D01*
X116738270Y-132999529D01*
X116738269Y-132999529D01*
X116738268Y-132999528D01*
X116615265Y-132917340D01*
X116510660Y-132812735D01*
X116428472Y-132689732D01*
X116371860Y-132553059D01*
X116343000Y-132407967D01*
X116343000Y-132260033D01*
X116371860Y-132114941D01*
X116428472Y-131978268D01*
X116510660Y-131855265D01*
X116615265Y-131750660D01*
X116738268Y-131668472D01*
X116874941Y-131611860D01*
X117020032Y-131583000D01*
X117167968Y-131583000D01*
X117313059Y-131611860D01*
G37*
G36*
X114065628Y-129686903D02*
G01*
X114220500Y-129751053D01*
X114359881Y-129844185D01*
X114478415Y-129962719D01*
X114571547Y-130102100D01*
X114635697Y-130256972D01*
X114668400Y-130421384D01*
X114668400Y-130589016D01*
X114635697Y-130753428D01*
X114571547Y-130908300D01*
X114478415Y-131047681D01*
X114359881Y-131166215D01*
X114220500Y-131259347D01*
X114065628Y-131323497D01*
X113901216Y-131356200D01*
X113733584Y-131356200D01*
X113569172Y-131323497D01*
X113414300Y-131259347D01*
X113274919Y-131166215D01*
X113156385Y-131047681D01*
X113063253Y-130908300D01*
X112999103Y-130753428D01*
X112966400Y-130589016D01*
X112966400Y-130421384D01*
X112999103Y-130256972D01*
X113063253Y-130102100D01*
X113156385Y-129962719D01*
X113274919Y-129844185D01*
X113414300Y-129751053D01*
X113569172Y-129686903D01*
X113733584Y-129654200D01*
X113901216Y-129654200D01*
X114065628Y-129686903D01*
G37*
G36*
X124682828Y-129661503D02*
G01*
X124837700Y-129725653D01*
X124977081Y-129818785D01*
X125095615Y-129937319D01*
X125188747Y-130076700D01*
X125252897Y-130231572D01*
X125285600Y-130395984D01*
X125285600Y-130563616D01*
X125252897Y-130728028D01*
X125188747Y-130882900D01*
X125095615Y-131022281D01*
X124977081Y-131140815D01*
X124837700Y-131233947D01*
X124682828Y-131298097D01*
X124518416Y-131330800D01*
X124350784Y-131330800D01*
X124186372Y-131298097D01*
X124031500Y-131233947D01*
X123892119Y-131140815D01*
X123773585Y-131022281D01*
X123680453Y-130882900D01*
X123616303Y-130728028D01*
X123583600Y-130563616D01*
X123583600Y-130395984D01*
X123616303Y-130231572D01*
X123680453Y-130076700D01*
X123773585Y-129937319D01*
X123892119Y-129818785D01*
X124031500Y-129725653D01*
X124186372Y-129661503D01*
X124350784Y-129628800D01*
X124518416Y-129628800D01*
X124682828Y-129661503D01*
G37*
G36*
X114065628Y-127186903D02*
G01*
X114220500Y-127251053D01*
X114359881Y-127344185D01*
X114478415Y-127462719D01*
X114571547Y-127602100D01*
X114635697Y-127756972D01*
X114668400Y-127921384D01*
X114668400Y-128089016D01*
X114635697Y-128253428D01*
X114571547Y-128408300D01*
X114478415Y-128547681D01*
X114359881Y-128666215D01*
X114220500Y-128759347D01*
X114065628Y-128823497D01*
X113901216Y-128856200D01*
X113733584Y-128856200D01*
X113569172Y-128823497D01*
X113414300Y-128759347D01*
X113274919Y-128666215D01*
X113156385Y-128547681D01*
X113063253Y-128408300D01*
X112999103Y-128253428D01*
X112966400Y-128089016D01*
X112966400Y-127921384D01*
X112999103Y-127756972D01*
X113063253Y-127602100D01*
X113156385Y-127462719D01*
X113274919Y-127344185D01*
X113414300Y-127251053D01*
X113569172Y-127186903D01*
X113733584Y-127154200D01*
X113901216Y-127154200D01*
X114065628Y-127186903D01*
G37*
G36*
X124682828Y-127161503D02*
G01*
X124837700Y-127225653D01*
X124977081Y-127318785D01*
X125095615Y-127437319D01*
X125188747Y-127576700D01*
X125252897Y-127731572D01*
X125285600Y-127895984D01*
X125285600Y-128063616D01*
X125252897Y-128228028D01*
X125188747Y-128382900D01*
X125095615Y-128522281D01*
X124977081Y-128640815D01*
X124837700Y-128733947D01*
X124682828Y-128798097D01*
X124518416Y-128830800D01*
X124350784Y-128830800D01*
X124186372Y-128798097D01*
X124031500Y-128733947D01*
X123892119Y-128640815D01*
X123773585Y-128522281D01*
X123680453Y-128382900D01*
X123616303Y-128228028D01*
X123583600Y-128063616D01*
X123583600Y-127895984D01*
X123616303Y-127731572D01*
X123680453Y-127576700D01*
X123773585Y-127437319D01*
X123892119Y-127318785D01*
X124031500Y-127225653D01*
X124186372Y-127161503D01*
X124350784Y-127128800D01*
X124518416Y-127128800D01*
X124682828Y-127161503D01*
G37*
G36*
X119723000Y-128206600D02*
G01*
X118021000Y-128206600D01*
X118021000Y-126504600D01*
X119723000Y-126504600D01*
X119723000Y-128206600D01*
G37*
G36*
X119120228Y-124037303D02*
G01*
X119275100Y-124101453D01*
X119414481Y-124194585D01*
X119533015Y-124313119D01*
X119626147Y-124452500D01*
X119690297Y-124607372D01*
X119723000Y-124771784D01*
X119723000Y-124939416D01*
X119690297Y-125103828D01*
X119626147Y-125258700D01*
X119533015Y-125398081D01*
X119414481Y-125516615D01*
X119275100Y-125609747D01*
X119120228Y-125673897D01*
X118955816Y-125706600D01*
X118788184Y-125706600D01*
X118623772Y-125673897D01*
X118468900Y-125609747D01*
X118329519Y-125516615D01*
X118210985Y-125398081D01*
X118117853Y-125258700D01*
X118053703Y-125103828D01*
X118021000Y-124939416D01*
X118021000Y-124771784D01*
X118053703Y-124607372D01*
X118117853Y-124452500D01*
X118210985Y-124313119D01*
X118329519Y-124194585D01*
X118468900Y-124101453D01*
X118623772Y-124037303D01*
X118788184Y-124004600D01*
X118955816Y-124004600D01*
X119120228Y-124037303D01*
G37*
G36*
X123561459Y-122950460D02*
G01*
X123698132Y-123007072D01*
X123821135Y-123089260D01*
X123925740Y-123193865D01*
X123925741Y-123193867D01*
X124007929Y-123316870D01*
X124064540Y-123453541D01*
X124093400Y-123598632D01*
X124093400Y-123746568D01*
X124064540Y-123891659D01*
X124009585Y-124024333D01*
X124007928Y-124028332D01*
X123925740Y-124151335D01*
X123821135Y-124255940D01*
X123698132Y-124338128D01*
X123698131Y-124338129D01*
X123698130Y-124338129D01*
X123561459Y-124394740D01*
X123416368Y-124423600D01*
X123268432Y-124423600D01*
X123123341Y-124394740D01*
X122986670Y-124338129D01*
X122986669Y-124338129D01*
X122986668Y-124338128D01*
X122863665Y-124255940D01*
X122759060Y-124151335D01*
X122676872Y-124028332D01*
X122675216Y-124024333D01*
X122620260Y-123891659D01*
X122591400Y-123746568D01*
X122591400Y-123598632D01*
X122620260Y-123453541D01*
X122676871Y-123316870D01*
X122759059Y-123193867D01*
X122759060Y-123193865D01*
X122863665Y-123089260D01*
X122986668Y-123007072D01*
X123123341Y-122950460D01*
X123268432Y-122921600D01*
X123416368Y-122921600D01*
X123561459Y-122950460D01*
G37*
G36*
X114519059Y-122823460D02*
G01*
X114655732Y-122880072D01*
X114778735Y-122962260D01*
X114883340Y-123066865D01*
X114883341Y-123066867D01*
X114965529Y-123189870D01*
X115022140Y-123326541D01*
X115047402Y-123453541D01*
X115051000Y-123471633D01*
X115051000Y-123619567D01*
X115022140Y-123764659D01*
X114965528Y-123901332D01*
X114883340Y-124024335D01*
X114778735Y-124128940D01*
X114655732Y-124211128D01*
X114655731Y-124211129D01*
X114655730Y-124211129D01*
X114519059Y-124267740D01*
X114373968Y-124296600D01*
X114226032Y-124296600D01*
X114080941Y-124267740D01*
X113944270Y-124211129D01*
X113944269Y-124211129D01*
X113944268Y-124211128D01*
X113821265Y-124128940D01*
X113716660Y-124024335D01*
X113634472Y-123901332D01*
X113577860Y-123764659D01*
X113549000Y-123619567D01*
X113549000Y-123471633D01*
X113552599Y-123453541D01*
X113577860Y-123326541D01*
X113634471Y-123189870D01*
X113716659Y-123066867D01*
X113716660Y-123066865D01*
X113821265Y-122962260D01*
X113944268Y-122880072D01*
X114080941Y-122823460D01*
X114226032Y-122794600D01*
X114373968Y-122794600D01*
X114519059Y-122823460D01*
G37*
G36*
X123561459Y-120410460D02*
G01*
X123698132Y-120467072D01*
X123821135Y-120549260D01*
X123925740Y-120653865D01*
X123925741Y-120653867D01*
X124007929Y-120776870D01*
X124064540Y-120913541D01*
X124093400Y-121058632D01*
X124093400Y-121206568D01*
X124064540Y-121351659D01*
X124009585Y-121484333D01*
X124007928Y-121488332D01*
X123925740Y-121611335D01*
X123821135Y-121715940D01*
X123698132Y-121798128D01*
X123698131Y-121798129D01*
X123698130Y-121798129D01*
X123561459Y-121854740D01*
X123416368Y-121883600D01*
X123268432Y-121883600D01*
X123123341Y-121854740D01*
X122986670Y-121798129D01*
X122986669Y-121798129D01*
X122986668Y-121798128D01*
X122863665Y-121715940D01*
X122759060Y-121611335D01*
X122676872Y-121488332D01*
X122675216Y-121484333D01*
X122620260Y-121351659D01*
X122591400Y-121206568D01*
X122591400Y-121058632D01*
X122620260Y-120913541D01*
X122676871Y-120776870D01*
X122759059Y-120653867D01*
X122759060Y-120653865D01*
X122863665Y-120549260D01*
X122986668Y-120467072D01*
X123123341Y-120410460D01*
X123268432Y-120381600D01*
X123416368Y-120381600D01*
X123561459Y-120410460D01*
G37*
G36*
X114519059Y-120283460D02*
G01*
X114655732Y-120340072D01*
X114778735Y-120422260D01*
X114883340Y-120526865D01*
X114883341Y-120526867D01*
X114965529Y-120649870D01*
X115022140Y-120786541D01*
X115047402Y-120913541D01*
X115051000Y-120931633D01*
X115051000Y-121079567D01*
X115022140Y-121224659D01*
X114965528Y-121361332D01*
X114883340Y-121484335D01*
X114778735Y-121588940D01*
X114655732Y-121671128D01*
X114655731Y-121671129D01*
X114655730Y-121671129D01*
X114519059Y-121727740D01*
X114373968Y-121756600D01*
X114226032Y-121756600D01*
X114080941Y-121727740D01*
X113944270Y-121671129D01*
X113944269Y-121671129D01*
X113944268Y-121671128D01*
X113821265Y-121588940D01*
X113716660Y-121484335D01*
X113634472Y-121361332D01*
X113577860Y-121224659D01*
X113549000Y-121079567D01*
X113549000Y-120931633D01*
X113552599Y-120913541D01*
X113577860Y-120786541D01*
X113634471Y-120649870D01*
X113716659Y-120526867D01*
X113716660Y-120526865D01*
X113821265Y-120422260D01*
X113944268Y-120340072D01*
X114080941Y-120283460D01*
X114226032Y-120254600D01*
X114373968Y-120254600D01*
X114519059Y-120283460D01*
G37*
G36*
X119672200Y-120967600D02*
G01*
X117970200Y-120967600D01*
X117970200Y-119265600D01*
X119672200Y-119265600D01*
X119672200Y-120967600D01*
G37*
G36*
X119069428Y-116798303D02*
G01*
X119224300Y-116862453D01*
X119363681Y-116955585D01*
X119482215Y-117074119D01*
X119575347Y-117213500D01*
X119639497Y-117368372D01*
X119672200Y-117532784D01*
X119672200Y-117700416D01*
X119639497Y-117864828D01*
X119575347Y-118019700D01*
X119482215Y-118159081D01*
X119363681Y-118277615D01*
X119224300Y-118370747D01*
X119069428Y-118434897D01*
X118905016Y-118467600D01*
X118737384Y-118467600D01*
X118572972Y-118434897D01*
X118418100Y-118370747D01*
X118278719Y-118277615D01*
X118160185Y-118159081D01*
X118067053Y-118019700D01*
X118002903Y-117864828D01*
X117970200Y-117700416D01*
X117970200Y-117532784D01*
X118002903Y-117368372D01*
X118067053Y-117213500D01*
X118160185Y-117074119D01*
X118278719Y-116955585D01*
X118418100Y-116862453D01*
X118572972Y-116798303D01*
X118737384Y-116765600D01*
X118905016Y-116765600D01*
X119069428Y-116798303D01*
G37*
G36*
X123793828Y-115183503D02*
G01*
X123948700Y-115247653D01*
X124088081Y-115340785D01*
X124206615Y-115459319D01*
X124299747Y-115598700D01*
X124363897Y-115753572D01*
X124396600Y-115917984D01*
X124396600Y-116085616D01*
X124363897Y-116250028D01*
X124299747Y-116404900D01*
X124206615Y-116544281D01*
X124088081Y-116662815D01*
X123948700Y-116755947D01*
X123793828Y-116820097D01*
X123629416Y-116852800D01*
X123461784Y-116852800D01*
X123297372Y-116820097D01*
X123142500Y-116755947D01*
X123003119Y-116662815D01*
X122884585Y-116544281D01*
X122791453Y-116404900D01*
X122727303Y-116250028D01*
X122694600Y-116085616D01*
X122694600Y-115917984D01*
X122727303Y-115753572D01*
X122791453Y-115598700D01*
X122884585Y-115459319D01*
X123003119Y-115340785D01*
X123142500Y-115247653D01*
X123297372Y-115183503D01*
X123461784Y-115150800D01*
X123629416Y-115150800D01*
X123793828Y-115183503D01*
G37*
G36*
X123793828Y-112683503D02*
G01*
X123948700Y-112747653D01*
X124088081Y-112840785D01*
X124206615Y-112959319D01*
X124299747Y-113098700D01*
X124363897Y-113253572D01*
X124396600Y-113417984D01*
X124396600Y-113585616D01*
X124363897Y-113750028D01*
X124299747Y-113904900D01*
X124206615Y-114044281D01*
X124088081Y-114162815D01*
X123948700Y-114255947D01*
X123793828Y-114320097D01*
X123629416Y-114352800D01*
X123461784Y-114352800D01*
X123297372Y-114320097D01*
X123142500Y-114255947D01*
X123003119Y-114162815D01*
X122884585Y-114044281D01*
X122791453Y-113904900D01*
X122727303Y-113750028D01*
X122694600Y-113585616D01*
X122694600Y-113417984D01*
X122727303Y-113253572D01*
X122791453Y-113098700D01*
X122884585Y-112959319D01*
X123003119Y-112840785D01*
X123142500Y-112747653D01*
X123297372Y-112683503D01*
X123461784Y-112650800D01*
X123629416Y-112650800D01*
X123793828Y-112683503D01*
G37*
G36*
X119469000Y-114033400D02*
G01*
X117767000Y-114033400D01*
X117767000Y-112331400D01*
X119469000Y-112331400D01*
X119469000Y-114033400D01*
G37*
G36*
X118866228Y-109864103D02*
G01*
X119021100Y-109928253D01*
X119160481Y-110021385D01*
X119279015Y-110139919D01*
X119372147Y-110279300D01*
X119436297Y-110434172D01*
X119469000Y-110598584D01*
X119469000Y-110766216D01*
X119436297Y-110930628D01*
X119372147Y-111085500D01*
X119279015Y-111224881D01*
X119160481Y-111343415D01*
X119021100Y-111436547D01*
X118866228Y-111500697D01*
X118701816Y-111533400D01*
X118534184Y-111533400D01*
X118369772Y-111500697D01*
X118214900Y-111436547D01*
X118075519Y-111343415D01*
X117956985Y-111224881D01*
X117863853Y-111085500D01*
X117799703Y-110930628D01*
X117767000Y-110766216D01*
X117767000Y-110598584D01*
X117799703Y-110434172D01*
X117863853Y-110279300D01*
X117956985Y-110139919D01*
X118075519Y-110021385D01*
X118214900Y-109928253D01*
X118369772Y-109864103D01*
X118534184Y-109831400D01*
X118701816Y-109831400D01*
X118866228Y-109864103D01*
G37*
G36*
X113985659Y-108142260D02*
G01*
X114122332Y-108198872D01*
X114245335Y-108281060D01*
X114349940Y-108385665D01*
X114432128Y-108508668D01*
X114488740Y-108645341D01*
X114517600Y-108790433D01*
X114517600Y-108938367D01*
X114488740Y-109083459D01*
X114432128Y-109220132D01*
X114349940Y-109343135D01*
X114245335Y-109447740D01*
X114122332Y-109529928D01*
X114122331Y-109529929D01*
X114122330Y-109529929D01*
X113985659Y-109586540D01*
X113840568Y-109615400D01*
X113692632Y-109615400D01*
X113547541Y-109586540D01*
X113410870Y-109529929D01*
X113410869Y-109529929D01*
X113410868Y-109529928D01*
X113287865Y-109447740D01*
X113183260Y-109343135D01*
X113101072Y-109220132D01*
X113044460Y-109083459D01*
X113015600Y-108938367D01*
X113015600Y-108790433D01*
X113044460Y-108645341D01*
X113101072Y-108508668D01*
X113183260Y-108385665D01*
X113287865Y-108281060D01*
X113410868Y-108198872D01*
X113547541Y-108142260D01*
X113692632Y-108113400D01*
X113840568Y-108113400D01*
X113985659Y-108142260D01*
G37*
G36*
X125257000Y-107985000D02*
G01*
X123155000Y-107985000D01*
X123155000Y-105883000D01*
X125257000Y-105883000D01*
X125257000Y-107985000D01*
G37*
G36*
X113985659Y-105602260D02*
G01*
X114122332Y-105658872D01*
X114245335Y-105741060D01*
X114349940Y-105845665D01*
X114432128Y-105968668D01*
X114488740Y-106105341D01*
X114517600Y-106250433D01*
X114517600Y-106398367D01*
X114488740Y-106543459D01*
X114432128Y-106680132D01*
X114349940Y-106803135D01*
X114245335Y-106907740D01*
X114122332Y-106989928D01*
X114122331Y-106989929D01*
X114122330Y-106989929D01*
X113985659Y-107046540D01*
X113840568Y-107075400D01*
X113692632Y-107075400D01*
X113547541Y-107046540D01*
X113410870Y-106989929D01*
X113410869Y-106989929D01*
X113410868Y-106989928D01*
X113287865Y-106907740D01*
X113183260Y-106803135D01*
X113101072Y-106680132D01*
X113044460Y-106543459D01*
X113015600Y-106398367D01*
X113015600Y-106250433D01*
X113044460Y-106105341D01*
X113101072Y-105968668D01*
X113183260Y-105845665D01*
X113287865Y-105741060D01*
X113410868Y-105658872D01*
X113547541Y-105602260D01*
X113692632Y-105573400D01*
X113840568Y-105573400D01*
X113985659Y-105602260D01*
G37*
G36*
X118761000Y-104190309D02*
G01*
X118763402Y-104214695D01*
X118770515Y-104238144D01*
X118782066Y-104259755D01*
X118797611Y-104278697D01*
X118816553Y-104294242D01*
X118838164Y-104305793D01*
X118861613Y-104312906D01*
X118885999Y-104315308D01*
X118910385Y-104312906D01*
X118933834Y-104305793D01*
X118955445Y-104294242D01*
X118974387Y-104278697D01*
X118989932Y-104259755D01*
X119001483Y-104238144D01*
X119033090Y-104161838D01*
X119104335Y-104055212D01*
X119195012Y-103964535D01*
X119301636Y-103893291D01*
X119420110Y-103844217D01*
X119545881Y-103819200D01*
X119674119Y-103819200D01*
X119799890Y-103844217D01*
X119918364Y-103893291D01*
X120024988Y-103964535D01*
X120115665Y-104055212D01*
X120186909Y-104161836D01*
X120235983Y-104280310D01*
X120261000Y-104406082D01*
X120261000Y-104534318D01*
X120235983Y-104660090D01*
X120186909Y-104778564D01*
X120115665Y-104885188D01*
X120024988Y-104975865D01*
X119918364Y-105047109D01*
X119918363Y-105047110D01*
X119918362Y-105047110D01*
X119799890Y-105096183D01*
X119674119Y-105121200D01*
X119545881Y-105121200D01*
X119420110Y-105096183D01*
X119301638Y-105047110D01*
X119301637Y-105047110D01*
X119301636Y-105047109D01*
X119195012Y-104975865D01*
X119104335Y-104885188D01*
X119033091Y-104778564D01*
X119001483Y-104702255D01*
X118989932Y-104680645D01*
X118974387Y-104661703D01*
X118955445Y-104646158D01*
X118933834Y-104634607D01*
X118910385Y-104627494D01*
X118885999Y-104625092D01*
X118861613Y-104627494D01*
X118838164Y-104634607D01*
X118816553Y-104646158D01*
X118797611Y-104661703D01*
X118782066Y-104680645D01*
X118770515Y-104702256D01*
X118763402Y-104725705D01*
X118761000Y-104750091D01*
X118761000Y-105121200D01*
X117459000Y-105121200D01*
X117459000Y-103819200D01*
X118761000Y-103819200D01*
X118761000Y-104190309D01*
G37*
G36*
X124537964Y-97414389D02*
G01*
X124729233Y-97493615D01*
X124729235Y-97493616D01*
X124901373Y-97608635D01*
X125047765Y-97755027D01*
X125150093Y-97908171D01*
X125162785Y-97927167D01*
X125242011Y-98118436D01*
X125282400Y-98321484D01*
X125282400Y-98528516D01*
X125242011Y-98731564D01*
X125162785Y-98922833D01*
X125162784Y-98922835D01*
X125047765Y-99094973D01*
X124901373Y-99241365D01*
X124729235Y-99356384D01*
X124729234Y-99356385D01*
X124729233Y-99356385D01*
X124537964Y-99435611D01*
X124334916Y-99476000D01*
X124127884Y-99476000D01*
X123924836Y-99435611D01*
X123733567Y-99356385D01*
X123733566Y-99356385D01*
X123733565Y-99356384D01*
X123561427Y-99241365D01*
X123415035Y-99094973D01*
X123300016Y-98922835D01*
X123300015Y-98922833D01*
X123220789Y-98731564D01*
X123180400Y-98528516D01*
X123180400Y-98321484D01*
X123220789Y-98118436D01*
X123300015Y-97927167D01*
X123312708Y-97908171D01*
X123415035Y-97755027D01*
X123561427Y-97608635D01*
X123733565Y-97493616D01*
X123733567Y-97493615D01*
X123924836Y-97414389D01*
X124127884Y-97374000D01*
X124334916Y-97374000D01*
X124537964Y-97414389D01*
G37*
G36*
X119069428Y-97338103D02*
G01*
X119224300Y-97402253D01*
X119363681Y-97495385D01*
X119482215Y-97613919D01*
X119575347Y-97753300D01*
X119639497Y-97908172D01*
X119672200Y-98072584D01*
X119672200Y-98240216D01*
X119639497Y-98404628D01*
X119575347Y-98559500D01*
X119482215Y-98698881D01*
X119363681Y-98817415D01*
X119224300Y-98910547D01*
X119069428Y-98974697D01*
X118905016Y-99007400D01*
X118737384Y-99007400D01*
X118572972Y-98974697D01*
X118418100Y-98910547D01*
X118278719Y-98817415D01*
X118160185Y-98698881D01*
X118067053Y-98559500D01*
X118002903Y-98404628D01*
X117970200Y-98240216D01*
X117970200Y-98072584D01*
X118002903Y-97908172D01*
X118067053Y-97753300D01*
X118160185Y-97613919D01*
X118278719Y-97495385D01*
X118418100Y-97402253D01*
X118572972Y-97338103D01*
X118737384Y-97305400D01*
X118905016Y-97305400D01*
X119069428Y-97338103D01*
G37*
G36*
X119672200Y-96507400D02*
G01*
X117970200Y-96507400D01*
X117970200Y-94805400D01*
X119672200Y-94805400D01*
X119672200Y-96507400D01*
G37*
G36*
X121681859Y-90921060D02*
G01*
X121818532Y-90977672D01*
X121941535Y-91059860D01*
X122046140Y-91164465D01*
X122128328Y-91287468D01*
X122184940Y-91424141D01*
X122213800Y-91569233D01*
X122213800Y-91717167D01*
X122184940Y-91862259D01*
X122128328Y-91998932D01*
X122046140Y-92121935D01*
X121941535Y-92226540D01*
X121818532Y-92308728D01*
X121818531Y-92308729D01*
X121818530Y-92308729D01*
X121681859Y-92365340D01*
X121536768Y-92394200D01*
X121388832Y-92394200D01*
X121243741Y-92365340D01*
X121107070Y-92308729D01*
X121107069Y-92308729D01*
X121107068Y-92308728D01*
X120984065Y-92226540D01*
X120879460Y-92121935D01*
X120797272Y-91998932D01*
X120740660Y-91862259D01*
X120711800Y-91717167D01*
X120711800Y-91569233D01*
X120740660Y-91424141D01*
X120797272Y-91287468D01*
X120879460Y-91164465D01*
X120984065Y-91059860D01*
X121107068Y-90977672D01*
X121243741Y-90921060D01*
X121388832Y-90892200D01*
X121536768Y-90892200D01*
X121681859Y-90921060D01*
G37*
G36*
X114315859Y-90921060D02*
G01*
X114452532Y-90977672D01*
X114575535Y-91059860D01*
X114680140Y-91164465D01*
X114762328Y-91287468D01*
X114818940Y-91424141D01*
X114847800Y-91569233D01*
X114847800Y-91717167D01*
X114818940Y-91862259D01*
X114762328Y-91998932D01*
X114680140Y-92121935D01*
X114575535Y-92226540D01*
X114452532Y-92308728D01*
X114452531Y-92308729D01*
X114452530Y-92308729D01*
X114315859Y-92365340D01*
X114170768Y-92394200D01*
X114022832Y-92394200D01*
X113877741Y-92365340D01*
X113741070Y-92308729D01*
X113741069Y-92308729D01*
X113741068Y-92308728D01*
X113618065Y-92226540D01*
X113513460Y-92121935D01*
X113431272Y-91998932D01*
X113374660Y-91862259D01*
X113345800Y-91717167D01*
X113345800Y-91569233D01*
X113374660Y-91424141D01*
X113431272Y-91287468D01*
X113513460Y-91164465D01*
X113618065Y-91059860D01*
X113741068Y-90977672D01*
X113877741Y-90921060D01*
X114022832Y-90892200D01*
X114170768Y-90892200D01*
X114315859Y-90921060D01*
G37*
G36*
X116855859Y-90921060D02*
G01*
X116992532Y-90977672D01*
X117115535Y-91059860D01*
X117220140Y-91164465D01*
X117302328Y-91287468D01*
X117358940Y-91424141D01*
X117387800Y-91569233D01*
X117387800Y-91717167D01*
X117358940Y-91862259D01*
X117302328Y-91998932D01*
X117220140Y-92121935D01*
X117115535Y-92226540D01*
X116992532Y-92308728D01*
X116992531Y-92308729D01*
X116992530Y-92308729D01*
X116855859Y-92365340D01*
X116710768Y-92394200D01*
X116562832Y-92394200D01*
X116417741Y-92365340D01*
X116281070Y-92308729D01*
X116281069Y-92308729D01*
X116281068Y-92308728D01*
X116158065Y-92226540D01*
X116053460Y-92121935D01*
X115971272Y-91998932D01*
X115914660Y-91862259D01*
X115885800Y-91717167D01*
X115885800Y-91569233D01*
X115914660Y-91424141D01*
X115971272Y-91287468D01*
X116053460Y-91164465D01*
X116158065Y-91059860D01*
X116281068Y-90977672D01*
X116417741Y-90921060D01*
X116562832Y-90892200D01*
X116710768Y-90892200D01*
X116855859Y-90921060D01*
G37*
G36*
X124221859Y-90921060D02*
G01*
X124358532Y-90977672D01*
X124481535Y-91059860D01*
X124586140Y-91164465D01*
X124668328Y-91287468D01*
X124724940Y-91424141D01*
X124753800Y-91569233D01*
X124753800Y-91717167D01*
X124724940Y-91862259D01*
X124668328Y-91998932D01*
X124586140Y-92121935D01*
X124481535Y-92226540D01*
X124358532Y-92308728D01*
X124358531Y-92308729D01*
X124358530Y-92308729D01*
X124221859Y-92365340D01*
X124076768Y-92394200D01*
X123928832Y-92394200D01*
X123783741Y-92365340D01*
X123647070Y-92308729D01*
X123647069Y-92308729D01*
X123647068Y-92308728D01*
X123524065Y-92226540D01*
X123419460Y-92121935D01*
X123337272Y-91998932D01*
X123280660Y-91862259D01*
X123251800Y-91717167D01*
X123251800Y-91569233D01*
X123280660Y-91424141D01*
X123337272Y-91287468D01*
X123419460Y-91164465D01*
X123524065Y-91059860D01*
X123647068Y-90977672D01*
X123783741Y-90921060D01*
X123928832Y-90892200D01*
X124076768Y-90892200D01*
X124221859Y-90921060D01*
G37*
G36*
X114664903Y-85713075D02*
G01*
X114892571Y-85807378D01*
X115097466Y-85944285D01*
X115271715Y-86118534D01*
X115408622Y-86323429D01*
X115502925Y-86551097D01*
X115551000Y-86792787D01*
X115551000Y-87039213D01*
X115502925Y-87280903D01*
X115408622Y-87508571D01*
X115271715Y-87713466D01*
X115097466Y-87887715D01*
X114892571Y-88024622D01*
X114892570Y-88024623D01*
X114892569Y-88024623D01*
X114664903Y-88118925D01*
X114423214Y-88167000D01*
X114176786Y-88167000D01*
X113935097Y-88118925D01*
X113707431Y-88024623D01*
X113707430Y-88024623D01*
X113707429Y-88024622D01*
X113502534Y-87887715D01*
X113328285Y-87713466D01*
X113191378Y-87508571D01*
X113097075Y-87280903D01*
X113049000Y-87039213D01*
X113049000Y-86792787D01*
X113097075Y-86551097D01*
X113191378Y-86323429D01*
X113328285Y-86118534D01*
X113502534Y-85944285D01*
X113707429Y-85807378D01*
X113935097Y-85713075D01*
X114176786Y-85665000D01*
X114423214Y-85665000D01*
X114664903Y-85713075D01*
G37*
G36*
X118735459Y-81269060D02*
G01*
X118872132Y-81325672D01*
X118995135Y-81407860D01*
X119099740Y-81512465D01*
X119146581Y-81582568D01*
X119181929Y-81635470D01*
X119238540Y-81772141D01*
X119267400Y-81917232D01*
X119267400Y-82065168D01*
X119245727Y-82174128D01*
X119238540Y-82210259D01*
X119181928Y-82346932D01*
X119099740Y-82469935D01*
X118995135Y-82574540D01*
X118872132Y-82656728D01*
X118872131Y-82656729D01*
X118872130Y-82656729D01*
X118735459Y-82713340D01*
X118590368Y-82742200D01*
X118442432Y-82742200D01*
X118297341Y-82713340D01*
X118160670Y-82656729D01*
X118160669Y-82656729D01*
X118160668Y-82656728D01*
X118037665Y-82574540D01*
X117933060Y-82469935D01*
X117850872Y-82346932D01*
X117794260Y-82210259D01*
X117787073Y-82174128D01*
X117765400Y-82065168D01*
X117765400Y-81917232D01*
X117794260Y-81772141D01*
X117850871Y-81635470D01*
X117886219Y-81582568D01*
X117933060Y-81512465D01*
X118037665Y-81407860D01*
X118160668Y-81325672D01*
X118297341Y-81269060D01*
X118442432Y-81240200D01*
X118590368Y-81240200D01*
X118735459Y-81269060D01*
G37*
G36*
X122850259Y-80786460D02*
G01*
X122986932Y-80843072D01*
X123109935Y-80925260D01*
X123214540Y-81029865D01*
X123214541Y-81029867D01*
X123296729Y-81152870D01*
X123353340Y-81289541D01*
X123376875Y-81407859D01*
X123382200Y-81434633D01*
X123382200Y-81582567D01*
X123353340Y-81727659D01*
X123296728Y-81864332D01*
X123214540Y-81987335D01*
X123109935Y-82091940D01*
X122986932Y-82174128D01*
X122986931Y-82174129D01*
X122986930Y-82174129D01*
X122850259Y-82230740D01*
X122705168Y-82259600D01*
X122557232Y-82259600D01*
X122412141Y-82230740D01*
X122275470Y-82174129D01*
X122275469Y-82174129D01*
X122275468Y-82174128D01*
X122152465Y-82091940D01*
X122047860Y-81987335D01*
X121965672Y-81864332D01*
X121909060Y-81727659D01*
X121880200Y-81582567D01*
X121880200Y-81434633D01*
X121885526Y-81407859D01*
X121909060Y-81289541D01*
X121965671Y-81152870D01*
X122047859Y-81029867D01*
X122047860Y-81029865D01*
X122152465Y-80925260D01*
X122275468Y-80843072D01*
X122412141Y-80786460D01*
X122557232Y-80757600D01*
X122705168Y-80757600D01*
X122850259Y-80786460D01*
G37*
G36*
X118735459Y-78729060D02*
G01*
X118872132Y-78785672D01*
X118995135Y-78867860D01*
X119099740Y-78972465D01*
X119146581Y-79042568D01*
X119181929Y-79095470D01*
X119238540Y-79232141D01*
X119267400Y-79377232D01*
X119267400Y-79525168D01*
X119245727Y-79634128D01*
X119238540Y-79670259D01*
X119181928Y-79806932D01*
X119099740Y-79929935D01*
X118995135Y-80034540D01*
X118872132Y-80116728D01*
X118872131Y-80116729D01*
X118872130Y-80116729D01*
X118735459Y-80173340D01*
X118590368Y-80202200D01*
X118442432Y-80202200D01*
X118297341Y-80173340D01*
X118160670Y-80116729D01*
X118160669Y-80116729D01*
X118160668Y-80116728D01*
X118037665Y-80034540D01*
X117933060Y-79929935D01*
X117850872Y-79806932D01*
X117794260Y-79670259D01*
X117787073Y-79634128D01*
X117765400Y-79525168D01*
X117765400Y-79377232D01*
X117794260Y-79232141D01*
X117850871Y-79095470D01*
X117886219Y-79042568D01*
X117933060Y-78972465D01*
X118037665Y-78867860D01*
X118160668Y-78785672D01*
X118297341Y-78729060D01*
X118442432Y-78700200D01*
X118590368Y-78700200D01*
X118735459Y-78729060D01*
G37*
G36*
X122850259Y-78246460D02*
G01*
X122986932Y-78303072D01*
X123109935Y-78385260D01*
X123214540Y-78489865D01*
X123214541Y-78489867D01*
X123296729Y-78612870D01*
X123353340Y-78749541D01*
X123376875Y-78867859D01*
X123382200Y-78894633D01*
X123382200Y-79042567D01*
X123353340Y-79187659D01*
X123296728Y-79324332D01*
X123214540Y-79447335D01*
X123109935Y-79551940D01*
X122986932Y-79634128D01*
X122986931Y-79634129D01*
X122986930Y-79634129D01*
X122850259Y-79690740D01*
X122705168Y-79719600D01*
X122557232Y-79719600D01*
X122412141Y-79690740D01*
X122275470Y-79634129D01*
X122275469Y-79634129D01*
X122275468Y-79634128D01*
X122152465Y-79551940D01*
X122047860Y-79447335D01*
X121965672Y-79324332D01*
X121909060Y-79187659D01*
X121880200Y-79042567D01*
X121880200Y-78894633D01*
X121885526Y-78867859D01*
X121909060Y-78749541D01*
X121965671Y-78612870D01*
X122047859Y-78489867D01*
X122047860Y-78489865D01*
X122152465Y-78385260D01*
X122275468Y-78303072D01*
X122412141Y-78246460D01*
X122557232Y-78217600D01*
X122705168Y-78217600D01*
X122850259Y-78246460D01*
G37*
G36*
X114741103Y-73422275D02*
G01*
X114968771Y-73516578D01*
X115173666Y-73653485D01*
X115347915Y-73827734D01*
X115484822Y-74032629D01*
X115579125Y-74260297D01*
X115627200Y-74501987D01*
X115627200Y-74748413D01*
X115579125Y-74990103D01*
X115484822Y-75217771D01*
X115347915Y-75422666D01*
X115173666Y-75596915D01*
X114968771Y-75733822D01*
X114968770Y-75733823D01*
X114968769Y-75733823D01*
X114741103Y-75828125D01*
X114499414Y-75876200D01*
X114252986Y-75876200D01*
X114011297Y-75828125D01*
X113783631Y-75733823D01*
X113783630Y-75733823D01*
X113783629Y-75733822D01*
X113578734Y-75596915D01*
X113404485Y-75422666D01*
X113267578Y-75217771D01*
X113173275Y-74990103D01*
X113125200Y-74748413D01*
X113125200Y-74501987D01*
X113173275Y-74260297D01*
X113267578Y-74032629D01*
X113404485Y-73827734D01*
X113578734Y-73653485D01*
X113783629Y-73516578D01*
X114011297Y-73422275D01*
X114252986Y-73374200D01*
X114499414Y-73374200D01*
X114741103Y-73422275D01*
G37*
G36*
X117621628Y-73309703D02*
G01*
X117776500Y-73373853D01*
X117915881Y-73466985D01*
X118034415Y-73585519D01*
X118127547Y-73724900D01*
X118191697Y-73879772D01*
X118224400Y-74044184D01*
X118224400Y-74211816D01*
X118191697Y-74376228D01*
X118127547Y-74531100D01*
X118034415Y-74670481D01*
X117915881Y-74789015D01*
X117776500Y-74882147D01*
X117621628Y-74946297D01*
X117457216Y-74979000D01*
X117289584Y-74979000D01*
X117125172Y-74946297D01*
X116970300Y-74882147D01*
X116830919Y-74789015D01*
X116712385Y-74670481D01*
X116619253Y-74531100D01*
X116555103Y-74376228D01*
X116522400Y-74211816D01*
X116522400Y-74044184D01*
X116555103Y-73879772D01*
X116619253Y-73724900D01*
X116712385Y-73585519D01*
X116830919Y-73466985D01*
X116970300Y-73373853D01*
X117125172Y-73309703D01*
X117289584Y-73277000D01*
X117457216Y-73277000D01*
X117621628Y-73309703D01*
G37*
G36*
X117621628Y-70809703D02*
G01*
X117776500Y-70873853D01*
X117915881Y-70966985D01*
X118034415Y-71085519D01*
X118127547Y-71224900D01*
X118191697Y-71379772D01*
X118224400Y-71544184D01*
X118224400Y-71711816D01*
X118191697Y-71876228D01*
X118127547Y-72031100D01*
X118034415Y-72170481D01*
X117915881Y-72289015D01*
X117776500Y-72382147D01*
X117621628Y-72446297D01*
X117457216Y-72479000D01*
X117289584Y-72479000D01*
X117125172Y-72446297D01*
X116970300Y-72382147D01*
X116830919Y-72289015D01*
X116712385Y-72170481D01*
X116619253Y-72031100D01*
X116555103Y-71876228D01*
X116522400Y-71711816D01*
X116522400Y-71544184D01*
X116555103Y-71379772D01*
X116619253Y-71224900D01*
X116712385Y-71085519D01*
X116830919Y-70966985D01*
X116970300Y-70873853D01*
X117125172Y-70809703D01*
X117289584Y-70777000D01*
X117457216Y-70777000D01*
X117621628Y-70809703D01*
G37*
G36*
X114664903Y-63313075D02*
G01*
X114892571Y-63407378D01*
X115097466Y-63544285D01*
X115271715Y-63718534D01*
X115408622Y-63923429D01*
X115408623Y-63923431D01*
X115502925Y-64151097D01*
X115551000Y-64392787D01*
X115551000Y-64639213D01*
X115502925Y-64880903D01*
X115408622Y-65108571D01*
X115271715Y-65313466D01*
X115097466Y-65487715D01*
X114892571Y-65624622D01*
X114892570Y-65624623D01*
X114892569Y-65624623D01*
X114664903Y-65718925D01*
X114423214Y-65767000D01*
X114176786Y-65767000D01*
X113935097Y-65718925D01*
X113707431Y-65624623D01*
X113707430Y-65624623D01*
X113707429Y-65624622D01*
X113502534Y-65487715D01*
X113328285Y-65313466D01*
X113191378Y-65108571D01*
X113097075Y-64880903D01*
X113049000Y-64639213D01*
X113049000Y-64392787D01*
X113097075Y-64151097D01*
X113191377Y-63923431D01*
X113191378Y-63923429D01*
X113328285Y-63718534D01*
X113502534Y-63544285D01*
X113707429Y-63407378D01*
X113935097Y-63313075D01*
X114176786Y-63265000D01*
X114423214Y-63265000D01*
X114664903Y-63313075D01*
G37*
G36*
X118681354Y-63329782D02*
G01*
X118749682Y-63343373D01*
X118846227Y-63383363D01*
X118942773Y-63423354D01*
X119116546Y-63539465D01*
X119264335Y-63687254D01*
X119380446Y-63861027D01*
X119460427Y-64054119D01*
X119501200Y-64259099D01*
X119501200Y-64468101D01*
X119460427Y-64673081D01*
X119380446Y-64866173D01*
X119264335Y-65039946D01*
X119116546Y-65187735D01*
X118942773Y-65303846D01*
X118846227Y-65343837D01*
X118749682Y-65383827D01*
X118681354Y-65397418D01*
X118544701Y-65424600D01*
X118335699Y-65424600D01*
X118199046Y-65397418D01*
X118130718Y-65383827D01*
X118034173Y-65343836D01*
X117937627Y-65303846D01*
X117763854Y-65187735D01*
X117616065Y-65039946D01*
X117499954Y-64866173D01*
X117419973Y-64673081D01*
X117379200Y-64468101D01*
X117379200Y-64259099D01*
X117419973Y-64054119D01*
X117499954Y-63861027D01*
X117616065Y-63687254D01*
X117763854Y-63539465D01*
X117937627Y-63423354D01*
X118034173Y-63383363D01*
X118130718Y-63343373D01*
X118199046Y-63329782D01*
X118335699Y-63302600D01*
X118544701Y-63302600D01*
X118681354Y-63329782D01*
G37*
G36*
X121221354Y-63329782D02*
G01*
X121289682Y-63343373D01*
X121386227Y-63383363D01*
X121482773Y-63423354D01*
X121656546Y-63539465D01*
X121804335Y-63687254D01*
X121920446Y-63861027D01*
X122000427Y-64054119D01*
X122041200Y-64259099D01*
X122041200Y-64468101D01*
X122000427Y-64673081D01*
X121920446Y-64866173D01*
X121804335Y-65039946D01*
X121656546Y-65187735D01*
X121482773Y-65303846D01*
X121386227Y-65343837D01*
X121289682Y-65383827D01*
X121221354Y-65397418D01*
X121084701Y-65424600D01*
X120875699Y-65424600D01*
X120739046Y-65397418D01*
X120670718Y-65383827D01*
X120574173Y-65343836D01*
X120477627Y-65303846D01*
X120303854Y-65187735D01*
X120156065Y-65039946D01*
X120039954Y-64866173D01*
X119959973Y-64673081D01*
X119919200Y-64468101D01*
X119919200Y-64259099D01*
X119959973Y-64054119D01*
X120039954Y-63861027D01*
X120156065Y-63687254D01*
X120303854Y-63539465D01*
X120477627Y-63423354D01*
X120574173Y-63383363D01*
X120670718Y-63343373D01*
X120739046Y-63329782D01*
X120875699Y-63302600D01*
X121084701Y-63302600D01*
X121221354Y-63329782D01*
G37*
M02*
