M48
; DRILL file {KiCad (5.1.2-1)-1} date Thursday, April 22, 2021 at 07:55:01 AM
; FORMAT={-:-/ absolute / metric / decimal}
; #@! TF.CreationDate,2021-04-22T07:55:01-04:00
; #@! TF.GenerationSoftware,Kicad,Pcbnew,(5.1.2-1)-1
FMAT,2
METRIC
T1C0.400
T2C0.600
T3C0.700
T4C0.760
T5C0.800
T6C0.800
T7C1.000
T8C1.020
%
G90
G05
T1
X111.506Y-96.266
X118.034Y-96.215
X123.19Y-80.01
X123.596Y-75.032
T2
X119.634Y-108.204
X121.134Y-108.204
T3
X117.602Y-84.328
X120.142Y-84.328
X123.19Y-126.492
X123.19Y-129.032
X115.062Y-106.426
X115.062Y-108.966
X121.412Y-94.234
X123.952Y-94.234
X117.094Y-132.334
X117.094Y-134.874
X114.046Y-94.234
X116.586Y-94.234
X120.904Y-132.334
X120.904Y-134.874
X123.19Y-84.328
X125.73Y-84.328
X114.808Y-119.38
X114.808Y-121.92
T4
X124.206Y-106.934
X124.231Y-98.425
T5
X113.03Y-132.628
X113.03Y-135.128
X123.19Y-113.324
X123.19Y-115.824
X114.3Y-64.516
X114.3Y-86.916
X120.879Y-68.834
X123.379Y-68.834
X116.84Y-101.092
X119.34Y-101.092
X124.968Y-132.628
X124.968Y-135.128
X117.094Y-113.578
X117.094Y-116.078
X121.158Y-119.674
X121.158Y-122.174
X116.84Y-126.278
X116.84Y-128.778
T6
X115.824Y-138.43
X118.999Y-138.43
X122.174Y-138.43
T7
X117.602Y-72.39
X117.602Y-74.93
X117.602Y-77.47
X117.602Y-80.01
X125.222Y-72.39
X125.222Y-74.93
X125.222Y-77.47
X125.222Y-80.01
T8
X120.142Y-64.008
X122.682Y-64.008
T0
M30
