M48
; DRILL file {KiCad (5.1.5)-3} date 7/18/2021 8:22:45 PM
; FORMAT={-:-/ absolute / inch / decimal}
; #@! TF.CreationDate,2021-07-18T20:22:45-04:00
; #@! TF.GenerationSoftware,Kicad,Pcbnew,(5.1.5)-3
; #@! TF.FileFunction,Plated,1,2,PTH
FMAT,2
INCH
T1C0.0157
T2C0.0236
T3C0.0276
T4C0.0299
T5C0.0315
T6C0.0315
T7C0.0402
%
G90
G05
T1
X4.436Y-3.358
X4.691Y-2.928
X4.871Y-2.891
X4.964Y-4.631
T2
X4.65Y-4.113
X4.7091Y-4.113
T3
X4.782Y-3.608
X4.882Y-3.608
X4.666Y-3.128
X4.666Y-3.228
X4.61Y-5.21
X4.61Y-5.31
X4.5Y-4.764
X4.5Y-4.864
X4.479Y-4.186
X4.479Y-4.286
X4.856Y-4.769
X4.856Y-4.869
X4.492Y-3.608
X4.592Y-3.608
X4.828Y-3.109
X4.828Y-3.209
X4.76Y-5.21
X4.76Y-5.31
T4
X4.89Y-4.21
X4.891Y-3.875
T5
X4.864Y-4.4686
X4.864Y-4.567
X4.678Y-3.766
X4.678Y-3.8644
X4.481Y-5.0396
X4.481Y-5.138
X4.5Y-2.54
X4.5Y-3.4219
X4.503Y-2.938
X4.899Y-5.0386
X4.899Y-5.137
X4.621Y-2.82
X4.621Y-2.9184
X4.68Y-4.9156
X4.68Y-5.014
X4.67Y-4.3576
X4.67Y-4.456
X4.678Y-4.6306
X4.678Y-4.729
T6
X4.56Y-5.45
X4.685Y-5.45
X4.81Y-5.45
T7
X4.663Y-2.534
X4.763Y-2.534
T0
M30
