G04 #@! TF.GenerationSoftware,KiCad,Pcbnew,(5.1.5)-3*
G04 #@! TF.CreationDate,2021-05-08T00:18:30-04:00*
G04 #@! TF.ProjectId,opAmp Mic,6f70416d-7020-44d6-9963-2e6b69636164,rev?*
G04 #@! TF.SameCoordinates,Original*
G04 #@! TF.FileFunction,Legend,Top*
G04 #@! TF.FilePolarity,Positive*
%FSLAX46Y46*%
G04 Gerber Fmt 4.6, Leading zero omitted, Abs format (unit mm)*
G04 Created by KiCad (PCBNEW (5.1.5)-3) date 2021-05-08 00:18:30*
%MOMM*%
%LPD*%
G04 APERTURE LIST*
%ADD10C,0.100000*%
%ADD11C,0.120000*%
%ADD12C,0.150000*%
%ADD13C,0.071120*%
G04 APERTURE END LIST*
D10*
X124445523Y-138515428D02*
X123721714Y-138786857D01*
X124445523Y-139058285D01*
X124852666Y-138289238D02*
X124897904Y-138244000D01*
X124988380Y-138198761D01*
X125214571Y-138198761D01*
X125305047Y-138244000D01*
X125350285Y-138289238D01*
X125395523Y-138379714D01*
X125395523Y-138470190D01*
X125350285Y-138605904D01*
X124807428Y-139148761D01*
X125395523Y-139148761D01*
X118726828Y-135701076D02*
X118998257Y-136424885D01*
X119269685Y-135701076D01*
X118410161Y-135339171D02*
X118410161Y-134751076D01*
X118772066Y-135067742D01*
X118772066Y-134932028D01*
X118817304Y-134841552D01*
X118862542Y-134796314D01*
X118953019Y-134751076D01*
X119179209Y-134751076D01*
X119269685Y-134796314D01*
X119314923Y-134841552D01*
X119360161Y-134932028D01*
X119360161Y-135203457D01*
X119314923Y-135293933D01*
X119269685Y-135339171D01*
X113219333Y-139148761D02*
X112676476Y-139148761D01*
X112947904Y-139148761D02*
X112947904Y-138198761D01*
X112857428Y-138334476D01*
X112766952Y-138424952D01*
X112676476Y-138470190D01*
X113626476Y-138515428D02*
X114350285Y-138786857D01*
X113626476Y-139058285D01*
D11*
X115773200Y-85852000D02*
X112860000Y-85836000D01*
X112852200Y-65582800D02*
X112852200Y-85822800D01*
X115722400Y-65633600D02*
X112903000Y-65633600D01*
X115773200Y-65659000D02*
X115773200Y-85899000D01*
D10*
X119092000Y-78046000D02*
X119092000Y-78746000D01*
X118792000Y-77746000D02*
X119092000Y-78046000D01*
X118812000Y-73846000D02*
X119012000Y-73846000D01*
X118812000Y-74546000D02*
X118812000Y-73846000D01*
X124012000Y-73846000D02*
X124012000Y-74446000D01*
X123812000Y-73846000D02*
X124012000Y-73846000D01*
X124012000Y-78046000D02*
X124012000Y-77346000D01*
X123812000Y-78046000D02*
X124012000Y-78046000D01*
X124206000Y-102734000D02*
X124806000Y-102734000D01*
X124206000Y-102734000D02*
X123606000Y-102734000D01*
X124206000Y-102734000D02*
X124206000Y-103434000D01*
X124206000Y-99934000D02*
X124206000Y-101734000D01*
X123506000Y-101734000D02*
X124906000Y-101734000D01*
X124906000Y-101734000D02*
X124206000Y-102734000D01*
X124206000Y-102734000D02*
X123506000Y-101734000D01*
X124206000Y-103434000D02*
X124206000Y-104234000D01*
X124206000Y-98234000D02*
X124206000Y-99934000D01*
X124206000Y-104234000D02*
X125006000Y-104234000D01*
X125006000Y-104234000D02*
X125006000Y-99934000D01*
X125006000Y-99934000D02*
X124206000Y-99934000D01*
X124206000Y-105634000D02*
X124206000Y-104234000D01*
X124206000Y-104234000D02*
X123406000Y-104234000D01*
X123406000Y-104234000D02*
X123406000Y-99934000D01*
X123406000Y-99934000D02*
X124206000Y-99934000D01*
D11*
X123748600Y-69889000D02*
X123748600Y-69954000D01*
X123748600Y-67714000D02*
X123748600Y-67779000D01*
X120508600Y-69889000D02*
X120508600Y-69954000D01*
X120508600Y-67714000D02*
X120508600Y-67779000D01*
X120508600Y-69954000D02*
X123748600Y-69954000D01*
X120508600Y-67714000D02*
X123748600Y-67714000D01*
X122070000Y-116194000D02*
X122070000Y-112954000D01*
X124310000Y-116194000D02*
X124310000Y-112954000D01*
X122070000Y-116194000D02*
X122135000Y-116194000D01*
X124245000Y-116194000D02*
X124310000Y-116194000D01*
X122070000Y-112954000D02*
X122135000Y-112954000D01*
X124245000Y-112954000D02*
X124310000Y-112954000D01*
X112110000Y-134507000D02*
X112110000Y-133249000D01*
X113950000Y-134507000D02*
X113950000Y-133249000D01*
X125888000Y-134507000D02*
X125888000Y-133249000D01*
X124048000Y-134507000D02*
X124048000Y-133249000D01*
D10*
X123982000Y-60728000D02*
X123982000Y-61228000D01*
X123982000Y-60728000D02*
X123482000Y-60728000D01*
X118842000Y-60708000D02*
X118842000Y-61208000D01*
X118842000Y-60708000D02*
X119342000Y-60708000D01*
X118842000Y-67308000D02*
X118842000Y-66808000D01*
X118842000Y-67308000D02*
X119342000Y-67308000D01*
X123992000Y-67298000D02*
X123992000Y-66798000D01*
X123992000Y-67298000D02*
X123492000Y-67298000D01*
D11*
X118522000Y-84328000D02*
X119142000Y-84328000D01*
X118522000Y-84328000D02*
G75*
G03X118522000Y-84328000I-920000J0D01*
G01*
X127081800Y-84277200D02*
G75*
G03X127081800Y-84277200I-920000J0D01*
G01*
X125241800Y-84277200D02*
X124621800Y-84277200D01*
X115016800Y-91643200D02*
X115636800Y-91643200D01*
X115016800Y-91643200D02*
G75*
G03X115016800Y-91643200I-920000J0D01*
G01*
X122382800Y-91643200D02*
G75*
G03X122382800Y-91643200I-920000J0D01*
G01*
X122382800Y-91643200D02*
X123002800Y-91643200D01*
X114686600Y-108864400D02*
G75*
G03X114686600Y-108864400I-920000J0D01*
G01*
X113766600Y-107944400D02*
X113766600Y-107324400D01*
X123342400Y-122052600D02*
X123342400Y-122672600D01*
X124262400Y-121132600D02*
G75*
G03X124262400Y-121132600I-920000J0D01*
G01*
X115220000Y-123545600D02*
G75*
G03X115220000Y-123545600I-920000J0D01*
G01*
X114300000Y-122625600D02*
X114300000Y-122005600D01*
X120904000Y-133954000D02*
X120904000Y-133334000D01*
X121824000Y-134874000D02*
G75*
G03X121824000Y-134874000I-920000J0D01*
G01*
X118014000Y-134874000D02*
G75*
G03X118014000Y-134874000I-920000J0D01*
G01*
X117094000Y-133954000D02*
X117094000Y-133334000D01*
D10*
X118002000Y-71490000D02*
X118002000Y-71190000D01*
X118002000Y-71190000D02*
X118302000Y-71190000D01*
X124802000Y-71490000D02*
X124802000Y-71190000D01*
X124802000Y-71190000D02*
X124502000Y-71190000D01*
X124802000Y-80890000D02*
X124802000Y-81190000D01*
X124802000Y-81190000D02*
X124502000Y-81190000D01*
X118002000Y-80890000D02*
X118002000Y-81190000D01*
X118002000Y-81190000D02*
X118302000Y-81190000D01*
D11*
X122091200Y-96906400D02*
G75*
G03X122091200Y-96906400I-3270000J0D01*
G01*
X122051200Y-96906400D02*
X115591200Y-96906400D01*
X122051200Y-96946400D02*
X115591200Y-96946400D01*
X122051200Y-96986400D02*
X115591200Y-96986400D01*
X122049200Y-97026400D02*
X115593200Y-97026400D01*
X122048200Y-97066400D02*
X115594200Y-97066400D01*
X122045200Y-97106400D02*
X115597200Y-97106400D01*
X122043200Y-97146400D02*
X119861200Y-97146400D01*
X117781200Y-97146400D02*
X115599200Y-97146400D01*
X122039200Y-97186400D02*
X119861200Y-97186400D01*
X117781200Y-97186400D02*
X115603200Y-97186400D01*
X122036200Y-97226400D02*
X119861200Y-97226400D01*
X117781200Y-97226400D02*
X115606200Y-97226400D01*
X122032200Y-97266400D02*
X119861200Y-97266400D01*
X117781200Y-97266400D02*
X115610200Y-97266400D01*
X122027200Y-97306400D02*
X119861200Y-97306400D01*
X117781200Y-97306400D02*
X115615200Y-97306400D01*
X122022200Y-97346400D02*
X119861200Y-97346400D01*
X117781200Y-97346400D02*
X115620200Y-97346400D01*
X122016200Y-97386400D02*
X119861200Y-97386400D01*
X117781200Y-97386400D02*
X115626200Y-97386400D01*
X122010200Y-97426400D02*
X119861200Y-97426400D01*
X117781200Y-97426400D02*
X115632200Y-97426400D01*
X122003200Y-97466400D02*
X119861200Y-97466400D01*
X117781200Y-97466400D02*
X115639200Y-97466400D01*
X121996200Y-97506400D02*
X119861200Y-97506400D01*
X117781200Y-97506400D02*
X115646200Y-97506400D01*
X121988200Y-97546400D02*
X119861200Y-97546400D01*
X117781200Y-97546400D02*
X115654200Y-97546400D01*
X121980200Y-97586400D02*
X119861200Y-97586400D01*
X117781200Y-97586400D02*
X115662200Y-97586400D01*
X121971200Y-97627400D02*
X119861200Y-97627400D01*
X117781200Y-97627400D02*
X115671200Y-97627400D01*
X121962200Y-97667400D02*
X119861200Y-97667400D01*
X117781200Y-97667400D02*
X115680200Y-97667400D01*
X121952200Y-97707400D02*
X119861200Y-97707400D01*
X117781200Y-97707400D02*
X115690200Y-97707400D01*
X121942200Y-97747400D02*
X119861200Y-97747400D01*
X117781200Y-97747400D02*
X115700200Y-97747400D01*
X121931200Y-97787400D02*
X119861200Y-97787400D01*
X117781200Y-97787400D02*
X115711200Y-97787400D01*
X121919200Y-97827400D02*
X119861200Y-97827400D01*
X117781200Y-97827400D02*
X115723200Y-97827400D01*
X121907200Y-97867400D02*
X119861200Y-97867400D01*
X117781200Y-97867400D02*
X115735200Y-97867400D01*
X121895200Y-97907400D02*
X119861200Y-97907400D01*
X117781200Y-97907400D02*
X115747200Y-97907400D01*
X121882200Y-97947400D02*
X119861200Y-97947400D01*
X117781200Y-97947400D02*
X115760200Y-97947400D01*
X121868200Y-97987400D02*
X119861200Y-97987400D01*
X117781200Y-97987400D02*
X115774200Y-97987400D01*
X121854200Y-98027400D02*
X119861200Y-98027400D01*
X117781200Y-98027400D02*
X115788200Y-98027400D01*
X121839200Y-98067400D02*
X119861200Y-98067400D01*
X117781200Y-98067400D02*
X115803200Y-98067400D01*
X121823200Y-98107400D02*
X119861200Y-98107400D01*
X117781200Y-98107400D02*
X115819200Y-98107400D01*
X121807200Y-98147400D02*
X119861200Y-98147400D01*
X117781200Y-98147400D02*
X115835200Y-98147400D01*
X121791200Y-98187400D02*
X119861200Y-98187400D01*
X117781200Y-98187400D02*
X115851200Y-98187400D01*
X121773200Y-98227400D02*
X119861200Y-98227400D01*
X117781200Y-98227400D02*
X115869200Y-98227400D01*
X121755200Y-98267400D02*
X119861200Y-98267400D01*
X117781200Y-98267400D02*
X115887200Y-98267400D01*
X121737200Y-98307400D02*
X119861200Y-98307400D01*
X117781200Y-98307400D02*
X115905200Y-98307400D01*
X121717200Y-98347400D02*
X119861200Y-98347400D01*
X117781200Y-98347400D02*
X115925200Y-98347400D01*
X121697200Y-98387400D02*
X119861200Y-98387400D01*
X117781200Y-98387400D02*
X115945200Y-98387400D01*
X121677200Y-98427400D02*
X119861200Y-98427400D01*
X117781200Y-98427400D02*
X115965200Y-98427400D01*
X121655200Y-98467400D02*
X119861200Y-98467400D01*
X117781200Y-98467400D02*
X115987200Y-98467400D01*
X121633200Y-98507400D02*
X119861200Y-98507400D01*
X117781200Y-98507400D02*
X116009200Y-98507400D01*
X121611200Y-98547400D02*
X119861200Y-98547400D01*
X117781200Y-98547400D02*
X116031200Y-98547400D01*
X121587200Y-98587400D02*
X119861200Y-98587400D01*
X117781200Y-98587400D02*
X116055200Y-98587400D01*
X121563200Y-98627400D02*
X119861200Y-98627400D01*
X117781200Y-98627400D02*
X116079200Y-98627400D01*
X121537200Y-98667400D02*
X119861200Y-98667400D01*
X117781200Y-98667400D02*
X116105200Y-98667400D01*
X121511200Y-98707400D02*
X119861200Y-98707400D01*
X117781200Y-98707400D02*
X116131200Y-98707400D01*
X121485200Y-98747400D02*
X119861200Y-98747400D01*
X117781200Y-98747400D02*
X116157200Y-98747400D01*
X121457200Y-98787400D02*
X119861200Y-98787400D01*
X117781200Y-98787400D02*
X116185200Y-98787400D01*
X121428200Y-98827400D02*
X119861200Y-98827400D01*
X117781200Y-98827400D02*
X116214200Y-98827400D01*
X121399200Y-98867400D02*
X119861200Y-98867400D01*
X117781200Y-98867400D02*
X116243200Y-98867400D01*
X121369200Y-98907400D02*
X119861200Y-98907400D01*
X117781200Y-98907400D02*
X116273200Y-98907400D01*
X121337200Y-98947400D02*
X119861200Y-98947400D01*
X117781200Y-98947400D02*
X116305200Y-98947400D01*
X121305200Y-98987400D02*
X119861200Y-98987400D01*
X117781200Y-98987400D02*
X116337200Y-98987400D01*
X121271200Y-99027400D02*
X119861200Y-99027400D01*
X117781200Y-99027400D02*
X116371200Y-99027400D01*
X121237200Y-99067400D02*
X119861200Y-99067400D01*
X117781200Y-99067400D02*
X116405200Y-99067400D01*
X121201200Y-99107400D02*
X119861200Y-99107400D01*
X117781200Y-99107400D02*
X116441200Y-99107400D01*
X121164200Y-99147400D02*
X119861200Y-99147400D01*
X117781200Y-99147400D02*
X116478200Y-99147400D01*
X121126200Y-99187400D02*
X119861200Y-99187400D01*
X117781200Y-99187400D02*
X116516200Y-99187400D01*
X121086200Y-99227400D02*
X116556200Y-99227400D01*
X121045200Y-99267400D02*
X116597200Y-99267400D01*
X121003200Y-99307400D02*
X116639200Y-99307400D01*
X120958200Y-99347400D02*
X116684200Y-99347400D01*
X120913200Y-99387400D02*
X116729200Y-99387400D01*
X120865200Y-99427400D02*
X116777200Y-99427400D01*
X120816200Y-99467400D02*
X116826200Y-99467400D01*
X120765200Y-99507400D02*
X116877200Y-99507400D01*
X120711200Y-99547400D02*
X116931200Y-99547400D01*
X120655200Y-99587400D02*
X116987200Y-99587400D01*
X120597200Y-99627400D02*
X117045200Y-99627400D01*
X120535200Y-99667400D02*
X117107200Y-99667400D01*
X120471200Y-99707400D02*
X117171200Y-99707400D01*
X120402200Y-99747400D02*
X117240200Y-99747400D01*
X120330200Y-99787400D02*
X117312200Y-99787400D01*
X120253200Y-99827400D02*
X117389200Y-99827400D01*
X120171200Y-99867400D02*
X117471200Y-99867400D01*
X120083200Y-99907400D02*
X117559200Y-99907400D01*
X119986200Y-99947400D02*
X117656200Y-99947400D01*
X119880200Y-99987400D02*
X117762200Y-99987400D01*
X119761200Y-100027400D02*
X117881200Y-100027400D01*
X119623200Y-100067400D02*
X118019200Y-100067400D01*
X119454200Y-100107400D02*
X118188200Y-100107400D01*
X119223200Y-100147400D02*
X118419200Y-100147400D01*
X120660200Y-93406159D02*
X120660200Y-94036159D01*
X120975200Y-93721159D02*
X120345200Y-93721159D01*
X116718000Y-129290841D02*
X117348000Y-129290841D01*
X117033000Y-129605841D02*
X117033000Y-128975841D01*
X118470000Y-122864600D02*
X119274000Y-122864600D01*
X118239000Y-122904600D02*
X119505000Y-122904600D01*
X118070000Y-122944600D02*
X119674000Y-122944600D01*
X117932000Y-122984600D02*
X119812000Y-122984600D01*
X117813000Y-123024600D02*
X119931000Y-123024600D01*
X117707000Y-123064600D02*
X120037000Y-123064600D01*
X117610000Y-123104600D02*
X120134000Y-123104600D01*
X117522000Y-123144600D02*
X120222000Y-123144600D01*
X117440000Y-123184600D02*
X120304000Y-123184600D01*
X117363000Y-123224600D02*
X120381000Y-123224600D01*
X117291000Y-123264600D02*
X120453000Y-123264600D01*
X117222000Y-123304600D02*
X120522000Y-123304600D01*
X117158000Y-123344600D02*
X120586000Y-123344600D01*
X117096000Y-123384600D02*
X120648000Y-123384600D01*
X117038000Y-123424600D02*
X120706000Y-123424600D01*
X116982000Y-123464600D02*
X120762000Y-123464600D01*
X116928000Y-123504600D02*
X120816000Y-123504600D01*
X116877000Y-123544600D02*
X120867000Y-123544600D01*
X116828000Y-123584600D02*
X120916000Y-123584600D01*
X116780000Y-123624600D02*
X120964000Y-123624600D01*
X116735000Y-123664600D02*
X121009000Y-123664600D01*
X116690000Y-123704600D02*
X121054000Y-123704600D01*
X116648000Y-123744600D02*
X121096000Y-123744600D01*
X116607000Y-123784600D02*
X121137000Y-123784600D01*
X119912000Y-123824600D02*
X121177000Y-123824600D01*
X116567000Y-123824600D02*
X117832000Y-123824600D01*
X119912000Y-123864600D02*
X121215000Y-123864600D01*
X116529000Y-123864600D02*
X117832000Y-123864600D01*
X119912000Y-123904600D02*
X121252000Y-123904600D01*
X116492000Y-123904600D02*
X117832000Y-123904600D01*
X119912000Y-123944600D02*
X121288000Y-123944600D01*
X116456000Y-123944600D02*
X117832000Y-123944600D01*
X119912000Y-123984600D02*
X121322000Y-123984600D01*
X116422000Y-123984600D02*
X117832000Y-123984600D01*
X119912000Y-124024600D02*
X121356000Y-124024600D01*
X116388000Y-124024600D02*
X117832000Y-124024600D01*
X119912000Y-124064600D02*
X121388000Y-124064600D01*
X116356000Y-124064600D02*
X117832000Y-124064600D01*
X119912000Y-124104600D02*
X121420000Y-124104600D01*
X116324000Y-124104600D02*
X117832000Y-124104600D01*
X119912000Y-124144600D02*
X121450000Y-124144600D01*
X116294000Y-124144600D02*
X117832000Y-124144600D01*
X119912000Y-124184600D02*
X121479000Y-124184600D01*
X116265000Y-124184600D02*
X117832000Y-124184600D01*
X119912000Y-124224600D02*
X121508000Y-124224600D01*
X116236000Y-124224600D02*
X117832000Y-124224600D01*
X119912000Y-124264600D02*
X121536000Y-124264600D01*
X116208000Y-124264600D02*
X117832000Y-124264600D01*
X119912000Y-124304600D02*
X121562000Y-124304600D01*
X116182000Y-124304600D02*
X117832000Y-124304600D01*
X119912000Y-124344600D02*
X121588000Y-124344600D01*
X116156000Y-124344600D02*
X117832000Y-124344600D01*
X119912000Y-124384600D02*
X121614000Y-124384600D01*
X116130000Y-124384600D02*
X117832000Y-124384600D01*
X119912000Y-124424600D02*
X121638000Y-124424600D01*
X116106000Y-124424600D02*
X117832000Y-124424600D01*
X119912000Y-124464600D02*
X121662000Y-124464600D01*
X116082000Y-124464600D02*
X117832000Y-124464600D01*
X119912000Y-124504600D02*
X121684000Y-124504600D01*
X116060000Y-124504600D02*
X117832000Y-124504600D01*
X119912000Y-124544600D02*
X121706000Y-124544600D01*
X116038000Y-124544600D02*
X117832000Y-124544600D01*
X119912000Y-124584600D02*
X121728000Y-124584600D01*
X116016000Y-124584600D02*
X117832000Y-124584600D01*
X119912000Y-124624600D02*
X121748000Y-124624600D01*
X115996000Y-124624600D02*
X117832000Y-124624600D01*
X119912000Y-124664600D02*
X121768000Y-124664600D01*
X115976000Y-124664600D02*
X117832000Y-124664600D01*
X119912000Y-124704600D02*
X121788000Y-124704600D01*
X115956000Y-124704600D02*
X117832000Y-124704600D01*
X119912000Y-124744600D02*
X121806000Y-124744600D01*
X115938000Y-124744600D02*
X117832000Y-124744600D01*
X119912000Y-124784600D02*
X121824000Y-124784600D01*
X115920000Y-124784600D02*
X117832000Y-124784600D01*
X119912000Y-124824600D02*
X121842000Y-124824600D01*
X115902000Y-124824600D02*
X117832000Y-124824600D01*
X119912000Y-124864600D02*
X121858000Y-124864600D01*
X115886000Y-124864600D02*
X117832000Y-124864600D01*
X119912000Y-124904600D02*
X121874000Y-124904600D01*
X115870000Y-124904600D02*
X117832000Y-124904600D01*
X119912000Y-124944600D02*
X121890000Y-124944600D01*
X115854000Y-124944600D02*
X117832000Y-124944600D01*
X119912000Y-124984600D02*
X121905000Y-124984600D01*
X115839000Y-124984600D02*
X117832000Y-124984600D01*
X119912000Y-125024600D02*
X121919000Y-125024600D01*
X115825000Y-125024600D02*
X117832000Y-125024600D01*
X119912000Y-125064600D02*
X121933000Y-125064600D01*
X115811000Y-125064600D02*
X117832000Y-125064600D01*
X119912000Y-125104600D02*
X121946000Y-125104600D01*
X115798000Y-125104600D02*
X117832000Y-125104600D01*
X119912000Y-125144600D02*
X121958000Y-125144600D01*
X115786000Y-125144600D02*
X117832000Y-125144600D01*
X119912000Y-125184600D02*
X121970000Y-125184600D01*
X115774000Y-125184600D02*
X117832000Y-125184600D01*
X119912000Y-125224600D02*
X121982000Y-125224600D01*
X115762000Y-125224600D02*
X117832000Y-125224600D01*
X119912000Y-125264600D02*
X121993000Y-125264600D01*
X115751000Y-125264600D02*
X117832000Y-125264600D01*
X119912000Y-125304600D02*
X122003000Y-125304600D01*
X115741000Y-125304600D02*
X117832000Y-125304600D01*
X119912000Y-125344600D02*
X122013000Y-125344600D01*
X115731000Y-125344600D02*
X117832000Y-125344600D01*
X119912000Y-125384600D02*
X122022000Y-125384600D01*
X115722000Y-125384600D02*
X117832000Y-125384600D01*
X119912000Y-125425600D02*
X122031000Y-125425600D01*
X115713000Y-125425600D02*
X117832000Y-125425600D01*
X119912000Y-125465600D02*
X122039000Y-125465600D01*
X115705000Y-125465600D02*
X117832000Y-125465600D01*
X119912000Y-125505600D02*
X122047000Y-125505600D01*
X115697000Y-125505600D02*
X117832000Y-125505600D01*
X119912000Y-125545600D02*
X122054000Y-125545600D01*
X115690000Y-125545600D02*
X117832000Y-125545600D01*
X119912000Y-125585600D02*
X122061000Y-125585600D01*
X115683000Y-125585600D02*
X117832000Y-125585600D01*
X119912000Y-125625600D02*
X122067000Y-125625600D01*
X115677000Y-125625600D02*
X117832000Y-125625600D01*
X119912000Y-125665600D02*
X122073000Y-125665600D01*
X115671000Y-125665600D02*
X117832000Y-125665600D01*
X119912000Y-125705600D02*
X122078000Y-125705600D01*
X115666000Y-125705600D02*
X117832000Y-125705600D01*
X119912000Y-125745600D02*
X122083000Y-125745600D01*
X115661000Y-125745600D02*
X117832000Y-125745600D01*
X119912000Y-125785600D02*
X122087000Y-125785600D01*
X115657000Y-125785600D02*
X117832000Y-125785600D01*
X119912000Y-125825600D02*
X122090000Y-125825600D01*
X115654000Y-125825600D02*
X117832000Y-125825600D01*
X119912000Y-125865600D02*
X122094000Y-125865600D01*
X115650000Y-125865600D02*
X117832000Y-125865600D01*
X115648000Y-125905600D02*
X122096000Y-125905600D01*
X115645000Y-125945600D02*
X122099000Y-125945600D01*
X115644000Y-125985600D02*
X122100000Y-125985600D01*
X115642000Y-126025600D02*
X122102000Y-126025600D01*
X115642000Y-126065600D02*
X122102000Y-126065600D01*
X115642000Y-126105600D02*
X122102000Y-126105600D01*
X122142000Y-126105600D02*
G75*
G03X122142000Y-126105600I-3270000J0D01*
G01*
X122091200Y-118866600D02*
G75*
G03X122091200Y-118866600I-3270000J0D01*
G01*
X115591200Y-118866600D02*
X122051200Y-118866600D01*
X115591200Y-118826600D02*
X122051200Y-118826600D01*
X115591200Y-118786600D02*
X122051200Y-118786600D01*
X115593200Y-118746600D02*
X122049200Y-118746600D01*
X115594200Y-118706600D02*
X122048200Y-118706600D01*
X115597200Y-118666600D02*
X122045200Y-118666600D01*
X115599200Y-118626600D02*
X117781200Y-118626600D01*
X119861200Y-118626600D02*
X122043200Y-118626600D01*
X115603200Y-118586600D02*
X117781200Y-118586600D01*
X119861200Y-118586600D02*
X122039200Y-118586600D01*
X115606200Y-118546600D02*
X117781200Y-118546600D01*
X119861200Y-118546600D02*
X122036200Y-118546600D01*
X115610200Y-118506600D02*
X117781200Y-118506600D01*
X119861200Y-118506600D02*
X122032200Y-118506600D01*
X115615200Y-118466600D02*
X117781200Y-118466600D01*
X119861200Y-118466600D02*
X122027200Y-118466600D01*
X115620200Y-118426600D02*
X117781200Y-118426600D01*
X119861200Y-118426600D02*
X122022200Y-118426600D01*
X115626200Y-118386600D02*
X117781200Y-118386600D01*
X119861200Y-118386600D02*
X122016200Y-118386600D01*
X115632200Y-118346600D02*
X117781200Y-118346600D01*
X119861200Y-118346600D02*
X122010200Y-118346600D01*
X115639200Y-118306600D02*
X117781200Y-118306600D01*
X119861200Y-118306600D02*
X122003200Y-118306600D01*
X115646200Y-118266600D02*
X117781200Y-118266600D01*
X119861200Y-118266600D02*
X121996200Y-118266600D01*
X115654200Y-118226600D02*
X117781200Y-118226600D01*
X119861200Y-118226600D02*
X121988200Y-118226600D01*
X115662200Y-118186600D02*
X117781200Y-118186600D01*
X119861200Y-118186600D02*
X121980200Y-118186600D01*
X115671200Y-118145600D02*
X117781200Y-118145600D01*
X119861200Y-118145600D02*
X121971200Y-118145600D01*
X115680200Y-118105600D02*
X117781200Y-118105600D01*
X119861200Y-118105600D02*
X121962200Y-118105600D01*
X115690200Y-118065600D02*
X117781200Y-118065600D01*
X119861200Y-118065600D02*
X121952200Y-118065600D01*
X115700200Y-118025600D02*
X117781200Y-118025600D01*
X119861200Y-118025600D02*
X121942200Y-118025600D01*
X115711200Y-117985600D02*
X117781200Y-117985600D01*
X119861200Y-117985600D02*
X121931200Y-117985600D01*
X115723200Y-117945600D02*
X117781200Y-117945600D01*
X119861200Y-117945600D02*
X121919200Y-117945600D01*
X115735200Y-117905600D02*
X117781200Y-117905600D01*
X119861200Y-117905600D02*
X121907200Y-117905600D01*
X115747200Y-117865600D02*
X117781200Y-117865600D01*
X119861200Y-117865600D02*
X121895200Y-117865600D01*
X115760200Y-117825600D02*
X117781200Y-117825600D01*
X119861200Y-117825600D02*
X121882200Y-117825600D01*
X115774200Y-117785600D02*
X117781200Y-117785600D01*
X119861200Y-117785600D02*
X121868200Y-117785600D01*
X115788200Y-117745600D02*
X117781200Y-117745600D01*
X119861200Y-117745600D02*
X121854200Y-117745600D01*
X115803200Y-117705600D02*
X117781200Y-117705600D01*
X119861200Y-117705600D02*
X121839200Y-117705600D01*
X115819200Y-117665600D02*
X117781200Y-117665600D01*
X119861200Y-117665600D02*
X121823200Y-117665600D01*
X115835200Y-117625600D02*
X117781200Y-117625600D01*
X119861200Y-117625600D02*
X121807200Y-117625600D01*
X115851200Y-117585600D02*
X117781200Y-117585600D01*
X119861200Y-117585600D02*
X121791200Y-117585600D01*
X115869200Y-117545600D02*
X117781200Y-117545600D01*
X119861200Y-117545600D02*
X121773200Y-117545600D01*
X115887200Y-117505600D02*
X117781200Y-117505600D01*
X119861200Y-117505600D02*
X121755200Y-117505600D01*
X115905200Y-117465600D02*
X117781200Y-117465600D01*
X119861200Y-117465600D02*
X121737200Y-117465600D01*
X115925200Y-117425600D02*
X117781200Y-117425600D01*
X119861200Y-117425600D02*
X121717200Y-117425600D01*
X115945200Y-117385600D02*
X117781200Y-117385600D01*
X119861200Y-117385600D02*
X121697200Y-117385600D01*
X115965200Y-117345600D02*
X117781200Y-117345600D01*
X119861200Y-117345600D02*
X121677200Y-117345600D01*
X115987200Y-117305600D02*
X117781200Y-117305600D01*
X119861200Y-117305600D02*
X121655200Y-117305600D01*
X116009200Y-117265600D02*
X117781200Y-117265600D01*
X119861200Y-117265600D02*
X121633200Y-117265600D01*
X116031200Y-117225600D02*
X117781200Y-117225600D01*
X119861200Y-117225600D02*
X121611200Y-117225600D01*
X116055200Y-117185600D02*
X117781200Y-117185600D01*
X119861200Y-117185600D02*
X121587200Y-117185600D01*
X116079200Y-117145600D02*
X117781200Y-117145600D01*
X119861200Y-117145600D02*
X121563200Y-117145600D01*
X116105200Y-117105600D02*
X117781200Y-117105600D01*
X119861200Y-117105600D02*
X121537200Y-117105600D01*
X116131200Y-117065600D02*
X117781200Y-117065600D01*
X119861200Y-117065600D02*
X121511200Y-117065600D01*
X116157200Y-117025600D02*
X117781200Y-117025600D01*
X119861200Y-117025600D02*
X121485200Y-117025600D01*
X116185200Y-116985600D02*
X117781200Y-116985600D01*
X119861200Y-116985600D02*
X121457200Y-116985600D01*
X116214200Y-116945600D02*
X117781200Y-116945600D01*
X119861200Y-116945600D02*
X121428200Y-116945600D01*
X116243200Y-116905600D02*
X117781200Y-116905600D01*
X119861200Y-116905600D02*
X121399200Y-116905600D01*
X116273200Y-116865600D02*
X117781200Y-116865600D01*
X119861200Y-116865600D02*
X121369200Y-116865600D01*
X116305200Y-116825600D02*
X117781200Y-116825600D01*
X119861200Y-116825600D02*
X121337200Y-116825600D01*
X116337200Y-116785600D02*
X117781200Y-116785600D01*
X119861200Y-116785600D02*
X121305200Y-116785600D01*
X116371200Y-116745600D02*
X117781200Y-116745600D01*
X119861200Y-116745600D02*
X121271200Y-116745600D01*
X116405200Y-116705600D02*
X117781200Y-116705600D01*
X119861200Y-116705600D02*
X121237200Y-116705600D01*
X116441200Y-116665600D02*
X117781200Y-116665600D01*
X119861200Y-116665600D02*
X121201200Y-116665600D01*
X116478200Y-116625600D02*
X117781200Y-116625600D01*
X119861200Y-116625600D02*
X121164200Y-116625600D01*
X116516200Y-116585600D02*
X117781200Y-116585600D01*
X119861200Y-116585600D02*
X121126200Y-116585600D01*
X116556200Y-116545600D02*
X121086200Y-116545600D01*
X116597200Y-116505600D02*
X121045200Y-116505600D01*
X116639200Y-116465600D02*
X121003200Y-116465600D01*
X116684200Y-116425600D02*
X120958200Y-116425600D01*
X116729200Y-116385600D02*
X120913200Y-116385600D01*
X116777200Y-116345600D02*
X120865200Y-116345600D01*
X116826200Y-116305600D02*
X120816200Y-116305600D01*
X116877200Y-116265600D02*
X120765200Y-116265600D01*
X116931200Y-116225600D02*
X120711200Y-116225600D01*
X116987200Y-116185600D02*
X120655200Y-116185600D01*
X117045200Y-116145600D02*
X120597200Y-116145600D01*
X117107200Y-116105600D02*
X120535200Y-116105600D01*
X117171200Y-116065600D02*
X120471200Y-116065600D01*
X117240200Y-116025600D02*
X120402200Y-116025600D01*
X117312200Y-115985600D02*
X120330200Y-115985600D01*
X117389200Y-115945600D02*
X120253200Y-115945600D01*
X117471200Y-115905600D02*
X120171200Y-115905600D01*
X117559200Y-115865600D02*
X120083200Y-115865600D01*
X117656200Y-115825600D02*
X119986200Y-115825600D01*
X117762200Y-115785600D02*
X119880200Y-115785600D01*
X117881200Y-115745600D02*
X119761200Y-115745600D01*
X118019200Y-115705600D02*
X119623200Y-115705600D01*
X118188200Y-115665600D02*
X119454200Y-115665600D01*
X118419200Y-115625600D02*
X119223200Y-115625600D01*
X116982200Y-122366841D02*
X116982200Y-121736841D01*
X116667200Y-122051841D02*
X117297200Y-122051841D01*
X122040400Y-111907000D02*
G75*
G03X122040400Y-111907000I-3270000J0D01*
G01*
X115540400Y-111907000D02*
X122000400Y-111907000D01*
X115540400Y-111867000D02*
X122000400Y-111867000D01*
X115540400Y-111827000D02*
X122000400Y-111827000D01*
X115542400Y-111787000D02*
X121998400Y-111787000D01*
X115543400Y-111747000D02*
X121997400Y-111747000D01*
X115546400Y-111707000D02*
X121994400Y-111707000D01*
X115548400Y-111667000D02*
X117730400Y-111667000D01*
X119810400Y-111667000D02*
X121992400Y-111667000D01*
X115552400Y-111627000D02*
X117730400Y-111627000D01*
X119810400Y-111627000D02*
X121988400Y-111627000D01*
X115555400Y-111587000D02*
X117730400Y-111587000D01*
X119810400Y-111587000D02*
X121985400Y-111587000D01*
X115559400Y-111547000D02*
X117730400Y-111547000D01*
X119810400Y-111547000D02*
X121981400Y-111547000D01*
X115564400Y-111507000D02*
X117730400Y-111507000D01*
X119810400Y-111507000D02*
X121976400Y-111507000D01*
X115569400Y-111467000D02*
X117730400Y-111467000D01*
X119810400Y-111467000D02*
X121971400Y-111467000D01*
X115575400Y-111427000D02*
X117730400Y-111427000D01*
X119810400Y-111427000D02*
X121965400Y-111427000D01*
X115581400Y-111387000D02*
X117730400Y-111387000D01*
X119810400Y-111387000D02*
X121959400Y-111387000D01*
X115588400Y-111347000D02*
X117730400Y-111347000D01*
X119810400Y-111347000D02*
X121952400Y-111347000D01*
X115595400Y-111307000D02*
X117730400Y-111307000D01*
X119810400Y-111307000D02*
X121945400Y-111307000D01*
X115603400Y-111267000D02*
X117730400Y-111267000D01*
X119810400Y-111267000D02*
X121937400Y-111267000D01*
X115611400Y-111227000D02*
X117730400Y-111227000D01*
X119810400Y-111227000D02*
X121929400Y-111227000D01*
X115620400Y-111186000D02*
X117730400Y-111186000D01*
X119810400Y-111186000D02*
X121920400Y-111186000D01*
X115629400Y-111146000D02*
X117730400Y-111146000D01*
X119810400Y-111146000D02*
X121911400Y-111146000D01*
X115639400Y-111106000D02*
X117730400Y-111106000D01*
X119810400Y-111106000D02*
X121901400Y-111106000D01*
X115649400Y-111066000D02*
X117730400Y-111066000D01*
X119810400Y-111066000D02*
X121891400Y-111066000D01*
X115660400Y-111026000D02*
X117730400Y-111026000D01*
X119810400Y-111026000D02*
X121880400Y-111026000D01*
X115672400Y-110986000D02*
X117730400Y-110986000D01*
X119810400Y-110986000D02*
X121868400Y-110986000D01*
X115684400Y-110946000D02*
X117730400Y-110946000D01*
X119810400Y-110946000D02*
X121856400Y-110946000D01*
X115696400Y-110906000D02*
X117730400Y-110906000D01*
X119810400Y-110906000D02*
X121844400Y-110906000D01*
X115709400Y-110866000D02*
X117730400Y-110866000D01*
X119810400Y-110866000D02*
X121831400Y-110866000D01*
X115723400Y-110826000D02*
X117730400Y-110826000D01*
X119810400Y-110826000D02*
X121817400Y-110826000D01*
X115737400Y-110786000D02*
X117730400Y-110786000D01*
X119810400Y-110786000D02*
X121803400Y-110786000D01*
X115752400Y-110746000D02*
X117730400Y-110746000D01*
X119810400Y-110746000D02*
X121788400Y-110746000D01*
X115768400Y-110706000D02*
X117730400Y-110706000D01*
X119810400Y-110706000D02*
X121772400Y-110706000D01*
X115784400Y-110666000D02*
X117730400Y-110666000D01*
X119810400Y-110666000D02*
X121756400Y-110666000D01*
X115800400Y-110626000D02*
X117730400Y-110626000D01*
X119810400Y-110626000D02*
X121740400Y-110626000D01*
X115818400Y-110586000D02*
X117730400Y-110586000D01*
X119810400Y-110586000D02*
X121722400Y-110586000D01*
X115836400Y-110546000D02*
X117730400Y-110546000D01*
X119810400Y-110546000D02*
X121704400Y-110546000D01*
X115854400Y-110506000D02*
X117730400Y-110506000D01*
X119810400Y-110506000D02*
X121686400Y-110506000D01*
X115874400Y-110466000D02*
X117730400Y-110466000D01*
X119810400Y-110466000D02*
X121666400Y-110466000D01*
X115894400Y-110426000D02*
X117730400Y-110426000D01*
X119810400Y-110426000D02*
X121646400Y-110426000D01*
X115914400Y-110386000D02*
X117730400Y-110386000D01*
X119810400Y-110386000D02*
X121626400Y-110386000D01*
X115936400Y-110346000D02*
X117730400Y-110346000D01*
X119810400Y-110346000D02*
X121604400Y-110346000D01*
X115958400Y-110306000D02*
X117730400Y-110306000D01*
X119810400Y-110306000D02*
X121582400Y-110306000D01*
X115980400Y-110266000D02*
X117730400Y-110266000D01*
X119810400Y-110266000D02*
X121560400Y-110266000D01*
X116004400Y-110226000D02*
X117730400Y-110226000D01*
X119810400Y-110226000D02*
X121536400Y-110226000D01*
X116028400Y-110186000D02*
X117730400Y-110186000D01*
X119810400Y-110186000D02*
X121512400Y-110186000D01*
X116054400Y-110146000D02*
X117730400Y-110146000D01*
X119810400Y-110146000D02*
X121486400Y-110146000D01*
X116080400Y-110106000D02*
X117730400Y-110106000D01*
X119810400Y-110106000D02*
X121460400Y-110106000D01*
X116106400Y-110066000D02*
X117730400Y-110066000D01*
X119810400Y-110066000D02*
X121434400Y-110066000D01*
X116134400Y-110026000D02*
X117730400Y-110026000D01*
X119810400Y-110026000D02*
X121406400Y-110026000D01*
X116163400Y-109986000D02*
X117730400Y-109986000D01*
X119810400Y-109986000D02*
X121377400Y-109986000D01*
X116192400Y-109946000D02*
X117730400Y-109946000D01*
X119810400Y-109946000D02*
X121348400Y-109946000D01*
X116222400Y-109906000D02*
X117730400Y-109906000D01*
X119810400Y-109906000D02*
X121318400Y-109906000D01*
X116254400Y-109866000D02*
X117730400Y-109866000D01*
X119810400Y-109866000D02*
X121286400Y-109866000D01*
X116286400Y-109826000D02*
X117730400Y-109826000D01*
X119810400Y-109826000D02*
X121254400Y-109826000D01*
X116320400Y-109786000D02*
X117730400Y-109786000D01*
X119810400Y-109786000D02*
X121220400Y-109786000D01*
X116354400Y-109746000D02*
X117730400Y-109746000D01*
X119810400Y-109746000D02*
X121186400Y-109746000D01*
X116390400Y-109706000D02*
X117730400Y-109706000D01*
X119810400Y-109706000D02*
X121150400Y-109706000D01*
X116427400Y-109666000D02*
X117730400Y-109666000D01*
X119810400Y-109666000D02*
X121113400Y-109666000D01*
X116465400Y-109626000D02*
X117730400Y-109626000D01*
X119810400Y-109626000D02*
X121075400Y-109626000D01*
X116505400Y-109586000D02*
X121035400Y-109586000D01*
X116546400Y-109546000D02*
X120994400Y-109546000D01*
X116588400Y-109506000D02*
X120952400Y-109506000D01*
X116633400Y-109466000D02*
X120907400Y-109466000D01*
X116678400Y-109426000D02*
X120862400Y-109426000D01*
X116726400Y-109386000D02*
X120814400Y-109386000D01*
X116775400Y-109346000D02*
X120765400Y-109346000D01*
X116826400Y-109306000D02*
X120714400Y-109306000D01*
X116880400Y-109266000D02*
X120660400Y-109266000D01*
X116936400Y-109226000D02*
X120604400Y-109226000D01*
X116994400Y-109186000D02*
X120546400Y-109186000D01*
X117056400Y-109146000D02*
X120484400Y-109146000D01*
X117120400Y-109106000D02*
X120420400Y-109106000D01*
X117189400Y-109066000D02*
X120351400Y-109066000D01*
X117261400Y-109026000D02*
X120279400Y-109026000D01*
X117338400Y-108986000D02*
X120202400Y-108986000D01*
X117420400Y-108946000D02*
X120120400Y-108946000D01*
X117508400Y-108906000D02*
X120032400Y-108906000D01*
X117605400Y-108866000D02*
X119935400Y-108866000D01*
X117711400Y-108826000D02*
X119829400Y-108826000D01*
X117830400Y-108786000D02*
X119710400Y-108786000D01*
X117968400Y-108746000D02*
X119572400Y-108746000D01*
X118137400Y-108706000D02*
X119403400Y-108706000D01*
X118368400Y-108666000D02*
X119172400Y-108666000D01*
X116931400Y-115407241D02*
X116931400Y-114777241D01*
X116616400Y-115092241D02*
X117246400Y-115092241D01*
X120980000Y-104470200D02*
G75*
G03X120980000Y-104470200I-2120000J0D01*
G01*
X118860000Y-105310200D02*
X118860000Y-106550200D01*
X118860000Y-102390200D02*
X118860000Y-103630200D01*
X118900000Y-105310200D02*
X118900000Y-106550200D01*
X118900000Y-102390200D02*
X118900000Y-103630200D01*
X118940000Y-105310200D02*
X118940000Y-106549200D01*
X118940000Y-102391200D02*
X118940000Y-103630200D01*
X118980000Y-102393200D02*
X118980000Y-103630200D01*
X118980000Y-105310200D02*
X118980000Y-106547200D01*
X119020000Y-102396200D02*
X119020000Y-103630200D01*
X119020000Y-105310200D02*
X119020000Y-106544200D01*
X119060000Y-102399200D02*
X119060000Y-103630200D01*
X119060000Y-105310200D02*
X119060000Y-106541200D01*
X119100000Y-102403200D02*
X119100000Y-103630200D01*
X119100000Y-105310200D02*
X119100000Y-106537200D01*
X119140000Y-102408200D02*
X119140000Y-103630200D01*
X119140000Y-105310200D02*
X119140000Y-106532200D01*
X119180000Y-102414200D02*
X119180000Y-103630200D01*
X119180000Y-105310200D02*
X119180000Y-106526200D01*
X119220000Y-102420200D02*
X119220000Y-103630200D01*
X119220000Y-105310200D02*
X119220000Y-106520200D01*
X119260000Y-102428200D02*
X119260000Y-103630200D01*
X119260000Y-105310200D02*
X119260000Y-106512200D01*
X119300000Y-102436200D02*
X119300000Y-103630200D01*
X119300000Y-105310200D02*
X119300000Y-106504200D01*
X119340000Y-102445200D02*
X119340000Y-103630200D01*
X119340000Y-105310200D02*
X119340000Y-106495200D01*
X119380000Y-102454200D02*
X119380000Y-103630200D01*
X119380000Y-105310200D02*
X119380000Y-106486200D01*
X119420000Y-102465200D02*
X119420000Y-103630200D01*
X119420000Y-105310200D02*
X119420000Y-106475200D01*
X119460000Y-102476200D02*
X119460000Y-103630200D01*
X119460000Y-105310200D02*
X119460000Y-106464200D01*
X119500000Y-102488200D02*
X119500000Y-103630200D01*
X119500000Y-105310200D02*
X119500000Y-106452200D01*
X119540000Y-102502200D02*
X119540000Y-103630200D01*
X119540000Y-105310200D02*
X119540000Y-106438200D01*
X119581000Y-102516200D02*
X119581000Y-103630200D01*
X119581000Y-105310200D02*
X119581000Y-106424200D01*
X119621000Y-102530200D02*
X119621000Y-103630200D01*
X119621000Y-105310200D02*
X119621000Y-106410200D01*
X119661000Y-102546200D02*
X119661000Y-103630200D01*
X119661000Y-105310200D02*
X119661000Y-106394200D01*
X119701000Y-102563200D02*
X119701000Y-103630200D01*
X119701000Y-105310200D02*
X119701000Y-106377200D01*
X119741000Y-102581200D02*
X119741000Y-103630200D01*
X119741000Y-105310200D02*
X119741000Y-106359200D01*
X119781000Y-102600200D02*
X119781000Y-103630200D01*
X119781000Y-105310200D02*
X119781000Y-106340200D01*
X119821000Y-102619200D02*
X119821000Y-103630200D01*
X119821000Y-105310200D02*
X119821000Y-106321200D01*
X119861000Y-102640200D02*
X119861000Y-103630200D01*
X119861000Y-105310200D02*
X119861000Y-106300200D01*
X119901000Y-102662200D02*
X119901000Y-103630200D01*
X119901000Y-105310200D02*
X119901000Y-106278200D01*
X119941000Y-102685200D02*
X119941000Y-103630200D01*
X119941000Y-105310200D02*
X119941000Y-106255200D01*
X119981000Y-102710200D02*
X119981000Y-103630200D01*
X119981000Y-105310200D02*
X119981000Y-106230200D01*
X120021000Y-102735200D02*
X120021000Y-103630200D01*
X120021000Y-105310200D02*
X120021000Y-106205200D01*
X120061000Y-102762200D02*
X120061000Y-103630200D01*
X120061000Y-105310200D02*
X120061000Y-106178200D01*
X120101000Y-102790200D02*
X120101000Y-103630200D01*
X120101000Y-105310200D02*
X120101000Y-106150200D01*
X120141000Y-102820200D02*
X120141000Y-103630200D01*
X120141000Y-105310200D02*
X120141000Y-106120200D01*
X120181000Y-102851200D02*
X120181000Y-103630200D01*
X120181000Y-105310200D02*
X120181000Y-106089200D01*
X120221000Y-102883200D02*
X120221000Y-103630200D01*
X120221000Y-105310200D02*
X120221000Y-106057200D01*
X120261000Y-102918200D02*
X120261000Y-103630200D01*
X120261000Y-105310200D02*
X120261000Y-106022200D01*
X120301000Y-102954200D02*
X120301000Y-103630200D01*
X120301000Y-105310200D02*
X120301000Y-105986200D01*
X120341000Y-102992200D02*
X120341000Y-103630200D01*
X120341000Y-105310200D02*
X120341000Y-105948200D01*
X120381000Y-103032200D02*
X120381000Y-103630200D01*
X120381000Y-105310200D02*
X120381000Y-105908200D01*
X120421000Y-103074200D02*
X120421000Y-103630200D01*
X120421000Y-105310200D02*
X120421000Y-105866200D01*
X120461000Y-103119200D02*
X120461000Y-105821200D01*
X120501000Y-103166200D02*
X120501000Y-105774200D01*
X120541000Y-103216200D02*
X120541000Y-105724200D01*
X120581000Y-103270200D02*
X120581000Y-105670200D01*
X120621000Y-103328200D02*
X120621000Y-105612200D01*
X120661000Y-103390200D02*
X120661000Y-105550200D01*
X120701000Y-103457200D02*
X120701000Y-105483200D01*
X120741000Y-103530200D02*
X120741000Y-105410200D01*
X120781000Y-103611200D02*
X120781000Y-105329200D01*
X120821000Y-103702200D02*
X120821000Y-105238200D01*
X120861000Y-103806200D02*
X120861000Y-105134200D01*
X120901000Y-103933200D02*
X120901000Y-105007200D01*
X120941000Y-104100200D02*
X120941000Y-104840200D01*
X116590199Y-103275200D02*
X116990199Y-103275200D01*
X116790199Y-103075200D02*
X116790199Y-103475200D01*
D12*
X111958380Y-69762666D02*
X111482190Y-70096000D01*
X111958380Y-70334095D02*
X110958380Y-70334095D01*
X110958380Y-69953142D01*
X111006000Y-69857904D01*
X111053619Y-69810285D01*
X111148857Y-69762666D01*
X111291714Y-69762666D01*
X111386952Y-69810285D01*
X111434571Y-69857904D01*
X111482190Y-69953142D01*
X111482190Y-70334095D01*
X111958380Y-68810285D02*
X111958380Y-69381714D01*
X111958380Y-69096000D02*
X110958380Y-69096000D01*
X111101238Y-69191238D01*
X111196476Y-69286476D01*
X111244095Y-69381714D01*
X112032380Y-77430285D02*
X112032380Y-78001714D01*
X112032380Y-77716000D02*
X111032380Y-77716000D01*
X111175238Y-77811238D01*
X111270476Y-77906476D01*
X111318095Y-78001714D01*
X111080000Y-76477904D02*
X111032380Y-76573142D01*
X111032380Y-76716000D01*
X111080000Y-76858857D01*
X111175238Y-76954095D01*
X111270476Y-77001714D01*
X111460952Y-77049333D01*
X111603809Y-77049333D01*
X111794285Y-77001714D01*
X111889523Y-76954095D01*
X111984761Y-76858857D01*
X112032380Y-76716000D01*
X112032380Y-76620761D01*
X111984761Y-76477904D01*
X111937142Y-76430285D01*
X111603809Y-76430285D01*
X111603809Y-76620761D01*
X114752380Y-77382666D02*
X114276190Y-77716000D01*
X114752380Y-77954095D02*
X113752380Y-77954095D01*
X113752380Y-77573142D01*
X113800000Y-77477904D01*
X113847619Y-77430285D01*
X113942857Y-77382666D01*
X114085714Y-77382666D01*
X114180952Y-77430285D01*
X114228571Y-77477904D01*
X114276190Y-77573142D01*
X114276190Y-77954095D01*
X114752380Y-76430285D02*
X114752380Y-77001714D01*
X114752380Y-76716000D02*
X113752380Y-76716000D01*
X113895238Y-76811238D01*
X113990476Y-76906476D01*
X114038095Y-77001714D01*
X118983428Y-76350761D02*
X119078666Y-76398380D01*
X119269142Y-76398380D01*
X119364380Y-76350761D01*
X119412000Y-76255523D01*
X119412000Y-76207904D01*
X119364380Y-76112666D01*
X119269142Y-76065047D01*
X119126285Y-76065047D01*
X119031047Y-76017428D01*
X118983428Y-75922190D01*
X118983428Y-75874571D01*
X119031047Y-75779333D01*
X119126285Y-75731714D01*
X119269142Y-75731714D01*
X119364380Y-75779333D01*
X119983428Y-76398380D02*
X119888190Y-76350761D01*
X119840571Y-76303142D01*
X119792952Y-76207904D01*
X119792952Y-75922190D01*
X119840571Y-75826952D01*
X119888190Y-75779333D01*
X119983428Y-75731714D01*
X120126285Y-75731714D01*
X120221523Y-75779333D01*
X120269142Y-75826952D01*
X120316761Y-75922190D01*
X120316761Y-76207904D01*
X120269142Y-76303142D01*
X120221523Y-76350761D01*
X120126285Y-76398380D01*
X119983428Y-76398380D01*
X120745333Y-76398380D02*
X120745333Y-75731714D01*
X120745333Y-75398380D02*
X120697714Y-75446000D01*
X120745333Y-75493619D01*
X120792952Y-75446000D01*
X120745333Y-75398380D01*
X120745333Y-75493619D01*
X121650095Y-76350761D02*
X121554857Y-76398380D01*
X121364380Y-76398380D01*
X121269142Y-76350761D01*
X121221523Y-76303142D01*
X121173904Y-76207904D01*
X121173904Y-75922190D01*
X121221523Y-75826952D01*
X121269142Y-75779333D01*
X121364380Y-75731714D01*
X121554857Y-75731714D01*
X121650095Y-75779333D01*
X122078666Y-76017428D02*
X122840571Y-76017428D01*
X123459619Y-75826952D02*
X123364380Y-75779333D01*
X123316761Y-75731714D01*
X123269142Y-75636476D01*
X123269142Y-75588857D01*
X123316761Y-75493619D01*
X123364380Y-75446000D01*
X123459619Y-75398380D01*
X123650095Y-75398380D01*
X123745333Y-75446000D01*
X123792952Y-75493619D01*
X123840571Y-75588857D01*
X123840571Y-75636476D01*
X123792952Y-75731714D01*
X123745333Y-75779333D01*
X123650095Y-75826952D01*
X123459619Y-75826952D01*
X123364380Y-75874571D01*
X123316761Y-75922190D01*
X123269142Y-76017428D01*
X123269142Y-76207904D01*
X123316761Y-76303142D01*
X123364380Y-76350761D01*
X123459619Y-76398380D01*
X123650095Y-76398380D01*
X123745333Y-76350761D01*
X123792952Y-76303142D01*
X123840571Y-76207904D01*
X123840571Y-76017428D01*
X123792952Y-75922190D01*
X123745333Y-75874571D01*
X123650095Y-75826952D01*
X126614180Y-105894095D02*
X125614180Y-105894095D01*
X125614180Y-105656000D01*
X125661800Y-105513142D01*
X125757038Y-105417904D01*
X125852276Y-105370285D01*
X126042752Y-105322666D01*
X126185609Y-105322666D01*
X126376085Y-105370285D01*
X126471323Y-105417904D01*
X126566561Y-105513142D01*
X126614180Y-105656000D01*
X126614180Y-105894095D01*
X126614180Y-104370285D02*
X126614180Y-104941714D01*
X126614180Y-104656000D02*
X125614180Y-104656000D01*
X125757038Y-104751238D01*
X125852276Y-104846476D01*
X125899895Y-104941714D01*
X126563380Y-102222228D02*
X126563380Y-102793657D01*
X126563380Y-102507942D02*
X125563380Y-102507942D01*
X125706238Y-102603180D01*
X125801476Y-102698419D01*
X125849095Y-102793657D01*
X125658619Y-101841276D02*
X125611000Y-101793657D01*
X125563380Y-101698419D01*
X125563380Y-101460323D01*
X125611000Y-101365085D01*
X125658619Y-101317466D01*
X125753857Y-101269847D01*
X125849095Y-101269847D01*
X125991952Y-101317466D01*
X126563380Y-101888895D01*
X126563380Y-101269847D01*
X125896714Y-100936514D02*
X126563380Y-100698419D01*
X125896714Y-100460323D01*
X118425933Y-69445142D02*
X118378314Y-69492761D01*
X118235457Y-69540380D01*
X118140219Y-69540380D01*
X117997361Y-69492761D01*
X117902123Y-69397523D01*
X117854504Y-69302285D01*
X117806885Y-69111809D01*
X117806885Y-68968952D01*
X117854504Y-68778476D01*
X117902123Y-68683238D01*
X117997361Y-68588000D01*
X118140219Y-68540380D01*
X118235457Y-68540380D01*
X118378314Y-68588000D01*
X118425933Y-68635619D01*
X119378314Y-69540380D02*
X118806885Y-69540380D01*
X119092600Y-69540380D02*
X119092600Y-68540380D01*
X118997361Y-68683238D01*
X118902123Y-68778476D01*
X118806885Y-68826095D01*
X124776028Y-69445142D02*
X124823647Y-69492761D01*
X124776028Y-69540380D01*
X124728409Y-69492761D01*
X124776028Y-69445142D01*
X124776028Y-69540380D01*
X125776028Y-69540380D02*
X125204600Y-69540380D01*
X125490314Y-69540380D02*
X125490314Y-68540380D01*
X125395076Y-68683238D01*
X125299838Y-68778476D01*
X125204600Y-68826095D01*
X126633171Y-68873714D02*
X126633171Y-69540380D01*
X126204600Y-68873714D02*
X126204600Y-69397523D01*
X126252219Y-69492761D01*
X126347457Y-69540380D01*
X126490314Y-69540380D01*
X126585552Y-69492761D01*
X126633171Y-69445142D01*
X125833142Y-113323666D02*
X125880761Y-113371285D01*
X125928380Y-113514142D01*
X125928380Y-113609380D01*
X125880761Y-113752238D01*
X125785523Y-113847476D01*
X125690285Y-113895095D01*
X125499809Y-113942714D01*
X125356952Y-113942714D01*
X125166476Y-113895095D01*
X125071238Y-113847476D01*
X124976000Y-113752238D01*
X124928380Y-113609380D01*
X124928380Y-113514142D01*
X124976000Y-113371285D01*
X125023619Y-113323666D01*
X124928380Y-112990333D02*
X124928380Y-112323666D01*
X125928380Y-112752238D01*
X125680742Y-116727171D02*
X125728361Y-116679552D01*
X125775980Y-116727171D01*
X125728361Y-116774790D01*
X125680742Y-116727171D01*
X125775980Y-116727171D01*
X125775980Y-115727171D02*
X125775980Y-116298600D01*
X125775980Y-116012885D02*
X124775980Y-116012885D01*
X124918838Y-116108123D01*
X125014076Y-116203361D01*
X125061695Y-116298600D01*
X125109314Y-114870028D02*
X125775980Y-114870028D01*
X125109314Y-115298600D02*
X125633123Y-115298600D01*
X125728361Y-115250980D01*
X125775980Y-115155742D01*
X125775980Y-115012885D01*
X125728361Y-114917647D01*
X125680742Y-114870028D01*
X112202933Y-137237742D02*
X112155314Y-137285361D01*
X112012457Y-137332980D01*
X111917219Y-137332980D01*
X111774361Y-137285361D01*
X111679123Y-137190123D01*
X111631504Y-137094885D01*
X111583885Y-136904409D01*
X111583885Y-136761552D01*
X111631504Y-136571076D01*
X111679123Y-136475838D01*
X111774361Y-136380600D01*
X111917219Y-136332980D01*
X112012457Y-136332980D01*
X112155314Y-136380600D01*
X112202933Y-136428219D01*
X112774361Y-136761552D02*
X112679123Y-136713933D01*
X112631504Y-136666314D01*
X112583885Y-136571076D01*
X112583885Y-136523457D01*
X112631504Y-136428219D01*
X112679123Y-136380600D01*
X112774361Y-136332980D01*
X112964838Y-136332980D01*
X113060076Y-136380600D01*
X113107695Y-136428219D01*
X113155314Y-136523457D01*
X113155314Y-136571076D01*
X113107695Y-136666314D01*
X113060076Y-136713933D01*
X112964838Y-136761552D01*
X112774361Y-136761552D01*
X112679123Y-136809171D01*
X112631504Y-136856790D01*
X112583885Y-136952028D01*
X112583885Y-137142504D01*
X112631504Y-137237742D01*
X112679123Y-137285361D01*
X112774361Y-137332980D01*
X112964838Y-137332980D01*
X113060076Y-137285361D01*
X113107695Y-137237742D01*
X113155314Y-137142504D01*
X113155314Y-136952028D01*
X113107695Y-136856790D01*
X113060076Y-136809171D01*
X112964838Y-136761552D01*
X111659942Y-135821561D02*
X111707561Y-135773942D01*
X111755180Y-135821561D01*
X111707561Y-135869180D01*
X111659942Y-135821561D01*
X111755180Y-135821561D01*
X110850419Y-135392990D02*
X110802800Y-135345371D01*
X110755180Y-135250133D01*
X110755180Y-135012038D01*
X110802800Y-134916800D01*
X110850419Y-134869180D01*
X110945657Y-134821561D01*
X111040895Y-134821561D01*
X111183752Y-134869180D01*
X111755180Y-135440609D01*
X111755180Y-134821561D01*
X110850419Y-134440609D02*
X110802800Y-134392990D01*
X110755180Y-134297752D01*
X110755180Y-134059657D01*
X110802800Y-133964419D01*
X110850419Y-133916800D01*
X110945657Y-133869180D01*
X111040895Y-133869180D01*
X111183752Y-133916800D01*
X111755180Y-134488228D01*
X111755180Y-133869180D01*
X111088514Y-133440609D02*
X111755180Y-133440609D01*
X111183752Y-133440609D02*
X111136133Y-133392990D01*
X111088514Y-133297752D01*
X111088514Y-133154895D01*
X111136133Y-133059657D01*
X111231371Y-133012038D01*
X111755180Y-133012038D01*
X125893533Y-131217942D02*
X125845914Y-131265561D01*
X125703057Y-131313180D01*
X125607819Y-131313180D01*
X125464961Y-131265561D01*
X125369723Y-131170323D01*
X125322104Y-131075085D01*
X125274485Y-130884609D01*
X125274485Y-130741752D01*
X125322104Y-130551276D01*
X125369723Y-130456038D01*
X125464961Y-130360800D01*
X125607819Y-130313180D01*
X125703057Y-130313180D01*
X125845914Y-130360800D01*
X125893533Y-130408419D01*
X126369723Y-131313180D02*
X126560200Y-131313180D01*
X126655438Y-131265561D01*
X126703057Y-131217942D01*
X126798295Y-131075085D01*
X126845914Y-130884609D01*
X126845914Y-130503657D01*
X126798295Y-130408419D01*
X126750676Y-130360800D01*
X126655438Y-130313180D01*
X126464961Y-130313180D01*
X126369723Y-130360800D01*
X126322104Y-130408419D01*
X126274485Y-130503657D01*
X126274485Y-130741752D01*
X126322104Y-130836990D01*
X126369723Y-130884609D01*
X126464961Y-130932228D01*
X126655438Y-130932228D01*
X126750676Y-130884609D01*
X126798295Y-130836990D01*
X126845914Y-130741752D01*
X127204742Y-134500761D02*
X127252361Y-134453142D01*
X127299980Y-134500761D01*
X127252361Y-134548380D01*
X127204742Y-134500761D01*
X127299980Y-134500761D01*
X126395219Y-134072190D02*
X126347600Y-134024571D01*
X126299980Y-133929333D01*
X126299980Y-133691238D01*
X126347600Y-133596000D01*
X126395219Y-133548380D01*
X126490457Y-133500761D01*
X126585695Y-133500761D01*
X126728552Y-133548380D01*
X127299980Y-134119809D01*
X127299980Y-133500761D01*
X126395219Y-133119809D02*
X126347600Y-133072190D01*
X126299980Y-132976952D01*
X126299980Y-132738857D01*
X126347600Y-132643619D01*
X126395219Y-132596000D01*
X126490457Y-132548380D01*
X126585695Y-132548380D01*
X126728552Y-132596000D01*
X127299980Y-133167428D01*
X127299980Y-132548380D01*
X126633314Y-132119809D02*
X127299980Y-132119809D01*
X126728552Y-132119809D02*
X126680933Y-132072190D01*
X126633314Y-131976952D01*
X126633314Y-131834095D01*
X126680933Y-131738857D01*
X126776171Y-131691238D01*
X127299980Y-131691238D01*
D13*
D12*
X118364380Y-65492380D02*
X118935809Y-65492380D01*
X118650095Y-66492380D02*
X118650095Y-65492380D01*
X119221523Y-66444761D02*
X119364380Y-66492380D01*
X119602476Y-66492380D01*
X119697714Y-66444761D01*
X119745333Y-66397142D01*
X119792952Y-66301904D01*
X119792952Y-66206666D01*
X119745333Y-66111428D01*
X119697714Y-66063809D01*
X119602476Y-66016190D01*
X119412000Y-65968571D01*
X119316761Y-65920952D01*
X119269142Y-65873333D01*
X119221523Y-65778095D01*
X119221523Y-65682857D01*
X119269142Y-65587619D01*
X119316761Y-65540000D01*
X119412000Y-65492380D01*
X119650095Y-65492380D01*
X119792952Y-65540000D01*
X120935809Y-65587619D02*
X120983428Y-65540000D01*
X121078666Y-65492380D01*
X121316761Y-65492380D01*
X121412000Y-65540000D01*
X121459619Y-65587619D01*
X121507238Y-65682857D01*
X121507238Y-65778095D01*
X121459619Y-65920952D01*
X120888190Y-66492380D01*
X121507238Y-66492380D01*
X122412000Y-65492380D02*
X121935809Y-65492380D01*
X121888190Y-65968571D01*
X121935809Y-65920952D01*
X122031047Y-65873333D01*
X122269142Y-65873333D01*
X122364380Y-65920952D01*
X122412000Y-65968571D01*
X122459619Y-66063809D01*
X122459619Y-66301904D01*
X122412000Y-66397142D01*
X122364380Y-66444761D01*
X122269142Y-66492380D01*
X122031047Y-66492380D01*
X121935809Y-66444761D01*
X121888190Y-66397142D01*
X123364380Y-65492380D02*
X122888190Y-65492380D01*
X122840571Y-65968571D01*
X122888190Y-65920952D01*
X122983428Y-65873333D01*
X123221523Y-65873333D01*
X123316761Y-65920952D01*
X123364380Y-65968571D01*
X123412000Y-66063809D01*
X123412000Y-66301904D01*
X123364380Y-66397142D01*
X123316761Y-66444761D01*
X123221523Y-66492380D01*
X122983428Y-66492380D01*
X122888190Y-66444761D01*
X122840571Y-66397142D01*
X124316761Y-65492380D02*
X123840571Y-65492380D01*
X123792952Y-65968571D01*
X123840571Y-65920952D01*
X123935809Y-65873333D01*
X124173904Y-65873333D01*
X124269142Y-65920952D01*
X124316761Y-65968571D01*
X124364380Y-66063809D01*
X124364380Y-66301904D01*
X124316761Y-66397142D01*
X124269142Y-66444761D01*
X124173904Y-66492380D01*
X123935809Y-66492380D01*
X123840571Y-66444761D01*
X123792952Y-66397142D01*
X119072304Y-62279161D02*
X118977066Y-62326780D01*
X118786590Y-62326780D01*
X118691352Y-62279161D01*
X118643733Y-62183923D01*
X118643733Y-61802971D01*
X118691352Y-61707733D01*
X118786590Y-61660114D01*
X118977066Y-61660114D01*
X119072304Y-61707733D01*
X119119923Y-61802971D01*
X119119923Y-61898209D01*
X118643733Y-61993447D01*
X119691352Y-62326780D02*
X119596114Y-62279161D01*
X119548495Y-62183923D01*
X119548495Y-61326780D01*
X120453257Y-62279161D02*
X120358019Y-62326780D01*
X120167542Y-62326780D01*
X120072304Y-62279161D01*
X120024685Y-62183923D01*
X120024685Y-61802971D01*
X120072304Y-61707733D01*
X120167542Y-61660114D01*
X120358019Y-61660114D01*
X120453257Y-61707733D01*
X120500876Y-61802971D01*
X120500876Y-61898209D01*
X120024685Y-61993447D01*
X121358019Y-62279161D02*
X121262780Y-62326780D01*
X121072304Y-62326780D01*
X120977066Y-62279161D01*
X120929447Y-62231542D01*
X120881828Y-62136304D01*
X120881828Y-61850590D01*
X120929447Y-61755352D01*
X120977066Y-61707733D01*
X121072304Y-61660114D01*
X121262780Y-61660114D01*
X121358019Y-61707733D01*
X121643733Y-61660114D02*
X122024685Y-61660114D01*
X121786590Y-61326780D02*
X121786590Y-62183923D01*
X121834209Y-62279161D01*
X121929447Y-62326780D01*
X122024685Y-62326780D01*
X122358019Y-62326780D02*
X122358019Y-61660114D01*
X122358019Y-61850590D02*
X122405638Y-61755352D01*
X122453257Y-61707733D01*
X122548495Y-61660114D01*
X122643733Y-61660114D01*
X123358019Y-62279161D02*
X123262780Y-62326780D01*
X123072304Y-62326780D01*
X122977066Y-62279161D01*
X122929447Y-62183923D01*
X122929447Y-61802971D01*
X122977066Y-61707733D01*
X123072304Y-61660114D01*
X123262780Y-61660114D01*
X123358019Y-61707733D01*
X123405638Y-61802971D01*
X123405638Y-61898209D01*
X122929447Y-61993447D01*
X123691352Y-61660114D02*
X124072304Y-61660114D01*
X123834209Y-61326780D02*
X123834209Y-62183923D01*
X123881828Y-62279161D01*
X123977066Y-62326780D01*
X124072304Y-62326780D01*
X118705333Y-82860380D02*
X118372000Y-82384190D01*
X118133904Y-82860380D02*
X118133904Y-81860380D01*
X118514857Y-81860380D01*
X118610095Y-81908000D01*
X118657714Y-81955619D01*
X118705333Y-82050857D01*
X118705333Y-82193714D01*
X118657714Y-82288952D01*
X118610095Y-82336571D01*
X118514857Y-82384190D01*
X118133904Y-82384190D01*
X119086285Y-81955619D02*
X119133904Y-81908000D01*
X119229142Y-81860380D01*
X119467238Y-81860380D01*
X119562476Y-81908000D01*
X119610095Y-81955619D01*
X119657714Y-82050857D01*
X119657714Y-82146095D01*
X119610095Y-82288952D01*
X119038666Y-82860380D01*
X119657714Y-82860380D01*
X117705333Y-85795619D02*
X117752952Y-85748000D01*
X117848190Y-85700380D01*
X118086285Y-85700380D01*
X118181523Y-85748000D01*
X118229142Y-85795619D01*
X118276761Y-85890857D01*
X118276761Y-85986095D01*
X118229142Y-86128952D01*
X117657714Y-86700380D01*
X118276761Y-86700380D01*
X118705333Y-86700380D02*
X118705333Y-85700380D01*
X118800571Y-86319428D02*
X119086285Y-86700380D01*
X119086285Y-86033714D02*
X118705333Y-86414666D01*
X119467238Y-85795619D02*
X119514857Y-85748000D01*
X119610095Y-85700380D01*
X119848190Y-85700380D01*
X119943428Y-85748000D01*
X119991047Y-85795619D01*
X120038666Y-85890857D01*
X120038666Y-85986095D01*
X119991047Y-86128952D01*
X119419619Y-86700380D01*
X120038666Y-86700380D01*
X124979133Y-82951580D02*
X124645800Y-82475390D01*
X124407704Y-82951580D02*
X124407704Y-81951580D01*
X124788657Y-81951580D01*
X124883895Y-81999200D01*
X124931514Y-82046819D01*
X124979133Y-82142057D01*
X124979133Y-82284914D01*
X124931514Y-82380152D01*
X124883895Y-82427771D01*
X124788657Y-82475390D01*
X124407704Y-82475390D01*
X125312466Y-81951580D02*
X125931514Y-81951580D01*
X125598180Y-82332533D01*
X125741038Y-82332533D01*
X125836276Y-82380152D01*
X125883895Y-82427771D01*
X125931514Y-82523009D01*
X125931514Y-82761104D01*
X125883895Y-82856342D01*
X125836276Y-82903961D01*
X125741038Y-82951580D01*
X125455323Y-82951580D01*
X125360085Y-82903961D01*
X125312466Y-82856342D01*
X123979133Y-85755219D02*
X124026752Y-85707600D01*
X124121990Y-85659980D01*
X124360085Y-85659980D01*
X124455323Y-85707600D01*
X124502942Y-85755219D01*
X124550561Y-85850457D01*
X124550561Y-85945695D01*
X124502942Y-86088552D01*
X123931514Y-86659980D01*
X124550561Y-86659980D01*
X124979133Y-86659980D02*
X124979133Y-85659980D01*
X125074371Y-86279028D02*
X125360085Y-86659980D01*
X125360085Y-85993314D02*
X124979133Y-86374266D01*
X125741038Y-85755219D02*
X125788657Y-85707600D01*
X125883895Y-85659980D01*
X126121990Y-85659980D01*
X126217228Y-85707600D01*
X126264847Y-85755219D01*
X126312466Y-85850457D01*
X126312466Y-85945695D01*
X126264847Y-86088552D01*
X125693419Y-86659980D01*
X126312466Y-86659980D01*
X115200133Y-90175580D02*
X114866800Y-89699390D01*
X114628704Y-90175580D02*
X114628704Y-89175580D01*
X115009657Y-89175580D01*
X115104895Y-89223200D01*
X115152514Y-89270819D01*
X115200133Y-89366057D01*
X115200133Y-89508914D01*
X115152514Y-89604152D01*
X115104895Y-89651771D01*
X115009657Y-89699390D01*
X114628704Y-89699390D01*
X116057276Y-89508914D02*
X116057276Y-90175580D01*
X115819180Y-89127961D02*
X115581085Y-89842247D01*
X116200133Y-89842247D01*
X114117523Y-93410114D02*
X114117523Y-94076780D01*
X113879428Y-93029161D02*
X113641333Y-93743447D01*
X114260380Y-93743447D01*
X114546095Y-93076780D02*
X115212761Y-93076780D01*
X114784190Y-94076780D01*
X115593714Y-94076780D02*
X115593714Y-93076780D01*
X115688952Y-93695828D02*
X115974666Y-94076780D01*
X115974666Y-93410114D02*
X115593714Y-93791066D01*
X122566133Y-90175580D02*
X122232800Y-89699390D01*
X121994704Y-90175580D02*
X121994704Y-89175580D01*
X122375657Y-89175580D01*
X122470895Y-89223200D01*
X122518514Y-89270819D01*
X122566133Y-89366057D01*
X122566133Y-89508914D01*
X122518514Y-89604152D01*
X122470895Y-89651771D01*
X122375657Y-89699390D01*
X121994704Y-89699390D01*
X123470895Y-89175580D02*
X122994704Y-89175580D01*
X122947085Y-89651771D01*
X122994704Y-89604152D01*
X123089942Y-89556533D01*
X123328038Y-89556533D01*
X123423276Y-89604152D01*
X123470895Y-89651771D01*
X123518514Y-89747009D01*
X123518514Y-89985104D01*
X123470895Y-90080342D01*
X123423276Y-90127961D01*
X123328038Y-90175580D01*
X123089942Y-90175580D01*
X122994704Y-90127961D01*
X122947085Y-90080342D01*
X122677323Y-93283114D02*
X122677323Y-93949780D01*
X122439228Y-92902161D02*
X122201133Y-93616447D01*
X122820180Y-93616447D01*
X123105895Y-92949780D02*
X123772561Y-92949780D01*
X123343990Y-93949780D01*
X124153514Y-93949780D02*
X124153514Y-92949780D01*
X124248752Y-93568828D02*
X124534466Y-93949780D01*
X124534466Y-93283114D02*
X124153514Y-93664066D01*
X113650733Y-105024180D02*
X113317400Y-104547990D01*
X113079304Y-105024180D02*
X113079304Y-104024180D01*
X113460257Y-104024180D01*
X113555495Y-104071800D01*
X113603114Y-104119419D01*
X113650733Y-104214657D01*
X113650733Y-104357514D01*
X113603114Y-104452752D01*
X113555495Y-104500371D01*
X113460257Y-104547990D01*
X113079304Y-104547990D01*
X114507876Y-104024180D02*
X114317400Y-104024180D01*
X114222161Y-104071800D01*
X114174542Y-104119419D01*
X114079304Y-104262276D01*
X114031685Y-104452752D01*
X114031685Y-104833704D01*
X114079304Y-104928942D01*
X114126923Y-104976561D01*
X114222161Y-105024180D01*
X114412638Y-105024180D01*
X114507876Y-104976561D01*
X114555495Y-104928942D01*
X114603114Y-104833704D01*
X114603114Y-104595609D01*
X114555495Y-104500371D01*
X114507876Y-104452752D01*
X114412638Y-104405133D01*
X114222161Y-104405133D01*
X114126923Y-104452752D01*
X114079304Y-104500371D01*
X114031685Y-104595609D01*
X110987104Y-110317019D02*
X111034723Y-110269400D01*
X111129961Y-110221780D01*
X111368057Y-110221780D01*
X111463295Y-110269400D01*
X111510914Y-110317019D01*
X111558533Y-110412257D01*
X111558533Y-110507495D01*
X111510914Y-110650352D01*
X110939485Y-111221780D01*
X111558533Y-111221780D01*
X112177580Y-110221780D02*
X112272819Y-110221780D01*
X112368057Y-110269400D01*
X112415676Y-110317019D01*
X112463295Y-110412257D01*
X112510914Y-110602733D01*
X112510914Y-110840828D01*
X112463295Y-111031304D01*
X112415676Y-111126542D01*
X112368057Y-111174161D01*
X112272819Y-111221780D01*
X112177580Y-111221780D01*
X112082342Y-111174161D01*
X112034723Y-111126542D01*
X111987104Y-111031304D01*
X111939485Y-110840828D01*
X111939485Y-110602733D01*
X111987104Y-110412257D01*
X112034723Y-110317019D01*
X112082342Y-110269400D01*
X112177580Y-110221780D01*
X113129961Y-110221780D02*
X113225200Y-110221780D01*
X113320438Y-110269400D01*
X113368057Y-110317019D01*
X113415676Y-110412257D01*
X113463295Y-110602733D01*
X113463295Y-110840828D01*
X113415676Y-111031304D01*
X113368057Y-111126542D01*
X113320438Y-111174161D01*
X113225200Y-111221780D01*
X113129961Y-111221780D01*
X113034723Y-111174161D01*
X112987104Y-111126542D01*
X112939485Y-111031304D01*
X112891866Y-110840828D01*
X112891866Y-110602733D01*
X112939485Y-110412257D01*
X112987104Y-110317019D01*
X113034723Y-110269400D01*
X113129961Y-110221780D01*
X114463295Y-111221780D02*
X114129961Y-110745590D01*
X113891866Y-111221780D02*
X113891866Y-110221780D01*
X114272819Y-110221780D01*
X114368057Y-110269400D01*
X114415676Y-110317019D01*
X114463295Y-110412257D01*
X114463295Y-110555114D01*
X114415676Y-110650352D01*
X114368057Y-110697971D01*
X114272819Y-110745590D01*
X113891866Y-110745590D01*
X125258533Y-121483380D02*
X124925200Y-121007190D01*
X124687104Y-121483380D02*
X124687104Y-120483380D01*
X125068057Y-120483380D01*
X125163295Y-120531000D01*
X125210914Y-120578619D01*
X125258533Y-120673857D01*
X125258533Y-120816714D01*
X125210914Y-120911952D01*
X125163295Y-120959571D01*
X125068057Y-121007190D01*
X124687104Y-121007190D01*
X125591866Y-120483380D02*
X126258533Y-120483380D01*
X125829961Y-121483380D01*
X124842733Y-123144019D02*
X124890352Y-123096400D01*
X124985590Y-123048780D01*
X125223685Y-123048780D01*
X125318923Y-123096400D01*
X125366542Y-123144019D01*
X125414161Y-123239257D01*
X125414161Y-123334495D01*
X125366542Y-123477352D01*
X124795114Y-124048780D01*
X125414161Y-124048780D01*
X125842733Y-124048780D02*
X125842733Y-123048780D01*
X125937971Y-123667828D02*
X126223685Y-124048780D01*
X126223685Y-123382114D02*
X125842733Y-123763066D01*
X126604638Y-123144019D02*
X126652257Y-123096400D01*
X126747495Y-123048780D01*
X126985590Y-123048780D01*
X127080828Y-123096400D01*
X127128447Y-123144019D01*
X127176066Y-123239257D01*
X127176066Y-123334495D01*
X127128447Y-123477352D01*
X126557019Y-124048780D01*
X127176066Y-124048780D01*
X112126733Y-122067580D02*
X111793400Y-121591390D01*
X111555304Y-122067580D02*
X111555304Y-121067580D01*
X111936257Y-121067580D01*
X112031495Y-121115200D01*
X112079114Y-121162819D01*
X112126733Y-121258057D01*
X112126733Y-121400914D01*
X112079114Y-121496152D01*
X112031495Y-121543771D01*
X111936257Y-121591390D01*
X111555304Y-121591390D01*
X112698161Y-121496152D02*
X112602923Y-121448533D01*
X112555304Y-121400914D01*
X112507685Y-121305676D01*
X112507685Y-121258057D01*
X112555304Y-121162819D01*
X112602923Y-121115200D01*
X112698161Y-121067580D01*
X112888638Y-121067580D01*
X112983876Y-121115200D01*
X113031495Y-121162819D01*
X113079114Y-121258057D01*
X113079114Y-121305676D01*
X113031495Y-121400914D01*
X112983876Y-121448533D01*
X112888638Y-121496152D01*
X112698161Y-121496152D01*
X112602923Y-121543771D01*
X112555304Y-121591390D01*
X112507685Y-121686628D01*
X112507685Y-121877104D01*
X112555304Y-121972342D01*
X112602923Y-122019961D01*
X112698161Y-122067580D01*
X112888638Y-122067580D01*
X112983876Y-122019961D01*
X113031495Y-121972342D01*
X113079114Y-121877104D01*
X113079114Y-121686628D01*
X113031495Y-121591390D01*
X112983876Y-121543771D01*
X112888638Y-121496152D01*
X110771133Y-123804419D02*
X110818752Y-123756800D01*
X110913990Y-123709180D01*
X111152085Y-123709180D01*
X111247323Y-123756800D01*
X111294942Y-123804419D01*
X111342561Y-123899657D01*
X111342561Y-123994895D01*
X111294942Y-124137752D01*
X110723514Y-124709180D01*
X111342561Y-124709180D01*
X111771133Y-124709180D02*
X111771133Y-123709180D01*
X111866371Y-124328228D02*
X112152085Y-124709180D01*
X112152085Y-124042514D02*
X111771133Y-124423466D01*
X112533038Y-123804419D02*
X112580657Y-123756800D01*
X112675895Y-123709180D01*
X112913990Y-123709180D01*
X113009228Y-123756800D01*
X113056847Y-123804419D01*
X113104466Y-123899657D01*
X113104466Y-123994895D01*
X113056847Y-124137752D01*
X112485419Y-124709180D01*
X113104466Y-124709180D01*
X120965933Y-131186180D02*
X120632600Y-130709990D01*
X120394504Y-131186180D02*
X120394504Y-130186180D01*
X120775457Y-130186180D01*
X120870695Y-130233800D01*
X120918314Y-130281419D01*
X120965933Y-130376657D01*
X120965933Y-130519514D01*
X120918314Y-130614752D01*
X120870695Y-130662371D01*
X120775457Y-130709990D01*
X120394504Y-130709990D01*
X121442123Y-131186180D02*
X121632600Y-131186180D01*
X121727838Y-131138561D01*
X121775457Y-131090942D01*
X121870695Y-130948085D01*
X121918314Y-130757609D01*
X121918314Y-130376657D01*
X121870695Y-130281419D01*
X121823076Y-130233800D01*
X121727838Y-130186180D01*
X121537361Y-130186180D01*
X121442123Y-130233800D01*
X121394504Y-130281419D01*
X121346885Y-130376657D01*
X121346885Y-130614752D01*
X121394504Y-130709990D01*
X121442123Y-130757609D01*
X121537361Y-130805228D01*
X121727838Y-130805228D01*
X121823076Y-130757609D01*
X121870695Y-130709990D01*
X121918314Y-130614752D01*
X122518514Y-133119714D02*
X123185180Y-133119714D01*
X122137561Y-133357809D02*
X122851847Y-133595904D01*
X122851847Y-132976857D01*
X122185180Y-132691142D02*
X122185180Y-132024476D01*
X123185180Y-132453047D01*
X123185180Y-131072095D02*
X122708990Y-131405428D01*
X123185180Y-131643523D02*
X122185180Y-131643523D01*
X122185180Y-131262571D01*
X122232800Y-131167333D01*
X122280419Y-131119714D01*
X122375657Y-131072095D01*
X122518514Y-131072095D01*
X122613752Y-131119714D01*
X122661371Y-131167333D01*
X122708990Y-131262571D01*
X122708990Y-131643523D01*
X115895380Y-135110457D02*
X115419190Y-135443790D01*
X115895380Y-135681885D02*
X114895380Y-135681885D01*
X114895380Y-135300933D01*
X114943000Y-135205695D01*
X114990619Y-135158076D01*
X115085857Y-135110457D01*
X115228714Y-135110457D01*
X115323952Y-135158076D01*
X115371571Y-135205695D01*
X115419190Y-135300933D01*
X115419190Y-135681885D01*
X115895380Y-134158076D02*
X115895380Y-134729504D01*
X115895380Y-134443790D02*
X114895380Y-134443790D01*
X115038238Y-134539028D01*
X115133476Y-134634266D01*
X115181095Y-134729504D01*
X114895380Y-133539028D02*
X114895380Y-133443790D01*
X114943000Y-133348552D01*
X114990619Y-133300933D01*
X115085857Y-133253314D01*
X115276333Y-133205695D01*
X115514428Y-133205695D01*
X115704904Y-133253314D01*
X115800142Y-133300933D01*
X115847761Y-133348552D01*
X115895380Y-133443790D01*
X115895380Y-133539028D01*
X115847761Y-133634266D01*
X115800142Y-133681885D01*
X115704904Y-133729504D01*
X115514428Y-133777123D01*
X115276333Y-133777123D01*
X115085857Y-133729504D01*
X114990619Y-133681885D01*
X114943000Y-133634266D01*
X114895380Y-133539028D01*
X118733914Y-133119714D02*
X119400580Y-133119714D01*
X118352961Y-133357809D02*
X119067247Y-133595904D01*
X119067247Y-132976857D01*
X118400580Y-132691142D02*
X118400580Y-132024476D01*
X119400580Y-132453047D01*
X119400580Y-131072095D02*
X118924390Y-131405428D01*
X119400580Y-131643523D02*
X118400580Y-131643523D01*
X118400580Y-131262571D01*
X118448200Y-131167333D01*
X118495819Y-131119714D01*
X118591057Y-131072095D01*
X118733914Y-131072095D01*
X118829152Y-131119714D01*
X118876771Y-131167333D01*
X118924390Y-131262571D01*
X118924390Y-131643523D01*
X126706380Y-72897904D02*
X127515904Y-72897904D01*
X127611142Y-72850285D01*
X127658761Y-72802666D01*
X127706380Y-72707428D01*
X127706380Y-72516952D01*
X127658761Y-72421714D01*
X127611142Y-72374095D01*
X127515904Y-72326476D01*
X126706380Y-72326476D01*
X127706380Y-71326476D02*
X127706380Y-71897904D01*
X127706380Y-71612190D02*
X126706380Y-71612190D01*
X126849238Y-71707428D01*
X126944476Y-71802666D01*
X126992095Y-71897904D01*
X126706380Y-80652571D02*
X126706380Y-80462095D01*
X126754000Y-80366857D01*
X126849238Y-80271619D01*
X127039714Y-80224000D01*
X127373047Y-80224000D01*
X127563523Y-80271619D01*
X127658761Y-80366857D01*
X127706380Y-80462095D01*
X127706380Y-80652571D01*
X127658761Y-80747809D01*
X127563523Y-80843047D01*
X127373047Y-80890666D01*
X127039714Y-80890666D01*
X126849238Y-80843047D01*
X126754000Y-80747809D01*
X126706380Y-80652571D01*
X127706380Y-79795428D02*
X126706380Y-79795428D01*
X126706380Y-79414476D01*
X126754000Y-79319238D01*
X126801619Y-79271619D01*
X126896857Y-79224000D01*
X127039714Y-79224000D01*
X127134952Y-79271619D01*
X127182571Y-79319238D01*
X127230190Y-79414476D01*
X127230190Y-79795428D01*
X127420666Y-78843047D02*
X127420666Y-78366857D01*
X127706380Y-78938285D02*
X126706380Y-78604952D01*
X127706380Y-78271619D01*
X126801619Y-77985904D02*
X126754000Y-77938285D01*
X126706380Y-77843047D01*
X126706380Y-77604952D01*
X126754000Y-77509714D01*
X126801619Y-77462095D01*
X126896857Y-77414476D01*
X126992095Y-77414476D01*
X127134952Y-77462095D01*
X127706380Y-78033523D01*
X127706380Y-77414476D01*
X127706380Y-76462095D02*
X127706380Y-77033523D01*
X127706380Y-76747809D02*
X126706380Y-76747809D01*
X126849238Y-76843047D01*
X126944476Y-76938285D01*
X126992095Y-77033523D01*
X126706380Y-76128761D02*
X126706380Y-75509714D01*
X127087333Y-75843047D01*
X127087333Y-75700190D01*
X127134952Y-75604952D01*
X127182571Y-75557333D01*
X127277809Y-75509714D01*
X127515904Y-75509714D01*
X127611142Y-75557333D01*
X127658761Y-75604952D01*
X127706380Y-75700190D01*
X127706380Y-75985904D01*
X127658761Y-76081142D01*
X127611142Y-76128761D01*
X127039714Y-74652571D02*
X127706380Y-74652571D01*
X126658761Y-74890666D02*
X127373047Y-75128761D01*
X127373047Y-74509714D01*
X114615933Y-95835742D02*
X114568314Y-95883361D01*
X114425457Y-95930980D01*
X114330219Y-95930980D01*
X114187361Y-95883361D01*
X114092123Y-95788123D01*
X114044504Y-95692885D01*
X113996885Y-95502409D01*
X113996885Y-95359552D01*
X114044504Y-95169076D01*
X114092123Y-95073838D01*
X114187361Y-94978600D01*
X114330219Y-94930980D01*
X114425457Y-94930980D01*
X114568314Y-94978600D01*
X114615933Y-95026219D01*
X114996885Y-95026219D02*
X115044504Y-94978600D01*
X115139742Y-94930980D01*
X115377838Y-94930980D01*
X115473076Y-94978600D01*
X115520695Y-95026219D01*
X115568314Y-95121457D01*
X115568314Y-95216695D01*
X115520695Y-95359552D01*
X114949266Y-95930980D01*
X115568314Y-95930980D01*
X114501704Y-99658514D02*
X114501704Y-100325180D01*
X114263609Y-99277561D02*
X114025514Y-99991847D01*
X114644561Y-99991847D01*
X114930276Y-99325180D02*
X115596942Y-99325180D01*
X115168371Y-100325180D01*
X116406466Y-99658514D02*
X116406466Y-100325180D01*
X115977895Y-99658514D02*
X115977895Y-100182323D01*
X116025514Y-100277561D01*
X116120752Y-100325180D01*
X116263609Y-100325180D01*
X116358847Y-100277561D01*
X116406466Y-100229942D01*
X114438133Y-127331742D02*
X114390514Y-127379361D01*
X114247657Y-127426980D01*
X114152419Y-127426980D01*
X114009561Y-127379361D01*
X113914323Y-127284123D01*
X113866704Y-127188885D01*
X113819085Y-126998409D01*
X113819085Y-126855552D01*
X113866704Y-126665076D01*
X113914323Y-126569838D01*
X114009561Y-126474600D01*
X114152419Y-126426980D01*
X114247657Y-126426980D01*
X114390514Y-126474600D01*
X114438133Y-126522219D01*
X115295276Y-126760314D02*
X115295276Y-127426980D01*
X115057180Y-126379361D02*
X114819085Y-127093647D01*
X115438133Y-127093647D01*
X114527104Y-128766914D02*
X114527104Y-129433580D01*
X114289009Y-128385961D02*
X114050914Y-129100247D01*
X114669961Y-129100247D01*
X114955676Y-128433580D02*
X115622342Y-128433580D01*
X115193771Y-129433580D01*
X116431866Y-128766914D02*
X116431866Y-129433580D01*
X116003295Y-128766914D02*
X116003295Y-129290723D01*
X116050914Y-129385961D01*
X116146152Y-129433580D01*
X116289009Y-129433580D01*
X116384247Y-129385961D01*
X116431866Y-129338342D01*
X122286733Y-116739942D02*
X122239114Y-116787561D01*
X122096257Y-116835180D01*
X122001019Y-116835180D01*
X121858161Y-116787561D01*
X121762923Y-116692323D01*
X121715304Y-116597085D01*
X121667685Y-116406609D01*
X121667685Y-116263752D01*
X121715304Y-116073276D01*
X121762923Y-115978038D01*
X121858161Y-115882800D01*
X122001019Y-115835180D01*
X122096257Y-115835180D01*
X122239114Y-115882800D01*
X122286733Y-115930419D01*
X123191495Y-115835180D02*
X122715304Y-115835180D01*
X122667685Y-116311371D01*
X122715304Y-116263752D01*
X122810542Y-116216133D01*
X123048638Y-116216133D01*
X123143876Y-116263752D01*
X123191495Y-116311371D01*
X123239114Y-116406609D01*
X123239114Y-116644704D01*
X123191495Y-116739942D01*
X123143876Y-116787561D01*
X123048638Y-116835180D01*
X122810542Y-116835180D01*
X122715304Y-116787561D01*
X122667685Y-116739942D01*
X113434904Y-116905114D02*
X113434904Y-117571780D01*
X113196809Y-116524161D02*
X112958714Y-117238447D01*
X113577761Y-117238447D01*
X113863476Y-116571780D02*
X114530142Y-116571780D01*
X114101571Y-117571780D01*
X115339666Y-116905114D02*
X115339666Y-117571780D01*
X114911095Y-116905114D02*
X114911095Y-117428923D01*
X114958714Y-117524161D01*
X115053952Y-117571780D01*
X115196809Y-117571780D01*
X115292047Y-117524161D01*
X115339666Y-117476542D01*
X114488933Y-110364542D02*
X114441314Y-110412161D01*
X114298457Y-110459780D01*
X114203219Y-110459780D01*
X114060361Y-110412161D01*
X113965123Y-110316923D01*
X113917504Y-110221685D01*
X113869885Y-110031209D01*
X113869885Y-109888352D01*
X113917504Y-109697876D01*
X113965123Y-109602638D01*
X114060361Y-109507400D01*
X114203219Y-109459780D01*
X114298457Y-109459780D01*
X114441314Y-109507400D01*
X114488933Y-109555019D01*
X115346076Y-109459780D02*
X115155600Y-109459780D01*
X115060361Y-109507400D01*
X115012742Y-109555019D01*
X114917504Y-109697876D01*
X114869885Y-109888352D01*
X114869885Y-110269304D01*
X114917504Y-110364542D01*
X114965123Y-110412161D01*
X115060361Y-110459780D01*
X115250838Y-110459780D01*
X115346076Y-110412161D01*
X115393695Y-110364542D01*
X115441314Y-110269304D01*
X115441314Y-110031209D01*
X115393695Y-109935971D01*
X115346076Y-109888352D01*
X115250838Y-109840733D01*
X115060361Y-109840733D01*
X114965123Y-109888352D01*
X114917504Y-109935971D01*
X114869885Y-110031209D01*
X114146104Y-114492114D02*
X114146104Y-115158780D01*
X113908009Y-114111161D02*
X113669914Y-114825447D01*
X114288961Y-114825447D01*
X114574676Y-114158780D02*
X115241342Y-114158780D01*
X114812771Y-115158780D01*
X116050866Y-114492114D02*
X116050866Y-115158780D01*
X115622295Y-114492114D02*
X115622295Y-115015923D01*
X115669914Y-115111161D01*
X115765152Y-115158780D01*
X115908009Y-115158780D01*
X116003247Y-115111161D01*
X116050866Y-115063542D01*
X116216133Y-102312742D02*
X116168514Y-102360361D01*
X116025657Y-102407980D01*
X115930419Y-102407980D01*
X115787561Y-102360361D01*
X115692323Y-102265123D01*
X115644704Y-102169885D01*
X115597085Y-101979409D01*
X115597085Y-101836552D01*
X115644704Y-101646076D01*
X115692323Y-101550838D01*
X115787561Y-101455600D01*
X115930419Y-101407980D01*
X116025657Y-101407980D01*
X116168514Y-101455600D01*
X116216133Y-101503219D01*
X116549466Y-101407980D02*
X117168514Y-101407980D01*
X116835180Y-101788933D01*
X116978038Y-101788933D01*
X117073276Y-101836552D01*
X117120895Y-101884171D01*
X117168514Y-101979409D01*
X117168514Y-102217504D01*
X117120895Y-102312742D01*
X117073276Y-102360361D01*
X116978038Y-102407980D01*
X116692323Y-102407980D01*
X116597085Y-102360361D01*
X116549466Y-102312742D01*
X115517704Y-106795914D02*
X115517704Y-107462580D01*
X115279609Y-106414961D02*
X115041514Y-107129247D01*
X115660561Y-107129247D01*
X115946276Y-106462580D02*
X116612942Y-106462580D01*
X116184371Y-107462580D01*
X117422466Y-106795914D02*
X117422466Y-107462580D01*
X116993895Y-106795914D02*
X116993895Y-107319723D01*
X117041514Y-107414961D01*
X117136752Y-107462580D01*
X117279609Y-107462580D01*
X117374847Y-107414961D01*
X117422466Y-107367342D01*
M02*
