G04 #@! TF.GenerationSoftware,KiCad,Pcbnew,(5.1.5)-3*
G04 #@! TF.CreationDate,2021-07-18T20:22:50-04:00*
G04 #@! TF.ProjectId,opAmp Mic,6f70416d-7020-44d6-9963-2e6b69636164,rev?*
G04 #@! TF.SameCoordinates,Original*
G04 #@! TF.FileFunction,Legend,Bot*
G04 #@! TF.FilePolarity,Positive*
%FSLAX46Y46*%
G04 Gerber Fmt 4.6, Leading zero omitted, Abs format (unit mm)*
G04 Created by KiCad (PCBNEW (5.1.5)-3) date 2021-07-18 20:22:50*
%MOMM*%
%LPD*%
G04 APERTURE LIST*
%ADD10C,0.100000*%
%ADD11C,0.150000*%
%ADD12C,0.250000*%
G04 APERTURE END LIST*
D10*
X114700838Y-134963733D02*
X114700838Y-134420876D01*
X114700838Y-134692304D02*
X115650838Y-134692304D01*
X115515123Y-134601828D01*
X115424647Y-134511352D01*
X115379409Y-134420876D01*
X115334171Y-135370876D02*
X115062742Y-136094685D01*
X114791314Y-135370876D01*
X122841628Y-135421676D02*
X123113057Y-136145485D01*
X123384485Y-135421676D01*
X122615438Y-135014533D02*
X122570200Y-134969295D01*
X122524961Y-134878819D01*
X122524961Y-134652628D01*
X122570200Y-134562152D01*
X122615438Y-134516914D01*
X122705914Y-134471676D01*
X122796390Y-134471676D01*
X122932104Y-134516914D01*
X123474961Y-135059771D01*
X123474961Y-134471676D01*
D11*
X125747971Y-111121085D02*
X125747971Y-111454419D01*
X126271780Y-111597276D02*
X126271780Y-111121085D01*
X125271780Y-111121085D01*
X125271780Y-111597276D01*
X126271780Y-112168704D02*
X126224161Y-112073466D01*
X126128923Y-112025847D01*
X125271780Y-112025847D01*
X126224161Y-112930609D02*
X126271780Y-112835371D01*
X126271780Y-112644895D01*
X126224161Y-112549657D01*
X126128923Y-112502038D01*
X125747971Y-112502038D01*
X125652733Y-112549657D01*
X125605114Y-112644895D01*
X125605114Y-112835371D01*
X125652733Y-112930609D01*
X125747971Y-112978228D01*
X125843209Y-112978228D01*
X125938447Y-112502038D01*
X126224161Y-113835371D02*
X126271780Y-113740133D01*
X126271780Y-113549657D01*
X126224161Y-113454419D01*
X126176542Y-113406800D01*
X126081304Y-113359180D01*
X125795590Y-113359180D01*
X125700352Y-113406800D01*
X125652733Y-113454419D01*
X125605114Y-113549657D01*
X125605114Y-113740133D01*
X125652733Y-113835371D01*
X125605114Y-114121085D02*
X125605114Y-114502038D01*
X125271780Y-114263942D02*
X126128923Y-114263942D01*
X126224161Y-114311561D01*
X126271780Y-114406800D01*
X126271780Y-114502038D01*
X126271780Y-114835371D02*
X125605114Y-114835371D01*
X125795590Y-114835371D02*
X125700352Y-114882990D01*
X125652733Y-114930609D01*
X125605114Y-115025847D01*
X125605114Y-115121085D01*
X126224161Y-115835371D02*
X126271780Y-115740133D01*
X126271780Y-115549657D01*
X126224161Y-115454419D01*
X126128923Y-115406800D01*
X125747971Y-115406800D01*
X125652733Y-115454419D01*
X125605114Y-115549657D01*
X125605114Y-115740133D01*
X125652733Y-115835371D01*
X125747971Y-115882990D01*
X125843209Y-115882990D01*
X125938447Y-115406800D01*
X125605114Y-116168704D02*
X125605114Y-116549657D01*
X125271780Y-116311561D02*
X126128923Y-116311561D01*
X126224161Y-116359180D01*
X126271780Y-116454419D01*
X126271780Y-116549657D01*
X125890828Y-116882990D02*
X125890828Y-117644895D01*
X125605114Y-118121085D02*
X125890828Y-118882990D01*
X126176542Y-118121085D01*
X125271780Y-120311561D02*
X125271780Y-120502038D01*
X125319400Y-120597276D01*
X125414638Y-120692514D01*
X125605114Y-120740133D01*
X125938447Y-120740133D01*
X126128923Y-120692514D01*
X126224161Y-120597276D01*
X126271780Y-120502038D01*
X126271780Y-120311561D01*
X126224161Y-120216323D01*
X126128923Y-120121085D01*
X125938447Y-120073466D01*
X125605114Y-120073466D01*
X125414638Y-120121085D01*
X125319400Y-120216323D01*
X125271780Y-120311561D01*
X125605114Y-121168704D02*
X126605114Y-121168704D01*
X125652733Y-121168704D02*
X125605114Y-121263942D01*
X125605114Y-121454419D01*
X125652733Y-121549657D01*
X125700352Y-121597276D01*
X125795590Y-121644895D01*
X126081304Y-121644895D01*
X126176542Y-121597276D01*
X126224161Y-121549657D01*
X126271780Y-121454419D01*
X126271780Y-121263942D01*
X126224161Y-121168704D01*
X125986066Y-122025847D02*
X125986066Y-122502038D01*
X126271780Y-121930609D02*
X125271780Y-122263942D01*
X126271780Y-122597276D01*
X126271780Y-122930609D02*
X125605114Y-122930609D01*
X125700352Y-122930609D02*
X125652733Y-122978228D01*
X125605114Y-123073466D01*
X125605114Y-123216323D01*
X125652733Y-123311561D01*
X125747971Y-123359180D01*
X126271780Y-123359180D01*
X125747971Y-123359180D02*
X125652733Y-123406800D01*
X125605114Y-123502038D01*
X125605114Y-123644895D01*
X125652733Y-123740133D01*
X125747971Y-123787752D01*
X126271780Y-123787752D01*
X125605114Y-124263942D02*
X126605114Y-124263942D01*
X125652733Y-124263942D02*
X125605114Y-124359180D01*
X125605114Y-124549657D01*
X125652733Y-124644895D01*
X125700352Y-124692514D01*
X125795590Y-124740133D01*
X126081304Y-124740133D01*
X126176542Y-124692514D01*
X126224161Y-124644895D01*
X126271780Y-124549657D01*
X126271780Y-124359180D01*
X126224161Y-124263942D01*
X127921780Y-110263942D02*
X127255114Y-110263942D01*
X127350352Y-110263942D02*
X127302733Y-110311561D01*
X127255114Y-110406800D01*
X127255114Y-110549657D01*
X127302733Y-110644895D01*
X127397971Y-110692514D01*
X127921780Y-110692514D01*
X127397971Y-110692514D02*
X127302733Y-110740133D01*
X127255114Y-110835371D01*
X127255114Y-110978228D01*
X127302733Y-111073466D01*
X127397971Y-111121085D01*
X127921780Y-111121085D01*
X127921780Y-111597276D02*
X127255114Y-111597276D01*
X126921780Y-111597276D02*
X126969400Y-111549657D01*
X127017019Y-111597276D01*
X126969400Y-111644895D01*
X126921780Y-111597276D01*
X127017019Y-111597276D01*
X127874161Y-112502038D02*
X127921780Y-112406800D01*
X127921780Y-112216323D01*
X127874161Y-112121085D01*
X127826542Y-112073466D01*
X127731304Y-112025847D01*
X127445590Y-112025847D01*
X127350352Y-112073466D01*
X127302733Y-112121085D01*
X127255114Y-112216323D01*
X127255114Y-112406800D01*
X127302733Y-112502038D01*
X127921780Y-112930609D02*
X127255114Y-112930609D01*
X127445590Y-112930609D02*
X127350352Y-112978228D01*
X127302733Y-113025847D01*
X127255114Y-113121085D01*
X127255114Y-113216323D01*
X127921780Y-113692514D02*
X127874161Y-113597276D01*
X127826542Y-113549657D01*
X127731304Y-113502038D01*
X127445590Y-113502038D01*
X127350352Y-113549657D01*
X127302733Y-113597276D01*
X127255114Y-113692514D01*
X127255114Y-113835371D01*
X127302733Y-113930609D01*
X127350352Y-113978228D01*
X127445590Y-114025847D01*
X127731304Y-114025847D01*
X127826542Y-113978228D01*
X127874161Y-113930609D01*
X127921780Y-113835371D01*
X127921780Y-113692514D01*
X127255114Y-114454419D02*
X128255114Y-114454419D01*
X127302733Y-114454419D02*
X127255114Y-114549657D01*
X127255114Y-114740133D01*
X127302733Y-114835371D01*
X127350352Y-114882990D01*
X127445590Y-114930609D01*
X127731304Y-114930609D01*
X127826542Y-114882990D01*
X127874161Y-114835371D01*
X127921780Y-114740133D01*
X127921780Y-114549657D01*
X127874161Y-114454419D01*
X127921780Y-115359180D02*
X126921780Y-115359180D01*
X127921780Y-115787752D02*
X127397971Y-115787752D01*
X127302733Y-115740133D01*
X127255114Y-115644895D01*
X127255114Y-115502038D01*
X127302733Y-115406800D01*
X127350352Y-115359180D01*
X127921780Y-116406800D02*
X127874161Y-116311561D01*
X127826542Y-116263942D01*
X127731304Y-116216323D01*
X127445590Y-116216323D01*
X127350352Y-116263942D01*
X127302733Y-116311561D01*
X127255114Y-116406800D01*
X127255114Y-116549657D01*
X127302733Y-116644895D01*
X127350352Y-116692514D01*
X127445590Y-116740133D01*
X127731304Y-116740133D01*
X127826542Y-116692514D01*
X127874161Y-116644895D01*
X127921780Y-116549657D01*
X127921780Y-116406800D01*
X127255114Y-117168704D02*
X127921780Y-117168704D01*
X127350352Y-117168704D02*
X127302733Y-117216323D01*
X127255114Y-117311561D01*
X127255114Y-117454419D01*
X127302733Y-117549657D01*
X127397971Y-117597276D01*
X127921780Y-117597276D01*
X127874161Y-118454419D02*
X127921780Y-118359180D01*
X127921780Y-118168704D01*
X127874161Y-118073466D01*
X127778923Y-118025847D01*
X127397971Y-118025847D01*
X127302733Y-118073466D01*
X127255114Y-118168704D01*
X127255114Y-118359180D01*
X127302733Y-118454419D01*
X127397971Y-118502038D01*
X127493209Y-118502038D01*
X127588447Y-118025847D01*
X127255114Y-119692514D02*
X128255114Y-119692514D01*
X127302733Y-119692514D02*
X127255114Y-119787752D01*
X127255114Y-119978228D01*
X127302733Y-120073466D01*
X127350352Y-120121085D01*
X127445590Y-120168704D01*
X127731304Y-120168704D01*
X127826542Y-120121085D01*
X127874161Y-120073466D01*
X127921780Y-119978228D01*
X127921780Y-119787752D01*
X127874161Y-119692514D01*
X127921780Y-120740133D02*
X127874161Y-120644895D01*
X127778923Y-120597276D01*
X126921780Y-120597276D01*
X127921780Y-121549657D02*
X127397971Y-121549657D01*
X127302733Y-121502038D01*
X127255114Y-121406800D01*
X127255114Y-121216323D01*
X127302733Y-121121085D01*
X127874161Y-121549657D02*
X127921780Y-121454419D01*
X127921780Y-121216323D01*
X127874161Y-121121085D01*
X127778923Y-121073466D01*
X127683685Y-121073466D01*
X127588447Y-121121085D01*
X127540828Y-121216323D01*
X127540828Y-121454419D01*
X127493209Y-121549657D01*
X127255114Y-121882990D02*
X127255114Y-122263942D01*
X126921780Y-122025847D02*
X127778923Y-122025847D01*
X127874161Y-122073466D01*
X127921780Y-122168704D01*
X127921780Y-122263942D01*
X127255114Y-122454419D02*
X127255114Y-122835371D01*
X127921780Y-122597276D02*
X127064638Y-122597276D01*
X126969400Y-122644895D01*
X126921780Y-122740133D01*
X126921780Y-122835371D01*
X127921780Y-123311561D02*
X127874161Y-123216323D01*
X127826542Y-123168704D01*
X127731304Y-123121085D01*
X127445590Y-123121085D01*
X127350352Y-123168704D01*
X127302733Y-123216323D01*
X127255114Y-123311561D01*
X127255114Y-123454419D01*
X127302733Y-123549657D01*
X127350352Y-123597276D01*
X127445590Y-123644895D01*
X127731304Y-123644895D01*
X127826542Y-123597276D01*
X127874161Y-123549657D01*
X127921780Y-123454419D01*
X127921780Y-123311561D01*
X127921780Y-124073466D02*
X127255114Y-124073466D01*
X127445590Y-124073466D02*
X127350352Y-124121085D01*
X127302733Y-124168704D01*
X127255114Y-124263942D01*
X127255114Y-124359180D01*
X127921780Y-124692514D02*
X127255114Y-124692514D01*
X127350352Y-124692514D02*
X127302733Y-124740133D01*
X127255114Y-124835371D01*
X127255114Y-124978228D01*
X127302733Y-125073466D01*
X127397971Y-125121085D01*
X127921780Y-125121085D01*
X127397971Y-125121085D02*
X127302733Y-125168704D01*
X127255114Y-125263942D01*
X127255114Y-125406800D01*
X127302733Y-125502038D01*
X127397971Y-125549657D01*
X127921780Y-125549657D01*
D12*
X112029761Y-96079071D02*
X112029761Y-95126690D01*
X110029761Y-95126690D01*
X112029761Y-97602880D02*
X110982142Y-97602880D01*
X110791666Y-97507642D01*
X110696428Y-97317166D01*
X110696428Y-96936214D01*
X110791666Y-96745738D01*
X111934523Y-97602880D02*
X112029761Y-97412404D01*
X112029761Y-96936214D01*
X111934523Y-96745738D01*
X111744047Y-96650500D01*
X111553571Y-96650500D01*
X111363095Y-96745738D01*
X111267857Y-96936214D01*
X111267857Y-97412404D01*
X111172619Y-97602880D01*
X110696428Y-98364785D02*
X112029761Y-98840976D01*
X110696428Y-99317166D02*
X112029761Y-98840976D01*
X112505952Y-98650500D01*
X112601190Y-98555261D01*
X112696428Y-98364785D01*
X112029761Y-100364785D02*
X111934523Y-100174309D01*
X111839285Y-100079071D01*
X111648809Y-99983833D01*
X111077380Y-99983833D01*
X110886904Y-100079071D01*
X110791666Y-100174309D01*
X110696428Y-100364785D01*
X110696428Y-100650499D01*
X110791666Y-100840976D01*
X110886904Y-100936214D01*
X111077380Y-101031452D01*
X111648809Y-101031452D01*
X111839285Y-100936214D01*
X111934523Y-100840976D01*
X112029761Y-100650499D01*
X112029761Y-100364785D01*
X110696428Y-102745738D02*
X112029761Y-102745738D01*
X110696428Y-101888595D02*
X111744047Y-101888595D01*
X111934523Y-101983833D01*
X112029761Y-102174309D01*
X112029761Y-102460023D01*
X111934523Y-102650499D01*
X111839285Y-102745738D01*
X110696428Y-103412404D02*
X110696428Y-104174309D01*
X110029761Y-103698119D02*
X111744047Y-103698119D01*
X111934523Y-103793357D01*
X112029761Y-103983833D01*
X112029761Y-104174309D01*
X112029761Y-106364785D02*
X110029761Y-106364785D01*
X110791666Y-106364785D02*
X110696428Y-106555261D01*
X110696428Y-106936214D01*
X110791666Y-107126690D01*
X110886904Y-107221928D01*
X111077380Y-107317166D01*
X111648809Y-107317166D01*
X111839285Y-107221928D01*
X111934523Y-107126690D01*
X112029761Y-106936214D01*
X112029761Y-106555261D01*
X111934523Y-106364785D01*
X110696428Y-107983833D02*
X112029761Y-108460023D01*
X110696428Y-108936214D02*
X112029761Y-108460023D01*
X112505952Y-108269547D01*
X112601190Y-108174309D01*
X112696428Y-107983833D01*
X111839285Y-112364785D02*
X111934523Y-112269547D01*
X112029761Y-111983833D01*
X112029761Y-111793357D01*
X111934523Y-111507642D01*
X111744047Y-111317166D01*
X111553571Y-111221928D01*
X111172619Y-111126690D01*
X110886904Y-111126690D01*
X110505952Y-111221928D01*
X110315476Y-111317166D01*
X110125000Y-111507642D01*
X110029761Y-111793357D01*
X110029761Y-111983833D01*
X110125000Y-112269547D01*
X110220238Y-112364785D01*
X112029761Y-113221928D02*
X110029761Y-113221928D01*
X112029761Y-114079071D02*
X110982142Y-114079071D01*
X110791666Y-113983833D01*
X110696428Y-113793357D01*
X110696428Y-113507642D01*
X110791666Y-113317166D01*
X110886904Y-113221928D01*
X112029761Y-115031452D02*
X110696428Y-115031452D01*
X111077380Y-115031452D02*
X110886904Y-115126690D01*
X110791666Y-115221928D01*
X110696428Y-115412404D01*
X110696428Y-115602880D01*
X112029761Y-116269547D02*
X110696428Y-116269547D01*
X110029761Y-116269547D02*
X110125000Y-116174309D01*
X110220238Y-116269547D01*
X110125000Y-116364785D01*
X110029761Y-116269547D01*
X110220238Y-116269547D01*
X111934523Y-117126690D02*
X112029761Y-117317166D01*
X112029761Y-117698119D01*
X111934523Y-117888595D01*
X111744047Y-117983833D01*
X111648809Y-117983833D01*
X111458333Y-117888595D01*
X111363095Y-117698119D01*
X111363095Y-117412404D01*
X111267857Y-117221928D01*
X111077380Y-117126690D01*
X110982142Y-117126690D01*
X110791666Y-117221928D01*
X110696428Y-117412404D01*
X110696428Y-117698119D01*
X110791666Y-117888595D01*
X110029761Y-120174309D02*
X112029761Y-120650499D01*
X110601190Y-121031452D01*
X112029761Y-121412404D01*
X110029761Y-121888595D01*
X112029761Y-122650499D02*
X110696428Y-122650499D01*
X110029761Y-122650499D02*
X110125000Y-122555261D01*
X110220238Y-122650499D01*
X110125000Y-122745738D01*
X110029761Y-122650499D01*
X110220238Y-122650499D01*
X112029761Y-123888595D02*
X111934523Y-123698119D01*
X111744047Y-123602880D01*
X110029761Y-123602880D01*
X112029761Y-124936214D02*
X111934523Y-124745738D01*
X111744047Y-124650499D01*
X110029761Y-124650499D01*
X112029761Y-125698119D02*
X110696428Y-125698119D01*
X110029761Y-125698119D02*
X110125000Y-125602880D01*
X110220238Y-125698119D01*
X110125000Y-125793357D01*
X110029761Y-125698119D01*
X110220238Y-125698119D01*
X112029761Y-127507642D02*
X110982142Y-127507642D01*
X110791666Y-127412404D01*
X110696428Y-127221928D01*
X110696428Y-126840976D01*
X110791666Y-126650499D01*
X111934523Y-127507642D02*
X112029761Y-127317166D01*
X112029761Y-126840976D01*
X111934523Y-126650499D01*
X111744047Y-126555261D01*
X111553571Y-126555261D01*
X111363095Y-126650499D01*
X111267857Y-126840976D01*
X111267857Y-127317166D01*
X111172619Y-127507642D01*
X112029761Y-128460023D02*
X110696428Y-128460023D01*
X110886904Y-128460023D02*
X110791666Y-128555261D01*
X110696428Y-128745738D01*
X110696428Y-129031452D01*
X110791666Y-129221928D01*
X110982142Y-129317166D01*
X112029761Y-129317166D01*
X110982142Y-129317166D02*
X110791666Y-129412404D01*
X110696428Y-129602880D01*
X110696428Y-129888595D01*
X110791666Y-130079071D01*
X110982142Y-130174309D01*
X112029761Y-130174309D01*
X111934523Y-131031452D02*
X112029761Y-131221928D01*
X112029761Y-131602880D01*
X111934523Y-131793357D01*
X111744047Y-131888595D01*
X111648809Y-131888595D01*
X111458333Y-131793357D01*
X111363095Y-131602880D01*
X111363095Y-131317166D01*
X111267857Y-131126690D01*
X111077380Y-131031452D01*
X110982142Y-131031452D01*
X110791666Y-131126690D01*
X110696428Y-131317166D01*
X110696428Y-131602880D01*
X110791666Y-131793357D01*
X113045666Y-64506919D02*
X112950428Y-64411680D01*
X112664714Y-64221204D01*
X112474238Y-64125966D01*
X112188523Y-64030728D01*
X111712333Y-63935490D01*
X111331380Y-63935490D01*
X110855190Y-64030728D01*
X110569476Y-64125966D01*
X110379000Y-64221204D01*
X110093285Y-64411680D01*
X109998047Y-64506919D01*
X110474238Y-65173585D02*
X110379000Y-65268823D01*
X110283761Y-65459300D01*
X110283761Y-65935490D01*
X110379000Y-66125966D01*
X110474238Y-66221204D01*
X110664714Y-66316442D01*
X110855190Y-66316442D01*
X111140904Y-66221204D01*
X112283761Y-65078347D01*
X112283761Y-66316442D01*
X110283761Y-67554538D02*
X110283761Y-67745014D01*
X110379000Y-67935490D01*
X110474238Y-68030728D01*
X110664714Y-68125966D01*
X111045666Y-68221204D01*
X111521857Y-68221204D01*
X111902809Y-68125966D01*
X112093285Y-68030728D01*
X112188523Y-67935490D01*
X112283761Y-67745014D01*
X112283761Y-67554538D01*
X112188523Y-67364061D01*
X112093285Y-67268823D01*
X111902809Y-67173585D01*
X111521857Y-67078347D01*
X111045666Y-67078347D01*
X110664714Y-67173585D01*
X110474238Y-67268823D01*
X110379000Y-67364061D01*
X110283761Y-67554538D01*
X110474238Y-68983109D02*
X110379000Y-69078347D01*
X110283761Y-69268823D01*
X110283761Y-69745014D01*
X110379000Y-69935490D01*
X110474238Y-70030728D01*
X110664714Y-70125966D01*
X110855190Y-70125966D01*
X111140904Y-70030728D01*
X112283761Y-68887871D01*
X112283761Y-70125966D01*
X112283761Y-72030728D02*
X112283761Y-70887871D01*
X112283761Y-71459300D02*
X110283761Y-71459300D01*
X110569476Y-71268823D01*
X110759952Y-71078347D01*
X110855190Y-70887871D01*
X112188523Y-74316442D02*
X112283761Y-74602157D01*
X112283761Y-75078347D01*
X112188523Y-75268823D01*
X112093285Y-75364061D01*
X111902809Y-75459300D01*
X111712333Y-75459300D01*
X111521857Y-75364061D01*
X111426619Y-75268823D01*
X111331380Y-75078347D01*
X111236142Y-74697395D01*
X111140904Y-74506919D01*
X111045666Y-74411680D01*
X110855190Y-74316442D01*
X110664714Y-74316442D01*
X110474238Y-74411680D01*
X110379000Y-74506919D01*
X110283761Y-74697395D01*
X110283761Y-75173585D01*
X110379000Y-75459300D01*
X112188523Y-77078347D02*
X112283761Y-76887871D01*
X112283761Y-76506919D01*
X112188523Y-76316442D01*
X111998047Y-76221204D01*
X111236142Y-76221204D01*
X111045666Y-76316442D01*
X110950428Y-76506919D01*
X110950428Y-76887871D01*
X111045666Y-77078347D01*
X111236142Y-77173585D01*
X111426619Y-77173585D01*
X111617095Y-76221204D01*
X112283761Y-78887871D02*
X111236142Y-78887871D01*
X111045666Y-78792633D01*
X110950428Y-78602157D01*
X110950428Y-78221204D01*
X111045666Y-78030728D01*
X112188523Y-78887871D02*
X112283761Y-78697395D01*
X112283761Y-78221204D01*
X112188523Y-78030728D01*
X111998047Y-77935490D01*
X111807571Y-77935490D01*
X111617095Y-78030728D01*
X111521857Y-78221204D01*
X111521857Y-78697395D01*
X111426619Y-78887871D01*
X112283761Y-79840252D02*
X110283761Y-79840252D01*
X110283761Y-80316442D01*
X110379000Y-80602157D01*
X110569476Y-80792633D01*
X110759952Y-80887871D01*
X111140904Y-80983109D01*
X111426619Y-80983109D01*
X111807571Y-80887871D01*
X111998047Y-80792633D01*
X112188523Y-80602157D01*
X112283761Y-80316442D01*
X112283761Y-79840252D01*
X110950428Y-82697395D02*
X112283761Y-82697395D01*
X110950428Y-81840252D02*
X111998047Y-81840252D01*
X112188523Y-81935490D01*
X112283761Y-82125966D01*
X112283761Y-82411680D01*
X112188523Y-82602157D01*
X112093285Y-82697395D01*
X112283761Y-83649776D02*
X110283761Y-83649776D01*
X111045666Y-83649776D02*
X110950428Y-83840252D01*
X110950428Y-84221204D01*
X111045666Y-84411680D01*
X111140904Y-84506919D01*
X111331380Y-84602157D01*
X111902809Y-84602157D01*
X112093285Y-84506919D01*
X112188523Y-84411680D01*
X112283761Y-84221204D01*
X112283761Y-83840252D01*
X112188523Y-83649776D01*
X112188523Y-85364061D02*
X112283761Y-85554538D01*
X112283761Y-85935490D01*
X112188523Y-86125966D01*
X111998047Y-86221204D01*
X111902809Y-86221204D01*
X111712333Y-86125966D01*
X111617095Y-85935490D01*
X111617095Y-85649776D01*
X111521857Y-85459300D01*
X111331380Y-85364061D01*
X111236142Y-85364061D01*
X111045666Y-85459300D01*
X110950428Y-85649776D01*
X110950428Y-85935490D01*
X111045666Y-86125966D01*
X113045666Y-86887871D02*
X112950428Y-86983109D01*
X112664714Y-87173585D01*
X112474238Y-87268823D01*
X112188523Y-87364061D01*
X111712333Y-87459300D01*
X111331380Y-87459300D01*
X110855190Y-87364061D01*
X110569476Y-87268823D01*
X110379000Y-87173585D01*
X110093285Y-86983109D01*
X109998047Y-86887871D01*
D10*
X118410161Y-134756638D02*
X118410161Y-135344733D01*
X118772066Y-135028066D01*
X118772066Y-135163780D01*
X118817304Y-135254257D01*
X118862542Y-135299495D01*
X118953019Y-135344733D01*
X119179209Y-135344733D01*
X119269685Y-135299495D01*
X119314923Y-135254257D01*
X119360161Y-135163780D01*
X119360161Y-134892352D01*
X119314923Y-134801876D01*
X119269685Y-134756638D01*
X118726828Y-135751876D02*
X118998257Y-136475685D01*
X119269685Y-135751876D01*
M02*
