G04 #@! TF.GenerationSoftware,KiCad,Pcbnew,(5.1.2-1)-1*
G04 #@! TF.CreationDate,2021-10-11T17:55:13-04:00*
G04 #@! TF.ProjectId,opAmp Mic,6f70416d-7020-44d6-9963-2e6b69636164,rev?*
G04 #@! TF.SameCoordinates,Original*
G04 #@! TF.FileFunction,Copper,L1,Top*
G04 #@! TF.FilePolarity,Positive*
%FSLAX46Y46*%
G04 Gerber Fmt 4.6, Leading zero omitted, Abs format (unit mm)*
G04 Created by KiCad (PCBNEW (5.1.2-1)-1) date 2021-10-11 17:55:13*
%MOMM*%
%LPD*%
G04 APERTURE LIST*
%ADD10R,2.000000X2.000000*%
%ADD11C,2.000000*%
%ADD12O,2.400000X2.400000*%
%ADD13C,2.400000*%
%ADD14C,1.600000*%
%ADD15R,0.700000X1.600000*%
%ADD16C,0.100000*%
%ADD17C,1.998980*%
%ADD18R,1.998980X3.000000*%
%ADD19C,2.020000*%
%ADD20O,1.400000X1.400000*%
%ADD21C,1.400000*%
%ADD22R,1.600000X1.600000*%
%ADD23R,1.200000X1.200000*%
%ADD24C,1.200000*%
%ADD25C,0.800000*%
%ADD26C,0.250000*%
%ADD27C,0.800000*%
%ADD28C,0.254000*%
G04 APERTURE END LIST*
D10*
X124206000Y-106934000D03*
D11*
X124231400Y-98425000D03*
D12*
X114300000Y-86916000D03*
D13*
X114300000Y-64516000D03*
D12*
X114376200Y-74625200D03*
D14*
X117373400Y-74128000D03*
X117373400Y-71628000D03*
D15*
X123875800Y-75413800D03*
X122605800Y-75413800D03*
X121335800Y-75413800D03*
X120065800Y-75413800D03*
X123875800Y-70483800D03*
X120065800Y-70483800D03*
X122605800Y-70483800D03*
X121335800Y-70483800D03*
D14*
X123545600Y-116001800D03*
X123545600Y-113501800D03*
X113817400Y-130505200D03*
X113817400Y-128005200D03*
X124434600Y-127979800D03*
X124434600Y-130479800D03*
D16*
G36*
X122722729Y-136932406D02*
G01*
X122771240Y-136939602D01*
X122818813Y-136951519D01*
X122864989Y-136968041D01*
X122909323Y-136989009D01*
X122951388Y-137014222D01*
X122990780Y-137043437D01*
X123027118Y-137076372D01*
X123060053Y-137112710D01*
X123089268Y-137152102D01*
X123114481Y-137194167D01*
X123135449Y-137238501D01*
X123151971Y-137284677D01*
X123163888Y-137332250D01*
X123171084Y-137380761D01*
X123173490Y-137429745D01*
X123173490Y-139430255D01*
X123171084Y-139479239D01*
X123163888Y-139527750D01*
X123151971Y-139575323D01*
X123135449Y-139621499D01*
X123114481Y-139665833D01*
X123089268Y-139707898D01*
X123060053Y-139747290D01*
X123027118Y-139783628D01*
X122990780Y-139816563D01*
X122951388Y-139845778D01*
X122909323Y-139870991D01*
X122864989Y-139891959D01*
X122818813Y-139908481D01*
X122771240Y-139920398D01*
X122722729Y-139927594D01*
X122673745Y-139930000D01*
X121674255Y-139930000D01*
X121625271Y-139927594D01*
X121576760Y-139920398D01*
X121529187Y-139908481D01*
X121483011Y-139891959D01*
X121438677Y-139870991D01*
X121396612Y-139845778D01*
X121357220Y-139816563D01*
X121320882Y-139783628D01*
X121287947Y-139747290D01*
X121258732Y-139707898D01*
X121233519Y-139665833D01*
X121212551Y-139621499D01*
X121196029Y-139575323D01*
X121184112Y-139527750D01*
X121176916Y-139479239D01*
X121174510Y-139430255D01*
X121174510Y-137429745D01*
X121176916Y-137380761D01*
X121184112Y-137332250D01*
X121196029Y-137284677D01*
X121212551Y-137238501D01*
X121233519Y-137194167D01*
X121258732Y-137152102D01*
X121287947Y-137112710D01*
X121320882Y-137076372D01*
X121357220Y-137043437D01*
X121396612Y-137014222D01*
X121438677Y-136989009D01*
X121483011Y-136968041D01*
X121529187Y-136951519D01*
X121576760Y-136939602D01*
X121625271Y-136932406D01*
X121674255Y-136930000D01*
X122673745Y-136930000D01*
X122722729Y-136932406D01*
X122722729Y-136932406D01*
G37*
D17*
X122174000Y-138430000D03*
D18*
X115824000Y-138430000D03*
D19*
X120980200Y-64363600D03*
X118440200Y-64363600D03*
D20*
X118516400Y-81991200D03*
D21*
X118516400Y-79451200D03*
X122631200Y-81508600D03*
D20*
X122631200Y-78968600D03*
X116636800Y-91643200D03*
D21*
X114096800Y-91643200D03*
X121462800Y-91643200D03*
D20*
X124002800Y-91643200D03*
D21*
X113766600Y-108864400D03*
D20*
X113766600Y-106324400D03*
X123342400Y-123672600D03*
D21*
X123342400Y-121132600D03*
X114300000Y-123545600D03*
D20*
X114300000Y-121005600D03*
X120904000Y-132334000D03*
D21*
X120904000Y-134874000D03*
X117094000Y-134874000D03*
D20*
X117094000Y-132334000D03*
D22*
X118821200Y-95656400D03*
D14*
X118821200Y-98156400D03*
X118872000Y-124855600D03*
D22*
X118872000Y-127355600D03*
X118821200Y-120116600D03*
D14*
X118821200Y-117616600D03*
D22*
X118618000Y-113182400D03*
D14*
X118618000Y-110682400D03*
D23*
X118110000Y-104470200D03*
D24*
X119610000Y-104470200D03*
D25*
X123723400Y-73431400D03*
X112674400Y-85293200D03*
X119151400Y-74371200D03*
X126085600Y-117627400D03*
D26*
X114096800Y-92633149D02*
X114147600Y-92683949D01*
X114096800Y-91643200D02*
X114096800Y-92633149D01*
X117260000Y-104470200D02*
X118110000Y-104470200D01*
X114147600Y-101357800D02*
X117260000Y-104470200D01*
X114147600Y-92683949D02*
X114147600Y-101357800D01*
X118110000Y-105320200D02*
X118110000Y-104470200D01*
X117105800Y-106324400D02*
X118110000Y-105320200D01*
X113766600Y-106324400D02*
X117105800Y-106324400D01*
X123875800Y-73558400D02*
X123875800Y-75413800D01*
X123723400Y-73431400D02*
X123875800Y-73558400D01*
X118517600Y-70483800D02*
X117373400Y-71628000D01*
X120065800Y-70483800D02*
X118517600Y-70483800D01*
X123875800Y-70483800D02*
X122605800Y-70483800D01*
X122605800Y-70933800D02*
X122605800Y-70483800D01*
X119216399Y-74323201D02*
X122605800Y-70933800D01*
X118516400Y-79451200D02*
X112674400Y-85293200D01*
X112674400Y-85293200D02*
X112674400Y-85293200D01*
X120904000Y-131318000D02*
X123342400Y-123672600D01*
X120904000Y-132334000D02*
X120904000Y-131318000D01*
X120904000Y-131344051D02*
X120904000Y-132334000D01*
X118872000Y-127355600D02*
X120904000Y-131344051D01*
X117144800Y-122732800D02*
X118821200Y-120116600D01*
X117094000Y-132334000D02*
X117144800Y-122732800D01*
X126085600Y-117627400D02*
X126390400Y-85267800D01*
X126390400Y-85267800D02*
X122631200Y-81508600D01*
X123656201Y-80483599D02*
X123331199Y-80808601D01*
X123656201Y-77514201D02*
X123656201Y-80483599D01*
X122605800Y-76463800D02*
X123656201Y-77514201D01*
X123331199Y-80808601D02*
X122631200Y-81508600D01*
X122605800Y-75413800D02*
X122605800Y-76463800D01*
X119233000Y-113157000D02*
X118770400Y-113157000D01*
X124206000Y-108184000D02*
X119233000Y-113157000D01*
X124206000Y-106934000D02*
X124206000Y-108184000D01*
X113766600Y-109203200D02*
X113766600Y-108864400D01*
X117720400Y-113157000D02*
X113766600Y-109203200D01*
X118770400Y-113157000D02*
X117720400Y-113157000D01*
X123190000Y-115824000D02*
X123545600Y-116001800D01*
X118770400Y-113157000D02*
X120523000Y-113157000D01*
X123545600Y-116001800D02*
X123342400Y-121132600D01*
X120523000Y-113157000D02*
X123190000Y-115824000D01*
X115062000Y-130810000D02*
X113817400Y-130505200D01*
X115570000Y-131826000D02*
X115062000Y-130810000D01*
X116104051Y-134874000D02*
X115570000Y-131826000D01*
X117094000Y-134874000D02*
X116104051Y-134874000D01*
X120904000Y-137160000D02*
X120904000Y-134874000D01*
X122174000Y-138430000D02*
X120904000Y-137160000D01*
X124434600Y-131343400D02*
X124434600Y-130479800D01*
X120904000Y-134874000D02*
X124434600Y-131343400D01*
X118287800Y-64516000D02*
X118440200Y-64363600D01*
D27*
X114300000Y-64516000D02*
X118287800Y-64516000D01*
D26*
X118770400Y-64693800D02*
X118440200Y-64363600D01*
X121335800Y-69433800D02*
X121335800Y-70483800D01*
D27*
X121335800Y-68687555D02*
X121335800Y-69433800D01*
X118440200Y-65791955D02*
X121335800Y-68687555D01*
X118440200Y-64363600D02*
X118440200Y-65791955D01*
D26*
X121335800Y-77673200D02*
X122631200Y-78968600D01*
X121335800Y-75413800D02*
X121335800Y-77673200D01*
D28*
G36*
X127254127Y-92300873D02*
G01*
X127083391Y-92385334D01*
X127150047Y-85308712D01*
X127154077Y-85267800D01*
X127147084Y-85196798D01*
X127140773Y-85125876D01*
X127139757Y-85122410D01*
X127139403Y-85118814D01*
X127118703Y-85050575D01*
X127098667Y-84982212D01*
X127096995Y-84979013D01*
X127095946Y-84975553D01*
X127062302Y-84912610D01*
X127029341Y-84849524D01*
X127027080Y-84846715D01*
X127025374Y-84843524D01*
X126980099Y-84788356D01*
X126935463Y-84732910D01*
X126903946Y-84706545D01*
X123944845Y-81747444D01*
X123966200Y-81640086D01*
X123966200Y-81377114D01*
X123944845Y-81269756D01*
X124167198Y-81047403D01*
X124196202Y-81023600D01*
X124291175Y-80907875D01*
X124361747Y-80775846D01*
X124405204Y-80632585D01*
X124416201Y-80520932D01*
X124416201Y-80520923D01*
X124419877Y-80483600D01*
X124416201Y-80446277D01*
X124416201Y-77551523D01*
X124419877Y-77514200D01*
X124416201Y-77476877D01*
X124416201Y-77476868D01*
X124405204Y-77365215D01*
X124361747Y-77221954D01*
X124291175Y-77089925D01*
X124196202Y-76974200D01*
X124167205Y-76950403D01*
X124068674Y-76851872D01*
X124225800Y-76851872D01*
X124350282Y-76839612D01*
X124469980Y-76803302D01*
X124580294Y-76744337D01*
X124676985Y-76664985D01*
X124756337Y-76568294D01*
X124815302Y-76457980D01*
X124851612Y-76338282D01*
X124863872Y-76213800D01*
X124863872Y-74613800D01*
X124851612Y-74489318D01*
X124815302Y-74369620D01*
X124756337Y-74259306D01*
X124676985Y-74162615D01*
X124635800Y-74128815D01*
X124635800Y-73928847D01*
X124640605Y-73921656D01*
X124718626Y-73733298D01*
X124758400Y-73533339D01*
X124758400Y-73329461D01*
X124718626Y-73129502D01*
X124640605Y-72941144D01*
X124527337Y-72771626D01*
X124383174Y-72627463D01*
X124213656Y-72514195D01*
X124025298Y-72436174D01*
X123825339Y-72396400D01*
X123621461Y-72396400D01*
X123421502Y-72436174D01*
X123233144Y-72514195D01*
X123063626Y-72627463D01*
X122919463Y-72771626D01*
X122806195Y-72941144D01*
X122728174Y-73129502D01*
X122688400Y-73329461D01*
X122688400Y-73533339D01*
X122728174Y-73733298D01*
X122806195Y-73921656D01*
X122842325Y-73975728D01*
X122255800Y-73975728D01*
X122131318Y-73987988D01*
X122011620Y-74024298D01*
X121970800Y-74046117D01*
X121929980Y-74024298D01*
X121810282Y-73987988D01*
X121685800Y-73975728D01*
X120985800Y-73975728D01*
X120861318Y-73987988D01*
X120741620Y-74024298D01*
X120700800Y-74046117D01*
X120659980Y-74024298D01*
X120606367Y-74008035D01*
X122692530Y-71921872D01*
X122955800Y-71921872D01*
X123080282Y-71909612D01*
X123199980Y-71873302D01*
X123240800Y-71851483D01*
X123281620Y-71873302D01*
X123401318Y-71909612D01*
X123525800Y-71921872D01*
X124225800Y-71921872D01*
X124350282Y-71909612D01*
X124469980Y-71873302D01*
X124580294Y-71814337D01*
X124676985Y-71734985D01*
X124756337Y-71638294D01*
X124815302Y-71527980D01*
X124851612Y-71408282D01*
X124863872Y-71283800D01*
X124863872Y-69683800D01*
X124851612Y-69559318D01*
X124815302Y-69439620D01*
X124756337Y-69329306D01*
X124676985Y-69232615D01*
X124580294Y-69153263D01*
X124469980Y-69094298D01*
X124350282Y-69057988D01*
X124225800Y-69045728D01*
X123525800Y-69045728D01*
X123401318Y-69057988D01*
X123281620Y-69094298D01*
X123240800Y-69116117D01*
X123199980Y-69094298D01*
X123080282Y-69057988D01*
X122955800Y-69045728D01*
X122370800Y-69045728D01*
X122370800Y-68738390D01*
X122375807Y-68687555D01*
X122370800Y-68636717D01*
X122355824Y-68484660D01*
X122296641Y-68289562D01*
X122251904Y-68205864D01*
X122200534Y-68109757D01*
X122103603Y-67991647D01*
X122071196Y-67952159D01*
X122031708Y-67919752D01*
X119621068Y-65509113D01*
X119710200Y-65419981D01*
X119931574Y-65641355D01*
X120201001Y-65821380D01*
X120500371Y-65945383D01*
X120818182Y-66008600D01*
X121142218Y-66008600D01*
X121460029Y-65945383D01*
X121759399Y-65821380D01*
X122028826Y-65641355D01*
X122257955Y-65412226D01*
X122437980Y-65142799D01*
X122561983Y-64843429D01*
X122625200Y-64525618D01*
X122625200Y-64201582D01*
X122561983Y-63883771D01*
X122437980Y-63584401D01*
X122257955Y-63314974D01*
X122028826Y-63085845D01*
X121759399Y-62905820D01*
X121460029Y-62781817D01*
X121142218Y-62718600D01*
X120818182Y-62718600D01*
X120500371Y-62781817D01*
X120201001Y-62905820D01*
X119931574Y-63085845D01*
X119710200Y-63307219D01*
X119488826Y-63085845D01*
X119219399Y-62905820D01*
X118920029Y-62781817D01*
X118602218Y-62718600D01*
X118278182Y-62718600D01*
X117960371Y-62781817D01*
X117661001Y-62905820D01*
X117391574Y-63085845D01*
X117162445Y-63314974D01*
X117051510Y-63481000D01*
X115815371Y-63481000D01*
X115725338Y-63346256D01*
X115469744Y-63090662D01*
X115169199Y-62889844D01*
X114835250Y-62751518D01*
X114480732Y-62681000D01*
X114119268Y-62681000D01*
X113764750Y-62751518D01*
X113430801Y-62889844D01*
X113130256Y-63090662D01*
X112874662Y-63346256D01*
X112673844Y-63646801D01*
X112535518Y-63980750D01*
X112465000Y-64335268D01*
X112465000Y-64696732D01*
X112535518Y-65051250D01*
X112673844Y-65385199D01*
X112874662Y-65685744D01*
X113130256Y-65941338D01*
X113430801Y-66142156D01*
X113764750Y-66280482D01*
X114119268Y-66351000D01*
X114480732Y-66351000D01*
X114835250Y-66280482D01*
X115169199Y-66142156D01*
X115469744Y-65941338D01*
X115725338Y-65685744D01*
X115815371Y-65551000D01*
X117301219Y-65551000D01*
X117391574Y-65641355D01*
X117405201Y-65650460D01*
X117405201Y-65741118D01*
X117400194Y-65791955D01*
X117420177Y-65994850D01*
X117479360Y-66189948D01*
X117575466Y-66369752D01*
X117672397Y-66487862D01*
X117704805Y-66527351D01*
X117744292Y-66559757D01*
X120230262Y-69045728D01*
X119715800Y-69045728D01*
X119591318Y-69057988D01*
X119471620Y-69094298D01*
X119361306Y-69153263D01*
X119264615Y-69232615D01*
X119185263Y-69329306D01*
X119126298Y-69439620D01*
X119089988Y-69559318D01*
X119077728Y-69683800D01*
X119077728Y-69723800D01*
X118554922Y-69723800D01*
X118517599Y-69720124D01*
X118480276Y-69723800D01*
X118480267Y-69723800D01*
X118368614Y-69734797D01*
X118225353Y-69778254D01*
X118093324Y-69848826D01*
X117977599Y-69943799D01*
X117953801Y-69972797D01*
X117697286Y-70229312D01*
X117514735Y-70193000D01*
X117232065Y-70193000D01*
X116954826Y-70248147D01*
X116693673Y-70356320D01*
X116458641Y-70513363D01*
X116258763Y-70713241D01*
X116101720Y-70948273D01*
X115993547Y-71209426D01*
X115938400Y-71486665D01*
X115938400Y-71769335D01*
X115993547Y-72046574D01*
X116101720Y-72307727D01*
X116258763Y-72542759D01*
X116458641Y-72742637D01*
X116661227Y-72878000D01*
X116458641Y-73013363D01*
X116258763Y-73213241D01*
X116101720Y-73448273D01*
X115993547Y-73709426D01*
X115983925Y-73757799D01*
X115870689Y-73560426D01*
X115634246Y-73289325D01*
X115349457Y-73069561D01*
X115027266Y-72909579D01*
X114788005Y-72837005D01*
X114503200Y-72953768D01*
X114503200Y-74498200D01*
X114523200Y-74498200D01*
X114523200Y-74752200D01*
X114503200Y-74752200D01*
X114503200Y-76296632D01*
X114788005Y-76413395D01*
X115027266Y-76340821D01*
X115283076Y-76213800D01*
X119077728Y-76213800D01*
X119089988Y-76338282D01*
X119126298Y-76457980D01*
X119185263Y-76568294D01*
X119264615Y-76664985D01*
X119361306Y-76744337D01*
X119471620Y-76803302D01*
X119591318Y-76839612D01*
X119715800Y-76851872D01*
X119780050Y-76848800D01*
X119938800Y-76690050D01*
X119938800Y-75540800D01*
X119239550Y-75540800D01*
X119080800Y-75699550D01*
X119077728Y-76213800D01*
X115283076Y-76213800D01*
X115349457Y-76180839D01*
X115634246Y-75961075D01*
X115870689Y-75689974D01*
X116049700Y-75377954D01*
X116164399Y-75037006D01*
X116048055Y-74752202D01*
X116078721Y-74752202D01*
X116101720Y-74807727D01*
X116258763Y-75042759D01*
X116458641Y-75242637D01*
X116693673Y-75399680D01*
X116954826Y-75507853D01*
X117232065Y-75563000D01*
X117514735Y-75563000D01*
X117791974Y-75507853D01*
X118053127Y-75399680D01*
X118288159Y-75242637D01*
X118423643Y-75107154D01*
X118491626Y-75175137D01*
X118661144Y-75288405D01*
X118849502Y-75366426D01*
X119049461Y-75406200D01*
X119253339Y-75406200D01*
X119453298Y-75366426D01*
X119641656Y-75288405D01*
X119644058Y-75286800D01*
X119938800Y-75286800D01*
X119938800Y-75266800D01*
X120192800Y-75266800D01*
X120192800Y-75286800D01*
X120212800Y-75286800D01*
X120212800Y-75540800D01*
X120192800Y-75540800D01*
X120192800Y-76690050D01*
X120351550Y-76848800D01*
X120415800Y-76851872D01*
X120540282Y-76839612D01*
X120575801Y-76828838D01*
X120575801Y-77635868D01*
X120572124Y-77673200D01*
X120586798Y-77822185D01*
X120630254Y-77965446D01*
X120700826Y-78097476D01*
X120716193Y-78116200D01*
X120795800Y-78213201D01*
X120824798Y-78236999D01*
X121313650Y-78725851D01*
X121289741Y-78968600D01*
X121315517Y-79230306D01*
X121391853Y-79481954D01*
X121515818Y-79713875D01*
X121682645Y-79917155D01*
X121885925Y-80083982D01*
X122117846Y-80207947D01*
X122213028Y-80236820D01*
X121998841Y-80325539D01*
X121780187Y-80471638D01*
X121594238Y-80657587D01*
X121448139Y-80876241D01*
X121347504Y-81119195D01*
X121296200Y-81377114D01*
X121296200Y-81640086D01*
X121347504Y-81898005D01*
X121448139Y-82140959D01*
X121594238Y-82359613D01*
X121780187Y-82545562D01*
X121998841Y-82691661D01*
X122241795Y-82792296D01*
X122499714Y-82843600D01*
X122762686Y-82843600D01*
X122870044Y-82822245D01*
X125627430Y-85579632D01*
X125556210Y-93140814D01*
X120136121Y-95822071D01*
X120097450Y-95783400D01*
X118948200Y-95783400D01*
X118948200Y-95803400D01*
X118694200Y-95803400D01*
X118694200Y-95783400D01*
X117544950Y-95783400D01*
X117386200Y-95942150D01*
X117383128Y-96456400D01*
X117395388Y-96580882D01*
X117431698Y-96700580D01*
X117490663Y-96810894D01*
X117570015Y-96907585D01*
X117666706Y-96986937D01*
X117721823Y-97016398D01*
X114907600Y-98408563D01*
X114907600Y-94856400D01*
X117383128Y-94856400D01*
X117386200Y-95370650D01*
X117544950Y-95529400D01*
X118694200Y-95529400D01*
X118694200Y-94380150D01*
X118948200Y-94380150D01*
X118948200Y-95529400D01*
X120097450Y-95529400D01*
X120256200Y-95370650D01*
X120259272Y-94856400D01*
X120247012Y-94731918D01*
X120210702Y-94612220D01*
X120151737Y-94501906D01*
X120072385Y-94405215D01*
X119975694Y-94325863D01*
X119865380Y-94266898D01*
X119745682Y-94230588D01*
X119621200Y-94218328D01*
X119106950Y-94221400D01*
X118948200Y-94380150D01*
X118694200Y-94380150D01*
X118535450Y-94221400D01*
X118021200Y-94218328D01*
X117896718Y-94230588D01*
X117777020Y-94266898D01*
X117666706Y-94325863D01*
X117570015Y-94405215D01*
X117490663Y-94501906D01*
X117431698Y-94612220D01*
X117395388Y-94731918D01*
X117383128Y-94856400D01*
X114907600Y-94856400D01*
X114907600Y-92721271D01*
X114909101Y-92706028D01*
X114947813Y-92680162D01*
X115133762Y-92494213D01*
X115279861Y-92275559D01*
X115369294Y-92059650D01*
X115376753Y-92084244D01*
X115487008Y-92321592D01*
X115641449Y-92532870D01*
X115834140Y-92709959D01*
X116057677Y-92846053D01*
X116303470Y-92935922D01*
X116509800Y-92813401D01*
X116509800Y-91770200D01*
X116763800Y-91770200D01*
X116763800Y-92813401D01*
X116970130Y-92935922D01*
X117215923Y-92846053D01*
X117439460Y-92709959D01*
X117597768Y-92564469D01*
X120721136Y-92564469D01*
X120780597Y-92798237D01*
X121019042Y-92909134D01*
X121274540Y-92971383D01*
X121537273Y-92982590D01*
X121797144Y-92942325D01*
X122044166Y-92852135D01*
X122145003Y-92798237D01*
X122204464Y-92564469D01*
X121462800Y-91822805D01*
X120721136Y-92564469D01*
X117597768Y-92564469D01*
X117632151Y-92532870D01*
X117786592Y-92321592D01*
X117896847Y-92084244D01*
X117929516Y-91976529D01*
X117806174Y-91770200D01*
X116763800Y-91770200D01*
X116509800Y-91770200D01*
X116489800Y-91770200D01*
X116489800Y-91717673D01*
X120123410Y-91717673D01*
X120163675Y-91977544D01*
X120253865Y-92224566D01*
X120307763Y-92325403D01*
X120541531Y-92384864D01*
X121283195Y-91643200D01*
X121642405Y-91643200D01*
X122384069Y-92384864D01*
X122617837Y-92325403D01*
X122728734Y-92086958D01*
X122734795Y-92062081D01*
X122763453Y-92156554D01*
X122887418Y-92388475D01*
X123054245Y-92591755D01*
X123257525Y-92758582D01*
X123489446Y-92882547D01*
X123741094Y-92958883D01*
X123937221Y-92978200D01*
X124068379Y-92978200D01*
X124264506Y-92958883D01*
X124516154Y-92882547D01*
X124748075Y-92758582D01*
X124951355Y-92591755D01*
X125118182Y-92388475D01*
X125242147Y-92156554D01*
X125318483Y-91904906D01*
X125344259Y-91643200D01*
X125318483Y-91381494D01*
X125242147Y-91129846D01*
X125118182Y-90897925D01*
X124951355Y-90694645D01*
X124748075Y-90527818D01*
X124516154Y-90403853D01*
X124264506Y-90327517D01*
X124068379Y-90308200D01*
X123937221Y-90308200D01*
X123741094Y-90327517D01*
X123489446Y-90403853D01*
X123257525Y-90527818D01*
X123054245Y-90694645D01*
X122887418Y-90897925D01*
X122763453Y-91129846D01*
X122733100Y-91229907D01*
X122671735Y-91061834D01*
X122617837Y-90960997D01*
X122384069Y-90901536D01*
X121642405Y-91643200D01*
X121283195Y-91643200D01*
X120541531Y-90901536D01*
X120307763Y-90960997D01*
X120196866Y-91199442D01*
X120134617Y-91454940D01*
X120123410Y-91717673D01*
X116489800Y-91717673D01*
X116489800Y-91516200D01*
X116509800Y-91516200D01*
X116509800Y-90472999D01*
X116763800Y-90472999D01*
X116763800Y-91516200D01*
X117806174Y-91516200D01*
X117929516Y-91309871D01*
X117896847Y-91202156D01*
X117786592Y-90964808D01*
X117632151Y-90753530D01*
X117597769Y-90721931D01*
X120721136Y-90721931D01*
X121462800Y-91463595D01*
X122204464Y-90721931D01*
X122145003Y-90488163D01*
X121906558Y-90377266D01*
X121651060Y-90315017D01*
X121388327Y-90303810D01*
X121128456Y-90344075D01*
X120881434Y-90434265D01*
X120780597Y-90488163D01*
X120721136Y-90721931D01*
X117597769Y-90721931D01*
X117439460Y-90576441D01*
X117215923Y-90440347D01*
X116970130Y-90350478D01*
X116763800Y-90472999D01*
X116509800Y-90472999D01*
X116303470Y-90350478D01*
X116057677Y-90440347D01*
X115834140Y-90576441D01*
X115641449Y-90753530D01*
X115487008Y-90964808D01*
X115376753Y-91202156D01*
X115369294Y-91226750D01*
X115279861Y-91010841D01*
X115133762Y-90792187D01*
X114947813Y-90606238D01*
X114729159Y-90460139D01*
X114486205Y-90359504D01*
X114228286Y-90308200D01*
X113965314Y-90308200D01*
X113707395Y-90359504D01*
X113464441Y-90460139D01*
X113245787Y-90606238D01*
X113059838Y-90792187D01*
X112913739Y-91010841D01*
X112813104Y-91253795D01*
X112761800Y-91511714D01*
X112761800Y-91774686D01*
X112813104Y-92032605D01*
X112913739Y-92275559D01*
X113059838Y-92494213D01*
X113245787Y-92680162D01*
X113344233Y-92745941D01*
X113347798Y-92782135D01*
X113357282Y-92813401D01*
X113387600Y-92913349D01*
X113387601Y-99160489D01*
X110768230Y-100456263D01*
X110692780Y-87327806D01*
X112511801Y-87327806D01*
X112626500Y-87668754D01*
X112805511Y-87980774D01*
X113041954Y-88251875D01*
X113326743Y-88471639D01*
X113648934Y-88631621D01*
X113888195Y-88704195D01*
X114173000Y-88587432D01*
X114173000Y-87043000D01*
X114427000Y-87043000D01*
X114427000Y-88587432D01*
X114711805Y-88704195D01*
X114951066Y-88631621D01*
X115273257Y-88471639D01*
X115558046Y-88251875D01*
X115794489Y-87980774D01*
X115973500Y-87668754D01*
X116088199Y-87327806D01*
X115971854Y-87043000D01*
X114427000Y-87043000D01*
X114173000Y-87043000D01*
X112628146Y-87043000D01*
X112511801Y-87327806D01*
X110692780Y-87327806D01*
X110680501Y-85191261D01*
X111639400Y-85191261D01*
X111639400Y-85395139D01*
X111679174Y-85595098D01*
X111757195Y-85783456D01*
X111870463Y-85952974D01*
X112014626Y-86097137D01*
X112184144Y-86210405D01*
X112372502Y-86288426D01*
X112571099Y-86327929D01*
X112511801Y-86504194D01*
X112628146Y-86789000D01*
X114173000Y-86789000D01*
X114173000Y-85244568D01*
X114427000Y-85244568D01*
X114427000Y-86789000D01*
X115971854Y-86789000D01*
X116088199Y-86504194D01*
X115973500Y-86163246D01*
X115794489Y-85851226D01*
X115558046Y-85580125D01*
X115273257Y-85360361D01*
X114951066Y-85200379D01*
X114711805Y-85127805D01*
X114427000Y-85244568D01*
X114173000Y-85244568D01*
X113906920Y-85135482D01*
X117188460Y-81853942D01*
X117174941Y-81991200D01*
X117200717Y-82252906D01*
X117277053Y-82504554D01*
X117401018Y-82736475D01*
X117567845Y-82939755D01*
X117771125Y-83106582D01*
X118003046Y-83230547D01*
X118254694Y-83306883D01*
X118450821Y-83326200D01*
X118581979Y-83326200D01*
X118778106Y-83306883D01*
X119029754Y-83230547D01*
X119261675Y-83106582D01*
X119464955Y-82939755D01*
X119631782Y-82736475D01*
X119755747Y-82504554D01*
X119832083Y-82252906D01*
X119857859Y-81991200D01*
X119832083Y-81729494D01*
X119755747Y-81477846D01*
X119631782Y-81245925D01*
X119464955Y-81042645D01*
X119261675Y-80875818D01*
X119029754Y-80751853D01*
X118934572Y-80722980D01*
X119148759Y-80634261D01*
X119367413Y-80488162D01*
X119553362Y-80302213D01*
X119699461Y-80083559D01*
X119800096Y-79840605D01*
X119851400Y-79582686D01*
X119851400Y-79319714D01*
X119800096Y-79061795D01*
X119699461Y-78818841D01*
X119553362Y-78600187D01*
X119367413Y-78414238D01*
X119148759Y-78268139D01*
X118905805Y-78167504D01*
X118647886Y-78116200D01*
X118384914Y-78116200D01*
X118126995Y-78167504D01*
X117884041Y-78268139D01*
X117665387Y-78414238D01*
X117479438Y-78600187D01*
X117333339Y-78818841D01*
X117232704Y-79061795D01*
X117181400Y-79319714D01*
X117181400Y-79582686D01*
X117202755Y-79690043D01*
X112634599Y-84258200D01*
X112572461Y-84258200D01*
X112372502Y-84297974D01*
X112184144Y-84375995D01*
X112014626Y-84489263D01*
X111870463Y-84633426D01*
X111757195Y-84802944D01*
X111679174Y-84991302D01*
X111639400Y-85191261D01*
X110680501Y-85191261D01*
X110622143Y-75037006D01*
X112588001Y-75037006D01*
X112702700Y-75377954D01*
X112881711Y-75689974D01*
X113118154Y-75961075D01*
X113402943Y-76180839D01*
X113725134Y-76340821D01*
X113964395Y-76413395D01*
X114249200Y-76296632D01*
X114249200Y-74752200D01*
X112704346Y-74752200D01*
X112588001Y-75037006D01*
X110622143Y-75037006D01*
X110617410Y-74213394D01*
X112588001Y-74213394D01*
X112704346Y-74498200D01*
X114249200Y-74498200D01*
X114249200Y-72953768D01*
X113964395Y-72837005D01*
X113725134Y-72909579D01*
X113402943Y-73069561D01*
X113118154Y-73289325D01*
X112881711Y-73560426D01*
X112702700Y-73872446D01*
X112588001Y-74213394D01*
X110617410Y-74213394D01*
X110541532Y-61010800D01*
X127304595Y-61010800D01*
X127254127Y-92300873D01*
X127254127Y-92300873D01*
G37*
X127254127Y-92300873D02*
X127083391Y-92385334D01*
X127150047Y-85308712D01*
X127154077Y-85267800D01*
X127147084Y-85196798D01*
X127140773Y-85125876D01*
X127139757Y-85122410D01*
X127139403Y-85118814D01*
X127118703Y-85050575D01*
X127098667Y-84982212D01*
X127096995Y-84979013D01*
X127095946Y-84975553D01*
X127062302Y-84912610D01*
X127029341Y-84849524D01*
X127027080Y-84846715D01*
X127025374Y-84843524D01*
X126980099Y-84788356D01*
X126935463Y-84732910D01*
X126903946Y-84706545D01*
X123944845Y-81747444D01*
X123966200Y-81640086D01*
X123966200Y-81377114D01*
X123944845Y-81269756D01*
X124167198Y-81047403D01*
X124196202Y-81023600D01*
X124291175Y-80907875D01*
X124361747Y-80775846D01*
X124405204Y-80632585D01*
X124416201Y-80520932D01*
X124416201Y-80520923D01*
X124419877Y-80483600D01*
X124416201Y-80446277D01*
X124416201Y-77551523D01*
X124419877Y-77514200D01*
X124416201Y-77476877D01*
X124416201Y-77476868D01*
X124405204Y-77365215D01*
X124361747Y-77221954D01*
X124291175Y-77089925D01*
X124196202Y-76974200D01*
X124167205Y-76950403D01*
X124068674Y-76851872D01*
X124225800Y-76851872D01*
X124350282Y-76839612D01*
X124469980Y-76803302D01*
X124580294Y-76744337D01*
X124676985Y-76664985D01*
X124756337Y-76568294D01*
X124815302Y-76457980D01*
X124851612Y-76338282D01*
X124863872Y-76213800D01*
X124863872Y-74613800D01*
X124851612Y-74489318D01*
X124815302Y-74369620D01*
X124756337Y-74259306D01*
X124676985Y-74162615D01*
X124635800Y-74128815D01*
X124635800Y-73928847D01*
X124640605Y-73921656D01*
X124718626Y-73733298D01*
X124758400Y-73533339D01*
X124758400Y-73329461D01*
X124718626Y-73129502D01*
X124640605Y-72941144D01*
X124527337Y-72771626D01*
X124383174Y-72627463D01*
X124213656Y-72514195D01*
X124025298Y-72436174D01*
X123825339Y-72396400D01*
X123621461Y-72396400D01*
X123421502Y-72436174D01*
X123233144Y-72514195D01*
X123063626Y-72627463D01*
X122919463Y-72771626D01*
X122806195Y-72941144D01*
X122728174Y-73129502D01*
X122688400Y-73329461D01*
X122688400Y-73533339D01*
X122728174Y-73733298D01*
X122806195Y-73921656D01*
X122842325Y-73975728D01*
X122255800Y-73975728D01*
X122131318Y-73987988D01*
X122011620Y-74024298D01*
X121970800Y-74046117D01*
X121929980Y-74024298D01*
X121810282Y-73987988D01*
X121685800Y-73975728D01*
X120985800Y-73975728D01*
X120861318Y-73987988D01*
X120741620Y-74024298D01*
X120700800Y-74046117D01*
X120659980Y-74024298D01*
X120606367Y-74008035D01*
X122692530Y-71921872D01*
X122955800Y-71921872D01*
X123080282Y-71909612D01*
X123199980Y-71873302D01*
X123240800Y-71851483D01*
X123281620Y-71873302D01*
X123401318Y-71909612D01*
X123525800Y-71921872D01*
X124225800Y-71921872D01*
X124350282Y-71909612D01*
X124469980Y-71873302D01*
X124580294Y-71814337D01*
X124676985Y-71734985D01*
X124756337Y-71638294D01*
X124815302Y-71527980D01*
X124851612Y-71408282D01*
X124863872Y-71283800D01*
X124863872Y-69683800D01*
X124851612Y-69559318D01*
X124815302Y-69439620D01*
X124756337Y-69329306D01*
X124676985Y-69232615D01*
X124580294Y-69153263D01*
X124469980Y-69094298D01*
X124350282Y-69057988D01*
X124225800Y-69045728D01*
X123525800Y-69045728D01*
X123401318Y-69057988D01*
X123281620Y-69094298D01*
X123240800Y-69116117D01*
X123199980Y-69094298D01*
X123080282Y-69057988D01*
X122955800Y-69045728D01*
X122370800Y-69045728D01*
X122370800Y-68738390D01*
X122375807Y-68687555D01*
X122370800Y-68636717D01*
X122355824Y-68484660D01*
X122296641Y-68289562D01*
X122251904Y-68205864D01*
X122200534Y-68109757D01*
X122103603Y-67991647D01*
X122071196Y-67952159D01*
X122031708Y-67919752D01*
X119621068Y-65509113D01*
X119710200Y-65419981D01*
X119931574Y-65641355D01*
X120201001Y-65821380D01*
X120500371Y-65945383D01*
X120818182Y-66008600D01*
X121142218Y-66008600D01*
X121460029Y-65945383D01*
X121759399Y-65821380D01*
X122028826Y-65641355D01*
X122257955Y-65412226D01*
X122437980Y-65142799D01*
X122561983Y-64843429D01*
X122625200Y-64525618D01*
X122625200Y-64201582D01*
X122561983Y-63883771D01*
X122437980Y-63584401D01*
X122257955Y-63314974D01*
X122028826Y-63085845D01*
X121759399Y-62905820D01*
X121460029Y-62781817D01*
X121142218Y-62718600D01*
X120818182Y-62718600D01*
X120500371Y-62781817D01*
X120201001Y-62905820D01*
X119931574Y-63085845D01*
X119710200Y-63307219D01*
X119488826Y-63085845D01*
X119219399Y-62905820D01*
X118920029Y-62781817D01*
X118602218Y-62718600D01*
X118278182Y-62718600D01*
X117960371Y-62781817D01*
X117661001Y-62905820D01*
X117391574Y-63085845D01*
X117162445Y-63314974D01*
X117051510Y-63481000D01*
X115815371Y-63481000D01*
X115725338Y-63346256D01*
X115469744Y-63090662D01*
X115169199Y-62889844D01*
X114835250Y-62751518D01*
X114480732Y-62681000D01*
X114119268Y-62681000D01*
X113764750Y-62751518D01*
X113430801Y-62889844D01*
X113130256Y-63090662D01*
X112874662Y-63346256D01*
X112673844Y-63646801D01*
X112535518Y-63980750D01*
X112465000Y-64335268D01*
X112465000Y-64696732D01*
X112535518Y-65051250D01*
X112673844Y-65385199D01*
X112874662Y-65685744D01*
X113130256Y-65941338D01*
X113430801Y-66142156D01*
X113764750Y-66280482D01*
X114119268Y-66351000D01*
X114480732Y-66351000D01*
X114835250Y-66280482D01*
X115169199Y-66142156D01*
X115469744Y-65941338D01*
X115725338Y-65685744D01*
X115815371Y-65551000D01*
X117301219Y-65551000D01*
X117391574Y-65641355D01*
X117405201Y-65650460D01*
X117405201Y-65741118D01*
X117400194Y-65791955D01*
X117420177Y-65994850D01*
X117479360Y-66189948D01*
X117575466Y-66369752D01*
X117672397Y-66487862D01*
X117704805Y-66527351D01*
X117744292Y-66559757D01*
X120230262Y-69045728D01*
X119715800Y-69045728D01*
X119591318Y-69057988D01*
X119471620Y-69094298D01*
X119361306Y-69153263D01*
X119264615Y-69232615D01*
X119185263Y-69329306D01*
X119126298Y-69439620D01*
X119089988Y-69559318D01*
X119077728Y-69683800D01*
X119077728Y-69723800D01*
X118554922Y-69723800D01*
X118517599Y-69720124D01*
X118480276Y-69723800D01*
X118480267Y-69723800D01*
X118368614Y-69734797D01*
X118225353Y-69778254D01*
X118093324Y-69848826D01*
X117977599Y-69943799D01*
X117953801Y-69972797D01*
X117697286Y-70229312D01*
X117514735Y-70193000D01*
X117232065Y-70193000D01*
X116954826Y-70248147D01*
X116693673Y-70356320D01*
X116458641Y-70513363D01*
X116258763Y-70713241D01*
X116101720Y-70948273D01*
X115993547Y-71209426D01*
X115938400Y-71486665D01*
X115938400Y-71769335D01*
X115993547Y-72046574D01*
X116101720Y-72307727D01*
X116258763Y-72542759D01*
X116458641Y-72742637D01*
X116661227Y-72878000D01*
X116458641Y-73013363D01*
X116258763Y-73213241D01*
X116101720Y-73448273D01*
X115993547Y-73709426D01*
X115983925Y-73757799D01*
X115870689Y-73560426D01*
X115634246Y-73289325D01*
X115349457Y-73069561D01*
X115027266Y-72909579D01*
X114788005Y-72837005D01*
X114503200Y-72953768D01*
X114503200Y-74498200D01*
X114523200Y-74498200D01*
X114523200Y-74752200D01*
X114503200Y-74752200D01*
X114503200Y-76296632D01*
X114788005Y-76413395D01*
X115027266Y-76340821D01*
X115283076Y-76213800D01*
X119077728Y-76213800D01*
X119089988Y-76338282D01*
X119126298Y-76457980D01*
X119185263Y-76568294D01*
X119264615Y-76664985D01*
X119361306Y-76744337D01*
X119471620Y-76803302D01*
X119591318Y-76839612D01*
X119715800Y-76851872D01*
X119780050Y-76848800D01*
X119938800Y-76690050D01*
X119938800Y-75540800D01*
X119239550Y-75540800D01*
X119080800Y-75699550D01*
X119077728Y-76213800D01*
X115283076Y-76213800D01*
X115349457Y-76180839D01*
X115634246Y-75961075D01*
X115870689Y-75689974D01*
X116049700Y-75377954D01*
X116164399Y-75037006D01*
X116048055Y-74752202D01*
X116078721Y-74752202D01*
X116101720Y-74807727D01*
X116258763Y-75042759D01*
X116458641Y-75242637D01*
X116693673Y-75399680D01*
X116954826Y-75507853D01*
X117232065Y-75563000D01*
X117514735Y-75563000D01*
X117791974Y-75507853D01*
X118053127Y-75399680D01*
X118288159Y-75242637D01*
X118423643Y-75107154D01*
X118491626Y-75175137D01*
X118661144Y-75288405D01*
X118849502Y-75366426D01*
X119049461Y-75406200D01*
X119253339Y-75406200D01*
X119453298Y-75366426D01*
X119641656Y-75288405D01*
X119644058Y-75286800D01*
X119938800Y-75286800D01*
X119938800Y-75266800D01*
X120192800Y-75266800D01*
X120192800Y-75286800D01*
X120212800Y-75286800D01*
X120212800Y-75540800D01*
X120192800Y-75540800D01*
X120192800Y-76690050D01*
X120351550Y-76848800D01*
X120415800Y-76851872D01*
X120540282Y-76839612D01*
X120575801Y-76828838D01*
X120575801Y-77635868D01*
X120572124Y-77673200D01*
X120586798Y-77822185D01*
X120630254Y-77965446D01*
X120700826Y-78097476D01*
X120716193Y-78116200D01*
X120795800Y-78213201D01*
X120824798Y-78236999D01*
X121313650Y-78725851D01*
X121289741Y-78968600D01*
X121315517Y-79230306D01*
X121391853Y-79481954D01*
X121515818Y-79713875D01*
X121682645Y-79917155D01*
X121885925Y-80083982D01*
X122117846Y-80207947D01*
X122213028Y-80236820D01*
X121998841Y-80325539D01*
X121780187Y-80471638D01*
X121594238Y-80657587D01*
X121448139Y-80876241D01*
X121347504Y-81119195D01*
X121296200Y-81377114D01*
X121296200Y-81640086D01*
X121347504Y-81898005D01*
X121448139Y-82140959D01*
X121594238Y-82359613D01*
X121780187Y-82545562D01*
X121998841Y-82691661D01*
X122241795Y-82792296D01*
X122499714Y-82843600D01*
X122762686Y-82843600D01*
X122870044Y-82822245D01*
X125627430Y-85579632D01*
X125556210Y-93140814D01*
X120136121Y-95822071D01*
X120097450Y-95783400D01*
X118948200Y-95783400D01*
X118948200Y-95803400D01*
X118694200Y-95803400D01*
X118694200Y-95783400D01*
X117544950Y-95783400D01*
X117386200Y-95942150D01*
X117383128Y-96456400D01*
X117395388Y-96580882D01*
X117431698Y-96700580D01*
X117490663Y-96810894D01*
X117570015Y-96907585D01*
X117666706Y-96986937D01*
X117721823Y-97016398D01*
X114907600Y-98408563D01*
X114907600Y-94856400D01*
X117383128Y-94856400D01*
X117386200Y-95370650D01*
X117544950Y-95529400D01*
X118694200Y-95529400D01*
X118694200Y-94380150D01*
X118948200Y-94380150D01*
X118948200Y-95529400D01*
X120097450Y-95529400D01*
X120256200Y-95370650D01*
X120259272Y-94856400D01*
X120247012Y-94731918D01*
X120210702Y-94612220D01*
X120151737Y-94501906D01*
X120072385Y-94405215D01*
X119975694Y-94325863D01*
X119865380Y-94266898D01*
X119745682Y-94230588D01*
X119621200Y-94218328D01*
X119106950Y-94221400D01*
X118948200Y-94380150D01*
X118694200Y-94380150D01*
X118535450Y-94221400D01*
X118021200Y-94218328D01*
X117896718Y-94230588D01*
X117777020Y-94266898D01*
X117666706Y-94325863D01*
X117570015Y-94405215D01*
X117490663Y-94501906D01*
X117431698Y-94612220D01*
X117395388Y-94731918D01*
X117383128Y-94856400D01*
X114907600Y-94856400D01*
X114907600Y-92721271D01*
X114909101Y-92706028D01*
X114947813Y-92680162D01*
X115133762Y-92494213D01*
X115279861Y-92275559D01*
X115369294Y-92059650D01*
X115376753Y-92084244D01*
X115487008Y-92321592D01*
X115641449Y-92532870D01*
X115834140Y-92709959D01*
X116057677Y-92846053D01*
X116303470Y-92935922D01*
X116509800Y-92813401D01*
X116509800Y-91770200D01*
X116763800Y-91770200D01*
X116763800Y-92813401D01*
X116970130Y-92935922D01*
X117215923Y-92846053D01*
X117439460Y-92709959D01*
X117597768Y-92564469D01*
X120721136Y-92564469D01*
X120780597Y-92798237D01*
X121019042Y-92909134D01*
X121274540Y-92971383D01*
X121537273Y-92982590D01*
X121797144Y-92942325D01*
X122044166Y-92852135D01*
X122145003Y-92798237D01*
X122204464Y-92564469D01*
X121462800Y-91822805D01*
X120721136Y-92564469D01*
X117597768Y-92564469D01*
X117632151Y-92532870D01*
X117786592Y-92321592D01*
X117896847Y-92084244D01*
X117929516Y-91976529D01*
X117806174Y-91770200D01*
X116763800Y-91770200D01*
X116509800Y-91770200D01*
X116489800Y-91770200D01*
X116489800Y-91717673D01*
X120123410Y-91717673D01*
X120163675Y-91977544D01*
X120253865Y-92224566D01*
X120307763Y-92325403D01*
X120541531Y-92384864D01*
X121283195Y-91643200D01*
X121642405Y-91643200D01*
X122384069Y-92384864D01*
X122617837Y-92325403D01*
X122728734Y-92086958D01*
X122734795Y-92062081D01*
X122763453Y-92156554D01*
X122887418Y-92388475D01*
X123054245Y-92591755D01*
X123257525Y-92758582D01*
X123489446Y-92882547D01*
X123741094Y-92958883D01*
X123937221Y-92978200D01*
X124068379Y-92978200D01*
X124264506Y-92958883D01*
X124516154Y-92882547D01*
X124748075Y-92758582D01*
X124951355Y-92591755D01*
X125118182Y-92388475D01*
X125242147Y-92156554D01*
X125318483Y-91904906D01*
X125344259Y-91643200D01*
X125318483Y-91381494D01*
X125242147Y-91129846D01*
X125118182Y-90897925D01*
X124951355Y-90694645D01*
X124748075Y-90527818D01*
X124516154Y-90403853D01*
X124264506Y-90327517D01*
X124068379Y-90308200D01*
X123937221Y-90308200D01*
X123741094Y-90327517D01*
X123489446Y-90403853D01*
X123257525Y-90527818D01*
X123054245Y-90694645D01*
X122887418Y-90897925D01*
X122763453Y-91129846D01*
X122733100Y-91229907D01*
X122671735Y-91061834D01*
X122617837Y-90960997D01*
X122384069Y-90901536D01*
X121642405Y-91643200D01*
X121283195Y-91643200D01*
X120541531Y-90901536D01*
X120307763Y-90960997D01*
X120196866Y-91199442D01*
X120134617Y-91454940D01*
X120123410Y-91717673D01*
X116489800Y-91717673D01*
X116489800Y-91516200D01*
X116509800Y-91516200D01*
X116509800Y-90472999D01*
X116763800Y-90472999D01*
X116763800Y-91516200D01*
X117806174Y-91516200D01*
X117929516Y-91309871D01*
X117896847Y-91202156D01*
X117786592Y-90964808D01*
X117632151Y-90753530D01*
X117597769Y-90721931D01*
X120721136Y-90721931D01*
X121462800Y-91463595D01*
X122204464Y-90721931D01*
X122145003Y-90488163D01*
X121906558Y-90377266D01*
X121651060Y-90315017D01*
X121388327Y-90303810D01*
X121128456Y-90344075D01*
X120881434Y-90434265D01*
X120780597Y-90488163D01*
X120721136Y-90721931D01*
X117597769Y-90721931D01*
X117439460Y-90576441D01*
X117215923Y-90440347D01*
X116970130Y-90350478D01*
X116763800Y-90472999D01*
X116509800Y-90472999D01*
X116303470Y-90350478D01*
X116057677Y-90440347D01*
X115834140Y-90576441D01*
X115641449Y-90753530D01*
X115487008Y-90964808D01*
X115376753Y-91202156D01*
X115369294Y-91226750D01*
X115279861Y-91010841D01*
X115133762Y-90792187D01*
X114947813Y-90606238D01*
X114729159Y-90460139D01*
X114486205Y-90359504D01*
X114228286Y-90308200D01*
X113965314Y-90308200D01*
X113707395Y-90359504D01*
X113464441Y-90460139D01*
X113245787Y-90606238D01*
X113059838Y-90792187D01*
X112913739Y-91010841D01*
X112813104Y-91253795D01*
X112761800Y-91511714D01*
X112761800Y-91774686D01*
X112813104Y-92032605D01*
X112913739Y-92275559D01*
X113059838Y-92494213D01*
X113245787Y-92680162D01*
X113344233Y-92745941D01*
X113347798Y-92782135D01*
X113357282Y-92813401D01*
X113387600Y-92913349D01*
X113387601Y-99160489D01*
X110768230Y-100456263D01*
X110692780Y-87327806D01*
X112511801Y-87327806D01*
X112626500Y-87668754D01*
X112805511Y-87980774D01*
X113041954Y-88251875D01*
X113326743Y-88471639D01*
X113648934Y-88631621D01*
X113888195Y-88704195D01*
X114173000Y-88587432D01*
X114173000Y-87043000D01*
X114427000Y-87043000D01*
X114427000Y-88587432D01*
X114711805Y-88704195D01*
X114951066Y-88631621D01*
X115273257Y-88471639D01*
X115558046Y-88251875D01*
X115794489Y-87980774D01*
X115973500Y-87668754D01*
X116088199Y-87327806D01*
X115971854Y-87043000D01*
X114427000Y-87043000D01*
X114173000Y-87043000D01*
X112628146Y-87043000D01*
X112511801Y-87327806D01*
X110692780Y-87327806D01*
X110680501Y-85191261D01*
X111639400Y-85191261D01*
X111639400Y-85395139D01*
X111679174Y-85595098D01*
X111757195Y-85783456D01*
X111870463Y-85952974D01*
X112014626Y-86097137D01*
X112184144Y-86210405D01*
X112372502Y-86288426D01*
X112571099Y-86327929D01*
X112511801Y-86504194D01*
X112628146Y-86789000D01*
X114173000Y-86789000D01*
X114173000Y-85244568D01*
X114427000Y-85244568D01*
X114427000Y-86789000D01*
X115971854Y-86789000D01*
X116088199Y-86504194D01*
X115973500Y-86163246D01*
X115794489Y-85851226D01*
X115558046Y-85580125D01*
X115273257Y-85360361D01*
X114951066Y-85200379D01*
X114711805Y-85127805D01*
X114427000Y-85244568D01*
X114173000Y-85244568D01*
X113906920Y-85135482D01*
X117188460Y-81853942D01*
X117174941Y-81991200D01*
X117200717Y-82252906D01*
X117277053Y-82504554D01*
X117401018Y-82736475D01*
X117567845Y-82939755D01*
X117771125Y-83106582D01*
X118003046Y-83230547D01*
X118254694Y-83306883D01*
X118450821Y-83326200D01*
X118581979Y-83326200D01*
X118778106Y-83306883D01*
X119029754Y-83230547D01*
X119261675Y-83106582D01*
X119464955Y-82939755D01*
X119631782Y-82736475D01*
X119755747Y-82504554D01*
X119832083Y-82252906D01*
X119857859Y-81991200D01*
X119832083Y-81729494D01*
X119755747Y-81477846D01*
X119631782Y-81245925D01*
X119464955Y-81042645D01*
X119261675Y-80875818D01*
X119029754Y-80751853D01*
X118934572Y-80722980D01*
X119148759Y-80634261D01*
X119367413Y-80488162D01*
X119553362Y-80302213D01*
X119699461Y-80083559D01*
X119800096Y-79840605D01*
X119851400Y-79582686D01*
X119851400Y-79319714D01*
X119800096Y-79061795D01*
X119699461Y-78818841D01*
X119553362Y-78600187D01*
X119367413Y-78414238D01*
X119148759Y-78268139D01*
X118905805Y-78167504D01*
X118647886Y-78116200D01*
X118384914Y-78116200D01*
X118126995Y-78167504D01*
X117884041Y-78268139D01*
X117665387Y-78414238D01*
X117479438Y-78600187D01*
X117333339Y-78818841D01*
X117232704Y-79061795D01*
X117181400Y-79319714D01*
X117181400Y-79582686D01*
X117202755Y-79690043D01*
X112634599Y-84258200D01*
X112572461Y-84258200D01*
X112372502Y-84297974D01*
X112184144Y-84375995D01*
X112014626Y-84489263D01*
X111870463Y-84633426D01*
X111757195Y-84802944D01*
X111679174Y-84991302D01*
X111639400Y-85191261D01*
X110680501Y-85191261D01*
X110622143Y-75037006D01*
X112588001Y-75037006D01*
X112702700Y-75377954D01*
X112881711Y-75689974D01*
X113118154Y-75961075D01*
X113402943Y-76180839D01*
X113725134Y-76340821D01*
X113964395Y-76413395D01*
X114249200Y-76296632D01*
X114249200Y-74752200D01*
X112704346Y-74752200D01*
X112588001Y-75037006D01*
X110622143Y-75037006D01*
X110617410Y-74213394D01*
X112588001Y-74213394D01*
X112704346Y-74498200D01*
X114249200Y-74498200D01*
X114249200Y-72953768D01*
X113964395Y-72837005D01*
X113725134Y-72909579D01*
X113402943Y-73069561D01*
X113118154Y-73289325D01*
X112881711Y-73560426D01*
X112702700Y-73872446D01*
X112588001Y-74213394D01*
X110617410Y-74213394D01*
X110541532Y-61010800D01*
X127304595Y-61010800D01*
X127254127Y-92300873D01*
G36*
X113201108Y-126701597D02*
G01*
X113075886Y-126768529D01*
X113004303Y-127012498D01*
X113817400Y-127825595D01*
X114630497Y-127012498D01*
X114558914Y-126768529D01*
X114303404Y-126647629D01*
X114189191Y-126619000D01*
X116364228Y-126619000D01*
X116339853Y-131225899D01*
X116183722Y-131354032D01*
X115744582Y-130475756D01*
X115714950Y-130413948D01*
X115688654Y-130378880D01*
X115665300Y-130341779D01*
X115643848Y-130319126D01*
X115625138Y-130294174D01*
X115592507Y-130264910D01*
X115562362Y-130233077D01*
X115536910Y-130215049D01*
X115513686Y-130194222D01*
X115475960Y-130171880D01*
X115440196Y-130146548D01*
X115411718Y-130133833D01*
X115384874Y-130117935D01*
X115343520Y-130103383D01*
X115303495Y-130085513D01*
X115236669Y-130070318D01*
X115185286Y-130057735D01*
X115089080Y-129825473D01*
X114932037Y-129590441D01*
X114732159Y-129390563D01*
X114531531Y-129256508D01*
X114558914Y-129241871D01*
X114630497Y-128997902D01*
X113817400Y-128184805D01*
X113004303Y-128997902D01*
X113075886Y-129241871D01*
X113104741Y-129255524D01*
X112902641Y-129390563D01*
X112702763Y-129590441D01*
X112545720Y-129825473D01*
X112437547Y-130086626D01*
X112382400Y-130363865D01*
X112382400Y-130646535D01*
X112437547Y-130923774D01*
X112545720Y-131184927D01*
X112702763Y-131419959D01*
X112902641Y-131619837D01*
X113137673Y-131776880D01*
X113398826Y-131885053D01*
X113676065Y-131940200D01*
X113958735Y-131940200D01*
X114235974Y-131885053D01*
X114497127Y-131776880D01*
X114645999Y-131677407D01*
X114840570Y-132066550D01*
X115350516Y-134976969D01*
X115355048Y-135022986D01*
X115374263Y-135086330D01*
X115392000Y-135150016D01*
X115395955Y-135157842D01*
X115398505Y-135166247D01*
X115429702Y-135224612D01*
X115459530Y-135283628D01*
X115464941Y-135290537D01*
X115469077Y-135298276D01*
X115511050Y-135349421D01*
X115551829Y-135401496D01*
X115558481Y-135407215D01*
X115564050Y-135414001D01*
X115615186Y-135455967D01*
X115665348Y-135499094D01*
X115672993Y-135503408D01*
X115679775Y-135508974D01*
X115738133Y-135540168D01*
X115795728Y-135572669D01*
X115804059Y-135575406D01*
X115811804Y-135579546D01*
X115875123Y-135598753D01*
X115937955Y-135619396D01*
X115946669Y-135620456D01*
X115955065Y-135623003D01*
X115991260Y-135626568D01*
X116057038Y-135725013D01*
X116242987Y-135910962D01*
X116461641Y-136057061D01*
X116704595Y-136157696D01*
X116962514Y-136209000D01*
X117225486Y-136209000D01*
X117483405Y-136157696D01*
X117726359Y-136057061D01*
X117945013Y-135910962D01*
X118130962Y-135725013D01*
X118277061Y-135506359D01*
X118377696Y-135263405D01*
X118429000Y-135005486D01*
X118429000Y-134742514D01*
X118377696Y-134484595D01*
X118277061Y-134241641D01*
X118130962Y-134022987D01*
X117945013Y-133837038D01*
X117726359Y-133690939D01*
X117512172Y-133602220D01*
X117607354Y-133573347D01*
X117839275Y-133449382D01*
X118042555Y-133282555D01*
X118209382Y-133079275D01*
X118333347Y-132847354D01*
X118409683Y-132595706D01*
X118435459Y-132334000D01*
X118409683Y-132072294D01*
X118333347Y-131820646D01*
X118209382Y-131588725D01*
X118042555Y-131385445D01*
X117859822Y-131235480D01*
X117872926Y-128758785D01*
X117947518Y-128781412D01*
X118072000Y-128793672D01*
X118751707Y-128793672D01*
X120037734Y-131317913D01*
X119955445Y-131385445D01*
X119788618Y-131588725D01*
X119664653Y-131820646D01*
X119588317Y-132072294D01*
X119562541Y-132334000D01*
X119588317Y-132595706D01*
X119664653Y-132847354D01*
X119788618Y-133079275D01*
X119955445Y-133282555D01*
X120158725Y-133449382D01*
X120390646Y-133573347D01*
X120485828Y-133602220D01*
X120271641Y-133690939D01*
X120052987Y-133837038D01*
X119867038Y-134022987D01*
X119720939Y-134241641D01*
X119620304Y-134484595D01*
X119569000Y-134742514D01*
X119569000Y-135005486D01*
X119620304Y-135263405D01*
X119720939Y-135506359D01*
X119867038Y-135725013D01*
X120052987Y-135910962D01*
X120144001Y-135971775D01*
X120144000Y-137122677D01*
X120140324Y-137160000D01*
X120144000Y-137197322D01*
X120144000Y-137197332D01*
X120154997Y-137308985D01*
X120181074Y-137394950D01*
X120198454Y-137452246D01*
X120269026Y-137584276D01*
X120303288Y-137626024D01*
X120363999Y-137700001D01*
X120393003Y-137723804D01*
X120536438Y-137867239D01*
X120536438Y-139430255D01*
X120558301Y-139652232D01*
X120588565Y-139752000D01*
X117461112Y-139752000D01*
X117458490Y-138715750D01*
X117299740Y-138557000D01*
X115951000Y-138557000D01*
X115951000Y-138577000D01*
X115697000Y-138577000D01*
X115697000Y-138557000D01*
X115677000Y-138557000D01*
X115677000Y-138328056D01*
X117963950Y-138328056D01*
X117963950Y-138531944D01*
X118003727Y-138731913D01*
X118081751Y-138920280D01*
X118195024Y-139089806D01*
X118339194Y-139233976D01*
X118508720Y-139347249D01*
X118697087Y-139425273D01*
X118897056Y-139465050D01*
X119100944Y-139465050D01*
X119300913Y-139425273D01*
X119489280Y-139347249D01*
X119658806Y-139233976D01*
X119802976Y-139089806D01*
X119916249Y-138920280D01*
X119994273Y-138731913D01*
X120034050Y-138531944D01*
X120034050Y-138328056D01*
X119994273Y-138128087D01*
X119916249Y-137939720D01*
X119802976Y-137770194D01*
X119658806Y-137626024D01*
X119489280Y-137512751D01*
X119300913Y-137434727D01*
X119100944Y-137394950D01*
X118897056Y-137394950D01*
X118697087Y-137434727D01*
X118508720Y-137512751D01*
X118339194Y-137626024D01*
X118195024Y-137770194D01*
X118081751Y-137939720D01*
X118003727Y-138128087D01*
X117963950Y-138328056D01*
X115677000Y-138328056D01*
X115677000Y-138303000D01*
X115697000Y-138303000D01*
X115697000Y-136453750D01*
X115951000Y-136453750D01*
X115951000Y-138303000D01*
X117299740Y-138303000D01*
X117458490Y-138144250D01*
X117461562Y-136930000D01*
X117449302Y-136805518D01*
X117412992Y-136685820D01*
X117354027Y-136575506D01*
X117274675Y-136478815D01*
X117177984Y-136399463D01*
X117067670Y-136340498D01*
X116947972Y-136304188D01*
X116823490Y-136291928D01*
X116109750Y-136295000D01*
X115951000Y-136453750D01*
X115697000Y-136453750D01*
X115538250Y-136295000D01*
X114824510Y-136291928D01*
X114700028Y-136304188D01*
X114580330Y-136340498D01*
X114476600Y-136395944D01*
X114476600Y-133435677D01*
X114480035Y-133400800D01*
X114466327Y-133261616D01*
X114425728Y-133127780D01*
X114359800Y-133004437D01*
X114271075Y-132896325D01*
X114173000Y-132815837D01*
X114173000Y-132334000D01*
X114170560Y-132309224D01*
X114163333Y-132285399D01*
X114151597Y-132263443D01*
X114135803Y-132244197D01*
X114116557Y-132228403D01*
X114094601Y-132216667D01*
X114070776Y-132209440D01*
X114046000Y-132207000D01*
X110871000Y-132207000D01*
X110871000Y-128075712D01*
X112377183Y-128075712D01*
X112418613Y-128355330D01*
X112513797Y-128621492D01*
X112580729Y-128746714D01*
X112824698Y-128818297D01*
X113637795Y-128005200D01*
X113997005Y-128005200D01*
X114810102Y-128818297D01*
X115054071Y-128746714D01*
X115174971Y-128491204D01*
X115243700Y-128217016D01*
X115257617Y-127934688D01*
X115216187Y-127655070D01*
X115121003Y-127388908D01*
X115054071Y-127263686D01*
X114810102Y-127192103D01*
X113997005Y-128005200D01*
X113637795Y-128005200D01*
X112824698Y-127192103D01*
X112580729Y-127263686D01*
X112459829Y-127519196D01*
X112391100Y-127793384D01*
X112377183Y-128075712D01*
X110871000Y-128075712D01*
X110871000Y-126619000D01*
X113432073Y-126619000D01*
X113201108Y-126701597D01*
X113201108Y-126701597D01*
G37*
X113201108Y-126701597D02*
X113075886Y-126768529D01*
X113004303Y-127012498D01*
X113817400Y-127825595D01*
X114630497Y-127012498D01*
X114558914Y-126768529D01*
X114303404Y-126647629D01*
X114189191Y-126619000D01*
X116364228Y-126619000D01*
X116339853Y-131225899D01*
X116183722Y-131354032D01*
X115744582Y-130475756D01*
X115714950Y-130413948D01*
X115688654Y-130378880D01*
X115665300Y-130341779D01*
X115643848Y-130319126D01*
X115625138Y-130294174D01*
X115592507Y-130264910D01*
X115562362Y-130233077D01*
X115536910Y-130215049D01*
X115513686Y-130194222D01*
X115475960Y-130171880D01*
X115440196Y-130146548D01*
X115411718Y-130133833D01*
X115384874Y-130117935D01*
X115343520Y-130103383D01*
X115303495Y-130085513D01*
X115236669Y-130070318D01*
X115185286Y-130057735D01*
X115089080Y-129825473D01*
X114932037Y-129590441D01*
X114732159Y-129390563D01*
X114531531Y-129256508D01*
X114558914Y-129241871D01*
X114630497Y-128997902D01*
X113817400Y-128184805D01*
X113004303Y-128997902D01*
X113075886Y-129241871D01*
X113104741Y-129255524D01*
X112902641Y-129390563D01*
X112702763Y-129590441D01*
X112545720Y-129825473D01*
X112437547Y-130086626D01*
X112382400Y-130363865D01*
X112382400Y-130646535D01*
X112437547Y-130923774D01*
X112545720Y-131184927D01*
X112702763Y-131419959D01*
X112902641Y-131619837D01*
X113137673Y-131776880D01*
X113398826Y-131885053D01*
X113676065Y-131940200D01*
X113958735Y-131940200D01*
X114235974Y-131885053D01*
X114497127Y-131776880D01*
X114645999Y-131677407D01*
X114840570Y-132066550D01*
X115350516Y-134976969D01*
X115355048Y-135022986D01*
X115374263Y-135086330D01*
X115392000Y-135150016D01*
X115395955Y-135157842D01*
X115398505Y-135166247D01*
X115429702Y-135224612D01*
X115459530Y-135283628D01*
X115464941Y-135290537D01*
X115469077Y-135298276D01*
X115511050Y-135349421D01*
X115551829Y-135401496D01*
X115558481Y-135407215D01*
X115564050Y-135414001D01*
X115615186Y-135455967D01*
X115665348Y-135499094D01*
X115672993Y-135503408D01*
X115679775Y-135508974D01*
X115738133Y-135540168D01*
X115795728Y-135572669D01*
X115804059Y-135575406D01*
X115811804Y-135579546D01*
X115875123Y-135598753D01*
X115937955Y-135619396D01*
X115946669Y-135620456D01*
X115955065Y-135623003D01*
X115991260Y-135626568D01*
X116057038Y-135725013D01*
X116242987Y-135910962D01*
X116461641Y-136057061D01*
X116704595Y-136157696D01*
X116962514Y-136209000D01*
X117225486Y-136209000D01*
X117483405Y-136157696D01*
X117726359Y-136057061D01*
X117945013Y-135910962D01*
X118130962Y-135725013D01*
X118277061Y-135506359D01*
X118377696Y-135263405D01*
X118429000Y-135005486D01*
X118429000Y-134742514D01*
X118377696Y-134484595D01*
X118277061Y-134241641D01*
X118130962Y-134022987D01*
X117945013Y-133837038D01*
X117726359Y-133690939D01*
X117512172Y-133602220D01*
X117607354Y-133573347D01*
X117839275Y-133449382D01*
X118042555Y-133282555D01*
X118209382Y-133079275D01*
X118333347Y-132847354D01*
X118409683Y-132595706D01*
X118435459Y-132334000D01*
X118409683Y-132072294D01*
X118333347Y-131820646D01*
X118209382Y-131588725D01*
X118042555Y-131385445D01*
X117859822Y-131235480D01*
X117872926Y-128758785D01*
X117947518Y-128781412D01*
X118072000Y-128793672D01*
X118751707Y-128793672D01*
X120037734Y-131317913D01*
X119955445Y-131385445D01*
X119788618Y-131588725D01*
X119664653Y-131820646D01*
X119588317Y-132072294D01*
X119562541Y-132334000D01*
X119588317Y-132595706D01*
X119664653Y-132847354D01*
X119788618Y-133079275D01*
X119955445Y-133282555D01*
X120158725Y-133449382D01*
X120390646Y-133573347D01*
X120485828Y-133602220D01*
X120271641Y-133690939D01*
X120052987Y-133837038D01*
X119867038Y-134022987D01*
X119720939Y-134241641D01*
X119620304Y-134484595D01*
X119569000Y-134742514D01*
X119569000Y-135005486D01*
X119620304Y-135263405D01*
X119720939Y-135506359D01*
X119867038Y-135725013D01*
X120052987Y-135910962D01*
X120144001Y-135971775D01*
X120144000Y-137122677D01*
X120140324Y-137160000D01*
X120144000Y-137197322D01*
X120144000Y-137197332D01*
X120154997Y-137308985D01*
X120181074Y-137394950D01*
X120198454Y-137452246D01*
X120269026Y-137584276D01*
X120303288Y-137626024D01*
X120363999Y-137700001D01*
X120393003Y-137723804D01*
X120536438Y-137867239D01*
X120536438Y-139430255D01*
X120558301Y-139652232D01*
X120588565Y-139752000D01*
X117461112Y-139752000D01*
X117458490Y-138715750D01*
X117299740Y-138557000D01*
X115951000Y-138557000D01*
X115951000Y-138577000D01*
X115697000Y-138577000D01*
X115697000Y-138557000D01*
X115677000Y-138557000D01*
X115677000Y-138328056D01*
X117963950Y-138328056D01*
X117963950Y-138531944D01*
X118003727Y-138731913D01*
X118081751Y-138920280D01*
X118195024Y-139089806D01*
X118339194Y-139233976D01*
X118508720Y-139347249D01*
X118697087Y-139425273D01*
X118897056Y-139465050D01*
X119100944Y-139465050D01*
X119300913Y-139425273D01*
X119489280Y-139347249D01*
X119658806Y-139233976D01*
X119802976Y-139089806D01*
X119916249Y-138920280D01*
X119994273Y-138731913D01*
X120034050Y-138531944D01*
X120034050Y-138328056D01*
X119994273Y-138128087D01*
X119916249Y-137939720D01*
X119802976Y-137770194D01*
X119658806Y-137626024D01*
X119489280Y-137512751D01*
X119300913Y-137434727D01*
X119100944Y-137394950D01*
X118897056Y-137394950D01*
X118697087Y-137434727D01*
X118508720Y-137512751D01*
X118339194Y-137626024D01*
X118195024Y-137770194D01*
X118081751Y-137939720D01*
X118003727Y-138128087D01*
X117963950Y-138328056D01*
X115677000Y-138328056D01*
X115677000Y-138303000D01*
X115697000Y-138303000D01*
X115697000Y-136453750D01*
X115951000Y-136453750D01*
X115951000Y-138303000D01*
X117299740Y-138303000D01*
X117458490Y-138144250D01*
X117461562Y-136930000D01*
X117449302Y-136805518D01*
X117412992Y-136685820D01*
X117354027Y-136575506D01*
X117274675Y-136478815D01*
X117177984Y-136399463D01*
X117067670Y-136340498D01*
X116947972Y-136304188D01*
X116823490Y-136291928D01*
X116109750Y-136295000D01*
X115951000Y-136453750D01*
X115697000Y-136453750D01*
X115538250Y-136295000D01*
X114824510Y-136291928D01*
X114700028Y-136304188D01*
X114580330Y-136340498D01*
X114476600Y-136395944D01*
X114476600Y-133435677D01*
X114480035Y-133400800D01*
X114466327Y-133261616D01*
X114425728Y-133127780D01*
X114359800Y-133004437D01*
X114271075Y-132896325D01*
X114173000Y-132815837D01*
X114173000Y-132334000D01*
X114170560Y-132309224D01*
X114163333Y-132285399D01*
X114151597Y-132263443D01*
X114135803Y-132244197D01*
X114116557Y-132228403D01*
X114094601Y-132216667D01*
X114070776Y-132209440D01*
X114046000Y-132207000D01*
X110871000Y-132207000D01*
X110871000Y-128075712D01*
X112377183Y-128075712D01*
X112418613Y-128355330D01*
X112513797Y-128621492D01*
X112580729Y-128746714D01*
X112824698Y-128818297D01*
X113637795Y-128005200D01*
X113997005Y-128005200D01*
X114810102Y-128818297D01*
X115054071Y-128746714D01*
X115174971Y-128491204D01*
X115243700Y-128217016D01*
X115257617Y-127934688D01*
X115216187Y-127655070D01*
X115121003Y-127388908D01*
X115054071Y-127263686D01*
X114810102Y-127192103D01*
X113997005Y-128005200D01*
X113637795Y-128005200D01*
X112824698Y-127192103D01*
X112580729Y-127263686D01*
X112459829Y-127519196D01*
X112391100Y-127793384D01*
X112377183Y-128075712D01*
X110871000Y-128075712D01*
X110871000Y-126619000D01*
X113432073Y-126619000D01*
X113201108Y-126701597D01*
G36*
X123818308Y-126676197D02*
G01*
X123693086Y-126743129D01*
X123621503Y-126987098D01*
X124434600Y-127800195D01*
X125247697Y-126987098D01*
X125176114Y-126743129D01*
X124920604Y-126622229D01*
X124907722Y-126619000D01*
X127381000Y-126619000D01*
X127381000Y-131950792D01*
X124944028Y-131908775D01*
X124945609Y-131907194D01*
X124974601Y-131883401D01*
X124998395Y-131854408D01*
X124998399Y-131854404D01*
X125066663Y-131771223D01*
X125114327Y-131751480D01*
X125349359Y-131594437D01*
X125549237Y-131394559D01*
X125706280Y-131159527D01*
X125814453Y-130898374D01*
X125869600Y-130621135D01*
X125869600Y-130338465D01*
X125814453Y-130061226D01*
X125706280Y-129800073D01*
X125549237Y-129565041D01*
X125349359Y-129365163D01*
X125148731Y-129231108D01*
X125176114Y-129216471D01*
X125247697Y-128972502D01*
X124434600Y-128159405D01*
X123621503Y-128972502D01*
X123693086Y-129216471D01*
X123721941Y-129230124D01*
X123519841Y-129365163D01*
X123319963Y-129565041D01*
X123162920Y-129800073D01*
X123054747Y-130061226D01*
X122999600Y-130338465D01*
X122999600Y-130621135D01*
X123054747Y-130898374D01*
X123162920Y-131159527D01*
X123315427Y-131387770D01*
X122231940Y-132471258D01*
X122245459Y-132334000D01*
X122219683Y-132072294D01*
X122143347Y-131820646D01*
X122019382Y-131588725D01*
X121852555Y-131385445D01*
X121715959Y-131273344D01*
X122743903Y-128050312D01*
X122994383Y-128050312D01*
X123035813Y-128329930D01*
X123130997Y-128596092D01*
X123197929Y-128721314D01*
X123441898Y-128792897D01*
X124254995Y-127979800D01*
X124614205Y-127979800D01*
X125427302Y-128792897D01*
X125671271Y-128721314D01*
X125792171Y-128465804D01*
X125860900Y-128191616D01*
X125874817Y-127909288D01*
X125833387Y-127629670D01*
X125738203Y-127363508D01*
X125671271Y-127238286D01*
X125427302Y-127166703D01*
X124614205Y-127979800D01*
X124254995Y-127979800D01*
X123441898Y-127166703D01*
X123197929Y-127238286D01*
X123077029Y-127493796D01*
X123008300Y-127767984D01*
X122994383Y-128050312D01*
X122743903Y-128050312D01*
X123200402Y-126619000D01*
X123978247Y-126619000D01*
X123818308Y-126676197D01*
X123818308Y-126676197D01*
G37*
X123818308Y-126676197D02*
X123693086Y-126743129D01*
X123621503Y-126987098D01*
X124434600Y-127800195D01*
X125247697Y-126987098D01*
X125176114Y-126743129D01*
X124920604Y-126622229D01*
X124907722Y-126619000D01*
X127381000Y-126619000D01*
X127381000Y-131950792D01*
X124944028Y-131908775D01*
X124945609Y-131907194D01*
X124974601Y-131883401D01*
X124998395Y-131854408D01*
X124998399Y-131854404D01*
X125066663Y-131771223D01*
X125114327Y-131751480D01*
X125349359Y-131594437D01*
X125549237Y-131394559D01*
X125706280Y-131159527D01*
X125814453Y-130898374D01*
X125869600Y-130621135D01*
X125869600Y-130338465D01*
X125814453Y-130061226D01*
X125706280Y-129800073D01*
X125549237Y-129565041D01*
X125349359Y-129365163D01*
X125148731Y-129231108D01*
X125176114Y-129216471D01*
X125247697Y-128972502D01*
X124434600Y-128159405D01*
X123621503Y-128972502D01*
X123693086Y-129216471D01*
X123721941Y-129230124D01*
X123519841Y-129365163D01*
X123319963Y-129565041D01*
X123162920Y-129800073D01*
X123054747Y-130061226D01*
X122999600Y-130338465D01*
X122999600Y-130621135D01*
X123054747Y-130898374D01*
X123162920Y-131159527D01*
X123315427Y-131387770D01*
X122231940Y-132471258D01*
X122245459Y-132334000D01*
X122219683Y-132072294D01*
X122143347Y-131820646D01*
X122019382Y-131588725D01*
X121852555Y-131385445D01*
X121715959Y-131273344D01*
X122743903Y-128050312D01*
X122994383Y-128050312D01*
X123035813Y-128329930D01*
X123130997Y-128596092D01*
X123197929Y-128721314D01*
X123441898Y-128792897D01*
X124254995Y-127979800D01*
X124614205Y-127979800D01*
X125427302Y-128792897D01*
X125671271Y-128721314D01*
X125792171Y-128465804D01*
X125860900Y-128191616D01*
X125874817Y-127909288D01*
X125833387Y-127629670D01*
X125738203Y-127363508D01*
X125671271Y-127238286D01*
X125427302Y-127166703D01*
X124614205Y-127979800D01*
X124254995Y-127979800D01*
X123441898Y-127166703D01*
X123197929Y-127238286D01*
X123077029Y-127493796D01*
X123008300Y-127767984D01*
X122994383Y-128050312D01*
X122743903Y-128050312D01*
X123200402Y-126619000D01*
X123978247Y-126619000D01*
X123818308Y-126676197D01*
M02*
