G04 #@! TF.GenerationSoftware,KiCad,Pcbnew,(5.1.2-1)-1*
G04 #@! TF.CreationDate,2021-04-22T07:55:17-04:00*
G04 #@! TF.ProjectId,opAmp Mic,6f70416d-7020-44d6-9963-2e6b69636164,rev?*
G04 #@! TF.SameCoordinates,Original*
G04 #@! TF.FileFunction,Soldermask,Top*
G04 #@! TF.FilePolarity,Negative*
%FSLAX46Y46*%
G04 Gerber Fmt 4.6, Leading zero omitted, Abs format (unit mm)*
G04 Created by KiCad (PCBNEW (5.1.2-1)-1) date 2021-04-22 07:55:17*
%MOMM*%
%LPD*%
G04 APERTURE LIST*
%ADD10C,0.100000*%
G04 APERTURE END LIST*
D10*
G36*
X122851902Y-136888484D02*
G01*
X122938599Y-136914783D01*
X123018497Y-136957490D01*
X123088528Y-137014962D01*
X123146000Y-137084993D01*
X123188707Y-137164891D01*
X123215006Y-137251588D01*
X123224490Y-137347885D01*
X123224490Y-139512115D01*
X123215006Y-139608412D01*
X123188707Y-139695109D01*
X123146000Y-139775007D01*
X123088528Y-139845038D01*
X123018497Y-139902510D01*
X122938599Y-139945217D01*
X122851902Y-139971516D01*
X122755605Y-139981000D01*
X121592395Y-139981000D01*
X121496098Y-139971516D01*
X121409401Y-139945217D01*
X121329503Y-139902510D01*
X121259472Y-139845038D01*
X121202000Y-139775007D01*
X121159293Y-139695109D01*
X121132994Y-139608412D01*
X121123510Y-139512115D01*
X121123510Y-137347885D01*
X121132994Y-137251588D01*
X121159293Y-137164891D01*
X121202000Y-137084993D01*
X121259472Y-137014962D01*
X121329503Y-136957490D01*
X121409401Y-136914783D01*
X121496098Y-136888484D01*
X121592395Y-136879000D01*
X122755605Y-136879000D01*
X122851902Y-136888484D01*
X122851902Y-136888484D01*
G37*
G36*
X119676902Y-136888484D02*
G01*
X119763599Y-136914783D01*
X119843497Y-136957490D01*
X119913528Y-137014962D01*
X119971000Y-137084993D01*
X120013707Y-137164891D01*
X120040006Y-137251588D01*
X120049490Y-137347885D01*
X120049490Y-139512115D01*
X120040006Y-139608412D01*
X120013707Y-139695109D01*
X119971000Y-139775007D01*
X119913528Y-139845038D01*
X119843497Y-139902510D01*
X119763599Y-139945217D01*
X119676902Y-139971516D01*
X119580605Y-139981000D01*
X118417395Y-139981000D01*
X118321098Y-139971516D01*
X118234401Y-139945217D01*
X118154503Y-139902510D01*
X118084472Y-139845038D01*
X118027000Y-139775007D01*
X117984293Y-139695109D01*
X117957994Y-139608412D01*
X117948510Y-139512115D01*
X117948510Y-137347885D01*
X117957994Y-137251588D01*
X117984293Y-137164891D01*
X118027000Y-137084993D01*
X118084472Y-137014962D01*
X118154503Y-136957490D01*
X118234401Y-136914783D01*
X118321098Y-136888484D01*
X118417395Y-136879000D01*
X119580605Y-136879000D01*
X119676902Y-136888484D01*
X119676902Y-136888484D01*
G37*
G36*
X116874490Y-139981000D02*
G01*
X114773510Y-139981000D01*
X114773510Y-136879000D01*
X116874490Y-136879000D01*
X116874490Y-139981000D01*
X116874490Y-139981000D01*
G37*
G36*
X125216228Y-134309703D02*
G01*
X125371100Y-134373853D01*
X125510481Y-134466985D01*
X125629015Y-134585519D01*
X125722147Y-134724900D01*
X125786297Y-134879772D01*
X125819000Y-135044184D01*
X125819000Y-135211816D01*
X125786297Y-135376228D01*
X125722147Y-135531100D01*
X125629015Y-135670481D01*
X125510481Y-135789015D01*
X125371100Y-135882147D01*
X125216228Y-135946297D01*
X125051816Y-135979000D01*
X124884184Y-135979000D01*
X124719772Y-135946297D01*
X124564900Y-135882147D01*
X124425519Y-135789015D01*
X124306985Y-135670481D01*
X124213853Y-135531100D01*
X124149703Y-135376228D01*
X124117000Y-135211816D01*
X124117000Y-135044184D01*
X124149703Y-134879772D01*
X124213853Y-134724900D01*
X124306985Y-134585519D01*
X124425519Y-134466985D01*
X124564900Y-134373853D01*
X124719772Y-134309703D01*
X124884184Y-134277000D01*
X125051816Y-134277000D01*
X125216228Y-134309703D01*
X125216228Y-134309703D01*
G37*
G36*
X113278228Y-134309703D02*
G01*
X113433100Y-134373853D01*
X113572481Y-134466985D01*
X113691015Y-134585519D01*
X113784147Y-134724900D01*
X113848297Y-134879772D01*
X113881000Y-135044184D01*
X113881000Y-135211816D01*
X113848297Y-135376228D01*
X113784147Y-135531100D01*
X113691015Y-135670481D01*
X113572481Y-135789015D01*
X113433100Y-135882147D01*
X113278228Y-135946297D01*
X113113816Y-135979000D01*
X112946184Y-135979000D01*
X112781772Y-135946297D01*
X112626900Y-135882147D01*
X112487519Y-135789015D01*
X112368985Y-135670481D01*
X112275853Y-135531100D01*
X112211703Y-135376228D01*
X112179000Y-135211816D01*
X112179000Y-135044184D01*
X112211703Y-134879772D01*
X112275853Y-134724900D01*
X112368985Y-134585519D01*
X112487519Y-134466985D01*
X112626900Y-134373853D01*
X112781772Y-134309703D01*
X112946184Y-134277000D01*
X113113816Y-134277000D01*
X113278228Y-134309703D01*
X113278228Y-134309703D01*
G37*
G36*
X121123059Y-134151860D02*
G01*
X121259732Y-134208472D01*
X121382735Y-134290660D01*
X121487340Y-134395265D01*
X121569528Y-134518268D01*
X121569529Y-134518270D01*
X121626140Y-134654941D01*
X121655000Y-134800032D01*
X121655000Y-134947968D01*
X121626140Y-135093059D01*
X121576950Y-135211815D01*
X121569528Y-135229732D01*
X121487340Y-135352735D01*
X121382735Y-135457340D01*
X121259732Y-135539528D01*
X121259731Y-135539529D01*
X121259730Y-135539529D01*
X121123059Y-135596140D01*
X120977968Y-135625000D01*
X120830032Y-135625000D01*
X120684941Y-135596140D01*
X120548270Y-135539529D01*
X120548269Y-135539529D01*
X120548268Y-135539528D01*
X120425265Y-135457340D01*
X120320660Y-135352735D01*
X120238472Y-135229732D01*
X120231051Y-135211815D01*
X120181860Y-135093059D01*
X120153000Y-134947968D01*
X120153000Y-134800032D01*
X120181860Y-134654941D01*
X120238471Y-134518270D01*
X120238472Y-134518268D01*
X120320660Y-134395265D01*
X120425265Y-134290660D01*
X120548268Y-134208472D01*
X120684941Y-134151860D01*
X120830032Y-134123000D01*
X120977968Y-134123000D01*
X121123059Y-134151860D01*
X121123059Y-134151860D01*
G37*
G36*
X117313059Y-134151860D02*
G01*
X117449732Y-134208472D01*
X117572735Y-134290660D01*
X117677340Y-134395265D01*
X117759528Y-134518268D01*
X117759529Y-134518270D01*
X117816140Y-134654941D01*
X117845000Y-134800032D01*
X117845000Y-134947968D01*
X117816140Y-135093059D01*
X117766950Y-135211815D01*
X117759528Y-135229732D01*
X117677340Y-135352735D01*
X117572735Y-135457340D01*
X117449732Y-135539528D01*
X117449731Y-135539529D01*
X117449730Y-135539529D01*
X117313059Y-135596140D01*
X117167968Y-135625000D01*
X117020032Y-135625000D01*
X116874941Y-135596140D01*
X116738270Y-135539529D01*
X116738269Y-135539529D01*
X116738268Y-135539528D01*
X116615265Y-135457340D01*
X116510660Y-135352735D01*
X116428472Y-135229732D01*
X116421051Y-135211815D01*
X116371860Y-135093059D01*
X116343000Y-134947968D01*
X116343000Y-134800032D01*
X116371860Y-134654941D01*
X116428471Y-134518270D01*
X116428472Y-134518268D01*
X116510660Y-134395265D01*
X116615265Y-134290660D01*
X116738268Y-134208472D01*
X116874941Y-134151860D01*
X117020032Y-134123000D01*
X117167968Y-134123000D01*
X117313059Y-134151860D01*
X117313059Y-134151860D01*
G37*
G36*
X113278228Y-131809703D02*
G01*
X113433100Y-131873853D01*
X113572481Y-131966985D01*
X113691015Y-132085519D01*
X113784147Y-132224900D01*
X113848297Y-132379772D01*
X113881000Y-132544184D01*
X113881000Y-132711816D01*
X113848297Y-132876228D01*
X113784147Y-133031100D01*
X113691015Y-133170481D01*
X113572481Y-133289015D01*
X113433100Y-133382147D01*
X113278228Y-133446297D01*
X113113816Y-133479000D01*
X112946184Y-133479000D01*
X112781772Y-133446297D01*
X112626900Y-133382147D01*
X112487519Y-133289015D01*
X112368985Y-133170481D01*
X112275853Y-133031100D01*
X112211703Y-132876228D01*
X112179000Y-132711816D01*
X112179000Y-132544184D01*
X112211703Y-132379772D01*
X112275853Y-132224900D01*
X112368985Y-132085519D01*
X112487519Y-131966985D01*
X112626900Y-131873853D01*
X112781772Y-131809703D01*
X112946184Y-131777000D01*
X113113816Y-131777000D01*
X113278228Y-131809703D01*
X113278228Y-131809703D01*
G37*
G36*
X125216228Y-131809703D02*
G01*
X125371100Y-131873853D01*
X125510481Y-131966985D01*
X125629015Y-132085519D01*
X125722147Y-132224900D01*
X125786297Y-132379772D01*
X125819000Y-132544184D01*
X125819000Y-132711816D01*
X125786297Y-132876228D01*
X125722147Y-133031100D01*
X125629015Y-133170481D01*
X125510481Y-133289015D01*
X125371100Y-133382147D01*
X125216228Y-133446297D01*
X125051816Y-133479000D01*
X124884184Y-133479000D01*
X124719772Y-133446297D01*
X124564900Y-133382147D01*
X124425519Y-133289015D01*
X124306985Y-133170481D01*
X124213853Y-133031100D01*
X124149703Y-132876228D01*
X124117000Y-132711816D01*
X124117000Y-132544184D01*
X124149703Y-132379772D01*
X124213853Y-132224900D01*
X124306985Y-132085519D01*
X124425519Y-131966985D01*
X124564900Y-131873853D01*
X124719772Y-131809703D01*
X124884184Y-131777000D01*
X125051816Y-131777000D01*
X125216228Y-131809703D01*
X125216228Y-131809703D01*
G37*
G36*
X117167665Y-131586622D02*
G01*
X117241222Y-131593867D01*
X117382786Y-131636810D01*
X117513252Y-131706546D01*
X117543040Y-131730992D01*
X117627607Y-131800393D01*
X117697008Y-131884960D01*
X117721454Y-131914748D01*
X117791190Y-132045214D01*
X117834133Y-132186778D01*
X117848633Y-132334000D01*
X117834133Y-132481222D01*
X117791190Y-132622786D01*
X117721454Y-132753252D01*
X117697008Y-132783040D01*
X117627607Y-132867607D01*
X117543040Y-132937008D01*
X117513252Y-132961454D01*
X117513250Y-132961455D01*
X117382955Y-133031100D01*
X117382786Y-133031190D01*
X117241222Y-133074133D01*
X117167665Y-133081378D01*
X117130888Y-133085000D01*
X117057112Y-133085000D01*
X117020335Y-133081378D01*
X116946778Y-133074133D01*
X116805214Y-133031190D01*
X116805046Y-133031100D01*
X116674750Y-132961455D01*
X116674748Y-132961454D01*
X116644960Y-132937008D01*
X116560393Y-132867607D01*
X116490992Y-132783040D01*
X116466546Y-132753252D01*
X116396810Y-132622786D01*
X116353867Y-132481222D01*
X116339367Y-132334000D01*
X116353867Y-132186778D01*
X116396810Y-132045214D01*
X116466546Y-131914748D01*
X116490992Y-131884960D01*
X116560393Y-131800393D01*
X116644960Y-131730992D01*
X116674748Y-131706546D01*
X116805214Y-131636810D01*
X116946778Y-131593867D01*
X117020335Y-131586622D01*
X117057112Y-131583000D01*
X117130888Y-131583000D01*
X117167665Y-131586622D01*
X117167665Y-131586622D01*
G37*
G36*
X120977665Y-131586622D02*
G01*
X121051222Y-131593867D01*
X121192786Y-131636810D01*
X121323252Y-131706546D01*
X121353040Y-131730992D01*
X121437607Y-131800393D01*
X121507008Y-131884960D01*
X121531454Y-131914748D01*
X121601190Y-132045214D01*
X121644133Y-132186778D01*
X121658633Y-132334000D01*
X121644133Y-132481222D01*
X121601190Y-132622786D01*
X121531454Y-132753252D01*
X121507008Y-132783040D01*
X121437607Y-132867607D01*
X121353040Y-132937008D01*
X121323252Y-132961454D01*
X121323250Y-132961455D01*
X121192955Y-133031100D01*
X121192786Y-133031190D01*
X121051222Y-133074133D01*
X120977665Y-133081378D01*
X120940888Y-133085000D01*
X120867112Y-133085000D01*
X120830335Y-133081378D01*
X120756778Y-133074133D01*
X120615214Y-133031190D01*
X120615046Y-133031100D01*
X120484750Y-132961455D01*
X120484748Y-132961454D01*
X120454960Y-132937008D01*
X120370393Y-132867607D01*
X120300992Y-132783040D01*
X120276546Y-132753252D01*
X120206810Y-132622786D01*
X120163867Y-132481222D01*
X120149367Y-132334000D01*
X120163867Y-132186778D01*
X120206810Y-132045214D01*
X120276546Y-131914748D01*
X120300992Y-131884960D01*
X120370393Y-131800393D01*
X120454960Y-131730992D01*
X120484748Y-131706546D01*
X120615214Y-131636810D01*
X120756778Y-131593867D01*
X120830335Y-131586622D01*
X120867112Y-131583000D01*
X120940888Y-131583000D01*
X120977665Y-131586622D01*
X120977665Y-131586622D01*
G37*
G36*
X123263665Y-128284622D02*
G01*
X123337222Y-128291867D01*
X123478786Y-128334810D01*
X123609252Y-128404546D01*
X123639040Y-128428992D01*
X123723607Y-128498393D01*
X123793008Y-128582960D01*
X123817454Y-128612748D01*
X123887190Y-128743214D01*
X123930133Y-128884778D01*
X123944633Y-129032000D01*
X123930133Y-129179222D01*
X123887190Y-129320786D01*
X123817454Y-129451252D01*
X123793008Y-129481040D01*
X123723607Y-129565607D01*
X123646360Y-129629000D01*
X123609252Y-129659454D01*
X123478786Y-129729190D01*
X123337222Y-129772133D01*
X123263665Y-129779378D01*
X123226888Y-129783000D01*
X123153112Y-129783000D01*
X123116335Y-129779378D01*
X123042778Y-129772133D01*
X122901214Y-129729190D01*
X122770748Y-129659454D01*
X122733640Y-129629000D01*
X122656393Y-129565607D01*
X122586992Y-129481040D01*
X122562546Y-129451252D01*
X122492810Y-129320786D01*
X122449867Y-129179222D01*
X122435367Y-129032000D01*
X122449867Y-128884778D01*
X122492810Y-128743214D01*
X122562546Y-128612748D01*
X122586992Y-128582960D01*
X122656393Y-128498393D01*
X122740960Y-128428992D01*
X122770748Y-128404546D01*
X122901214Y-128334810D01*
X123042778Y-128291867D01*
X123116335Y-128284622D01*
X123153112Y-128281000D01*
X123226888Y-128281000D01*
X123263665Y-128284622D01*
X123263665Y-128284622D01*
G37*
G36*
X117691000Y-129629000D02*
G01*
X115989000Y-129629000D01*
X115989000Y-127927000D01*
X117691000Y-127927000D01*
X117691000Y-129629000D01*
X117691000Y-129629000D01*
G37*
G36*
X123409059Y-125769860D02*
G01*
X123545732Y-125826472D01*
X123668735Y-125908660D01*
X123773340Y-126013265D01*
X123855528Y-126136268D01*
X123912140Y-126272941D01*
X123941000Y-126418033D01*
X123941000Y-126565967D01*
X123912140Y-126711059D01*
X123855528Y-126847732D01*
X123773340Y-126970735D01*
X123668735Y-127075340D01*
X123545732Y-127157528D01*
X123545731Y-127157529D01*
X123545730Y-127157529D01*
X123409059Y-127214140D01*
X123263968Y-127243000D01*
X123116032Y-127243000D01*
X122970941Y-127214140D01*
X122834270Y-127157529D01*
X122834269Y-127157529D01*
X122834268Y-127157528D01*
X122711265Y-127075340D01*
X122606660Y-126970735D01*
X122524472Y-126847732D01*
X122467860Y-126711059D01*
X122439000Y-126565967D01*
X122439000Y-126418033D01*
X122467860Y-126272941D01*
X122524472Y-126136268D01*
X122606660Y-126013265D01*
X122711265Y-125908660D01*
X122834268Y-125826472D01*
X122970941Y-125769860D01*
X123116032Y-125741000D01*
X123263968Y-125741000D01*
X123409059Y-125769860D01*
X123409059Y-125769860D01*
G37*
G36*
X117088228Y-125459703D02*
G01*
X117243100Y-125523853D01*
X117382481Y-125616985D01*
X117501015Y-125735519D01*
X117594147Y-125874900D01*
X117658297Y-126029772D01*
X117691000Y-126194184D01*
X117691000Y-126361816D01*
X117658297Y-126526228D01*
X117594147Y-126681100D01*
X117501015Y-126820481D01*
X117382481Y-126939015D01*
X117243100Y-127032147D01*
X117088228Y-127096297D01*
X116923816Y-127129000D01*
X116756184Y-127129000D01*
X116591772Y-127096297D01*
X116436900Y-127032147D01*
X116297519Y-126939015D01*
X116178985Y-126820481D01*
X116085853Y-126681100D01*
X116021703Y-126526228D01*
X115989000Y-126361816D01*
X115989000Y-126194184D01*
X116021703Y-126029772D01*
X116085853Y-125874900D01*
X116178985Y-125735519D01*
X116297519Y-125616985D01*
X116436900Y-125523853D01*
X116591772Y-125459703D01*
X116756184Y-125427000D01*
X116923816Y-125427000D01*
X117088228Y-125459703D01*
X117088228Y-125459703D01*
G37*
G36*
X122009000Y-123025000D02*
G01*
X120307000Y-123025000D01*
X120307000Y-121323000D01*
X122009000Y-121323000D01*
X122009000Y-123025000D01*
X122009000Y-123025000D01*
G37*
G36*
X115027059Y-121197860D02*
G01*
X115163732Y-121254472D01*
X115286735Y-121336660D01*
X115391340Y-121441265D01*
X115473528Y-121564268D01*
X115530140Y-121700941D01*
X115559000Y-121846033D01*
X115559000Y-121993967D01*
X115530140Y-122139059D01*
X115473528Y-122275732D01*
X115391340Y-122398735D01*
X115286735Y-122503340D01*
X115163732Y-122585528D01*
X115163731Y-122585529D01*
X115163730Y-122585529D01*
X115027059Y-122642140D01*
X114881968Y-122671000D01*
X114734032Y-122671000D01*
X114588941Y-122642140D01*
X114452270Y-122585529D01*
X114452269Y-122585529D01*
X114452268Y-122585528D01*
X114329265Y-122503340D01*
X114224660Y-122398735D01*
X114142472Y-122275732D01*
X114085860Y-122139059D01*
X114057000Y-121993967D01*
X114057000Y-121846033D01*
X114085860Y-121700941D01*
X114142472Y-121564268D01*
X114224660Y-121441265D01*
X114329265Y-121336660D01*
X114452268Y-121254472D01*
X114588941Y-121197860D01*
X114734032Y-121169000D01*
X114881968Y-121169000D01*
X115027059Y-121197860D01*
X115027059Y-121197860D01*
G37*
G36*
X121406228Y-118855703D02*
G01*
X121561100Y-118919853D01*
X121700481Y-119012985D01*
X121819015Y-119131519D01*
X121912147Y-119270900D01*
X121976297Y-119425772D01*
X122009000Y-119590184D01*
X122009000Y-119757816D01*
X121976297Y-119922228D01*
X121912147Y-120077100D01*
X121819015Y-120216481D01*
X121700481Y-120335015D01*
X121561100Y-120428147D01*
X121406228Y-120492297D01*
X121241816Y-120525000D01*
X121074184Y-120525000D01*
X120909772Y-120492297D01*
X120754900Y-120428147D01*
X120615519Y-120335015D01*
X120496985Y-120216481D01*
X120403853Y-120077100D01*
X120339703Y-119922228D01*
X120307000Y-119757816D01*
X120307000Y-119590184D01*
X120339703Y-119425772D01*
X120403853Y-119270900D01*
X120496985Y-119131519D01*
X120615519Y-119012985D01*
X120754900Y-118919853D01*
X120909772Y-118855703D01*
X121074184Y-118823000D01*
X121241816Y-118823000D01*
X121406228Y-118855703D01*
X121406228Y-118855703D01*
G37*
G36*
X114881665Y-118632622D02*
G01*
X114955222Y-118639867D01*
X115096786Y-118682810D01*
X115227252Y-118752546D01*
X115257040Y-118776992D01*
X115341607Y-118846393D01*
X115411008Y-118930960D01*
X115435454Y-118960748D01*
X115505190Y-119091214D01*
X115548133Y-119232778D01*
X115562633Y-119380000D01*
X115548133Y-119527222D01*
X115505190Y-119668786D01*
X115435454Y-119799252D01*
X115411008Y-119829040D01*
X115341607Y-119913607D01*
X115257040Y-119983008D01*
X115227252Y-120007454D01*
X115227250Y-120007455D01*
X115096955Y-120077100D01*
X115096786Y-120077190D01*
X114955222Y-120120133D01*
X114881665Y-120127378D01*
X114844888Y-120131000D01*
X114771112Y-120131000D01*
X114734335Y-120127378D01*
X114660778Y-120120133D01*
X114519214Y-120077190D01*
X114519046Y-120077100D01*
X114388750Y-120007455D01*
X114388748Y-120007454D01*
X114358960Y-119983008D01*
X114274393Y-119913607D01*
X114204992Y-119829040D01*
X114180546Y-119799252D01*
X114110810Y-119668786D01*
X114067867Y-119527222D01*
X114053367Y-119380000D01*
X114067867Y-119232778D01*
X114110810Y-119091214D01*
X114180546Y-118960748D01*
X114204992Y-118930960D01*
X114274393Y-118846393D01*
X114358960Y-118776992D01*
X114388748Y-118752546D01*
X114519214Y-118682810D01*
X114660778Y-118639867D01*
X114734335Y-118632622D01*
X114771112Y-118629000D01*
X114844888Y-118629000D01*
X114881665Y-118632622D01*
X114881665Y-118632622D01*
G37*
G36*
X117945000Y-116929000D02*
G01*
X116243000Y-116929000D01*
X116243000Y-115227000D01*
X117945000Y-115227000D01*
X117945000Y-116929000D01*
X117945000Y-116929000D01*
G37*
G36*
X123438228Y-115005703D02*
G01*
X123593100Y-115069853D01*
X123732481Y-115162985D01*
X123851015Y-115281519D01*
X123944147Y-115420900D01*
X124008297Y-115575772D01*
X124041000Y-115740184D01*
X124041000Y-115907816D01*
X124008297Y-116072228D01*
X123944147Y-116227100D01*
X123851015Y-116366481D01*
X123732481Y-116485015D01*
X123593100Y-116578147D01*
X123438228Y-116642297D01*
X123273816Y-116675000D01*
X123106184Y-116675000D01*
X122941772Y-116642297D01*
X122786900Y-116578147D01*
X122647519Y-116485015D01*
X122528985Y-116366481D01*
X122435853Y-116227100D01*
X122371703Y-116072228D01*
X122339000Y-115907816D01*
X122339000Y-115740184D01*
X122371703Y-115575772D01*
X122435853Y-115420900D01*
X122528985Y-115281519D01*
X122647519Y-115162985D01*
X122786900Y-115069853D01*
X122941772Y-115005703D01*
X123106184Y-114973000D01*
X123273816Y-114973000D01*
X123438228Y-115005703D01*
X123438228Y-115005703D01*
G37*
G36*
X117342228Y-112759703D02*
G01*
X117497100Y-112823853D01*
X117636481Y-112916985D01*
X117755015Y-113035519D01*
X117848147Y-113174900D01*
X117912297Y-113329772D01*
X117945000Y-113494184D01*
X117945000Y-113661816D01*
X117912297Y-113826228D01*
X117848147Y-113981100D01*
X117755015Y-114120481D01*
X117636481Y-114239015D01*
X117497100Y-114332147D01*
X117342228Y-114396297D01*
X117177816Y-114429000D01*
X117010184Y-114429000D01*
X116845772Y-114396297D01*
X116690900Y-114332147D01*
X116551519Y-114239015D01*
X116432985Y-114120481D01*
X116339853Y-113981100D01*
X116275703Y-113826228D01*
X116243000Y-113661816D01*
X116243000Y-113494184D01*
X116275703Y-113329772D01*
X116339853Y-113174900D01*
X116432985Y-113035519D01*
X116551519Y-112916985D01*
X116690900Y-112823853D01*
X116845772Y-112759703D01*
X117010184Y-112727000D01*
X117177816Y-112727000D01*
X117342228Y-112759703D01*
X117342228Y-112759703D01*
G37*
G36*
X123438228Y-112505703D02*
G01*
X123593100Y-112569853D01*
X123732481Y-112662985D01*
X123851015Y-112781519D01*
X123944147Y-112920900D01*
X124008297Y-113075772D01*
X124041000Y-113240184D01*
X124041000Y-113407816D01*
X124008297Y-113572228D01*
X123944147Y-113727100D01*
X123851015Y-113866481D01*
X123732481Y-113985015D01*
X123593100Y-114078147D01*
X123438228Y-114142297D01*
X123273816Y-114175000D01*
X123106184Y-114175000D01*
X122941772Y-114142297D01*
X122786900Y-114078147D01*
X122647519Y-113985015D01*
X122528985Y-113866481D01*
X122435853Y-113727100D01*
X122371703Y-113572228D01*
X122339000Y-113407816D01*
X122339000Y-113240184D01*
X122371703Y-113075772D01*
X122435853Y-112920900D01*
X122528985Y-112781519D01*
X122647519Y-112662985D01*
X122786900Y-112569853D01*
X122941772Y-112505703D01*
X123106184Y-112473000D01*
X123273816Y-112473000D01*
X123438228Y-112505703D01*
X123438228Y-112505703D01*
G37*
G36*
X115281059Y-108243860D02*
G01*
X115417732Y-108300472D01*
X115540735Y-108382660D01*
X115645340Y-108487265D01*
X115727528Y-108610268D01*
X115784140Y-108746941D01*
X115813000Y-108892033D01*
X115813000Y-109039967D01*
X115784140Y-109185059D01*
X115727528Y-109321732D01*
X115645340Y-109444735D01*
X115540735Y-109549340D01*
X115417732Y-109631528D01*
X115417731Y-109631529D01*
X115417730Y-109631529D01*
X115281059Y-109688140D01*
X115135968Y-109717000D01*
X114988032Y-109717000D01*
X114842941Y-109688140D01*
X114706270Y-109631529D01*
X114706269Y-109631529D01*
X114706268Y-109631528D01*
X114583265Y-109549340D01*
X114478660Y-109444735D01*
X114396472Y-109321732D01*
X114339860Y-109185059D01*
X114311000Y-109039967D01*
X114311000Y-108892033D01*
X114339860Y-108746941D01*
X114396472Y-108610268D01*
X114478660Y-108487265D01*
X114583265Y-108382660D01*
X114706268Y-108300472D01*
X114842941Y-108243860D01*
X114988032Y-108215000D01*
X115135968Y-108215000D01*
X115281059Y-108243860D01*
X115281059Y-108243860D01*
G37*
G36*
X120285000Y-107924109D02*
G01*
X120287402Y-107948495D01*
X120294515Y-107971944D01*
X120306066Y-107993555D01*
X120321611Y-108012497D01*
X120340553Y-108028042D01*
X120362164Y-108039593D01*
X120385613Y-108046706D01*
X120409999Y-108049108D01*
X120434385Y-108046706D01*
X120457834Y-108039593D01*
X120479445Y-108028042D01*
X120498387Y-108012497D01*
X120513932Y-107993555D01*
X120525483Y-107971944D01*
X120557090Y-107895638D01*
X120628335Y-107789012D01*
X120719012Y-107698335D01*
X120825636Y-107627091D01*
X120944110Y-107578017D01*
X121069881Y-107553000D01*
X121198119Y-107553000D01*
X121323890Y-107578017D01*
X121442364Y-107627091D01*
X121548988Y-107698335D01*
X121639665Y-107789012D01*
X121710910Y-107895638D01*
X121759983Y-108014110D01*
X121785000Y-108139881D01*
X121785000Y-108268119D01*
X121759983Y-108393890D01*
X121721306Y-108487265D01*
X121710909Y-108512364D01*
X121639665Y-108618988D01*
X121548988Y-108709665D01*
X121442364Y-108780909D01*
X121442363Y-108780910D01*
X121442362Y-108780910D01*
X121323890Y-108829983D01*
X121198119Y-108855000D01*
X121069881Y-108855000D01*
X120944110Y-108829983D01*
X120825638Y-108780910D01*
X120825637Y-108780910D01*
X120825636Y-108780909D01*
X120719012Y-108709665D01*
X120628335Y-108618988D01*
X120557091Y-108512364D01*
X120546695Y-108487265D01*
X120525483Y-108436056D01*
X120513932Y-108414445D01*
X120498387Y-108395503D01*
X120479445Y-108379958D01*
X120457834Y-108368407D01*
X120434385Y-108361294D01*
X120409999Y-108358892D01*
X120385613Y-108361294D01*
X120362164Y-108368407D01*
X120340553Y-108379958D01*
X120321611Y-108395503D01*
X120306066Y-108414445D01*
X120294515Y-108436056D01*
X120287402Y-108459505D01*
X120285000Y-108483891D01*
X120285000Y-108855000D01*
X118983000Y-108855000D01*
X118983000Y-107553000D01*
X120285000Y-107553000D01*
X120285000Y-107924109D01*
X120285000Y-107924109D01*
G37*
G36*
X125257000Y-107985000D02*
G01*
X123155000Y-107985000D01*
X123155000Y-105883000D01*
X125257000Y-105883000D01*
X125257000Y-107985000D01*
X125257000Y-107985000D01*
G37*
G36*
X115135665Y-105678622D02*
G01*
X115209222Y-105685867D01*
X115350786Y-105728810D01*
X115481252Y-105798546D01*
X115511040Y-105822992D01*
X115595607Y-105892393D01*
X115665008Y-105976960D01*
X115689454Y-106006748D01*
X115759190Y-106137214D01*
X115802133Y-106278778D01*
X115816633Y-106426000D01*
X115802133Y-106573222D01*
X115759190Y-106714786D01*
X115689454Y-106845252D01*
X115665008Y-106875040D01*
X115595607Y-106959607D01*
X115511040Y-107029008D01*
X115481252Y-107053454D01*
X115350786Y-107123190D01*
X115209222Y-107166133D01*
X115135665Y-107173378D01*
X115098888Y-107177000D01*
X115025112Y-107177000D01*
X114988335Y-107173378D01*
X114914778Y-107166133D01*
X114773214Y-107123190D01*
X114642748Y-107053454D01*
X114612960Y-107029008D01*
X114528393Y-106959607D01*
X114458992Y-106875040D01*
X114434546Y-106845252D01*
X114364810Y-106714786D01*
X114321867Y-106573222D01*
X114307367Y-106426000D01*
X114321867Y-106278778D01*
X114364810Y-106137214D01*
X114434546Y-106006748D01*
X114458992Y-105976960D01*
X114528393Y-105892393D01*
X114612960Y-105822992D01*
X114642748Y-105798546D01*
X114773214Y-105728810D01*
X114914778Y-105685867D01*
X114988335Y-105678622D01*
X115025112Y-105675000D01*
X115098888Y-105675000D01*
X115135665Y-105678622D01*
X115135665Y-105678622D01*
G37*
G36*
X119588228Y-100273703D02*
G01*
X119743100Y-100337853D01*
X119882481Y-100430985D01*
X120001015Y-100549519D01*
X120094147Y-100688900D01*
X120158297Y-100843772D01*
X120191000Y-101008184D01*
X120191000Y-101175816D01*
X120158297Y-101340228D01*
X120094147Y-101495100D01*
X120001015Y-101634481D01*
X119882481Y-101753015D01*
X119743100Y-101846147D01*
X119588228Y-101910297D01*
X119423816Y-101943000D01*
X119256184Y-101943000D01*
X119091772Y-101910297D01*
X118936900Y-101846147D01*
X118797519Y-101753015D01*
X118678985Y-101634481D01*
X118585853Y-101495100D01*
X118521703Y-101340228D01*
X118489000Y-101175816D01*
X118489000Y-101008184D01*
X118521703Y-100843772D01*
X118585853Y-100688900D01*
X118678985Y-100549519D01*
X118797519Y-100430985D01*
X118936900Y-100337853D01*
X119091772Y-100273703D01*
X119256184Y-100241000D01*
X119423816Y-100241000D01*
X119588228Y-100273703D01*
X119588228Y-100273703D01*
G37*
G36*
X117691000Y-101943000D02*
G01*
X115989000Y-101943000D01*
X115989000Y-100241000D01*
X117691000Y-100241000D01*
X117691000Y-101943000D01*
X117691000Y-101943000D01*
G37*
G36*
X124537964Y-97414389D02*
G01*
X124729233Y-97493615D01*
X124729235Y-97493616D01*
X124901373Y-97608635D01*
X125047765Y-97755027D01*
X125162785Y-97927167D01*
X125242011Y-98118436D01*
X125282400Y-98321484D01*
X125282400Y-98528516D01*
X125242011Y-98731564D01*
X125162785Y-98922833D01*
X125162784Y-98922835D01*
X125047765Y-99094973D01*
X124901373Y-99241365D01*
X124729235Y-99356384D01*
X124729234Y-99356385D01*
X124729233Y-99356385D01*
X124537964Y-99435611D01*
X124334916Y-99476000D01*
X124127884Y-99476000D01*
X123924836Y-99435611D01*
X123733567Y-99356385D01*
X123733566Y-99356385D01*
X123733565Y-99356384D01*
X123561427Y-99241365D01*
X123415035Y-99094973D01*
X123300016Y-98922835D01*
X123300015Y-98922833D01*
X123220789Y-98731564D01*
X123180400Y-98528516D01*
X123180400Y-98321484D01*
X123220789Y-98118436D01*
X123300015Y-97927167D01*
X123415035Y-97755027D01*
X123561427Y-97608635D01*
X123733565Y-97493616D01*
X123733567Y-97493615D01*
X123924836Y-97414389D01*
X124127884Y-97374000D01*
X124334916Y-97374000D01*
X124537964Y-97414389D01*
X124537964Y-97414389D01*
G37*
G36*
X124025665Y-93486622D02*
G01*
X124099222Y-93493867D01*
X124240786Y-93536810D01*
X124371252Y-93606546D01*
X124401040Y-93630992D01*
X124485607Y-93700393D01*
X124555008Y-93784960D01*
X124579454Y-93814748D01*
X124649190Y-93945214D01*
X124692133Y-94086778D01*
X124706633Y-94234000D01*
X124692133Y-94381222D01*
X124649190Y-94522786D01*
X124579454Y-94653252D01*
X124555008Y-94683040D01*
X124485607Y-94767607D01*
X124425004Y-94817341D01*
X124371252Y-94861454D01*
X124240786Y-94931190D01*
X124099222Y-94974133D01*
X124025665Y-94981378D01*
X123988888Y-94985000D01*
X123915112Y-94985000D01*
X123878335Y-94981378D01*
X123804778Y-94974133D01*
X123663214Y-94931190D01*
X123532748Y-94861454D01*
X123478996Y-94817341D01*
X123418393Y-94767607D01*
X123348992Y-94683040D01*
X123324546Y-94653252D01*
X123254810Y-94522786D01*
X123211867Y-94381222D01*
X123197367Y-94234000D01*
X123211867Y-94086778D01*
X123254810Y-93945214D01*
X123324546Y-93814748D01*
X123348992Y-93784960D01*
X123418393Y-93700393D01*
X123502960Y-93630992D01*
X123532748Y-93606546D01*
X123663214Y-93536810D01*
X123804778Y-93493867D01*
X123878335Y-93486622D01*
X123915112Y-93483000D01*
X123988888Y-93483000D01*
X124025665Y-93486622D01*
X124025665Y-93486622D01*
G37*
G36*
X121631059Y-93511860D02*
G01*
X121691294Y-93536810D01*
X121767732Y-93568472D01*
X121890735Y-93650660D01*
X121995340Y-93755265D01*
X122077528Y-93878268D01*
X122134140Y-94014941D01*
X122163000Y-94160033D01*
X122163000Y-94307967D01*
X122134140Y-94453059D01*
X122077528Y-94589732D01*
X121995340Y-94712735D01*
X121890735Y-94817340D01*
X121767732Y-94899528D01*
X121767731Y-94899529D01*
X121767730Y-94899529D01*
X121631059Y-94956140D01*
X121485968Y-94985000D01*
X121338032Y-94985000D01*
X121192941Y-94956140D01*
X121056270Y-94899529D01*
X121056269Y-94899529D01*
X121056268Y-94899528D01*
X120933265Y-94817340D01*
X120828660Y-94712735D01*
X120746472Y-94589732D01*
X120689860Y-94453059D01*
X120661000Y-94307967D01*
X120661000Y-94160033D01*
X120689860Y-94014941D01*
X120746472Y-93878268D01*
X120828660Y-93755265D01*
X120933265Y-93650660D01*
X121056268Y-93568472D01*
X121132707Y-93536810D01*
X121192941Y-93511860D01*
X121338032Y-93483000D01*
X121485968Y-93483000D01*
X121631059Y-93511860D01*
X121631059Y-93511860D01*
G37*
G36*
X116659665Y-93486622D02*
G01*
X116733222Y-93493867D01*
X116874786Y-93536810D01*
X117005252Y-93606546D01*
X117035040Y-93630992D01*
X117119607Y-93700393D01*
X117189008Y-93784960D01*
X117213454Y-93814748D01*
X117283190Y-93945214D01*
X117326133Y-94086778D01*
X117340633Y-94234000D01*
X117326133Y-94381222D01*
X117283190Y-94522786D01*
X117213454Y-94653252D01*
X117189008Y-94683040D01*
X117119607Y-94767607D01*
X117059004Y-94817341D01*
X117005252Y-94861454D01*
X116874786Y-94931190D01*
X116733222Y-94974133D01*
X116659665Y-94981378D01*
X116622888Y-94985000D01*
X116549112Y-94985000D01*
X116512335Y-94981378D01*
X116438778Y-94974133D01*
X116297214Y-94931190D01*
X116166748Y-94861454D01*
X116112996Y-94817341D01*
X116052393Y-94767607D01*
X115982992Y-94683040D01*
X115958546Y-94653252D01*
X115888810Y-94522786D01*
X115845867Y-94381222D01*
X115831367Y-94234000D01*
X115845867Y-94086778D01*
X115888810Y-93945214D01*
X115958546Y-93814748D01*
X115982992Y-93784960D01*
X116052393Y-93700393D01*
X116136960Y-93630992D01*
X116166748Y-93606546D01*
X116297214Y-93536810D01*
X116438778Y-93493867D01*
X116512335Y-93486622D01*
X116549112Y-93483000D01*
X116622888Y-93483000D01*
X116659665Y-93486622D01*
X116659665Y-93486622D01*
G37*
G36*
X114265059Y-93511860D02*
G01*
X114325294Y-93536810D01*
X114401732Y-93568472D01*
X114524735Y-93650660D01*
X114629340Y-93755265D01*
X114711528Y-93878268D01*
X114768140Y-94014941D01*
X114797000Y-94160033D01*
X114797000Y-94307967D01*
X114768140Y-94453059D01*
X114711528Y-94589732D01*
X114629340Y-94712735D01*
X114524735Y-94817340D01*
X114401732Y-94899528D01*
X114401731Y-94899529D01*
X114401730Y-94899529D01*
X114265059Y-94956140D01*
X114119968Y-94985000D01*
X113972032Y-94985000D01*
X113826941Y-94956140D01*
X113690270Y-94899529D01*
X113690269Y-94899529D01*
X113690268Y-94899528D01*
X113567265Y-94817340D01*
X113462660Y-94712735D01*
X113380472Y-94589732D01*
X113323860Y-94453059D01*
X113295000Y-94307967D01*
X113295000Y-94160033D01*
X113323860Y-94014941D01*
X113380472Y-93878268D01*
X113462660Y-93755265D01*
X113567265Y-93650660D01*
X113690268Y-93568472D01*
X113766707Y-93536810D01*
X113826941Y-93511860D01*
X113972032Y-93483000D01*
X114119968Y-93483000D01*
X114265059Y-93511860D01*
X114265059Y-93511860D01*
G37*
G36*
X114545239Y-85683101D02*
G01*
X114781053Y-85754634D01*
X114998381Y-85870799D01*
X115188871Y-86027129D01*
X115345201Y-86217619D01*
X115461366Y-86434947D01*
X115532899Y-86670761D01*
X115557053Y-86916000D01*
X115532899Y-87161239D01*
X115461366Y-87397053D01*
X115345201Y-87614381D01*
X115188871Y-87804871D01*
X114998381Y-87961201D01*
X114781053Y-88077366D01*
X114545239Y-88148899D01*
X114361457Y-88167000D01*
X114238543Y-88167000D01*
X114054761Y-88148899D01*
X113818947Y-88077366D01*
X113601619Y-87961201D01*
X113411129Y-87804871D01*
X113254799Y-87614381D01*
X113138634Y-87397053D01*
X113067101Y-87161239D01*
X113042947Y-86916000D01*
X113067101Y-86670761D01*
X113138634Y-86434947D01*
X113254799Y-86217619D01*
X113411129Y-86027129D01*
X113601619Y-85870799D01*
X113818947Y-85754634D01*
X114054761Y-85683101D01*
X114238543Y-85665000D01*
X114361457Y-85665000D01*
X114545239Y-85683101D01*
X114545239Y-85683101D01*
G37*
G36*
X120215665Y-83580622D02*
G01*
X120289222Y-83587867D01*
X120430786Y-83630810D01*
X120561252Y-83700546D01*
X120591040Y-83724992D01*
X120675607Y-83794393D01*
X120745008Y-83878960D01*
X120769454Y-83908748D01*
X120839190Y-84039214D01*
X120882133Y-84180778D01*
X120896633Y-84328000D01*
X120882133Y-84475222D01*
X120839190Y-84616786D01*
X120769454Y-84747252D01*
X120745008Y-84777040D01*
X120675607Y-84861607D01*
X120615004Y-84911341D01*
X120561252Y-84955454D01*
X120430786Y-85025190D01*
X120289222Y-85068133D01*
X120215665Y-85075378D01*
X120178888Y-85079000D01*
X120105112Y-85079000D01*
X120068335Y-85075378D01*
X119994778Y-85068133D01*
X119853214Y-85025190D01*
X119722748Y-84955454D01*
X119668996Y-84911341D01*
X119608393Y-84861607D01*
X119538992Y-84777040D01*
X119514546Y-84747252D01*
X119444810Y-84616786D01*
X119401867Y-84475222D01*
X119387367Y-84328000D01*
X119401867Y-84180778D01*
X119444810Y-84039214D01*
X119514546Y-83908748D01*
X119538992Y-83878960D01*
X119608393Y-83794393D01*
X119692960Y-83724992D01*
X119722748Y-83700546D01*
X119853214Y-83630810D01*
X119994778Y-83587867D01*
X120068335Y-83580622D01*
X120105112Y-83577000D01*
X120178888Y-83577000D01*
X120215665Y-83580622D01*
X120215665Y-83580622D01*
G37*
G36*
X117821059Y-83605860D02*
G01*
X117881294Y-83630810D01*
X117957732Y-83662472D01*
X118080735Y-83744660D01*
X118185340Y-83849265D01*
X118267528Y-83972268D01*
X118324140Y-84108941D01*
X118353000Y-84254033D01*
X118353000Y-84401967D01*
X118324140Y-84547059D01*
X118267528Y-84683732D01*
X118185340Y-84806735D01*
X118080735Y-84911340D01*
X117957732Y-84993528D01*
X117957731Y-84993529D01*
X117957730Y-84993529D01*
X117821059Y-85050140D01*
X117675968Y-85079000D01*
X117528032Y-85079000D01*
X117382941Y-85050140D01*
X117246270Y-84993529D01*
X117246269Y-84993529D01*
X117246268Y-84993528D01*
X117123265Y-84911340D01*
X117018660Y-84806735D01*
X116936472Y-84683732D01*
X116879860Y-84547059D01*
X116851000Y-84401967D01*
X116851000Y-84254033D01*
X116879860Y-84108941D01*
X116936472Y-83972268D01*
X117018660Y-83849265D01*
X117123265Y-83744660D01*
X117246268Y-83662472D01*
X117322707Y-83630810D01*
X117382941Y-83605860D01*
X117528032Y-83577000D01*
X117675968Y-83577000D01*
X117821059Y-83605860D01*
X117821059Y-83605860D01*
G37*
G36*
X125949059Y-83605860D02*
G01*
X126009294Y-83630810D01*
X126085732Y-83662472D01*
X126208735Y-83744660D01*
X126313340Y-83849265D01*
X126395528Y-83972268D01*
X126452140Y-84108941D01*
X126481000Y-84254033D01*
X126481000Y-84401967D01*
X126452140Y-84547059D01*
X126395528Y-84683732D01*
X126313340Y-84806735D01*
X126208735Y-84911340D01*
X126085732Y-84993528D01*
X126085731Y-84993529D01*
X126085730Y-84993529D01*
X125949059Y-85050140D01*
X125803968Y-85079000D01*
X125656032Y-85079000D01*
X125510941Y-85050140D01*
X125374270Y-84993529D01*
X125374269Y-84993529D01*
X125374268Y-84993528D01*
X125251265Y-84911340D01*
X125146660Y-84806735D01*
X125064472Y-84683732D01*
X125007860Y-84547059D01*
X124979000Y-84401967D01*
X124979000Y-84254033D01*
X125007860Y-84108941D01*
X125064472Y-83972268D01*
X125146660Y-83849265D01*
X125251265Y-83744660D01*
X125374268Y-83662472D01*
X125450707Y-83630810D01*
X125510941Y-83605860D01*
X125656032Y-83577000D01*
X125803968Y-83577000D01*
X125949059Y-83605860D01*
X125949059Y-83605860D01*
G37*
G36*
X123263665Y-83580622D02*
G01*
X123337222Y-83587867D01*
X123478786Y-83630810D01*
X123609252Y-83700546D01*
X123639040Y-83724992D01*
X123723607Y-83794393D01*
X123793008Y-83878960D01*
X123817454Y-83908748D01*
X123887190Y-84039214D01*
X123930133Y-84180778D01*
X123944633Y-84328000D01*
X123930133Y-84475222D01*
X123887190Y-84616786D01*
X123817454Y-84747252D01*
X123793008Y-84777040D01*
X123723607Y-84861607D01*
X123663004Y-84911341D01*
X123609252Y-84955454D01*
X123478786Y-85025190D01*
X123337222Y-85068133D01*
X123263665Y-85075378D01*
X123226888Y-85079000D01*
X123153112Y-85079000D01*
X123116335Y-85075378D01*
X123042778Y-85068133D01*
X122901214Y-85025190D01*
X122770748Y-84955454D01*
X122716996Y-84911341D01*
X122656393Y-84861607D01*
X122586992Y-84777040D01*
X122562546Y-84747252D01*
X122492810Y-84616786D01*
X122449867Y-84475222D01*
X122435367Y-84328000D01*
X122449867Y-84180778D01*
X122492810Y-84039214D01*
X122562546Y-83908748D01*
X122586992Y-83878960D01*
X122656393Y-83794393D01*
X122740960Y-83724992D01*
X122770748Y-83700546D01*
X122901214Y-83630810D01*
X123042778Y-83587867D01*
X123116335Y-83580622D01*
X123153112Y-83577000D01*
X123226888Y-83577000D01*
X123263665Y-83580622D01*
X123263665Y-83580622D01*
G37*
G36*
X117850228Y-79191703D02*
G01*
X118005100Y-79255853D01*
X118144481Y-79348985D01*
X118263015Y-79467519D01*
X118356147Y-79606900D01*
X118420297Y-79761772D01*
X118453000Y-79926184D01*
X118453000Y-80093816D01*
X118420297Y-80258228D01*
X118356147Y-80413100D01*
X118263015Y-80552481D01*
X118144481Y-80671015D01*
X118005100Y-80764147D01*
X117850228Y-80828297D01*
X117685816Y-80861000D01*
X117518184Y-80861000D01*
X117353772Y-80828297D01*
X117198900Y-80764147D01*
X117059519Y-80671015D01*
X116940985Y-80552481D01*
X116847853Y-80413100D01*
X116783703Y-80258228D01*
X116751000Y-80093816D01*
X116751000Y-79926184D01*
X116783703Y-79761772D01*
X116847853Y-79606900D01*
X116940985Y-79467519D01*
X117059519Y-79348985D01*
X117198900Y-79255853D01*
X117353772Y-79191703D01*
X117518184Y-79159000D01*
X117685816Y-79159000D01*
X117850228Y-79191703D01*
X117850228Y-79191703D01*
G37*
G36*
X125470228Y-79191703D02*
G01*
X125625100Y-79255853D01*
X125764481Y-79348985D01*
X125883015Y-79467519D01*
X125976147Y-79606900D01*
X126040297Y-79761772D01*
X126073000Y-79926184D01*
X126073000Y-80093816D01*
X126040297Y-80258228D01*
X125976147Y-80413100D01*
X125883015Y-80552481D01*
X125764481Y-80671015D01*
X125625100Y-80764147D01*
X125470228Y-80828297D01*
X125305816Y-80861000D01*
X125138184Y-80861000D01*
X124973772Y-80828297D01*
X124818900Y-80764147D01*
X124679519Y-80671015D01*
X124560985Y-80552481D01*
X124467853Y-80413100D01*
X124403703Y-80258228D01*
X124371000Y-80093816D01*
X124371000Y-79926184D01*
X124403703Y-79761772D01*
X124467853Y-79606900D01*
X124560985Y-79467519D01*
X124679519Y-79348985D01*
X124818900Y-79255853D01*
X124973772Y-79191703D01*
X125138184Y-79159000D01*
X125305816Y-79159000D01*
X125470228Y-79191703D01*
X125470228Y-79191703D01*
G37*
G36*
X119908000Y-79262000D02*
G01*
X119106000Y-79262000D01*
X119106000Y-77560000D01*
X119908000Y-77560000D01*
X119908000Y-79262000D01*
X119908000Y-79262000D01*
G37*
G36*
X121178000Y-79262000D02*
G01*
X120376000Y-79262000D01*
X120376000Y-77560000D01*
X121178000Y-77560000D01*
X121178000Y-79262000D01*
X121178000Y-79262000D01*
G37*
G36*
X122448000Y-79262000D02*
G01*
X121646000Y-79262000D01*
X121646000Y-77560000D01*
X122448000Y-77560000D01*
X122448000Y-79262000D01*
X122448000Y-79262000D01*
G37*
G36*
X123718000Y-79262000D02*
G01*
X122916000Y-79262000D01*
X122916000Y-77560000D01*
X123718000Y-77560000D01*
X123718000Y-79262000D01*
X123718000Y-79262000D01*
G37*
G36*
X125470228Y-76651703D02*
G01*
X125625100Y-76715853D01*
X125764481Y-76808985D01*
X125883015Y-76927519D01*
X125976147Y-77066900D01*
X126040297Y-77221772D01*
X126073000Y-77386184D01*
X126073000Y-77553816D01*
X126040297Y-77718228D01*
X125976147Y-77873100D01*
X125883015Y-78012481D01*
X125764481Y-78131015D01*
X125625100Y-78224147D01*
X125470228Y-78288297D01*
X125305816Y-78321000D01*
X125138184Y-78321000D01*
X124973772Y-78288297D01*
X124818900Y-78224147D01*
X124679519Y-78131015D01*
X124560985Y-78012481D01*
X124467853Y-77873100D01*
X124403703Y-77718228D01*
X124371000Y-77553816D01*
X124371000Y-77386184D01*
X124403703Y-77221772D01*
X124467853Y-77066900D01*
X124560985Y-76927519D01*
X124679519Y-76808985D01*
X124818900Y-76715853D01*
X124973772Y-76651703D01*
X125138184Y-76619000D01*
X125305816Y-76619000D01*
X125470228Y-76651703D01*
X125470228Y-76651703D01*
G37*
G36*
X117850228Y-76651703D02*
G01*
X118005100Y-76715853D01*
X118144481Y-76808985D01*
X118263015Y-76927519D01*
X118356147Y-77066900D01*
X118420297Y-77221772D01*
X118453000Y-77386184D01*
X118453000Y-77553816D01*
X118420297Y-77718228D01*
X118356147Y-77873100D01*
X118263015Y-78012481D01*
X118144481Y-78131015D01*
X118005100Y-78224147D01*
X117850228Y-78288297D01*
X117685816Y-78321000D01*
X117518184Y-78321000D01*
X117353772Y-78288297D01*
X117198900Y-78224147D01*
X117059519Y-78131015D01*
X116940985Y-78012481D01*
X116847853Y-77873100D01*
X116783703Y-77718228D01*
X116751000Y-77553816D01*
X116751000Y-77386184D01*
X116783703Y-77221772D01*
X116847853Y-77066900D01*
X116940985Y-76927519D01*
X117059519Y-76808985D01*
X117198900Y-76715853D01*
X117353772Y-76651703D01*
X117518184Y-76619000D01*
X117685816Y-76619000D01*
X117850228Y-76651703D01*
X117850228Y-76651703D01*
G37*
G36*
X125470228Y-74111703D02*
G01*
X125625100Y-74175853D01*
X125764481Y-74268985D01*
X125883015Y-74387519D01*
X125976147Y-74526900D01*
X126040297Y-74681772D01*
X126073000Y-74846184D01*
X126073000Y-75013816D01*
X126040297Y-75178228D01*
X125976147Y-75333100D01*
X125883015Y-75472481D01*
X125764481Y-75591015D01*
X125625100Y-75684147D01*
X125470228Y-75748297D01*
X125305816Y-75781000D01*
X125138184Y-75781000D01*
X124973772Y-75748297D01*
X124818900Y-75684147D01*
X124679519Y-75591015D01*
X124560985Y-75472481D01*
X124467853Y-75333100D01*
X124403703Y-75178228D01*
X124371000Y-75013816D01*
X124371000Y-74846184D01*
X124403703Y-74681772D01*
X124467853Y-74526900D01*
X124560985Y-74387519D01*
X124679519Y-74268985D01*
X124818900Y-74175853D01*
X124973772Y-74111703D01*
X125138184Y-74079000D01*
X125305816Y-74079000D01*
X125470228Y-74111703D01*
X125470228Y-74111703D01*
G37*
G36*
X117850228Y-74111703D02*
G01*
X118005100Y-74175853D01*
X118144481Y-74268985D01*
X118263015Y-74387519D01*
X118356147Y-74526900D01*
X118420297Y-74681772D01*
X118453000Y-74846184D01*
X118453000Y-75013816D01*
X118420297Y-75178228D01*
X118356147Y-75333100D01*
X118263015Y-75472481D01*
X118144481Y-75591015D01*
X118005100Y-75684147D01*
X117850228Y-75748297D01*
X117685816Y-75781000D01*
X117518184Y-75781000D01*
X117353772Y-75748297D01*
X117198900Y-75684147D01*
X117059519Y-75591015D01*
X116940985Y-75472481D01*
X116847853Y-75333100D01*
X116783703Y-75178228D01*
X116751000Y-75013816D01*
X116751000Y-74846184D01*
X116783703Y-74681772D01*
X116847853Y-74526900D01*
X116940985Y-74387519D01*
X117059519Y-74268985D01*
X117198900Y-74175853D01*
X117353772Y-74111703D01*
X117518184Y-74079000D01*
X117685816Y-74079000D01*
X117850228Y-74111703D01*
X117850228Y-74111703D01*
G37*
G36*
X119908000Y-74332000D02*
G01*
X119106000Y-74332000D01*
X119106000Y-72630000D01*
X119908000Y-72630000D01*
X119908000Y-74332000D01*
X119908000Y-74332000D01*
G37*
G36*
X121178000Y-74332000D02*
G01*
X120376000Y-74332000D01*
X120376000Y-72630000D01*
X121178000Y-72630000D01*
X121178000Y-74332000D01*
X121178000Y-74332000D01*
G37*
G36*
X122448000Y-74332000D02*
G01*
X121646000Y-74332000D01*
X121646000Y-72630000D01*
X122448000Y-72630000D01*
X122448000Y-74332000D01*
X122448000Y-74332000D01*
G37*
G36*
X123718000Y-74332000D02*
G01*
X122916000Y-74332000D01*
X122916000Y-72630000D01*
X123718000Y-72630000D01*
X123718000Y-74332000D01*
X123718000Y-74332000D01*
G37*
G36*
X118453000Y-73241000D02*
G01*
X116751000Y-73241000D01*
X116751000Y-71539000D01*
X118453000Y-71539000D01*
X118453000Y-73241000D01*
X118453000Y-73241000D01*
G37*
G36*
X125470228Y-71571703D02*
G01*
X125625100Y-71635853D01*
X125764481Y-71728985D01*
X125883015Y-71847519D01*
X125976147Y-71986900D01*
X126040297Y-72141772D01*
X126073000Y-72306184D01*
X126073000Y-72473816D01*
X126040297Y-72638228D01*
X125976147Y-72793100D01*
X125883015Y-72932481D01*
X125764481Y-73051015D01*
X125625100Y-73144147D01*
X125470228Y-73208297D01*
X125305816Y-73241000D01*
X125138184Y-73241000D01*
X124973772Y-73208297D01*
X124818900Y-73144147D01*
X124679519Y-73051015D01*
X124560985Y-72932481D01*
X124467853Y-72793100D01*
X124403703Y-72638228D01*
X124371000Y-72473816D01*
X124371000Y-72306184D01*
X124403703Y-72141772D01*
X124467853Y-71986900D01*
X124560985Y-71847519D01*
X124679519Y-71728985D01*
X124818900Y-71635853D01*
X124973772Y-71571703D01*
X125138184Y-71539000D01*
X125305816Y-71539000D01*
X125470228Y-71571703D01*
X125470228Y-71571703D01*
G37*
G36*
X123626828Y-68015703D02*
G01*
X123781700Y-68079853D01*
X123921081Y-68172985D01*
X124039615Y-68291519D01*
X124132747Y-68430900D01*
X124196897Y-68585772D01*
X124229600Y-68750184D01*
X124229600Y-68917816D01*
X124196897Y-69082228D01*
X124132747Y-69237100D01*
X124039615Y-69376481D01*
X123921081Y-69495015D01*
X123781700Y-69588147D01*
X123626828Y-69652297D01*
X123462416Y-69685000D01*
X123294784Y-69685000D01*
X123130372Y-69652297D01*
X122975500Y-69588147D01*
X122836119Y-69495015D01*
X122717585Y-69376481D01*
X122624453Y-69237100D01*
X122560303Y-69082228D01*
X122527600Y-68917816D01*
X122527600Y-68750184D01*
X122560303Y-68585772D01*
X122624453Y-68430900D01*
X122717585Y-68291519D01*
X122836119Y-68172985D01*
X122975500Y-68079853D01*
X123130372Y-68015703D01*
X123294784Y-67983000D01*
X123462416Y-67983000D01*
X123626828Y-68015703D01*
X123626828Y-68015703D01*
G37*
G36*
X121126828Y-68015703D02*
G01*
X121281700Y-68079853D01*
X121421081Y-68172985D01*
X121539615Y-68291519D01*
X121632747Y-68430900D01*
X121696897Y-68585772D01*
X121729600Y-68750184D01*
X121729600Y-68917816D01*
X121696897Y-69082228D01*
X121632747Y-69237100D01*
X121539615Y-69376481D01*
X121421081Y-69495015D01*
X121281700Y-69588147D01*
X121126828Y-69652297D01*
X120962416Y-69685000D01*
X120794784Y-69685000D01*
X120630372Y-69652297D01*
X120475500Y-69588147D01*
X120336119Y-69495015D01*
X120217585Y-69376481D01*
X120124453Y-69237100D01*
X120060303Y-69082228D01*
X120027600Y-68917816D01*
X120027600Y-68750184D01*
X120060303Y-68585772D01*
X120124453Y-68430900D01*
X120217585Y-68291519D01*
X120336119Y-68172985D01*
X120475500Y-68079853D01*
X120630372Y-68015703D01*
X120794784Y-67983000D01*
X120962416Y-67983000D01*
X121126828Y-68015703D01*
X121126828Y-68015703D01*
G37*
G36*
X114664903Y-63313075D02*
G01*
X114892571Y-63407378D01*
X115097466Y-63544285D01*
X115271715Y-63718534D01*
X115408622Y-63923429D01*
X115502925Y-64151097D01*
X115551000Y-64392787D01*
X115551000Y-64639213D01*
X115502925Y-64880903D01*
X115408622Y-65108571D01*
X115271715Y-65313466D01*
X115097466Y-65487715D01*
X114892571Y-65624622D01*
X114892570Y-65624623D01*
X114892569Y-65624623D01*
X114664903Y-65718925D01*
X114423214Y-65767000D01*
X114176786Y-65767000D01*
X113935097Y-65718925D01*
X113707431Y-65624623D01*
X113707430Y-65624623D01*
X113707429Y-65624622D01*
X113502534Y-65487715D01*
X113328285Y-65313466D01*
X113191378Y-65108571D01*
X113097075Y-64880903D01*
X113049000Y-64639213D01*
X113049000Y-64392787D01*
X113097075Y-64151097D01*
X113191378Y-63923429D01*
X113328285Y-63718534D01*
X113502534Y-63544285D01*
X113707429Y-63407378D01*
X113935097Y-63313075D01*
X114176786Y-63265000D01*
X114423214Y-63265000D01*
X114664903Y-63313075D01*
X114664903Y-63313075D01*
G37*
G36*
X122923154Y-62974182D02*
G01*
X122991482Y-62987773D01*
X123088027Y-63027763D01*
X123184573Y-63067754D01*
X123358346Y-63183865D01*
X123506135Y-63331654D01*
X123622246Y-63505427D01*
X123702227Y-63698519D01*
X123743000Y-63903499D01*
X123743000Y-64112501D01*
X123702227Y-64317481D01*
X123622246Y-64510573D01*
X123506135Y-64684346D01*
X123358346Y-64832135D01*
X123184573Y-64948246D01*
X123088027Y-64988237D01*
X122991482Y-65028227D01*
X122923154Y-65041818D01*
X122786501Y-65069000D01*
X122577499Y-65069000D01*
X122440846Y-65041818D01*
X122372518Y-65028227D01*
X122275973Y-64988236D01*
X122179427Y-64948246D01*
X122005654Y-64832135D01*
X121857865Y-64684346D01*
X121741754Y-64510573D01*
X121661773Y-64317481D01*
X121621000Y-64112501D01*
X121621000Y-63903499D01*
X121661773Y-63698519D01*
X121741754Y-63505427D01*
X121857865Y-63331654D01*
X122005654Y-63183865D01*
X122179427Y-63067754D01*
X122275973Y-63027764D01*
X122372518Y-62987773D01*
X122440846Y-62974182D01*
X122577499Y-62947000D01*
X122786501Y-62947000D01*
X122923154Y-62974182D01*
X122923154Y-62974182D01*
G37*
G36*
X120383154Y-62974182D02*
G01*
X120451482Y-62987773D01*
X120548027Y-63027763D01*
X120644573Y-63067754D01*
X120818346Y-63183865D01*
X120966135Y-63331654D01*
X121082246Y-63505427D01*
X121162227Y-63698519D01*
X121203000Y-63903499D01*
X121203000Y-64112501D01*
X121162227Y-64317481D01*
X121082246Y-64510573D01*
X120966135Y-64684346D01*
X120818346Y-64832135D01*
X120644573Y-64948246D01*
X120548027Y-64988237D01*
X120451482Y-65028227D01*
X120383154Y-65041818D01*
X120246501Y-65069000D01*
X120037499Y-65069000D01*
X119900846Y-65041818D01*
X119832518Y-65028227D01*
X119735973Y-64988236D01*
X119639427Y-64948246D01*
X119465654Y-64832135D01*
X119317865Y-64684346D01*
X119201754Y-64510573D01*
X119121773Y-64317481D01*
X119081000Y-64112501D01*
X119081000Y-63903499D01*
X119121773Y-63698519D01*
X119201754Y-63505427D01*
X119317865Y-63331654D01*
X119465654Y-63183865D01*
X119639427Y-63067754D01*
X119735973Y-63027764D01*
X119832518Y-62987773D01*
X119900846Y-62974182D01*
X120037499Y-62947000D01*
X120246501Y-62947000D01*
X120383154Y-62974182D01*
X120383154Y-62974182D01*
G37*
M02*
