M48
; DRILL file {KiCad (5.1.2-1)-1} date Monday, October 11, 2021 at 05:55:11 PM
; FORMAT={-:-/ absolute / metric / decimal}
; #@! TF.CreationDate,2021-10-11T17:55:11-04:00
; #@! TF.GenerationSoftware,Kicad,Pcbnew,(5.1.2-1)-1
FMAT,2
METRIC
T1C0.400
T2C0.600
T3C0.700
T4C0.760
T5C0.800
T6C0.800
T7C1.020
%
G90
G05
T1
X112.674Y-85.293
X119.151Y-74.371
X123.723Y-73.431
X126.086Y-117.627
T2
X118.11Y-104.47
X119.61Y-104.47
T3
X121.463Y-91.643
X124.003Y-91.643
X114.097Y-91.643
X116.637Y-91.643
X117.094Y-132.334
X117.094Y-134.874
X120.904Y-132.334
X120.904Y-134.874
X122.631Y-78.969
X122.631Y-81.509
X114.3Y-121.006
X114.3Y-123.546
X118.516Y-79.451
X118.516Y-81.991
X123.342Y-121.133
X123.342Y-123.673
X113.767Y-106.324
X113.767Y-108.864
T4
X124.206Y-106.934
X124.231Y-98.425
T5
X113.817Y-128.005
X113.817Y-130.505
X118.821Y-95.656
X118.821Y-98.156
X123.546Y-113.502
X123.546Y-116.002
X118.618Y-110.682
X118.618Y-113.182
X124.435Y-127.98
X124.435Y-130.48
X117.373Y-71.628
X117.373Y-74.128
X118.821Y-117.617
X118.821Y-120.117
X114.3Y-64.516
X114.3Y-86.916
X114.376Y-74.625
X118.872Y-124.856
X118.872Y-127.356
T6
X115.824Y-138.43
X118.999Y-138.43
X122.174Y-138.43
T7
X118.44Y-64.364
X120.98Y-64.364
T0
M30
